%TF.GenerationSoftware,Altium Limited,Altium Designer,23.0.1 (38)*%
G04 Layer_Color=255*
%FSLAX45Y45*%
%MOMM*%
%TF.SameCoordinates,E0F799D9-27B4-45C1-BD14-B3F5E9977550*%
%TF.FilePolarity,Positive*%
%TF.FileFunction,Pads,Top*%
%TF.Part,Single*%
G01*
G75*
%TA.AperFunction,SMDPad,CuDef*%
%ADD11R,1.56000X0.28000*%
%ADD12R,0.28000X1.56000*%
%ADD13R,1.10000X1.00000*%
%ADD14R,1.40000X1.20000*%
%ADD15R,1.50000X1.30000*%
%ADD16R,1.00000X1.10000*%
%ADD17R,2.00000X1.40000*%
%ADD18R,1.70000X1.70000*%
%ADD19R,5.55000X6.30000*%
%ADD20R,0.90000X2.25000*%
%ADD21R,1.10000X1.50000*%
%ADD22R,1.30000X1.50000*%
%ADD23R,1.35000X1.80000*%
%ADD24R,1.20000X1.40000*%
%ADD25R,1.70000X1.70000*%
%ADD26R,2.20000X1.70000*%
%ADD27R,1.60000X2.70000*%
%ADD28R,2.40000X3.10000*%
%ADD29R,1.60000X0.70000*%
%ADD30R,2.50000X1.70000*%
G04:AMPARAMS|DCode=31|XSize=1.34mm|YSize=3.29mm|CornerRadius=0.1675mm|HoleSize=0mm|Usage=FLASHONLY|Rotation=0.000|XOffset=0mm|YOffset=0mm|HoleType=Round|Shape=RoundedRectangle|*
%AMROUNDEDRECTD31*
21,1,1.34000,2.95500,0,0,0.0*
21,1,1.00500,3.29000,0,0,0.0*
1,1,0.33500,0.50250,-1.47750*
1,1,0.33500,-0.50250,-1.47750*
1,1,0.33500,-0.50250,1.47750*
1,1,0.33500,0.50250,1.47750*
%
%ADD31ROUNDEDRECTD31*%
%ADD32R,2.05000X1.45000*%
%ADD33R,6.00000X10.00000*%
%ADD34R,4.03860X1.04140*%
%ADD35R,8.30580X10.74420*%
%ADD36R,4.00000X2.80000*%
%ADD37C,1.00000*%
%ADD38R,2.80000X4.00000*%
%ADD39R,1.40000X1.20000*%
%ADD40R,1.45000X0.86000*%
%ADD41R,0.86000X1.45000*%
%ADD42R,3.50000X3.50000*%
%TA.AperFunction,ComponentPad*%
%ADD48O,1.60000X2.00000*%
%ADD49C,2.00000*%
%ADD50O,2.00000X3.00000*%
%ADD51C,1.00000*%
%ADD52C,1.40000*%
%ADD53R,1.40000X1.40000*%
%ADD54R,3.81000X6.09600*%
%ADD55O,3.81000X6.09600*%
%ADD56C,2.79400*%
%ADD57C,1.50000*%
%ADD58R,1.50000X1.50000*%
%ADD59R,1.52400X2.03200*%
%ADD60O,1.52400X2.03200*%
%ADD61R,1.40000X1.40000*%
%TA.AperFunction,ViaPad*%
%ADD62C,6.00000*%
D11*
X7650495Y4255003D02*
D03*
Y4205000D02*
D03*
Y4155003D02*
D03*
Y4105001D02*
D03*
Y4055003D02*
D03*
Y4005001D02*
D03*
Y3955004D02*
D03*
Y3905001D02*
D03*
Y3855004D02*
D03*
Y3805001D02*
D03*
Y3755004D02*
D03*
Y3705001D02*
D03*
X6814500D02*
D03*
Y3755004D02*
D03*
Y3805001D02*
D03*
Y3855004D02*
D03*
Y3905001D02*
D03*
Y3955004D02*
D03*
Y4005001D02*
D03*
Y4055003D02*
D03*
Y4105001D02*
D03*
Y4155003D02*
D03*
Y4205000D02*
D03*
Y4255003D02*
D03*
D12*
X7507498Y3562005D02*
D03*
X7457496D02*
D03*
X7407499D02*
D03*
X7357496D02*
D03*
X7307499D02*
D03*
X7257496D02*
D03*
X7207499D02*
D03*
X7157496D02*
D03*
X7107499D02*
D03*
X7057497D02*
D03*
X7007499D02*
D03*
X6957497D02*
D03*
Y4398000D02*
D03*
X7007499D02*
D03*
X7057497D02*
D03*
X7107499D02*
D03*
X7157496D02*
D03*
X7207499D02*
D03*
X7257496D02*
D03*
X7307499D02*
D03*
X7357496D02*
D03*
X7407499D02*
D03*
X7457496D02*
D03*
X7507498D02*
D03*
D13*
X340473Y5586497D02*
D03*
X510470D02*
D03*
X6300084Y618805D02*
D03*
X6130082D02*
D03*
X6745087Y250002D02*
D03*
X6915084D02*
D03*
X6300165Y1066902D02*
D03*
X6130163D02*
D03*
X6130082Y1468806D02*
D03*
X6300084D02*
D03*
X8755085Y2320006D02*
D03*
X8925082D02*
D03*
X8925006Y2550003D02*
D03*
X8755004D02*
D03*
X8929924Y2780005D02*
D03*
X8759922D02*
D03*
X8755004Y3010002D02*
D03*
X8925006D02*
D03*
Y3250006D02*
D03*
X8755004D02*
D03*
X8755085Y3490956D02*
D03*
X8925082D02*
D03*
X8925006Y3739576D02*
D03*
X8755004D02*
D03*
X8755085Y4700854D02*
D03*
X8925082D02*
D03*
X8755167Y4460428D02*
D03*
X8925164D02*
D03*
X8755085Y4220002D02*
D03*
X8925082D02*
D03*
X8755085Y3980002D02*
D03*
X8925082D02*
D03*
X3048340Y7249998D02*
D03*
X3218343D02*
D03*
X3814999D02*
D03*
X3645002D02*
D03*
X1836034Y4556902D02*
D03*
X1666032D02*
D03*
X1640713Y4933498D02*
D03*
X1810710D02*
D03*
X1585712Y5958500D02*
D03*
X1415710D02*
D03*
X1080049D02*
D03*
X910052D02*
D03*
X340468Y5858500D02*
D03*
X510470D02*
D03*
X5734914Y4479996D02*
D03*
X5564916D02*
D03*
X5734914Y4219997D02*
D03*
X5564916D02*
D03*
X5734914Y3959997D02*
D03*
X5564916D02*
D03*
X4497583Y2848803D02*
D03*
X4327586D02*
D03*
X4875083D02*
D03*
X5045085D02*
D03*
X5734914Y3698997D02*
D03*
X5564916D02*
D03*
X5734914Y3178998D02*
D03*
X5564916D02*
D03*
Y3438571D02*
D03*
X5734914D02*
D03*
X509218Y5243004D02*
D03*
X339216D02*
D03*
X7480082Y2890001D02*
D03*
X7310085D02*
D03*
D14*
X4212839Y6934997D02*
D03*
Y6745000D02*
D03*
X4218920Y7304562D02*
D03*
Y7494560D02*
D03*
X5231420Y6189563D02*
D03*
Y6379561D02*
D03*
X4976078Y6382995D02*
D03*
Y6192998D02*
D03*
X4715581D02*
D03*
Y6382995D02*
D03*
D15*
X7057984Y828974D02*
D03*
Y638972D02*
D03*
X6656984Y643804D02*
D03*
Y833806D02*
D03*
D16*
X6976984Y1478890D02*
D03*
Y1308887D02*
D03*
X6702078Y1478969D02*
D03*
Y1308967D02*
D03*
X2234433Y4808494D02*
D03*
Y4978497D02*
D03*
X8250001Y2410399D02*
D03*
Y2580401D02*
D03*
X7999999Y2410480D02*
D03*
Y2580483D02*
D03*
X7770856Y2410399D02*
D03*
Y2580401D02*
D03*
X7024568Y2413559D02*
D03*
Y2583561D02*
D03*
X6784147D02*
D03*
Y2413559D02*
D03*
X6543721Y2583480D02*
D03*
Y2413478D02*
D03*
X9002126Y5234920D02*
D03*
Y5064917D02*
D03*
X8765398Y5234920D02*
D03*
Y5064917D02*
D03*
X8528675D02*
D03*
Y5234920D02*
D03*
X8291952Y5064917D02*
D03*
Y5234920D02*
D03*
X8055229D02*
D03*
Y5064917D02*
D03*
X7818506D02*
D03*
Y5234920D02*
D03*
X7581783D02*
D03*
Y5064917D02*
D03*
X7345060D02*
D03*
Y5234920D02*
D03*
X7108337D02*
D03*
Y5064917D02*
D03*
X6871614D02*
D03*
Y5234920D02*
D03*
X6634891D02*
D03*
Y5064917D02*
D03*
X6398163D02*
D03*
Y5234920D02*
D03*
X6161441Y5064917D02*
D03*
Y5234920D02*
D03*
X5924718D02*
D03*
Y5064917D02*
D03*
X5677499Y5067498D02*
D03*
Y5237500D02*
D03*
X5451272Y5064917D02*
D03*
Y5234920D02*
D03*
D17*
X6255085Y1878802D02*
D03*
X6895084D02*
D03*
X4920000Y3524921D02*
D03*
X4280002D02*
D03*
D18*
X8730000Y6982506D02*
D03*
Y7312508D02*
D03*
D19*
X4937501Y7462327D02*
D03*
X6120074Y7389998D02*
D03*
D20*
X5165501Y6802324D02*
D03*
X4709500D02*
D03*
X5892074Y6729994D02*
D03*
X6348075D02*
D03*
D21*
X3840079Y7575001D02*
D03*
X3620079D02*
D03*
X2670002Y2749362D02*
D03*
X2450003D02*
D03*
X2664998Y2381900D02*
D03*
X2444999D02*
D03*
D22*
X3038343Y7575000D02*
D03*
X3228345D02*
D03*
X3609680Y6876821D02*
D03*
X3799683D02*
D03*
X3038343D02*
D03*
X3228345D02*
D03*
X2095002Y2381900D02*
D03*
X1905000D02*
D03*
Y2751902D02*
D03*
X2095002D02*
D03*
X2382459Y3330001D02*
D03*
X2192457D02*
D03*
X2194997Y3699998D02*
D03*
X2384999D02*
D03*
Y4080000D02*
D03*
X2194997D02*
D03*
X1084997Y4933498D02*
D03*
X1274999D02*
D03*
Y4556902D02*
D03*
X1084997D02*
D03*
X6304798Y2583480D02*
D03*
X6114796D02*
D03*
X5744916Y2900070D02*
D03*
X5554914D02*
D03*
D23*
X4424998Y6333919D02*
D03*
X4090003D02*
D03*
X329474Y7550003D02*
D03*
X664474D02*
D03*
D24*
X3825438Y6333922D02*
D03*
X3635441D02*
D03*
X2194167Y4433257D02*
D03*
X2384164D02*
D03*
D25*
X3365002Y6340003D02*
D03*
X3035000D02*
D03*
X645528Y4983501D02*
D03*
X315526D02*
D03*
X665002Y4658506D02*
D03*
X335000D02*
D03*
D26*
X6470000Y6120498D02*
D03*
Y6374498D02*
D03*
X5649997D02*
D03*
Y6120498D02*
D03*
D27*
X2264430Y5358501D02*
D03*
X1984431D02*
D03*
X1985711Y5858500D02*
D03*
X2265710D02*
D03*
X2572517Y6578600D02*
D03*
X2292518D02*
D03*
X2270003Y7200001D02*
D03*
X2550003D02*
D03*
D28*
X1200714Y5433502D02*
D03*
D29*
X930712Y5624002D02*
D03*
Y5497002D02*
D03*
Y5370002D02*
D03*
Y5243002D02*
D03*
X1470716Y5624002D02*
D03*
Y5243002D02*
D03*
Y5370002D02*
D03*
Y5497002D02*
D03*
D30*
X1743583Y6603599D02*
D03*
X1337102D02*
D03*
X374218D02*
D03*
X780699D02*
D03*
D31*
X1730004Y7200001D02*
D03*
X1300002D02*
D03*
D32*
X642498Y7135002D02*
D03*
X357500D02*
D03*
D33*
X1510000Y3660003D02*
D03*
X450002Y3670000D02*
D03*
D34*
X1603746Y1109642D02*
D03*
Y1279822D02*
D03*
Y1450002D02*
D03*
Y1620182D02*
D03*
Y1790362D02*
D03*
D35*
X558536Y1450002D02*
D03*
D36*
X595000Y2480000D02*
D03*
X1225001D02*
D03*
D37*
X1729999Y390002D02*
D03*
X1280003D02*
D03*
D38*
X2409998Y1070000D02*
D03*
Y1700002D02*
D03*
D39*
X7279996Y2588478D02*
D03*
Y2418476D02*
D03*
X7499995D02*
D03*
Y2588478D02*
D03*
D40*
X5632999Y2220001D02*
D03*
Y2093001D02*
D03*
Y1966001D02*
D03*
Y1839001D02*
D03*
Y1712001D02*
D03*
Y1585001D02*
D03*
Y1458001D02*
D03*
Y1331001D02*
D03*
Y1204001D02*
D03*
Y1077001D02*
D03*
Y950001D02*
D03*
Y696001D02*
D03*
Y569001D02*
D03*
X3866998Y2220001D02*
D03*
Y2093001D02*
D03*
Y1966001D02*
D03*
Y1839001D02*
D03*
Y1712001D02*
D03*
Y1585001D02*
D03*
Y1458001D02*
D03*
Y1331001D02*
D03*
Y1204001D02*
D03*
Y1077001D02*
D03*
Y950001D02*
D03*
Y823001D02*
D03*
Y696001D02*
D03*
Y569001D02*
D03*
X5632999Y823001D02*
D03*
D41*
X4686498Y2353000D02*
D03*
X4559498D02*
D03*
X4432498D02*
D03*
X4305498D02*
D03*
X4178498D02*
D03*
X4813498D02*
D03*
X4940498D02*
D03*
X5067498D02*
D03*
X5194498D02*
D03*
X5321498D02*
D03*
D42*
X4895997Y1333002D02*
D03*
D48*
X8095000Y7214998D02*
D03*
X7841000D02*
D03*
X7587000D02*
D03*
X7333000D02*
D03*
X7206000Y6960998D02*
D03*
X7460000D02*
D03*
X7968000D02*
D03*
X7714000D02*
D03*
D49*
X8312500Y8340000D02*
D03*
X8058500D02*
D03*
X7241504D02*
D03*
X6987504D02*
D03*
D50*
X6875500Y7545000D02*
D03*
X8424504D02*
D03*
D51*
X7078502Y7849998D02*
D03*
X8221502D02*
D03*
D52*
X7830002Y1250000D02*
D03*
Y999998D02*
D03*
X4615002Y4617502D02*
D03*
X4365000D02*
D03*
X4114998D02*
D03*
X3865001D02*
D03*
X3614999D02*
D03*
X3272500Y3570000D02*
D03*
Y3319998D02*
D03*
Y3070001D02*
D03*
X3167497Y1385001D02*
D03*
Y1634998D02*
D03*
Y1885000D02*
D03*
D53*
X7830002Y750001D02*
D03*
X3272500Y3820003D02*
D03*
X3167497Y1134999D02*
D03*
D54*
X2226153Y7999999D02*
D03*
D55*
X1464153D02*
D03*
D56*
X2917002Y8427502D02*
D03*
X3425002D02*
D03*
X5687289Y8419998D02*
D03*
X6195289D02*
D03*
X5087498D02*
D03*
X4579498D02*
D03*
D57*
X3856000Y7956000D02*
D03*
X4110000Y8210000D02*
D03*
X3856000D02*
D03*
X2984002Y290002D02*
D03*
X2730002D02*
D03*
D58*
X4110000Y7956000D02*
D03*
X2476002Y290002D02*
D03*
D59*
X2987502Y5837499D02*
D03*
D60*
X3241502D02*
D03*
X3749502D02*
D03*
X4257502D02*
D03*
D61*
X3365002Y4617502D02*
D03*
D62*
X9005001Y8475000D02*
D03*
Y475839D02*
D03*
X515000D02*
D03*
Y8475000D02*
D03*
%TF.MD5,b2e264fa8d8c1d2d0887132f79725f58*%
M02*
