%TF.GenerationSoftware,Altium Limited,Altium Designer,23.0.1 (38)*%
G04 Layer_Color=16711935*
%FSLAX45Y45*%
%MOMM*%
%TF.SameCoordinates,E0F799D9-27B4-45C1-BD14-B3F5E9977550*%
%TF.FilePolarity,Positive*%
%TF.FileFunction,Other,Top_Assembly*%
%TF.Part,Single*%
G01*
G75*
%TA.AperFunction,NonConductor*%
%ADD64C,0.20000*%
G36*
X7900215Y1067585D02*
X7850196D01*
X7850289Y1067493D01*
X7850658Y1067030D01*
X7851213Y1066476D01*
X7851860Y1065551D01*
X7852692Y1064534D01*
X7853617Y1063240D01*
X7854634Y1061760D01*
X7855651Y1060096D01*
Y1060004D01*
X7855743Y1059911D01*
X7856113Y1059357D01*
X7856576Y1058432D01*
X7857130Y1057322D01*
X7857778Y1056028D01*
X7858425Y1054641D01*
X7859072Y1053254D01*
X7859627Y1051868D01*
X7852045D01*
Y1051960D01*
X7851860Y1052145D01*
X7851768Y1052515D01*
X7851491Y1052977D01*
X7851213Y1053532D01*
X7850843Y1054179D01*
X7849919Y1055751D01*
X7848902Y1057600D01*
X7847607Y1059449D01*
X7846128Y1061391D01*
X7844556Y1063332D01*
X7844464Y1063425D01*
X7844371Y1063517D01*
X7844094Y1063794D01*
X7843817Y1064164D01*
X7842892Y1064996D01*
X7841783Y1066106D01*
X7840488Y1067215D01*
X7839009Y1068417D01*
X7837530Y1069434D01*
X7835958Y1070359D01*
Y1075444D01*
X7900215D01*
Y1067585D01*
D02*
G37*
G36*
X7881909Y1035133D02*
X7882648D01*
X7884405Y1034948D01*
X7886439Y1034763D01*
X7888565Y1034393D01*
X7890507Y1033839D01*
X7892356Y1033191D01*
X7892449D01*
X7892541Y1033099D01*
X7893096Y1032822D01*
X7893835Y1032359D01*
X7894852Y1031712D01*
X7895869Y1030788D01*
X7896979Y1029771D01*
X7898088Y1028476D01*
X7899013Y1026997D01*
X7899105Y1026812D01*
X7899383Y1026257D01*
X7899753Y1025425D01*
X7900122Y1024223D01*
X7900585Y1022744D01*
X7900954Y1021080D01*
X7901232Y1019231D01*
X7901324Y1017197D01*
Y1016364D01*
X7901232Y1015810D01*
X7901139Y1015070D01*
X7901047Y1014330D01*
X7900677Y1012389D01*
X7900122Y1010355D01*
X7899290Y1008228D01*
X7898736Y1007119D01*
X7898088Y1006102D01*
X7897349Y1005177D01*
X7896517Y1004253D01*
X7896424Y1004160D01*
X7896332Y1004068D01*
X7895962Y1003883D01*
X7895592Y1003606D01*
X7895130Y1003236D01*
X7894483Y1002866D01*
X7893743Y1002496D01*
X7892911Y1002034D01*
X7891986Y1001664D01*
X7890877Y1001294D01*
X7889767Y1000924D01*
X7888473Y1000555D01*
X7887086Y1000370D01*
X7885514Y1000092D01*
X7883943Y1000000D01*
X7882186D01*
X7881076Y1007674D01*
X7881169D01*
X7881354D01*
X7881724D01*
X7882278Y1007766D01*
X7882833Y1007859D01*
X7883480D01*
X7885052Y1008136D01*
X7886716Y1008413D01*
X7888380Y1008968D01*
X7889860Y1009523D01*
X7890507Y1009893D01*
X7891062Y1010355D01*
X7891154Y1010447D01*
X7891432Y1010817D01*
X7891894Y1011372D01*
X7892356Y1012112D01*
X7892911Y1013129D01*
X7893281Y1014238D01*
X7893650Y1015625D01*
X7893743Y1017104D01*
Y1017659D01*
X7893650Y1018214D01*
X7893558Y1019046D01*
X7893373Y1019878D01*
X7893188Y1020802D01*
X7892818Y1021727D01*
X7892356Y1022651D01*
X7892264Y1022744D01*
X7892079Y1023021D01*
X7891709Y1023391D01*
X7891339Y1023946D01*
X7890692Y1024408D01*
X7890045Y1024963D01*
X7889305Y1025425D01*
X7888380Y1025795D01*
X7888288D01*
X7887918Y1025980D01*
X7887271Y1026072D01*
X7886439Y1026257D01*
X7885329Y1026442D01*
X7883943Y1026535D01*
X7882278Y1026720D01*
X7880337D01*
X7836235D01*
Y1035226D01*
X7879875D01*
X7879967D01*
X7880244D01*
X7880614D01*
X7881169D01*
X7881909Y1035133D01*
D02*
G37*
G36*
X4025224Y4691449D02*
Y4691356D01*
Y4691079D01*
Y4690709D01*
Y4690154D01*
X4025132Y4689415D01*
Y4688675D01*
X4024947Y4686918D01*
X4024762Y4684884D01*
X4024392Y4682758D01*
X4023838Y4680816D01*
X4023190Y4678967D01*
Y4678875D01*
X4023098Y4678782D01*
X4022821Y4678227D01*
X4022358Y4677488D01*
X4021711Y4676471D01*
X4020786Y4675454D01*
X4019769Y4674344D01*
X4018475Y4673235D01*
X4016996Y4672310D01*
X4016811Y4672218D01*
X4016256Y4671940D01*
X4015424Y4671571D01*
X4014222Y4671201D01*
X4012743Y4670738D01*
X4011079Y4670369D01*
X4009229Y4670091D01*
X4007195Y4669999D01*
X4006363D01*
X4005809Y4670091D01*
X4005069Y4670184D01*
X4004329Y4670276D01*
X4002388Y4670646D01*
X4000354Y4671201D01*
X3998227Y4672033D01*
X3997118Y4672588D01*
X3996101Y4673235D01*
X3995176Y4673974D01*
X3994252Y4674806D01*
X3994159Y4674899D01*
X3994067Y4674991D01*
X3993882Y4675361D01*
X3993604Y4675731D01*
X3993235Y4676193D01*
X3992865Y4676841D01*
X3992495Y4677580D01*
X3992033Y4678412D01*
X3991663Y4679337D01*
X3991293Y4680446D01*
X3990923Y4681556D01*
X3990553Y4682850D01*
X3990368Y4684237D01*
X3990091Y4685809D01*
X3989999Y4687381D01*
Y4689137D01*
X3997672Y4690247D01*
Y4690154D01*
Y4689969D01*
Y4689599D01*
X3997765Y4689045D01*
X3997857Y4688490D01*
Y4687843D01*
X3998135Y4686271D01*
X3998412Y4684607D01*
X3998967Y4682943D01*
X3999522Y4681463D01*
X3999891Y4680816D01*
X4000354Y4680261D01*
X4000446Y4680169D01*
X4000816Y4679892D01*
X4001371Y4679429D01*
X4002110Y4678967D01*
X4003127Y4678412D01*
X4004237Y4678042D01*
X4005624Y4677673D01*
X4007103Y4677580D01*
X4007658D01*
X4008212Y4677673D01*
X4009045Y4677765D01*
X4009877Y4677950D01*
X4010801Y4678135D01*
X4011726Y4678505D01*
X4012650Y4678967D01*
X4012743Y4679059D01*
X4013020Y4679244D01*
X4013390Y4679614D01*
X4013945Y4679984D01*
X4014407Y4680631D01*
X4014962Y4681278D01*
X4015424Y4682018D01*
X4015794Y4682943D01*
Y4683035D01*
X4015979Y4683405D01*
X4016071Y4684052D01*
X4016256Y4684884D01*
X4016441Y4685994D01*
X4016533Y4687381D01*
X4016718Y4689045D01*
Y4690986D01*
Y4735088D01*
X4025224D01*
Y4691449D01*
D02*
G37*
G36*
X4068864Y4693668D02*
X4077554D01*
Y4686456D01*
X4068864D01*
Y4671108D01*
X4061005D01*
Y4686456D01*
X4033176D01*
Y4693668D01*
X4062484Y4735088D01*
X4068864D01*
Y4693668D01*
D02*
G37*
G36*
X3201416Y3532740D02*
X3202156Y3532647D01*
X3202988Y3532462D01*
X3203913Y3532277D01*
X3204930Y3532093D01*
X3207149Y3531353D01*
X3208350Y3530798D01*
X3209460Y3530243D01*
X3210662Y3529504D01*
X3211864Y3528672D01*
X3213066Y3527747D01*
X3214175Y3526638D01*
X3214268Y3526545D01*
X3214453Y3526360D01*
X3214730Y3525990D01*
X3215100Y3525528D01*
X3215562Y3524973D01*
X3216024Y3524234D01*
X3216579Y3523402D01*
X3217041Y3522385D01*
X3217596Y3521368D01*
X3218151Y3520166D01*
X3218613Y3518964D01*
X3219075Y3517577D01*
X3219445Y3516098D01*
X3219723Y3514526D01*
X3219907Y3512954D01*
X3220000Y3511197D01*
Y3510365D01*
X3219907Y3509811D01*
X3219815Y3509071D01*
X3219723Y3508239D01*
X3219538Y3507314D01*
X3219353Y3506297D01*
X3218798Y3504078D01*
X3217873Y3501767D01*
X3217319Y3500565D01*
X3216671Y3499456D01*
X3215839Y3498346D01*
X3215007Y3497237D01*
X3214915Y3497144D01*
X3214730Y3496959D01*
X3214453Y3496682D01*
X3214083Y3496404D01*
X3213620Y3495942D01*
X3212973Y3495480D01*
X3212326Y3494925D01*
X3211494Y3494370D01*
X3210569Y3493816D01*
X3209645Y3493261D01*
X3207426Y3492244D01*
X3204837Y3491412D01*
X3203450Y3491134D01*
X3201971Y3490950D01*
X3200954Y3498808D01*
X3201046D01*
X3201231Y3498901D01*
X3201601Y3498993D01*
X3202063Y3499086D01*
X3202618Y3499178D01*
X3203265Y3499363D01*
X3204652Y3499825D01*
X3206316Y3500473D01*
X3207888Y3501305D01*
X3209367Y3502229D01*
X3210662Y3503339D01*
X3210754Y3503524D01*
X3211124Y3503893D01*
X3211586Y3504633D01*
X3212049Y3505558D01*
X3212603Y3506667D01*
X3213066Y3508054D01*
X3213436Y3509626D01*
X3213528Y3511290D01*
Y3511845D01*
X3213436Y3512214D01*
X3213343Y3513231D01*
X3213066Y3514526D01*
X3212603Y3516005D01*
X3211956Y3517577D01*
X3211032Y3519149D01*
X3209737Y3520628D01*
X3209552Y3520813D01*
X3208998Y3521275D01*
X3208166Y3521830D01*
X3207056Y3522570D01*
X3205669Y3523309D01*
X3204097Y3523864D01*
X3202248Y3524326D01*
X3200214Y3524511D01*
X3200122D01*
X3199937D01*
X3199660D01*
X3199290Y3524419D01*
X3198273Y3524326D01*
X3197071Y3524049D01*
X3195592Y3523679D01*
X3194112Y3523032D01*
X3192633Y3522107D01*
X3191246Y3520905D01*
X3191061Y3520720D01*
X3190691Y3520258D01*
X3190137Y3519518D01*
X3189489Y3518501D01*
X3188842Y3517207D01*
X3188288Y3515635D01*
X3187918Y3513879D01*
X3187733Y3511937D01*
Y3511105D01*
X3187825Y3510458D01*
X3187918Y3509626D01*
X3188103Y3508701D01*
X3188288Y3507592D01*
X3188565Y3506390D01*
X3181631Y3507314D01*
Y3507777D01*
X3181723Y3508146D01*
Y3509348D01*
X3181538Y3510365D01*
X3181353Y3511567D01*
X3181076Y3512954D01*
X3180614Y3514526D01*
X3179966Y3516005D01*
X3179134Y3517577D01*
Y3517669D01*
X3179042Y3517762D01*
X3178672Y3518224D01*
X3178025Y3518871D01*
X3177193Y3519611D01*
X3175991Y3520351D01*
X3174604Y3520998D01*
X3173032Y3521460D01*
X3172108Y3521645D01*
X3171091D01*
X3170998D01*
X3170906D01*
X3170351D01*
X3169611Y3521460D01*
X3168594Y3521275D01*
X3167485Y3520905D01*
X3166283Y3520443D01*
X3165081Y3519703D01*
X3163972Y3518686D01*
X3163879Y3518594D01*
X3163509Y3518132D01*
X3163047Y3517484D01*
X3162492Y3516652D01*
X3162030Y3515543D01*
X3161568Y3514248D01*
X3161198Y3512769D01*
X3161105Y3511105D01*
Y3510365D01*
X3161290Y3509533D01*
X3161475Y3508424D01*
X3161845Y3507222D01*
X3162307Y3506020D01*
X3163047Y3504726D01*
X3163972Y3503524D01*
X3164064Y3503431D01*
X3164526Y3503061D01*
X3165174Y3502507D01*
X3166098Y3501859D01*
X3167300Y3501212D01*
X3168779Y3500565D01*
X3170536Y3500010D01*
X3172570Y3499640D01*
X3171183Y3491782D01*
X3171091D01*
X3170813Y3491874D01*
X3170443Y3491967D01*
X3169889Y3492059D01*
X3169242Y3492244D01*
X3168502Y3492521D01*
X3166745Y3493076D01*
X3164711Y3494001D01*
X3162677Y3495110D01*
X3160736Y3496497D01*
X3158979Y3498254D01*
X3158886Y3498346D01*
X3158794Y3498531D01*
X3158609Y3498808D01*
X3158332Y3499178D01*
X3157962Y3499640D01*
X3157592Y3500288D01*
X3157222Y3500935D01*
X3156760Y3501767D01*
X3156020Y3503616D01*
X3155281Y3505743D01*
X3154818Y3508239D01*
X3154634Y3509533D01*
Y3511845D01*
X3154726Y3512862D01*
X3154911Y3514064D01*
X3155188Y3515543D01*
X3155651Y3517207D01*
X3156205Y3518871D01*
X3156945Y3520536D01*
Y3520628D01*
X3157037Y3520720D01*
X3157315Y3521275D01*
X3157869Y3522107D01*
X3158517Y3523032D01*
X3159441Y3524141D01*
X3160458Y3525251D01*
X3161660Y3526360D01*
X3163047Y3527285D01*
X3163232Y3527377D01*
X3163694Y3527655D01*
X3164526Y3528024D01*
X3165543Y3528487D01*
X3166745Y3528949D01*
X3168132Y3529319D01*
X3169704Y3529596D01*
X3171276Y3529689D01*
X3171461D01*
X3172015D01*
X3172755Y3529596D01*
X3173772Y3529411D01*
X3174974Y3529134D01*
X3176268Y3528672D01*
X3177563Y3528117D01*
X3178857Y3527377D01*
X3179042Y3527285D01*
X3179412Y3527007D01*
X3180059Y3526453D01*
X3180799Y3525713D01*
X3181631Y3524788D01*
X3182555Y3523679D01*
X3183387Y3522385D01*
X3184219Y3520813D01*
Y3520905D01*
X3184312Y3521090D01*
X3184404Y3521368D01*
X3184497Y3521737D01*
X3184867Y3522754D01*
X3185421Y3524049D01*
X3186161Y3525528D01*
X3187086Y3527007D01*
X3188288Y3528394D01*
X3189674Y3529689D01*
X3189859Y3529781D01*
X3190414Y3530151D01*
X3191339Y3530706D01*
X3192540Y3531260D01*
X3194020Y3531815D01*
X3195776Y3532370D01*
X3197810Y3532740D01*
X3200029Y3532832D01*
X3200122D01*
X3200399D01*
X3200862D01*
X3201416Y3532740D01*
D02*
G37*
G36*
X3200584Y3480132D02*
X3201324D01*
X3203080Y3479947D01*
X3205114Y3479762D01*
X3207241Y3479393D01*
X3209183Y3478838D01*
X3211032Y3478191D01*
X3211124D01*
X3211217Y3478098D01*
X3211771Y3477821D01*
X3212511Y3477359D01*
X3213528Y3476711D01*
X3214545Y3475787D01*
X3215654Y3474770D01*
X3216764Y3473475D01*
X3217689Y3471996D01*
X3217781Y3471811D01*
X3218058Y3471256D01*
X3218428Y3470424D01*
X3218798Y3469222D01*
X3219260Y3467743D01*
X3219630Y3466079D01*
X3219907Y3464230D01*
X3220000Y3462196D01*
Y3461364D01*
X3219907Y3460809D01*
X3219815Y3460069D01*
X3219723Y3459330D01*
X3219353Y3457388D01*
X3218798Y3455354D01*
X3217966Y3453228D01*
X3217411Y3452118D01*
X3216764Y3451101D01*
X3216024Y3450176D01*
X3215192Y3449252D01*
X3215100Y3449159D01*
X3215007Y3449067D01*
X3214637Y3448882D01*
X3214268Y3448605D01*
X3213805Y3448235D01*
X3213158Y3447865D01*
X3212419Y3447495D01*
X3211586Y3447033D01*
X3210662Y3446663D01*
X3209552Y3446293D01*
X3208443Y3445924D01*
X3207149Y3445554D01*
X3205762Y3445369D01*
X3204190Y3445091D01*
X3202618Y3444999D01*
X3200862D01*
X3199752Y3452673D01*
X3199845D01*
X3200029D01*
X3200399D01*
X3200954Y3452765D01*
X3201509Y3452858D01*
X3202156D01*
X3203728Y3453135D01*
X3205392Y3453412D01*
X3207056Y3453967D01*
X3208535Y3454522D01*
X3209183Y3454892D01*
X3209737Y3455354D01*
X3209830Y3455446D01*
X3210107Y3455816D01*
X3210569Y3456371D01*
X3211032Y3457111D01*
X3211586Y3458128D01*
X3211956Y3459237D01*
X3212326Y3460624D01*
X3212419Y3462103D01*
Y3462658D01*
X3212326Y3463213D01*
X3212234Y3464045D01*
X3212049Y3464877D01*
X3211864Y3465802D01*
X3211494Y3466726D01*
X3211032Y3467651D01*
X3210939Y3467743D01*
X3210754Y3468020D01*
X3210384Y3468390D01*
X3210015Y3468945D01*
X3209367Y3469407D01*
X3208720Y3469962D01*
X3207981Y3470424D01*
X3207056Y3470794D01*
X3206964D01*
X3206594Y3470979D01*
X3205947Y3471072D01*
X3205114Y3471256D01*
X3204005Y3471441D01*
X3202618Y3471534D01*
X3200954Y3471719D01*
X3199012D01*
X3154911D01*
Y3480225D01*
X3198550D01*
X3198643D01*
X3198920D01*
X3199290D01*
X3199845D01*
X3200584Y3480132D01*
D02*
G37*
G36*
X992440Y1495733D02*
X992370D01*
X992088D01*
X991666D01*
X991103Y1495803D01*
X990470Y1495873D01*
X989767Y1496014D01*
X989063Y1496155D01*
X988289Y1496436D01*
X988219D01*
X988148Y1496507D01*
X987726Y1496647D01*
X987093Y1496929D01*
X986249Y1497351D01*
X985264Y1497914D01*
X984138Y1498617D01*
X983012Y1499391D01*
X981816Y1500376D01*
X981746D01*
X981675Y1500517D01*
X981253Y1500869D01*
X980620Y1501502D01*
X979705Y1502417D01*
X978650Y1503472D01*
X977384Y1504809D01*
X975976Y1506427D01*
X974499Y1508186D01*
X974429Y1508256D01*
X974218Y1508538D01*
X973866Y1508960D01*
X973444Y1509452D01*
X972881Y1510086D01*
X972247Y1510860D01*
X971544Y1511634D01*
X970770Y1512548D01*
X969081Y1514307D01*
X967393Y1516066D01*
X966548Y1516910D01*
X965704Y1517684D01*
X964930Y1518388D01*
X964156Y1518951D01*
X964086D01*
X964016Y1519091D01*
X963805Y1519232D01*
X963523Y1519373D01*
X962749Y1519865D01*
X961834Y1520428D01*
X960709Y1520921D01*
X959513Y1521413D01*
X958176Y1521695D01*
X956909Y1521835D01*
X956839D01*
X956769D01*
X956347Y1521765D01*
X955643Y1521695D01*
X954869Y1521484D01*
X953884Y1521202D01*
X952899Y1520710D01*
X951914Y1520076D01*
X950929Y1519232D01*
X950788Y1519091D01*
X950507Y1518740D01*
X950155Y1518247D01*
X949663Y1517473D01*
X949240Y1516488D01*
X948818Y1515362D01*
X948537Y1514026D01*
X948466Y1512548D01*
Y1512126D01*
X948537Y1511845D01*
X948607Y1511000D01*
X948818Y1510015D01*
X949100Y1508960D01*
X949592Y1507764D01*
X950225Y1506638D01*
X951070Y1505583D01*
X951210Y1505442D01*
X951562Y1505161D01*
X952125Y1504738D01*
X952969Y1504316D01*
X953954Y1503824D01*
X955221Y1503402D01*
X956628Y1503120D01*
X958246Y1502979D01*
X957613Y1496858D01*
X957543D01*
X957332Y1496929D01*
X956980D01*
X956487Y1496999D01*
X955924Y1497140D01*
X955291Y1497280D01*
X954517Y1497492D01*
X953743Y1497703D01*
X952055Y1498265D01*
X950366Y1499110D01*
X949522Y1499602D01*
X948678Y1500236D01*
X947904Y1500869D01*
X947200Y1501572D01*
X947130Y1501643D01*
X947059Y1501783D01*
X946848Y1501994D01*
X946637Y1502346D01*
X946356Y1502768D01*
X946074Y1503261D01*
X945723Y1503824D01*
X945371Y1504527D01*
X945019Y1505301D01*
X944667Y1506146D01*
X944386Y1507060D01*
X944104Y1508045D01*
X943893Y1509101D01*
X943682Y1510226D01*
X943612Y1511422D01*
X943541Y1512689D01*
Y1513392D01*
X943612Y1513885D01*
X943682Y1514448D01*
X943752Y1515151D01*
X943893Y1515925D01*
X944034Y1516699D01*
X944526Y1518529D01*
X945230Y1520358D01*
X945652Y1521273D01*
X946145Y1522187D01*
X946778Y1523031D01*
X947481Y1523805D01*
X947552Y1523876D01*
X947622Y1524017D01*
X947904Y1524157D01*
X948185Y1524439D01*
X948537Y1524790D01*
X949029Y1525142D01*
X949522Y1525494D01*
X950155Y1525916D01*
X951492Y1526620D01*
X953180Y1527323D01*
X954025Y1527605D01*
X955010Y1527745D01*
X955995Y1527886D01*
X957050Y1527957D01*
X957191D01*
X957543D01*
X958106Y1527886D01*
X958879Y1527816D01*
X959724Y1527675D01*
X960709Y1527394D01*
X961764Y1527112D01*
X962820Y1526690D01*
X962960Y1526620D01*
X963312Y1526479D01*
X963875Y1526198D01*
X964649Y1525775D01*
X965493Y1525213D01*
X966548Y1524509D01*
X967604Y1523665D01*
X968800Y1522680D01*
X968941Y1522539D01*
X969363Y1522187D01*
X969715Y1521835D01*
X970066Y1521484D01*
X970489Y1521061D01*
X971051Y1520499D01*
X971614Y1519936D01*
X972247Y1519232D01*
X972951Y1518529D01*
X973725Y1517684D01*
X974499Y1516770D01*
X975414Y1515785D01*
X976328Y1514659D01*
X977313Y1513533D01*
X977384Y1513463D01*
X977524Y1513322D01*
X977735Y1513041D01*
X978017Y1512689D01*
X978439Y1512267D01*
X978861Y1511774D01*
X979776Y1510648D01*
X980831Y1509452D01*
X981887Y1508327D01*
X982801Y1507342D01*
X983153Y1506920D01*
X983505Y1506568D01*
X983575Y1506497D01*
X983786Y1506286D01*
X984068Y1506005D01*
X984490Y1505653D01*
X984982Y1505301D01*
X985475Y1504879D01*
X986671Y1504035D01*
Y1528027D01*
X992440D01*
Y1495733D01*
D02*
G37*
G36*
X973725Y1488204D02*
X974429D01*
X975273Y1488134D01*
X976117Y1488064D01*
X978017Y1487852D01*
X979987Y1487571D01*
X981887Y1487149D01*
X982801Y1486867D01*
X983645Y1486586D01*
X983716D01*
X983857Y1486516D01*
X984068Y1486375D01*
X984349Y1486234D01*
X985123Y1485812D01*
X986108Y1485179D01*
X987234Y1484335D01*
X988359Y1483350D01*
X989556Y1482083D01*
X990611Y1480535D01*
Y1480465D01*
X990752Y1480324D01*
X990822Y1480113D01*
X991033Y1479761D01*
X991244Y1479339D01*
X991455Y1478776D01*
X991666Y1478213D01*
X991948Y1477510D01*
X992229Y1476736D01*
X992440Y1475892D01*
X992651Y1474977D01*
X992862Y1473922D01*
X993003Y1472866D01*
X993144Y1471741D01*
X993285Y1469208D01*
Y1468574D01*
X993214Y1468082D01*
Y1467519D01*
X993144Y1466815D01*
X993073Y1466042D01*
X993003Y1465268D01*
X992722Y1463509D01*
X992300Y1461609D01*
X991737Y1459780D01*
X990963Y1458021D01*
Y1457950D01*
X990822Y1457810D01*
X990681Y1457599D01*
X990541Y1457317D01*
X989978Y1456543D01*
X989204Y1455629D01*
X988219Y1454573D01*
X987093Y1453588D01*
X985686Y1452603D01*
X984138Y1451829D01*
X984068D01*
X983927Y1451759D01*
X983645Y1451688D01*
X983294Y1451548D01*
X982872Y1451407D01*
X982309Y1451266D01*
X981675Y1451055D01*
X980902Y1450915D01*
X980057Y1450774D01*
X979143Y1450563D01*
X978158Y1450422D01*
X977102Y1450281D01*
X975906Y1450141D01*
X974640Y1450070D01*
X973303Y1450000D01*
X971896D01*
X943752D01*
Y1456473D01*
X971896D01*
X971966D01*
X972177D01*
X972529D01*
X972951D01*
X973444Y1456543D01*
X974077D01*
X975414Y1456614D01*
X976961Y1456754D01*
X978509Y1456965D01*
X979987Y1457247D01*
X980620Y1457387D01*
X981253Y1457599D01*
X981394Y1457669D01*
X981746Y1457810D01*
X982238Y1458161D01*
X982942Y1458584D01*
X983645Y1459076D01*
X984419Y1459780D01*
X985193Y1460624D01*
X985827Y1461609D01*
X985897Y1461750D01*
X986108Y1462101D01*
X986319Y1462735D01*
X986601Y1463579D01*
X986952Y1464564D01*
X987163Y1465830D01*
X987374Y1467167D01*
X987445Y1468645D01*
Y1469348D01*
X987374Y1469770D01*
Y1470404D01*
X987304Y1471037D01*
X987023Y1472585D01*
X986671Y1474273D01*
X986108Y1475892D01*
X985334Y1477440D01*
X984842Y1478143D01*
X984279Y1478776D01*
X984208Y1478847D01*
X984138Y1478917D01*
X983927Y1479058D01*
X983645Y1479269D01*
X983223Y1479480D01*
X982801Y1479761D01*
X982168Y1480043D01*
X981535Y1480324D01*
X980761Y1480606D01*
X979846Y1480817D01*
X978791Y1481098D01*
X977665Y1481309D01*
X976399Y1481520D01*
X975062Y1481661D01*
X973514Y1481802D01*
X971896D01*
X943752D01*
Y1488275D01*
X971896D01*
X971966D01*
X972247D01*
X972599D01*
X973092D01*
X973725Y1488204D01*
D02*
G37*
G36*
X3240245Y1502327D02*
X3240153D01*
X3239968D01*
X3239598D01*
X3239043Y1502235D01*
X3238489Y1502142D01*
X3237841D01*
X3236270Y1501865D01*
X3234605Y1501588D01*
X3232941Y1501033D01*
X3231462Y1500478D01*
X3230815Y1500108D01*
X3230260Y1499646D01*
X3230168Y1499554D01*
X3229890Y1499184D01*
X3229428Y1498629D01*
X3228966Y1497889D01*
X3228411Y1496872D01*
X3228041Y1495763D01*
X3227671Y1494376D01*
X3227579Y1492897D01*
Y1492342D01*
X3227671Y1491787D01*
X3227764Y1490955D01*
X3227949Y1490123D01*
X3228133Y1489198D01*
X3228503Y1488274D01*
X3228966Y1487349D01*
X3229058Y1487257D01*
X3229243Y1486979D01*
X3229613Y1486610D01*
X3229983Y1486055D01*
X3230630Y1485593D01*
X3231277Y1485038D01*
X3232017Y1484576D01*
X3232941Y1484206D01*
X3233034D01*
X3233403Y1484021D01*
X3234051Y1483928D01*
X3234883Y1483744D01*
X3235992Y1483559D01*
X3237379Y1483466D01*
X3239043Y1483281D01*
X3240985D01*
X3285086D01*
Y1474775D01*
X3241447D01*
X3241355D01*
X3241077D01*
X3240708D01*
X3240153D01*
X3239413Y1474868D01*
X3238673D01*
X3236917Y1475053D01*
X3234883Y1475238D01*
X3232756Y1475607D01*
X3230815Y1476162D01*
X3228966Y1476809D01*
X3228873D01*
X3228781Y1476902D01*
X3228226Y1477179D01*
X3227486Y1477641D01*
X3226469Y1478289D01*
X3225452Y1479213D01*
X3224343Y1480230D01*
X3223233Y1481525D01*
X3222309Y1483004D01*
X3222216Y1483189D01*
X3221939Y1483744D01*
X3221569Y1484576D01*
X3221199Y1485778D01*
X3220737Y1487257D01*
X3220367Y1488921D01*
X3220090Y1490770D01*
X3219997Y1492804D01*
Y1493636D01*
X3220090Y1494191D01*
X3220182Y1494931D01*
X3220275Y1495670D01*
X3220645Y1497612D01*
X3221199Y1499646D01*
X3222031Y1501772D01*
X3222586Y1502882D01*
X3223233Y1503899D01*
X3223973Y1504824D01*
X3224805Y1505748D01*
X3224898Y1505841D01*
X3224990Y1505933D01*
X3225360Y1506118D01*
X3225730Y1506395D01*
X3226192Y1506765D01*
X3226839Y1507135D01*
X3227579Y1507505D01*
X3228411Y1507967D01*
X3229335Y1508337D01*
X3230445Y1508707D01*
X3231554Y1509076D01*
X3232849Y1509446D01*
X3234236Y1509631D01*
X3235807Y1509909D01*
X3237379Y1510001D01*
X3239136D01*
X3240245Y1502327D01*
D02*
G37*
G36*
X3222864Y1465160D02*
X3223696Y1465067D01*
X3224620Y1464883D01*
X3225545Y1464698D01*
X3226562Y1464328D01*
X3226654D01*
X3226747Y1464235D01*
X3227301Y1464050D01*
X3228133Y1463681D01*
X3229243Y1463126D01*
X3230537Y1462386D01*
X3232017Y1461462D01*
X3233496Y1460445D01*
X3235068Y1459150D01*
X3235160D01*
X3235253Y1458965D01*
X3235807Y1458503D01*
X3236639Y1457671D01*
X3237841Y1456469D01*
X3239228Y1455082D01*
X3240892Y1453326D01*
X3242742Y1451199D01*
X3244683Y1448888D01*
X3244776Y1448795D01*
X3245053Y1448425D01*
X3245515Y1447871D01*
X3246070Y1447223D01*
X3246810Y1446391D01*
X3247642Y1445374D01*
X3248566Y1444357D01*
X3249583Y1443155D01*
X3251802Y1440844D01*
X3254021Y1438533D01*
X3255131Y1437423D01*
X3256240Y1436406D01*
X3257257Y1435482D01*
X3258274Y1434742D01*
X3258367D01*
X3258459Y1434557D01*
X3258736Y1434372D01*
X3259106Y1434187D01*
X3260123Y1433540D01*
X3261325Y1432800D01*
X3262804Y1432153D01*
X3264376Y1431506D01*
X3266133Y1431136D01*
X3267797Y1430951D01*
X3267890D01*
X3267982D01*
X3268537Y1431044D01*
X3269461Y1431136D01*
X3270478Y1431413D01*
X3271773Y1431783D01*
X3273067Y1432430D01*
X3274361Y1433263D01*
X3275656Y1434372D01*
X3275841Y1434557D01*
X3276211Y1435019D01*
X3276673Y1435666D01*
X3277320Y1436683D01*
X3277875Y1437978D01*
X3278430Y1439457D01*
X3278799Y1441214D01*
X3278892Y1443155D01*
Y1443710D01*
X3278799Y1444080D01*
X3278707Y1445189D01*
X3278430Y1446484D01*
X3278060Y1447871D01*
X3277413Y1449442D01*
X3276580Y1450922D01*
X3275471Y1452308D01*
X3275286Y1452493D01*
X3274824Y1452863D01*
X3274084Y1453418D01*
X3272975Y1453973D01*
X3271680Y1454620D01*
X3270016Y1455175D01*
X3268167Y1455544D01*
X3266040Y1455729D01*
X3266873Y1463773D01*
X3266965D01*
X3267242Y1463681D01*
X3267705D01*
X3268352Y1463588D01*
X3269092Y1463403D01*
X3269924Y1463218D01*
X3270941Y1462941D01*
X3271958Y1462664D01*
X3274177Y1461924D01*
X3276396Y1460814D01*
X3277505Y1460167D01*
X3278614Y1459335D01*
X3279631Y1458503D01*
X3280556Y1457578D01*
X3280649Y1457486D01*
X3280741Y1457301D01*
X3281018Y1457024D01*
X3281296Y1456561D01*
X3281666Y1456007D01*
X3282035Y1455360D01*
X3282498Y1454620D01*
X3282960Y1453695D01*
X3283422Y1452678D01*
X3283884Y1451569D01*
X3284254Y1450367D01*
X3284624Y1449073D01*
X3284901Y1447686D01*
X3285179Y1446206D01*
X3285271Y1444635D01*
X3285364Y1442970D01*
Y1442046D01*
X3285271Y1441399D01*
X3285179Y1440659D01*
X3285086Y1439734D01*
X3284901Y1438717D01*
X3284717Y1437700D01*
X3284069Y1435297D01*
X3283145Y1432893D01*
X3282590Y1431691D01*
X3281943Y1430489D01*
X3281111Y1429379D01*
X3280186Y1428362D01*
X3280094Y1428270D01*
X3280001Y1428085D01*
X3279631Y1427900D01*
X3279262Y1427530D01*
X3278799Y1427068D01*
X3278152Y1426606D01*
X3277505Y1426143D01*
X3276673Y1425589D01*
X3274916Y1424664D01*
X3272697Y1423740D01*
X3271588Y1423370D01*
X3270293Y1423185D01*
X3268999Y1423000D01*
X3267612Y1422907D01*
X3267427D01*
X3266965D01*
X3266225Y1423000D01*
X3265208Y1423092D01*
X3264099Y1423277D01*
X3262804Y1423647D01*
X3261418Y1424017D01*
X3260031Y1424572D01*
X3259846Y1424664D01*
X3259384Y1424849D01*
X3258644Y1425219D01*
X3257627Y1425774D01*
X3256517Y1426513D01*
X3255131Y1427438D01*
X3253744Y1428547D01*
X3252172Y1429842D01*
X3251987Y1430027D01*
X3251432Y1430489D01*
X3250970Y1430951D01*
X3250508Y1431413D01*
X3249953Y1431968D01*
X3249213Y1432708D01*
X3248474Y1433447D01*
X3247642Y1434372D01*
X3246717Y1435297D01*
X3245700Y1436406D01*
X3244683Y1437608D01*
X3243481Y1438902D01*
X3242279Y1440382D01*
X3240985Y1441861D01*
X3240892Y1441953D01*
X3240708Y1442138D01*
X3240430Y1442508D01*
X3240060Y1442970D01*
X3239506Y1443525D01*
X3238951Y1444172D01*
X3237749Y1445652D01*
X3236362Y1447223D01*
X3234975Y1448703D01*
X3233773Y1449997D01*
X3233311Y1450552D01*
X3232849Y1451014D01*
X3232756Y1451107D01*
X3232479Y1451384D01*
X3232109Y1451754D01*
X3231554Y1452216D01*
X3230907Y1452678D01*
X3230260Y1453233D01*
X3228688Y1454343D01*
Y1422815D01*
X3221107D01*
Y1465252D01*
X3221199D01*
X3221569D01*
X3222124D01*
X3222864Y1465160D01*
D02*
G37*
%LPC*%
G36*
X4061005Y4722329D02*
X4040849Y4693668D01*
X4061005D01*
Y4722329D01*
D02*
G37*
%LPD*%
D64*
X7584999Y495000D02*
X8179999D01*
Y1505001D01*
X7584999D02*
X8179999D01*
X7584999Y495000D02*
Y1505001D01*
X3110001Y4372498D02*
Y4967498D01*
Y4372498D02*
X4869998D01*
Y4967498D01*
X3110001D02*
X4869998D01*
X2922499Y2815001D02*
X3517499D01*
Y4074998D01*
X2922499D02*
X3517499D01*
X2922499Y2815001D02*
Y4074998D01*
X5529997Y5983500D02*
X6590000D01*
X5529997D02*
Y6511500D01*
X6590000D01*
Y5983500D02*
Y6511500D01*
X133243Y902795D02*
Y1997215D01*
X1815673D01*
Y902795D02*
Y1997215D01*
X133243Y902795D02*
X1815673D01*
X2922499Y2140001D02*
X3517499D01*
X2922499Y879998D02*
Y2140001D01*
Y879998D02*
X3517499D01*
Y2140001D01*
%TF.MD5,1d8e8abcf8bee1dbd196cded71bb25a9*%
M02*
