G04*
G04 #@! TF.GenerationSoftware,Altium Limited,Altium Designer,23.0.1 (38)*
G04*
G04 Layer_Physical_Order=1*
G04 Layer_Color=255*
%FSTAX44Y44*%
%MOMM*%
G71*
G04*
G04 #@! TF.SameCoordinates,F694FBC8-736E-493C-811D-9B4FADD6A984*
G04*
G04*
G04 #@! TF.FilePolarity,Positive*
G04*
G01*
G75*
%ADD14C,0.2540*%
%ADD22R,1.5600X0.2800*%
%ADD23R,0.2800X1.5600*%
%ADD24R,1.1000X1.0000*%
%ADD25R,1.4000X1.2000*%
%ADD26R,1.5000X1.3000*%
%ADD27R,1.0000X1.1000*%
%ADD28R,2.0000X1.4000*%
%ADD29R,1.7000X1.7000*%
%ADD30R,5.5500X6.3000*%
%ADD31R,0.9000X2.2500*%
%ADD32R,1.1000X1.5000*%
%ADD33R,1.3000X1.5000*%
%ADD34R,1.3500X1.8000*%
%ADD35R,1.2000X1.4000*%
%ADD36R,1.7000X1.7000*%
%ADD37R,2.2000X1.7000*%
%ADD38R,1.6000X2.7000*%
%ADD39R,2.4000X3.1000*%
%ADD40R,1.6000X0.7000*%
%ADD41R,2.5000X1.7000*%
G04:AMPARAMS|DCode=42|XSize=1.34mm|YSize=3.29mm|CornerRadius=0.1675mm|HoleSize=0mm|Usage=FLASHONLY|Rotation=0.000|XOffset=0mm|YOffset=0mm|HoleType=Round|Shape=RoundedRectangle|*
%AMROUNDEDRECTD42*
21,1,1.3400,2.9550,0,0,0.0*
21,1,1.0050,3.2900,0,0,0.0*
1,1,0.3350,0.5025,-1.4775*
1,1,0.3350,-0.5025,-1.4775*
1,1,0.3350,-0.5025,1.4775*
1,1,0.3350,0.5025,1.4775*
%
%ADD42ROUNDEDRECTD42*%
%ADD43R,2.0500X1.4500*%
%ADD44R,6.0000X10.0000*%
%ADD45R,4.0386X1.0414*%
%ADD46R,8.3058X10.7442*%
%ADD47R,4.0000X2.8000*%
%ADD48C,1.0000*%
%ADD49R,2.8000X4.0000*%
%ADD50R,1.4000X1.2000*%
%ADD51R,1.4500X0.8600*%
%ADD52R,0.8600X1.4500*%
%ADD53R,3.5000X3.5000*%
%ADD87C,1.4000*%
%ADD88R,1.4000X1.4000*%
%ADD96R,1.4000X1.4000*%
%ADD99C,0.3810*%
%ADD100C,1.0160*%
%ADD101C,0.7620*%
%ADD102C,0.5080*%
%ADD103C,1.5240*%
%ADD104O,1.6000X2.0000*%
%ADD105C,2.0000*%
%ADD106O,2.0000X3.0000*%
%ADD107R,3.8100X6.0960*%
%ADD108O,3.8100X6.0960*%
%ADD109C,2.7940*%
%ADD110C,1.5000*%
%ADD111R,1.5000X1.5000*%
%ADD112R,1.5240X2.0320*%
%ADD113O,1.5240X2.0320*%
%ADD114C,6.0000*%
%ADD115C,0.6000*%
G36*
X00952794Y-00002118D02*
X00000795D01*
Y00892882D01*
X00952794D01*
Y-00002118D01*
D02*
G37*
%LPC*%
G36*
X00619529Y0085609D02*
X00615882Y0085561D01*
X00612484Y00854203D01*
X00609565Y00851963D01*
X00607326Y00849045D01*
X00605918Y00845647D01*
X00605438Y00842D01*
X00605918Y00838353D01*
X00607326Y00834955D01*
X00609565Y00832036D01*
X00612484Y00829797D01*
X00615882Y00828389D01*
X00619529Y00827909D01*
X00623176Y00828389D01*
X00626574Y00829797D01*
X00629492Y00832036D01*
X00631732Y00834955D01*
X00633139Y00838353D01*
X00633619Y00842D01*
X00633139Y00845647D01*
X00631732Y00849045D01*
X00629492Y00851963D01*
X00626574Y00854203D01*
X00623176Y0085561D01*
X00619529Y0085609D01*
D02*
G37*
G36*
X0050875D02*
X00505103Y0085561D01*
X00501704Y00854203D01*
X00498786Y00851963D01*
X00496547Y00849045D01*
X00495139Y00845647D01*
X00494659Y00842D01*
X00495139Y00838353D01*
X00496547Y00834955D01*
X00498786Y00832036D01*
X00501704Y00829797D01*
X00505103Y00828389D01*
X0050875Y00827909D01*
X00512397Y00828389D01*
X00514262Y00829162D01*
X00517139Y00826286D01*
X00517338Y00827882D01*
X00519274Y00829176D01*
X00521574Y00831475D01*
X00522867Y00833411D01*
X00524464Y00833611D01*
X00521587Y00836487D01*
X0052236Y00838353D01*
X0052284Y00842D01*
X0052236Y00845647D01*
X00520953Y00849045D01*
X00518713Y00851963D01*
X00515795Y00854203D01*
X00512397Y0085561D01*
X0050875Y0085609D01*
D02*
G37*
G36*
X003425Y00856841D02*
X00338853Y00856361D01*
X00335455Y00854953D01*
X00332537Y00852714D01*
X00330297Y00849795D01*
X0032889Y00846397D01*
X0032841Y0084275D01*
X0032889Y00839103D01*
X00330297Y00835705D01*
X00332537Y00832787D01*
X00335455Y00830547D01*
X00337321Y00829775D01*
Y00826003D01*
X00338341Y00826759D01*
X00339264Y00826479D01*
X0034123Y00826285D01*
Y0084275D01*
X0034377D01*
Y00826285D01*
X00345737Y00826479D01*
X0034666Y00826759D01*
X0034768Y00826003D01*
Y00829775D01*
X00349546Y00830547D01*
X00352464Y00832787D01*
X00354703Y00835705D01*
X00356111Y00839103D01*
X00356591Y0084275D01*
X00356111Y00846397D01*
X00354703Y00849795D01*
X00352464Y00852714D01*
X00349546Y00854953D01*
X00346147Y00856361D01*
X003425Y00856841D01*
D02*
G37*
G36*
X0082625Y00863885D02*
X00703214D01*
X00701728Y00863589D01*
X00700467Y00862747D01*
X00696004Y00858283D01*
X00695162Y00857023D01*
X00694866Y00855536D01*
Y00843215D01*
X00693707Y00842735D01*
X00691618Y00841132D01*
X00690015Y00839043D01*
X00689008Y0083661D01*
X00688664Y00834D01*
X00689008Y00831389D01*
X00690015Y00828957D01*
X00691618Y00826868D01*
X00693707Y00825265D01*
X0069614Y00824257D01*
X0069875Y00823914D01*
X00701361Y00824257D01*
X00703794Y00825265D01*
X00705882Y00826868D01*
X00707485Y00828957D01*
X00708493Y00831389D01*
X00708837Y00834D01*
X00708493Y0083661D01*
X00707485Y00839043D01*
X00705882Y00841132D01*
X00703794Y00842735D01*
X00702635Y00843215D01*
Y00853927D01*
X00704823Y00856115D01*
X00824641D01*
X00827365Y00853391D01*
Y00843215D01*
X00826207Y00842735D01*
X00824118Y00841132D01*
X00822515Y00839043D01*
X00821507Y0083661D01*
X00821164Y00834D01*
X00821507Y00831389D01*
X00822515Y00828957D01*
X00824118Y00826868D01*
X00826207Y00825265D01*
X0082864Y00824257D01*
X0083125Y00823914D01*
X00833861Y00824257D01*
X00836293Y00825265D01*
X00838382Y00826868D01*
X00839985Y00828957D01*
X00840993Y00831389D01*
X00841336Y00834D01*
X00840993Y0083661D01*
X00839985Y00839043D01*
X00838382Y00841132D01*
X00836293Y00842735D01*
X00835135Y00843215D01*
Y00855D01*
X00834839Y00856487D01*
X00833997Y00857747D01*
X00828997Y00862747D01*
X00827737Y00863589D01*
X0082625Y00863885D01*
D02*
G37*
G36*
X0038687Y00830959D02*
Y0082227D01*
X00395559D01*
X00395382Y00823621D01*
X0039437Y00826063D01*
X00392761Y00828161D01*
X00390663Y0082977D01*
X00388221Y00830782D01*
X0038687Y00830959D01*
D02*
G37*
G36*
X0038433D02*
X00382979Y00830782D01*
X00380537Y0082977D01*
X00378439Y00828161D01*
X0037683Y00826063D01*
X00375818Y00823621D01*
X00375641Y0082227D01*
X0038433D01*
Y00830959D01*
D02*
G37*
G36*
X009005Y00877593D02*
X00895793Y00877222D01*
X00891201Y0087612D01*
X00886838Y00874313D01*
X00882812Y00871845D01*
X00879221Y00868779D01*
X00876155Y00865188D01*
X00873687Y00861162D01*
X0087188Y00856799D01*
X00870778Y00852207D01*
X00870407Y008475D01*
X00870778Y00842792D01*
X0087188Y00838201D01*
X00873687Y00833838D01*
X00876155Y00829812D01*
X00879221Y00826221D01*
X00882812Y00823154D01*
X00886838Y00820687D01*
X00891201Y0081888D01*
X00895793Y00817778D01*
X009005Y00817407D01*
X00905208Y00817778D01*
X00909799Y0081888D01*
X00914162Y00820687D01*
X00918188Y00823154D01*
X00921779Y00826221D01*
X00924846Y00829812D01*
X00927313Y00833838D01*
X0092912Y00838201D01*
X00930222Y00842792D01*
X00930593Y008475D01*
X00930222Y00852207D01*
X0092912Y00856799D01*
X00927313Y00861162D01*
X00924846Y00865188D01*
X00921779Y00868779D01*
X00918188Y00871845D01*
X00914162Y00874313D01*
X00909799Y0087612D01*
X00905208Y00877222D01*
X009005Y00877593D01*
D02*
G37*
G36*
X000515D02*
X00046792Y00877222D01*
X00042201Y0087612D01*
X00037838Y00874313D01*
X00033812Y00871845D01*
X00030221Y00868779D01*
X00027155Y00865188D01*
X00024687Y00861162D01*
X0002288Y00856799D01*
X00021778Y00852207D01*
X00021407Y008475D01*
X00021778Y00842792D01*
X0002288Y00838201D01*
X00024687Y00833838D01*
X00027155Y00829812D01*
X00030221Y00826221D01*
X00033812Y00823154D01*
X00037838Y00820687D01*
X00042201Y0081888D01*
X00046792Y00817778D01*
X000515Y00817407D01*
X00056208Y00817778D01*
X00060799Y0081888D01*
X00065162Y00820687D01*
X00069188Y00823154D01*
X00072779Y00826221D01*
X00075846Y00829812D01*
X00078313Y00833838D01*
X0008012Y00838201D01*
X00081222Y00842792D01*
X00081593Y008475D01*
X00081222Y00852207D01*
X0008012Y00856799D01*
X00078313Y00861162D01*
X00075846Y00865188D01*
X00072779Y00868779D01*
X00069188Y00871845D01*
X00065162Y00874313D01*
X00060799Y0087612D01*
X00056208Y00877222D01*
X000515Y00877593D01*
D02*
G37*
G36*
X00395559Y0081973D02*
X0038687D01*
Y00811041D01*
X00388221Y00811218D01*
X00390663Y0081223D01*
X00392761Y00813839D01*
X0039437Y00815937D01*
X00395382Y00818379D01*
X00395559Y0081973D01*
D02*
G37*
G36*
X0038433D02*
X00375641D01*
X00375818Y00818379D01*
X0037683Y00815937D01*
X00378439Y00813839D01*
X00380537Y0081223D01*
X00382979Y00811218D01*
X0038433Y00811041D01*
Y0081973D01*
D02*
G37*
G36*
X00147685Y00832999D02*
Y0080127D01*
X0016811D01*
Y0081143D01*
X00167693Y00815662D01*
X00166458Y00819732D01*
X00164454Y00823483D01*
X00161756Y0082677D01*
X00158468Y00829468D01*
X00154717Y00831473D01*
X00150648Y00832708D01*
X00147685Y00832999D01*
D02*
G37*
G36*
X00145145D02*
X00142183Y00832708D01*
X00138113Y00831473D01*
X00134362Y00829468D01*
X00131075Y0082677D01*
X00128377Y00823483D01*
X00126372Y00819732D01*
X00125138Y00815662D01*
X00124721Y0081143D01*
Y0080127D01*
X00145145D01*
Y00832999D01*
D02*
G37*
G36*
X0038433Y00805559D02*
X00382979Y00805382D01*
X00380537Y0080437D01*
X00378439Y00802761D01*
X0037683Y00800663D01*
X00375818Y00798221D01*
X00375641Y0079687D01*
X0038433D01*
Y00805559D01*
D02*
G37*
G36*
Y0079433D02*
X00375641D01*
X00375818Y00792979D01*
X0037683Y00790537D01*
X00378439Y00788439D01*
X00380537Y0078683D01*
X00382979Y00785818D01*
X0038433Y00785641D01*
Y0079433D01*
D02*
G37*
G36*
X003757Y00776833D02*
Y0077626D01*
X00376273D01*
X003757Y00776833D01*
D02*
G37*
G36*
X0082215Y0080158D02*
X00818916Y00801261D01*
X00815805Y00800318D01*
X00812939Y00798785D01*
X00810426Y00796723D01*
X00808365Y00794211D01*
X00806833Y00791345D01*
X00805889Y00788234D01*
X0080557Y00785D01*
X00805889Y00781765D01*
X00806833Y00778655D01*
X00808365Y00775788D01*
X00810426Y00773276D01*
X00812939Y00771214D01*
X00815805Y00769682D01*
X00818916Y00768738D01*
X0082215Y0076842D01*
X00825385Y00768738D01*
X00828495Y00769682D01*
X00831361Y00771214D01*
X00833874Y00773276D01*
X00835936Y00775788D01*
X00837468Y00778655D01*
X00838411Y00781765D01*
X0083873Y00785D01*
X00838411Y00788234D01*
X00837468Y00791345D01*
X00835936Y00794211D01*
X00833874Y00796723D01*
X00831361Y00798785D01*
X00828495Y00800318D01*
X00825385Y00801261D01*
X0082215Y0080158D01*
D02*
G37*
G36*
X0070785D02*
X00704616Y00801261D01*
X00701505Y00800318D01*
X00698639Y00798785D01*
X00696126Y00796723D01*
X00694065Y00794211D01*
X00692533Y00791345D01*
X00691589Y00788234D01*
X0069127Y00785D01*
X00691589Y00781765D01*
X00692533Y00778655D01*
X00694065Y00775788D01*
X00696126Y00773276D01*
X00698639Y00771214D01*
X00701505Y00769682D01*
X00704616Y00768738D01*
X0070785Y0076842D01*
X00711085Y00768738D01*
X00714195Y00769682D01*
X00717061Y00771214D01*
X00719574Y00773276D01*
X00721636Y00775788D01*
X00723168Y00778655D01*
X00724111Y00781765D01*
X0072443Y00785D01*
X00724111Y00788234D01*
X00723168Y00791345D01*
X00721636Y00794211D01*
X00719574Y00796723D01*
X00717061Y00798785D01*
X00714195Y00800318D01*
X00711085Y00801261D01*
X0070785Y0080158D01*
D02*
G37*
G36*
X0016811Y0079873D02*
X00147685D01*
Y00767001D01*
X00150648Y00767292D01*
X00154717Y00768527D01*
X00158468Y00770532D01*
X00161756Y0077323D01*
X00164454Y00776517D01*
X00166458Y00780268D01*
X00167693Y00784337D01*
X0016811Y0078857D01*
Y0079873D01*
D02*
G37*
G36*
X00145145D02*
X00124721D01*
Y0078857D01*
X00125138Y00784337D01*
X00126372Y00780268D01*
X00128377Y00776517D01*
X00131075Y0077323D01*
X00134362Y00770532D01*
X00138113Y00768527D01*
X00142183Y00767292D01*
X00145145Y00767001D01*
Y0079873D01*
D02*
G37*
G36*
X00241665Y0083048D02*
X00203565D01*
Y0076952D01*
X00204722D01*
Y0076698D01*
X00215081D01*
Y0076952D01*
X00241665D01*
Y0083048D01*
D02*
G37*
G36*
X00367803Y0077008D02*
X00366751Y0076754D01*
X00353968D01*
Y00761385D01*
X00331875D01*
Y0076754D01*
X00313794D01*
Y0074746D01*
X00331875D01*
Y00753615D01*
X00353968D01*
Y0074746D01*
X00370048D01*
Y00764243D01*
X00372588Y00765295D01*
X00371524Y00764855D01*
X00370468Y0076556D01*
Y00768168D01*
X00368154D01*
X00367449Y00769224D01*
X00367803Y0077008D01*
D02*
G37*
G36*
X0084245Y00769586D02*
X0083984Y00769243D01*
X00837407Y00768235D01*
X00835318Y00766632D01*
X00833715Y00764543D01*
X00832708Y00762111D01*
X00832364Y007595D01*
Y00755875D01*
X00697636D01*
Y007595D01*
X00697293Y00762111D01*
X00696285Y00764543D01*
X00694682Y00766632D01*
X00692593Y00768235D01*
X00690161Y00769243D01*
X0068755Y00769586D01*
X00684939Y00769243D01*
X00682507Y00768235D01*
X00680418Y00766632D01*
X00678815Y00764543D01*
X00677807Y00762111D01*
X00677464Y007595D01*
Y007495D01*
X00677807Y00746889D01*
X00678815Y00744457D01*
X00680418Y00742368D01*
X00682507Y00740765D01*
X00684939Y00739757D01*
X00686175Y00739595D01*
Y00693715D01*
X00686175Y00693715D01*
X00686578Y00692743D01*
X00688066Y00691255D01*
X00688066Y00691255D01*
X00689038Y00690853D01*
X00713286D01*
X00713612Y00690065D01*
X00714894Y00688394D01*
X00716565Y00687112D01*
X00718512Y00686306D01*
X007206Y00686031D01*
X00722688Y00686306D01*
X00724634Y00687112D01*
X00726306Y00688394D01*
X00727588Y00690065D01*
X00728394Y00692011D01*
X00728669Y006941D01*
Y006981D01*
X00728394Y00700188D01*
X00727588Y00702134D01*
X00726306Y00703805D01*
X00724634Y00705088D01*
X00722688Y00705894D01*
X007206Y00706169D01*
X00718512Y00705894D01*
X00716565Y00705088D01*
X00714894Y00703805D01*
X00713612Y00702134D01*
X00712806Y00700188D01*
X00712531Y006981D01*
Y006941D01*
X00712094Y00693602D01*
X00689607D01*
X00688925Y00694285D01*
Y00739595D01*
X00690161Y00739757D01*
X00692593Y00740765D01*
X00694682Y00742368D01*
X00696285Y00744457D01*
X00697293Y00746889D01*
X00697636Y007495D01*
Y00753125D01*
X00832364D01*
Y007495D01*
X00832708Y00746889D01*
X00833715Y00744457D01*
X00835318Y00742368D01*
X00837407Y00740765D01*
X0083984Y00739757D01*
X0084245Y00739414D01*
X00845061Y00739757D01*
X00847494Y00740765D01*
X00849583Y00742368D01*
X00851185Y00744457D01*
X00852193Y00746889D01*
X00852537Y007495D01*
Y00753125D01*
X00859431D01*
X00870265Y00742291D01*
X00869213Y00739751D01*
X008645D01*
Y00722751D01*
X008815D01*
Y00739751D01*
X00874798D01*
X00873802Y00742073D01*
X00873399Y00743045D01*
X00860972Y00755472D01*
X0086Y00755875D01*
X0086Y00755875D01*
X00852537D01*
Y007595D01*
X00852193Y00762111D01*
X00851185Y00764543D01*
X00849583Y00766632D01*
X00847494Y00768235D01*
X00845061Y00769243D01*
X0084245Y00769586D01*
D02*
G37*
G36*
X0045795Y0085609D02*
X00454303Y0085561D01*
X00450905Y00854203D01*
X00447986Y00851963D01*
X00445747Y00849045D01*
X00444339Y00845647D01*
X00443859Y00842D01*
X00444339Y00838353D01*
X00445747Y00834955D01*
X00447986Y00832036D01*
X00450905Y00829797D01*
X00454303Y00828389D01*
X0045536Y0082825D01*
Y00785783D01*
X00455557Y00784792D01*
X00456119Y00783952D01*
X00466Y0077407D01*
Y00714733D01*
X005215D01*
Y00777733D01*
X00469663D01*
X0046054Y00786856D01*
Y0082825D01*
X00461597Y00828389D01*
X00464995Y00829797D01*
X00467913Y00832036D01*
X00470153Y00834955D01*
X0047156Y00838353D01*
X0047204Y00842D01*
X0047156Y00845647D01*
X00470153Y00849045D01*
X00467913Y00851963D01*
X00464995Y00854203D01*
X00461597Y0085561D01*
X0045795Y0085609D01*
D02*
G37*
G36*
X002917Y00856841D02*
X00288053Y00856361D01*
X00284655Y00854953D01*
X00281737Y00852714D01*
X00279497Y00849795D01*
X0027809Y00846397D01*
X0027761Y0084275D01*
X0027809Y00839103D01*
X00279497Y00835705D01*
X00281737Y00832787D01*
X00284655Y00830547D01*
X00288053Y0082914D01*
X00290326Y00828841D01*
Y00770634D01*
X00290326Y00770634D01*
X00290728Y00769662D01*
X00297334Y00763056D01*
Y0075D01*
X0030396D01*
Y00742358D01*
X0030396Y00742358D01*
X00304362Y00741386D01*
X0030585Y00739898D01*
X0030585Y00739898D01*
X00306822Y00739495D01*
X00347561D01*
X00359Y00728056D01*
Y0072D01*
X00363125D01*
Y0071632D01*
X0036043Y00713624D01*
X003595Y00713809D01*
X0035833Y00713576D01*
X00357337Y00712913D01*
X00356674Y0071192D01*
X00356441Y0071075D01*
X00356674Y00709579D01*
X00357337Y00708587D01*
X00358125Y0070806D01*
Y00695182D01*
X00354468D01*
Y00680182D01*
X00367468D01*
Y00695182D01*
X00360875D01*
Y0070806D01*
X00361663Y00708587D01*
X00362326Y00709579D01*
X00362559Y0071075D01*
X00362374Y0071168D01*
X00365472Y00714778D01*
X00365875Y0071575D01*
X00365875Y0071575D01*
Y0072D01*
X0037D01*
Y0073D01*
X00360944D01*
X00349102Y00741842D01*
X0034813Y00742244D01*
X0034813Y00742244D01*
X00307392D01*
X00306709Y00742927D01*
Y0075D01*
X00310334D01*
Y00765D01*
X00299278D01*
X00293075Y00771204D01*
Y00828841D01*
X00295347Y0082914D01*
X00298745Y00830547D01*
X00301664Y00832787D01*
X00303903Y00835705D01*
X00305311Y00839103D01*
X00305791Y0084275D01*
X00305311Y00846397D01*
X00303903Y00849795D01*
X00301664Y00852714D01*
X00298745Y00854953D01*
X00295347Y00856361D01*
X002917Y00856841D01*
D02*
G37*
G36*
X007333Y00731569D02*
X00731212Y00731294D01*
X00729266Y00730488D01*
X00727594Y00729205D01*
X00726312Y00727534D01*
X00725506Y00725588D01*
X00725231Y007235D01*
Y007195D01*
X00725506Y00717411D01*
X00726312Y00715465D01*
X00727594Y00713794D01*
X00729266Y00712512D01*
X00731212Y00711706D01*
X007333Y00711431D01*
X00735388Y00711706D01*
X00737335Y00712512D01*
X00739006Y00713794D01*
X00740288Y00715465D01*
X00741094Y00717411D01*
X00741369Y007195D01*
Y007235D01*
X00741094Y00725588D01*
X00740288Y00727534D01*
X00739006Y00729205D01*
X00737335Y00730488D01*
X00735388Y00731294D01*
X007333Y00731569D01*
D02*
G37*
G36*
X007587Y00732594D02*
X00756346Y00732284D01*
X00754153Y00731375D01*
X0075227Y0072993D01*
X00750825Y00728047D01*
X00749916Y00725854D01*
X00749606Y007235D01*
Y007195D01*
X00749916Y00717146D01*
X00750825Y00714953D01*
X0075227Y0071307D01*
X00754153Y00711624D01*
X00756346Y00710716D01*
X007587Y00710406D01*
X00761054Y00710716D01*
X00763247Y00711624D01*
X0076513Y0071307D01*
X00766575Y00714953D01*
X00767484Y00717146D01*
X00767794Y007195D01*
Y007235D01*
X00767484Y00725854D01*
X00766575Y00728047D01*
X0076513Y0072993D01*
X00763247Y00731375D01*
X00761054Y00732284D01*
X007587Y00732594D01*
D02*
G37*
G36*
X00568729Y0085609D02*
X00565082Y0085561D01*
X00561684Y00854203D01*
X00558765Y00851963D01*
X00556526Y00849045D01*
X00555118Y00845647D01*
X00554638Y00842D01*
X00555118Y00838353D01*
X00556526Y00834955D01*
X00558765Y00832036D01*
X00561684Y00829797D01*
X00565082Y00828389D01*
X00566786Y00828165D01*
Y00786029D01*
X00566934Y00785286D01*
X00567355Y00784656D01*
X00567355Y00784655D01*
X00584257Y00767753D01*
Y007075D01*
X00639757D01*
Y007705D01*
X00587005D01*
X00570671Y00786833D01*
Y00828165D01*
X00572376Y00828389D01*
X00575774Y00829797D01*
X00578692Y00832036D01*
X00580932Y00834955D01*
X00582339Y00838353D01*
X00582819Y00842D01*
X00582339Y00845647D01*
X00580932Y00849045D01*
X00578692Y00851963D01*
X00575774Y00854203D01*
X00572376Y0085561D01*
X00568729Y0085609D01*
D02*
G37*
G36*
X0051782Y00705646D02*
Y0070152D01*
X00521946D01*
X00521769Y00702412D01*
X00520544Y00704244D01*
X00518712Y00705469D01*
X0051782Y00705646D01*
D02*
G37*
G36*
X0051528D02*
X00514389Y00705469D01*
X00512556Y00704244D01*
X00511332Y00702412D01*
X00511154Y0070152D01*
X0051528D01*
Y00705646D01*
D02*
G37*
G36*
X00521946Y0069898D02*
X0051782D01*
Y00694854D01*
X00518712Y00695032D01*
X00520544Y00696256D01*
X00521769Y00698088D01*
X00521946Y0069898D01*
D02*
G37*
G36*
X0051528D02*
X00511154D01*
X00511332Y00698088D01*
X00512556Y00696256D01*
X00514389Y00695032D01*
X0051528Y00694854D01*
Y0069898D01*
D02*
G37*
G36*
X0034202Y00693078D02*
Y00688952D01*
X00346146D01*
X00345969Y00689844D01*
X00344744Y00691676D01*
X00342912Y00692901D01*
X0034202Y00693078D01*
D02*
G37*
G36*
X0033948D02*
X00338588Y00692901D01*
X00336756Y00691676D01*
X00335532Y00689844D01*
X00335354Y00688952D01*
X0033948D01*
Y00693078D01*
D02*
G37*
G36*
X00346146Y00686412D02*
X0034202D01*
Y00682286D01*
X00342912Y00682464D01*
X00344744Y00683688D01*
X00345969Y0068552D01*
X00346146Y00686412D01*
D02*
G37*
G36*
X0033948D02*
X00335354D01*
X00335532Y0068552D01*
X00336756Y00683688D01*
X00338588Y00682464D01*
X0033948Y00682286D01*
Y00686412D01*
D02*
G37*
G36*
X0037647Y00666714D02*
X00375611Y00666544D01*
X00374488Y0066632D01*
X0037647Y00666714D01*
D02*
G37*
G36*
X00075737Y0076654D02*
X00057157D01*
Y0074346D01*
X00062563D01*
Y0072329D01*
X0005146D01*
Y0070371D01*
X0007704D01*
Y00709616D01*
X001095D01*
X00110986Y00709911D01*
X00112247Y00710753D01*
X00117609Y00716115D01*
X00120678D01*
Y00706504D01*
X00115727Y00701553D01*
X00114885Y00700293D01*
X0011459Y00698806D01*
Y00672172D01*
X00114885Y00670685D01*
X00115727Y00669425D01*
X0011867Y00666482D01*
Y0064932D01*
X0014875D01*
Y006714D01*
X0012474D01*
X00122359Y00673781D01*
Y00697197D01*
X00126089Y00700928D01*
X00135025D01*
X0013667Y00701255D01*
X00138064Y00702186D01*
X00138996Y0070358D01*
X00139323Y00705225D01*
Y00734775D01*
X00138996Y0073642D01*
X00138064Y00737814D01*
X0013667Y00738745D01*
X00135025Y00739073D01*
X00124975D01*
X00123331Y00738745D01*
X00121936Y00737814D01*
X00121005Y0073642D01*
X00120678Y00734775D01*
Y00723885D01*
X00116D01*
X00114513Y00723589D01*
X00113253Y00722747D01*
X00107891Y00717385D01*
X0007704D01*
Y0072329D01*
X00070332D01*
Y0074346D01*
X00075737D01*
Y0076654D01*
D02*
G37*
G36*
X00227309Y00637054D02*
Y00632998D01*
X00227457Y00632255D01*
X00227878Y00631625D01*
X00227993Y0063151D01*
X00227941Y0063125D01*
X00228174Y00630079D01*
X00228837Y00629087D01*
X0022983Y00628424D01*
X00231Y00628191D01*
X00232171Y00628424D01*
X00233163Y00629087D01*
X00233826Y00630079D01*
X00234059Y0063125D01*
X00233826Y00632421D01*
X00233163Y00633413D01*
X00232171Y00634076D01*
X00231194Y0063427D01*
Y0063679D01*
X00229898D01*
X0022858Y00636244D01*
X00227309Y00637054D01*
D02*
G37*
G36*
X00550936Y007845D02*
X00535564D01*
Y00640615D01*
X0055146D01*
Y0062641D01*
X0055146Y0062641D01*
X0055146D01*
X00551186Y00625195D01*
X0055146Y0062641D01*
X00553476Y0062641D01*
X0057854D01*
Y00637451D01*
X00579483D01*
X00581217Y00637796D01*
X00582687Y00638778D01*
X00592412Y00648503D01*
X00593394Y00649973D01*
X00593739Y00651707D01*
Y00659209D01*
X00596247D01*
Y00686789D01*
X00582167D01*
Y00659209D01*
X00584675D01*
Y00653585D01*
X00579276Y00648185D01*
X0057854Y0064849D01*
Y0064849D01*
X00566282D01*
Y00663311D01*
X00566969Y00664338D01*
X00567398Y006665D01*
X00566969Y00668662D01*
X00565744Y00670494D01*
X00563912Y00671719D01*
X0056175Y00672149D01*
X00559588Y00671719D01*
X00557756Y00670494D01*
X00556531Y00668662D01*
X00556101Y006665D01*
X00556531Y00664338D01*
X00557218Y00663311D01*
Y0064849D01*
X0055146Y0064849D01*
X00550936Y00650813D01*
Y007845D01*
D02*
G37*
G36*
X0072415Y00845111D02*
X00721275Y00844732D01*
X00718595Y00843622D01*
X00716294Y00841857D01*
X00714528Y00839556D01*
X00713418Y00836876D01*
X00713039Y00834D01*
X00713418Y00831124D01*
X0071411Y00829453D01*
X00707253Y00822596D01*
X00707253Y00822596D01*
X00662003Y00777346D01*
X00661161Y00776086D01*
X00660865Y007746D01*
Y00625495D01*
X0066054Y0062309D01*
X00658325Y0062309D01*
X0063346D01*
Y0060101D01*
X00642468D01*
Y00597532D01*
X00617268D01*
X00615534Y00597187D01*
X00614063Y00596205D01*
X00614063Y00596205D01*
X00592391Y00574532D01*
X00537515D01*
X00503827Y0060822D01*
X00504879Y0061076D01*
X00507148D01*
Y00615718D01*
X00509495Y0061669D01*
X00510433Y00615752D01*
X00511903Y00614769D01*
X00513602Y00614431D01*
Y00610416D01*
X00532682D01*
Y00627496D01*
X00532682D01*
Y00629416D01*
X00532682D01*
Y00646496D01*
X00527674D01*
Y0064895D01*
X00527674Y0064895D01*
X00527329Y00650684D01*
X00526347Y00652154D01*
X00514971Y0066353D01*
X00513501Y00664512D01*
X00511767Y00664857D01*
X00502387D01*
X00488532Y00678712D01*
Y00691D01*
X00488187Y00692734D01*
X00487205Y00694205D01*
X00483547Y00697862D01*
X00482077Y00698845D01*
X00480343Y0069919D01*
X00461064D01*
X00448362Y00711892D01*
Y0074538D01*
X00448017Y00747114D01*
X00447035Y00748585D01*
X00417482Y00778137D01*
Y00787084D01*
X00419516D01*
Y00804116D01*
X00407594D01*
X00406622Y00806463D01*
X00412808Y00812649D01*
X00413223Y00812703D01*
X00415295Y00813561D01*
X00417074Y00814926D01*
X00418439Y00816705D01*
X00419297Y00818777D01*
X0041959Y00821D01*
X00419297Y00823223D01*
X00418439Y00825295D01*
X00417074Y00827074D01*
X00415295Y00828439D01*
X00413223Y00829297D01*
X00411Y00829589D01*
X00408777Y00829297D01*
X00406705Y00828439D01*
X00404926Y00827074D01*
X00403561Y00825295D01*
X00402703Y00823223D01*
X00402411Y00821D01*
X00402703Y00818777D01*
X00403561Y00816705D01*
X00403772Y00816431D01*
X00395095Y00807754D01*
X00394113Y00806284D01*
X00393878Y00805105D01*
X00392427Y00804226D01*
X00391228Y00803937D01*
X00390663Y0080437D01*
X00388221Y00805382D01*
X0038687Y00805559D01*
Y007956D01*
Y00785641D01*
X00388221Y00785818D01*
X00390663Y0078683D01*
X00391228Y00787263D01*
X00393768Y00786011D01*
Y007437D01*
X00394113Y00741966D01*
X00395095Y00740495D01*
X00398514Y00737076D01*
X00399985Y00736094D01*
X00401719Y00735749D01*
X00401719Y00735749D01*
X00412352D01*
Y00721916D01*
X00410106Y00721208D01*
X00409498Y00721087D01*
X00408027Y00720104D01*
X00405796Y00717873D01*
X00404813Y00716402D01*
X00404468Y00714668D01*
Y00644932D01*
X00401872D01*
X00400862Y00644932D01*
X00399613Y00647431D01*
X00400219Y00648338D01*
X00400648Y006505D01*
X00400219Y00652662D01*
X00398994Y00654494D01*
X00397162Y00655719D01*
X00395Y00656149D01*
X00392838Y00655719D01*
X00391811Y00655032D01*
X00379652D01*
X00377918Y00654687D01*
X00376447Y00653705D01*
X00365675Y00642932D01*
X00355004D01*
Y00627312D01*
X00352658Y0062634D01*
X00345Y00633998D01*
Y006425D01*
X00338375D01*
Y0065256D01*
X00339163Y00653087D01*
X00339826Y0065408D01*
X00340059Y0065525D01*
X00339826Y00656421D01*
X00339163Y00657413D01*
X00338171Y00658076D01*
X00337Y00658309D01*
X0033583Y00658076D01*
X00334837Y00657413D01*
X00334174Y00656421D01*
X00333941Y0065525D01*
X00334174Y0065408D01*
X00334837Y00653087D01*
X00335625Y0065256D01*
Y006425D01*
X00328D01*
Y00628036D01*
X00328Y00627822D01*
X0032556Y00625401D01*
X00326078Y00625914D01*
X0032725Y00625426D01*
Y0062475D01*
X00329294D01*
X00333302Y00623953D01*
X00337079Y00622388D01*
X00340477Y00620118D01*
X00343368Y00617227D01*
X00345638Y00613829D01*
X00347203Y00610053D01*
X00348Y00606044D01*
Y00604D01*
Y00565D01*
X00348036Y00564265D01*
X00348323Y00562823D01*
X00348886Y00561465D01*
X00349702Y00560242D01*
X00350742Y00559202D01*
X00351964Y00558386D01*
X00353323Y00557823D01*
X00354765Y00557536D01*
X003555Y005575D01*
X004055D01*
X00406431Y00557546D01*
X00408258Y00557909D01*
X00409978Y00558622D01*
X00411527Y00559656D01*
X00412843Y00560973D01*
X00413878Y00562522D01*
X00414591Y00564242D01*
X00414954Y00566068D01*
X00415Y00567D01*
X00415D01*
Y00577295D01*
X0041627Y00577548D01*
X00416875Y00576086D01*
X00418504Y00573964D01*
X00420626Y00572335D01*
X00423098Y00571311D01*
X0042448Y00571129D01*
Y0058375D01*
Y0059637D01*
X00423098Y00596188D01*
X00420626Y00595165D01*
X00418504Y00593536D01*
X00416875Y00591414D01*
X0041627Y00589952D01*
X00415Y00590205D01*
Y0059625D01*
X00435188Y00600681D01*
X00435833Y00600505D01*
X00437023Y00599895D01*
X0043806Y00599052D01*
X00438901Y00598013D01*
X0043951Y00596822D01*
X0043986Y00595532D01*
X00439936Y00594197D01*
X00439813Y0059339D01*
X004395Y0059225D01*
X004395Y0059225D01*
X004395Y0059225D01*
X004395Y0057925D01*
X00430036Y00558866D01*
X0042731Y0055614D01*
X00419551Y00549429D01*
X00418283Y0055047D01*
X00420256Y00548851D01*
X00419747Y00548088D01*
X00419402Y00546354D01*
Y00470914D01*
X00416861Y00469661D01*
X00416311Y00470083D01*
X0041399Y00471045D01*
X004115Y00471372D01*
X00409009Y00471045D01*
X00406689Y00470083D01*
X00404696Y00468554D01*
X00403167Y00466561D01*
X00402205Y00464241D01*
X00401878Y0046175D01*
X00402205Y0045926D01*
X00403167Y00456939D01*
X00404696Y00454946D01*
X00406689Y00453417D01*
X00409009Y00452456D01*
X004115Y00452128D01*
X0041399Y00452456D01*
X00416311Y00453417D01*
X00416861Y00453839D01*
X00419402Y00452587D01*
Y00415643D01*
X00393043Y00389285D01*
X00392061Y00387814D01*
X00391716Y0038608D01*
Y00314043D01*
X00291795Y00214123D01*
X00290813Y00212653D01*
X00290468Y00210918D01*
Y00083272D01*
X00248166D01*
X00246431Y00082927D01*
X00244961Y00081945D01*
X00226795Y00063779D01*
X00225813Y00062309D01*
X00225468Y00060574D01*
Y000165D01*
X00225813Y00014766D01*
X00226795Y00013295D01*
X00232545Y00007545D01*
X00234016Y00006563D01*
X0023575Y00006218D01*
X0023575Y00006218D01*
X00383884D01*
X00385618Y00006563D01*
X00387088Y00007545D01*
X00415524Y00035981D01*
X00485513D01*
X00487247Y00036326D01*
X00488718Y00037308D01*
X00518269Y00066859D01*
X00518841Y00066784D01*
X00521011Y00064674D01*
X00521405Y00062692D01*
X00522528Y00061011D01*
X00524208Y00059889D01*
X00524576Y00059815D01*
X00524724Y00059717D01*
X00526706Y00059323D01*
X00528688Y00059717D01*
X00530368Y0006084D01*
X00533949Y0006442D01*
X0057515D01*
Y00074278D01*
X00576311Y00074794D01*
X00576326Y0007478D01*
X00574932Y0007604D01*
X00574735Y00077617D01*
X00574886Y00077768D01*
X00598681D01*
X00600415Y00078113D01*
X00601886Y00079095D01*
X00607698Y00084908D01*
X00607913Y00084951D01*
X00609383Y00085933D01*
X00616221Y00092771D01*
X00617203Y00094241D01*
X00617548Y00095975D01*
X00617548Y00095975D01*
Y0009915D01*
X00621056D01*
Y0011423D01*
X00617442D01*
Y00139341D01*
X00621048D01*
Y00154421D01*
X0061754D01*
Y0017834D01*
X00638049D01*
Y00194858D01*
X00703598D01*
X00704368Y00192318D01*
X00703704Y00191874D01*
X0070248Y00190042D01*
X00702302Y0018915D01*
X00713094D01*
X00712917Y00190042D01*
X00711693Y00191874D01*
X00711029Y00192318D01*
X00711799Y00194858D01*
X00784983D01*
X00795468Y00184373D01*
Y00118877D01*
X0078577Y00109179D01*
X00785491Y00109294D01*
X00783Y00109622D01*
X0078051Y00109294D01*
X00778189Y00108333D01*
X00776196Y00106804D01*
X00774667Y00104811D01*
X00773706Y0010249D01*
X00773378Y001D01*
X00773706Y00097509D01*
X00774667Y00095189D01*
X00776196Y00093196D01*
X00778189Y00091667D01*
X0078051Y00090705D01*
X00783Y00090378D01*
X00785491Y00090705D01*
X00787811Y00091667D01*
X00789804Y00093196D01*
X00791333Y00095189D01*
X00792295Y00097509D01*
X00792623Y001D01*
X00792295Y0010249D01*
X00792179Y00102769D01*
X00803205Y00113795D01*
X00804187Y00115265D01*
X00804532Y00117D01*
Y0018625D01*
X00804532Y0018625D01*
X00804187Y00187984D01*
X00803205Y00189455D01*
X00803205Y00189455D01*
X00793116Y00199543D01*
X00794088Y0020189D01*
X00816672D01*
X00818407Y00202235D01*
X00819877Y00203218D01*
X00829297Y00212638D01*
X0086945D01*
X00871184Y00212983D01*
X00872654Y00213965D01*
X00878713Y00220024D01*
X00878713Y00220024D01*
X00879696Y00221495D01*
X00880041Y00223229D01*
X0088204Y00224461D01*
X00883549D01*
Y00239115D01*
X00906605D01*
X00907376Y00236575D01*
X00906506Y00235994D01*
X00905282Y00234162D01*
X00905104Y0023327D01*
X00915896D01*
X00915719Y00234162D01*
X00914494Y00235994D01*
X00913624Y00236575D01*
X00914395Y00239115D01*
X00928165D01*
X00929652Y00239411D01*
X00930912Y00240253D01*
X00947497Y00256838D01*
X00948339Y00258098D01*
X00948635Y00259585D01*
Y0038575D01*
X00948339Y00387237D01*
X00947497Y00388497D01*
X00923897Y00412097D01*
X00922636Y00412939D01*
X0092115Y00413235D01*
X00864268D01*
X00842055Y00435447D01*
X00840795Y00436289D01*
X00839308Y00436585D01*
X00759457D01*
X00757971Y00436289D01*
X0075723Y00435794D01*
X0075469Y00436647D01*
Y00446207D01*
X00754714Y0044633D01*
Y0045534D01*
X00761383Y00462009D01*
X00762365Y00463479D01*
X0076271Y00465214D01*
X0076271Y00465214D01*
Y00498452D01*
X00765718D01*
Y00512912D01*
X00765718Y00514532D01*
X00765718Y00517164D01*
X00767514Y0051896D01*
X00774311D01*
Y00515452D01*
X00789391D01*
Y00531532D01*
X00786383D01*
Y00565497D01*
X00807455Y00586569D01*
X00808437Y0058804D01*
X00808782Y00589774D01*
X00808782Y00589774D01*
Y00640081D01*
X00808789D01*
X00808415Y00642923D01*
X00807367Y00645453D01*
X00807318Y00645571D01*
X00809387Y00646916D01*
X00809415Y0064688D01*
X00809633Y00646595D01*
X00811875Y00644875D01*
X00814486Y00643793D01*
X00817288Y00643425D01*
Y0064343D01*
X00825615D01*
X0082749Y00642469D01*
X00827758Y00640942D01*
Y00590895D01*
X0080427Y00567407D01*
X00803288Y00565937D01*
X00802943Y00564203D01*
Y00531532D01*
X00797983D01*
Y00517072D01*
X00797983Y00515452D01*
X00797983Y00512912D01*
Y00503946D01*
X00796041Y00502004D01*
X00795924Y00501828D01*
X00794794Y00501073D01*
X0079357Y00499241D01*
X0079314Y00497079D01*
X0079357Y00494917D01*
X00794794Y00493085D01*
X00796627Y00491861D01*
X00798788Y00491431D01*
X0080095Y00491861D01*
X00802782Y00493085D01*
X00804007Y00494917D01*
X00804437Y00497079D01*
X00805563Y00498452D01*
X00813063D01*
Y00512912D01*
X00813063Y00514532D01*
X00813063Y00517164D01*
X00814859Y0051896D01*
X00821655D01*
Y00515452D01*
X00836735D01*
Y00531532D01*
X00821655D01*
Y00528024D01*
X00813063D01*
Y00531532D01*
X00812007D01*
Y00562326D01*
X00835495Y00585813D01*
X00836478Y00587284D01*
X00836823Y00589018D01*
Y00642332D01*
X00836825D01*
X00836469Y00645039D01*
X00835424Y00647562D01*
X00833761Y00649729D01*
X00833759Y00649727D01*
X0083368Y0064978D01*
X00831799Y00651223D01*
X00829522Y00652166D01*
X00827172Y00652476D01*
X00827078Y00652494D01*
X00817288D01*
Y00652501D01*
X00816618Y00652634D01*
X00816051Y00653013D01*
X00815671Y00653581D01*
X00815538Y0065425D01*
X00815532D01*
Y00656953D01*
X00815526Y00656983D01*
X00815725Y00657982D01*
X00816308Y00658854D01*
X0081718Y00659436D01*
X00818179Y00659635D01*
X00818208Y00659629D01*
X00825579D01*
X00825993Y00659712D01*
X00827369Y00659893D01*
X00829037Y00660584D01*
X00830138Y00661429D01*
X0083049Y00661664D01*
X00830555Y00661761D01*
X00832432Y00664048D01*
X00833881Y0066676D01*
X00834774Y00669702D01*
X00835064Y00672647D01*
X00835087Y00672762D01*
Y00676035D01*
X0083508Y00676068D01*
X00835086Y006761D01*
X00834474Y00718984D01*
X00834295Y00719818D01*
X00834129Y00720653D01*
X00834111Y00720681D01*
X00834104Y00720713D01*
X0083362Y00721415D01*
X00833147Y00722124D01*
X00830566Y00724704D01*
X00830566Y00724704D01*
X00829096Y00725687D01*
X00827361Y00726032D01*
X0081821D01*
X00817375Y00728047D01*
X0081593Y0072993D01*
X00814047Y00731375D01*
X00811854Y00732284D01*
X008095Y00732594D01*
X00807146Y00732284D01*
X00804953Y00731375D01*
X0080307Y0072993D01*
X00801625Y00728047D01*
X00800716Y00725854D01*
X00800406Y007235D01*
Y007195D01*
X00800716Y00717146D01*
X00801625Y00714953D01*
X0080307Y0071307D01*
X00804953Y00711624D01*
X00807146Y00710716D01*
X008095Y00710406D01*
X00811854Y00710716D01*
X00814047Y00711624D01*
X0081593Y0071307D01*
X00817375Y00714953D01*
X0081821Y00716968D01*
X00825437D01*
X00826023Y00676003D01*
Y00672762D01*
X00826033Y00672711D01*
X00825813Y00671041D01*
X00825149Y00669438D01*
X00824578Y00668693D01*
X00818208D01*
Y00668707D01*
X00815166Y00668307D01*
X00812331Y00667132D01*
X00811322Y00666358D01*
X00808782Y0066761D01*
Y006961D01*
X00808437Y00697834D01*
X00807455Y00699305D01*
X00805984Y00700287D01*
X00805596Y00700364D01*
X00805584Y00700453D01*
X00804676Y00702647D01*
X0080323Y0070453D01*
X00801347Y00705975D01*
X00799154Y00706884D01*
X007968Y00707194D01*
X00794446Y00706884D01*
X00792253Y00705975D01*
X00791172Y00705146D01*
X00788673Y00706197D01*
X00788632Y00706236D01*
Y00711618D01*
X00788647Y00711624D01*
X0079053Y0071307D01*
X00791975Y00714953D01*
X00792884Y00717146D01*
X00793194Y007195D01*
Y007235D01*
X00792884Y00725854D01*
X00791975Y00728047D01*
X0079053Y0072993D01*
X00788647Y00731375D01*
X00786454Y00732284D01*
X007841Y00732594D01*
X00781746Y00732284D01*
X00779553Y00731375D01*
X0077767Y0072993D01*
X00776225Y00728047D01*
X00775316Y00725854D01*
X00775006Y007235D01*
Y007195D01*
X00775316Y00717146D01*
X00776225Y00714953D01*
X0077767Y0071307D01*
X00779553Y00711624D01*
X00779568Y00711618D01*
Y00706236D01*
X00779527Y00706197D01*
X00777028Y00705146D01*
X00775947Y00705975D01*
X00773754Y00706884D01*
X007714Y00707194D01*
X00769046Y00706884D01*
X00766853Y00705975D01*
X0076497Y0070453D01*
X00763525Y00702647D01*
X00762616Y00700453D01*
X00762306Y006981D01*
Y006941D01*
X00762616Y00691746D01*
X00763525Y00689553D01*
X0076497Y0068767D01*
X00766853Y00686224D01*
X00769046Y00685316D01*
X007714Y00685006D01*
X00773754Y00685316D01*
X00775947Y00686224D01*
X00777028Y00687054D01*
X00779527Y00686003D01*
X00779568Y00685963D01*
Y00669065D01*
X00777757Y00667253D01*
X0076398Y00667254D01*
X00763744Y00667207D01*
X00761825Y00666954D01*
X00760814Y00666627D01*
X00760814Y00666627D01*
X007608Y00666624D01*
X00760429Y00666376D01*
X00759429Y00665962D01*
X00757052Y00664138D01*
X00755228Y0066176D01*
X00754081Y00658992D01*
X00753756Y0065652D01*
X0075369Y00656021D01*
X0075369Y0065602D01*
X00753774Y00654158D01*
X00753954Y00652699D01*
X00754071Y00652265D01*
X0075417Y00651588D01*
X00754237Y0065108D01*
X00755069Y00649072D01*
X00755234Y00648856D01*
X00755333Y00648615D01*
X00755996Y00647617D01*
X00756359Y00647252D01*
X00757128Y0064625D01*
X00757833Y00645708D01*
X00757884Y00645633D01*
X00758253Y00645386D01*
X00758258Y00645382D01*
X00758574Y00645067D01*
X00758788Y00644979D01*
X00758949Y00644855D01*
X0075921Y00644747D01*
X00759354Y00644651D01*
X00759524Y00644617D01*
X00760957Y00644024D01*
X00762559Y00643812D01*
X0076289Y00643747D01*
X0076289Y00643746D01*
X00762996Y00643726D01*
X0076303Y00643732D01*
X00766546Y00643386D01*
X00767718Y0064303D01*
Y00630272D01*
X00722045Y005846D01*
X00721063Y0058313D01*
X00720718Y00581395D01*
Y00564096D01*
X00710428Y00553806D01*
X00709446Y00552336D01*
X00709101Y00550601D01*
Y00531532D01*
X00705724D01*
X00704641Y00531532D01*
X00702984Y00533708D01*
X00702994Y00534006D01*
X00703324Y00534499D01*
X00704219Y00535838D01*
X00704649Y00538D01*
X00704219Y00540162D01*
X00702994Y00541994D01*
X00701162Y00543218D01*
X00699Y00543648D01*
X00696838Y00543218D01*
X00695006Y00541994D01*
X00693781Y00540162D01*
X00693737Y00539941D01*
X00690068D01*
X00688581Y00539645D01*
X00687321Y00538803D01*
X00684415Y00535897D01*
X00683572Y00534636D01*
X00683277Y0053315D01*
Y00531532D01*
X00679621D01*
Y00517072D01*
X00679621Y00515452D01*
X00679621Y00512912D01*
Y00498452D01*
X00694701D01*
Y00502607D01*
X00703294D01*
Y00498452D01*
X00718374D01*
Y00502607D01*
X00726966D01*
Y00498452D01*
X00742046D01*
Y00512912D01*
X00742046Y00514532D01*
X00742046Y00517072D01*
Y00531532D01*
X00741618D01*
X00740566Y00534072D01*
X00745871Y00539377D01*
X00746Y00539352D01*
X00748162Y00539781D01*
X00749994Y00541006D01*
X00751219Y00542838D01*
X00751648Y00545D01*
X00751219Y00547162D01*
X00749994Y00548994D01*
X00748162Y00550219D01*
X00746Y00550648D01*
X00743838Y00550219D01*
X00742006Y00548994D01*
X00740781Y00547162D01*
X00740351Y00545D01*
X00740377Y00544871D01*
X00731759Y00536253D01*
X00730917Y00534993D01*
X00730621Y00533506D01*
Y00531532D01*
X00726966D01*
Y00517072D01*
X00726966Y00515452D01*
X00726966Y00512916D01*
X00726955Y00510376D01*
X0072017D01*
X00718374Y00512173D01*
X00718374Y00514532D01*
X00718374Y00517072D01*
Y00531532D01*
X00718165D01*
Y00548724D01*
X00728455Y00559014D01*
X00729437Y00560484D01*
X00729782Y00562219D01*
X00729782Y00562219D01*
Y00579518D01*
X00775455Y00625191D01*
X00776437Y00626661D01*
X00776782Y00628395D01*
X00776782Y00628395D01*
Y00641097D01*
X00776782Y00643619D01*
X00776779Y00643635D01*
X00776779D01*
X0077673Y00643881D01*
X00776482Y0064576D01*
X00775651Y00647768D01*
X00774327Y00649493D01*
X00772954Y00650547D01*
X00772603Y00650816D01*
X00771511Y00651268D01*
X00771238Y00651451D01*
X00770758Y0065158D01*
X00770758Y0065158D01*
X00770738Y00651564D01*
X00767131Y0065243D01*
X00765863Y0065253D01*
X00763523Y00652721D01*
X0076291Y00655164D01*
X00762839Y0065562D01*
X00763671Y00657863D01*
X00764049Y00658115D01*
X00764228Y00658189D01*
X00775587Y00658189D01*
X00777345Y00658189D01*
X00779631Y00656309D01*
X00779655Y00656278D01*
X00779554Y00655513D01*
X00779568D01*
Y0065281D01*
X00779562D01*
X00779931Y00650008D01*
X00781013Y00647397D01*
X00782733Y00645155D01*
X00784975Y00643435D01*
X00787586Y00642354D01*
X00790388Y00641985D01*
Y0064199D01*
X00797809D01*
Y00641987D01*
X00798538Y00641842D01*
X00799156Y00641429D01*
X0079957Y00640811D01*
X00799715Y00640081D01*
X00799718D01*
Y00591651D01*
X00778646Y00570579D01*
X00777663Y00569109D01*
X00777318Y00567375D01*
Y00531532D01*
X00774311D01*
Y00528024D01*
X00765718D01*
Y00531532D01*
X00750638D01*
Y00517072D01*
X00750638Y00515452D01*
X00750638Y00512912D01*
Y00498452D01*
X00753646D01*
Y00469373D01*
X00752699Y0046864D01*
X00749744Y00468723D01*
X00747911Y00469948D01*
X0074575Y00470378D01*
X00743588Y00469948D01*
X00741756Y00468723D01*
X00740644Y0046706D01*
X00740531Y00466891D01*
X00740462Y0046678D01*
X00740211Y00466412D01*
X00737692Y00467126D01*
Y00475966D01*
X00738496Y00476503D01*
X00739339Y00477763D01*
X00739634Y0047925D01*
X00739339Y00480737D01*
X00738496Y00481997D01*
X00737236Y00482839D01*
X0073575Y00483135D01*
X0069575D01*
X00694263Y00482839D01*
X00693003Y00481997D01*
X00692161Y00480737D01*
X00691865Y0047925D01*
X00692161Y00477763D01*
X00693003Y00476503D01*
X00694123Y00475755D01*
Y00467185D01*
X00694271Y00466442D01*
X00694691Y00465813D01*
Y00452276D01*
X00694691Y00452276D01*
X00695093Y00451304D01*
X00696258Y0045014D01*
X00695206Y004476D01*
X0069435D01*
Y00436036D01*
X0069181Y00434984D01*
X00629054Y00497739D01*
X00627794Y00498581D01*
X00626308Y00498877D01*
X00623684D01*
Y00503099D01*
X00632276D01*
Y00498452D01*
X00647356D01*
Y00502607D01*
X00655949D01*
Y00498452D01*
X00671029D01*
Y00512912D01*
X00671029Y00514532D01*
X00671029Y00517072D01*
Y00531532D01*
X00669507D01*
Y00538956D01*
X00749205Y00618654D01*
X00750187Y00620124D01*
X00750532Y00621858D01*
Y00640307D01*
X00750538D01*
X00750169Y00643107D01*
X00749088Y00645717D01*
X00747368Y00647959D01*
X00747364Y00647955D01*
X00747261Y00648023D01*
X00744998Y00649881D01*
X00742308Y00651319D01*
X0073939Y00652204D01*
X00736476Y00652491D01*
X00736355Y00652515D01*
X00734537D01*
X0073448Y00652601D01*
X00734089Y00655111D01*
X00734921Y00657355D01*
X00735299Y00657607D01*
X00735478Y00657681D01*
X00741467Y00657681D01*
X00741703Y00657728D01*
X00743622Y00657981D01*
X0074563Y00658813D01*
X00746668Y00659609D01*
X00746921Y00659734D01*
X0074747Y00660156D01*
X00747695Y00660399D01*
X00747913Y00660545D01*
X00747914Y00660546D01*
X007484Y00661032D01*
X007484Y00661032D01*
X00748711Y00661497D01*
X00748711Y00661497D01*
X00748809Y00661644D01*
X00749401Y00662415D01*
X00750232Y00664423D01*
X00750485Y00666342D01*
X00750532Y00666578D01*
Y00686218D01*
X00750547Y00686224D01*
X0075243Y0068767D01*
X00753876Y00689553D01*
X00754784Y00691746D01*
X00755094Y006941D01*
Y006981D01*
X00754784Y00700453D01*
X00753876Y00702647D01*
X0075243Y0070453D01*
X00750547Y00705975D01*
X00748354Y00706884D01*
X00746Y00707194D01*
X00743646Y00706884D01*
X00741453Y00705975D01*
X0073957Y0070453D01*
X00738125Y00702647D01*
X00737216Y00700453D01*
X00736906Y006981D01*
Y006941D01*
X00737216Y00691746D01*
X00738125Y00689553D01*
X0073957Y0068767D01*
X00741453Y00686224D01*
X00741468Y00686218D01*
Y00669182D01*
X00739023Y00666745D01*
X0073523Y00666745D01*
X00734994Y00666699D01*
X00733075Y00666446D01*
X00732064Y00666118D01*
X00732064Y00666118D01*
X0073205Y00666116D01*
X00731679Y00665868D01*
X00730679Y00665454D01*
X00728302Y0066363D01*
X00726478Y00661252D01*
X00725331Y00658484D01*
X00725006Y00656012D01*
X0072494Y00655513D01*
X0072494Y00655512D01*
X00725024Y0065365D01*
X00725204Y0065219D01*
X00725321Y00651757D01*
X0072542Y0065108D01*
X00725487Y00650572D01*
X00726319Y00648564D01*
X00726485Y00648348D01*
X00726583Y00648107D01*
X00727246Y00647109D01*
X00727617Y00646736D01*
X00728314Y00645828D01*
X00730038Y00644504D01*
X00731625Y00643847D01*
X00731702Y00643796D01*
X00731806Y00643772D01*
X00732046Y00643673D01*
X0073254Y00643608D01*
X00732544Y00643628D01*
X00733436Y00643451D01*
X00736355D01*
X00736573Y00643494D01*
X00738877Y00643036D01*
X00738997Y00642956D01*
X00739989Y00642237D01*
X00741461Y00640307D01*
X00741468Y006403D01*
Y00623736D01*
X0066177Y00544038D01*
X00661731Y0054398D01*
X00661166Y00543848D01*
X00658793Y00544154D01*
X00658064Y00545244D01*
X00656232Y00546469D01*
X0065407Y00546899D01*
X00651908Y00546469D01*
X00650076Y00545244D01*
X00650003Y00545135D01*
X00643817D01*
X0064233Y00544839D01*
X0064107Y00543997D01*
X0063707Y00539996D01*
X00636227Y00538736D01*
X00635932Y00537249D01*
Y00531532D01*
X00632276D01*
Y00517072D01*
X00632276Y00515452D01*
X00632276Y00512664D01*
X0063048Y00510868D01*
X0062548D01*
X00623684Y00512664D01*
X00623684Y00514532D01*
X00623684Y00517072D01*
Y00531532D01*
X00620029D01*
Y00538047D01*
X00693097Y00611115D01*
X00708512D01*
X00709999Y00611411D01*
X00711259Y00612253D01*
X00712747Y00613741D01*
X00713589Y00615001D01*
X00713885Y00616488D01*
Y00635933D01*
X00713994Y00636006D01*
X00715219Y00637838D01*
X00715648Y0064D01*
X00715219Y00642162D01*
X00713994Y00643994D01*
X00712162Y00645219D01*
X0071Y00645648D01*
X00707838Y00645219D01*
X00706006Y00643994D01*
X00704781Y00642162D01*
X00704352Y0064D01*
X00704781Y00637838D01*
X00706006Y00636006D01*
X00706115Y00635933D01*
Y00618885D01*
X00691488D01*
X00690001Y00618589D01*
X00688741Y00617747D01*
X00671175Y00600181D01*
X00668635Y00601233D01*
Y0077299D01*
X00712747Y00817103D01*
X00712747Y00817103D01*
X00719604Y0082396D01*
X00721275Y00823268D01*
X0072415Y00822889D01*
X00727026Y00823268D01*
X00729706Y00824378D01*
X00732007Y00826143D01*
X00733773Y00828444D01*
X00734883Y00831124D01*
X00735262Y00834D01*
X00734883Y00836876D01*
X00733773Y00839556D01*
X00732007Y00841857D01*
X00729706Y00843622D01*
X00727026Y00844732D01*
X0072415Y00845111D01*
D02*
G37*
G36*
X0009311Y006714D02*
X0006303D01*
Y0064932D01*
X00073538D01*
Y00642519D01*
X00073883Y00640785D01*
X00074865Y00639315D01*
X00103017Y00611163D01*
X00103031Y00611088D01*
X00103473Y00610428D01*
Y00605186D01*
X00101677Y0060339D01*
X00099965D01*
X00097425Y0060339D01*
X00082965D01*
Y0058831D01*
X00087121D01*
Y0056844D01*
X00082531D01*
Y0055636D01*
X00103611D01*
Y0056844D01*
X0009489D01*
Y00586514D01*
X00096686Y0058831D01*
X00099045Y0058831D01*
X00101585Y0058831D01*
X00109635D01*
X0011965Y00578295D01*
X0011965Y00578295D01*
X00121121Y00577313D01*
X00122855Y00576968D01*
X00122855Y00576968D01*
X00134071D01*
X00140059Y0057098D01*
X00139007Y0056844D01*
X00136532D01*
Y0055636D01*
X00157612D01*
Y0056844D01*
X00153132D01*
X00151604Y00570377D01*
X00151259Y00572111D01*
X00150276Y00573581D01*
X00150276Y00573581D01*
X00139153Y00584705D01*
X00137683Y00585687D01*
X00135948Y00586032D01*
X00124732D01*
X00116045Y00594719D01*
Y0060339D01*
X0011266D01*
Y00609878D01*
X00113469Y00611088D01*
X00113898Y0061325D01*
X00113469Y00615412D01*
X00112244Y00617244D01*
X00110412Y00618469D01*
X0010825Y00618899D01*
X00108125Y00618874D01*
X00082602Y00644397D01*
Y0064932D01*
X0009311D01*
Y006714D01*
D02*
G37*
G36*
X0055777Y0059547D02*
Y0059D01*
X0055523D01*
Y0059547D01*
X00553362Y00594697D01*
X0055259Y00593925D01*
X0055132Y00594451D01*
Y0059D01*
X00551714Y00588018D01*
X00552837Y00586338D01*
X00554518Y00585215D01*
X005565Y00584821D01*
X00558482Y00585215D01*
X00560162Y00586338D01*
X00561285Y00588018D01*
X00561679Y0059D01*
Y00594451D01*
X00560409Y00593925D01*
X00559638Y00594697D01*
X0055777Y0059547D01*
D02*
G37*
G36*
X0075725Y00598148D02*
X00755088Y00597719D01*
X00753256Y00596494D01*
X00752031Y00594662D01*
X00751601Y005925D01*
X00752031Y00590338D01*
X00753256Y00588506D01*
X00755088Y00587281D01*
X0075725Y00586852D01*
X00759412Y00587281D01*
X00761244Y00588506D01*
X00762469Y00590338D01*
X00762899Y005925D01*
X00762469Y00594662D01*
X00761244Y00596494D01*
X00759412Y00597719D01*
X0075725Y00598148D01*
D02*
G37*
G36*
X0042702Y0059637D02*
Y0058502D01*
X00435998D01*
Y0058629D01*
X00435649Y00588942D01*
X00434625Y00591414D01*
X00432996Y00593536D01*
X00430874Y00595165D01*
X00428402Y00596188D01*
X0042702Y0059637D01*
D02*
G37*
G36*
X0032288D02*
X00321498Y00596188D01*
X00319026Y00595165D01*
X00316904Y00593536D01*
X00315275Y00591414D01*
X00314252Y00588942D01*
X00313902Y0058629D01*
Y0058502D01*
X0032288D01*
Y0059637D01*
D02*
G37*
G36*
X00179768Y00587223D02*
X00176845Y005843D01*
X00176057Y00584826D01*
X00174886Y00585059D01*
X00173716Y00584826D01*
X00173192Y00584476D01*
X0017136Y00586308D01*
X0017019Y00585138D01*
X00169792Y00584178D01*
X00168294Y0058388D01*
X00167574Y005846D01*
X00171548Y00580627D01*
X00171548Y00580627D01*
X00172178Y00580206D01*
X00172523Y00580137D01*
X00172723Y00579837D01*
X00173716Y00579174D01*
X00174886Y00578941D01*
X00176057Y00579174D01*
X00177049Y00579837D01*
X00177197Y00580058D01*
X00177292D01*
X00178035Y00580206D01*
X00178665Y00580627D01*
X00181946Y00583908D01*
X001816Y00583561D01*
X0018011Y00583867D01*
X00179583Y00585138D01*
X00178633Y00586088D01*
X00179768Y00587223D01*
D02*
G37*
G36*
X0032542Y0059637D02*
Y0058375D01*
Y00571129D01*
X00326802Y00571311D01*
X00329274Y00572335D01*
X00331396Y00573964D01*
X00331671Y00574321D01*
X00333825Y0057359D01*
X00332456Y00574054D01*
X00331832Y00593233D01*
X00334211Y00594041D01*
X00331671Y00593179D01*
X00331396Y00593536D01*
X00329274Y00595165D01*
X00326802Y00596188D01*
X0032542Y0059637D01*
D02*
G37*
G36*
X00435998Y0058248D02*
X0042702D01*
Y00571129D01*
X00428402Y00571311D01*
X00430874Y00572335D01*
X00432996Y00573964D01*
X00434625Y00576086D01*
X00435649Y00578558D01*
X00435998Y0058121D01*
Y0058248D01*
D02*
G37*
G36*
X0032288D02*
X00313902D01*
Y0058121D01*
X00314252Y00578558D01*
X00315275Y00576086D01*
X00316904Y00573964D01*
X00319026Y00572335D01*
X00321498Y00571311D01*
X0032288Y00571129D01*
Y0058248D01*
D02*
G37*
G36*
X00300996Y00598644D02*
X00301179Y0059772D01*
X00300137Y0059645D01*
X0030002D01*
Y0058375D01*
Y0057105D01*
X0030393D01*
Y0057359D01*
X0030637D01*
Y0059391D01*
X0030139D01*
Y00596662D01*
X00300996Y00598644D01*
D02*
G37*
G36*
X0029748Y0059645D02*
X00289097D01*
X00291031Y00594517D01*
Y0058629D01*
X0029113Y0058579D01*
Y0057359D01*
X00293571D01*
Y0057105D01*
X0029748D01*
Y0058375D01*
Y0059645D01*
D02*
G37*
G36*
X0074975Y00582149D02*
X00747588Y00581718D01*
X00745756Y00580494D01*
X00744531Y00578662D01*
X00744101Y005765D01*
X00744531Y00574338D01*
X00745756Y00572506D01*
X00747588Y00571281D01*
X0074975Y00570852D01*
X00751912Y00571281D01*
X00753744Y00572506D01*
X00754969Y00574338D01*
X00755398Y005765D01*
X00754969Y00578662D01*
X00753744Y00580494D01*
X00751912Y00581718D01*
X0074975Y00582149D01*
D02*
G37*
G36*
X00056547Y0056365D02*
X00045547D01*
Y0055365D01*
X00056547D01*
Y00555308D01*
X0006769D01*
X00067837Y00555087D01*
X00068829Y00554424D01*
X0007Y00554191D01*
X0007026Y00554243D01*
X00076176Y00548327D01*
X00076176Y00548327D01*
X00076807Y00547906D01*
X0007755Y00547758D01*
X0007755Y00547758D01*
X00085071D01*
Y005462D01*
X00101071D01*
Y005532D01*
X00085071D01*
Y00551642D01*
X00078354D01*
X00073007Y0055699D01*
X00073059Y0055725D01*
X00072826Y0055842D01*
X00072163Y00559413D01*
X00071171Y00560076D01*
X0007Y00560309D01*
X00068829Y00560076D01*
X00067837Y00559413D01*
X0006769Y00559192D01*
X00056547D01*
Y0056365D01*
D02*
G37*
G36*
X00175103Y00538909D02*
X00173932Y00538676D01*
X0017294Y00538013D01*
X00172277Y00537021D01*
X00172044Y0053585D01*
X00172277Y0053468D01*
X0017294Y00533687D01*
X00173932Y00533024D01*
X00175103Y00532791D01*
X00176274Y00533024D01*
X00177266Y00533687D01*
X00177413Y00533908D01*
X00181204D01*
X00180755Y0053458D01*
X00175103D01*
Y0053712D01*
X00180755D01*
X00181204Y00537792D01*
X00177413D01*
X00177266Y00538013D01*
X00176274Y00538676D01*
X00175103Y00538909D01*
D02*
G37*
G36*
X00042087Y0059339D02*
X00026007D01*
Y0057831D01*
X00028867D01*
Y0056619D01*
X00026007D01*
Y0055111D01*
X00028868D01*
Y00539976D01*
X00029262Y00537994D01*
X00030385Y00536314D01*
X00033361Y00533338D01*
X00033361Y00533338D01*
X00035041Y00532215D01*
X00037023Y00531821D01*
X00042882D01*
Y0051676D01*
X00058962D01*
Y00519121D01*
X00082531D01*
Y0051826D01*
X00103611D01*
Y0053034D01*
X00103611D01*
Y0053096D01*
X00103611D01*
Y0054304D01*
X00082531D01*
Y0054218D01*
X00039227D01*
Y0055111D01*
X00042087D01*
Y0056619D01*
X00039227D01*
Y0057831D01*
X00042087D01*
Y0059339D01*
D02*
G37*
G36*
X00836Y00576648D02*
X00833838Y00576219D01*
X00832006Y00574994D01*
X00830781Y00573162D01*
X00830351Y00571D01*
X00830781Y00568838D01*
X00832006Y00567006D01*
X00833838Y00565781D01*
X00836Y00565351D01*
X00836129Y00565377D01*
X00848983Y00552523D01*
Y00531532D01*
X00845328D01*
Y00515452D01*
X00860407D01*
Y00519607D01*
X00869D01*
Y00515452D01*
X0088408D01*
Y00531532D01*
X00869D01*
Y00527377D01*
X00860407D01*
Y00531532D01*
X00856752D01*
Y00554132D01*
X00856456Y00555619D01*
X00855614Y00556879D01*
X00841623Y00570871D01*
X00841648Y00571D01*
X00841219Y00573162D01*
X00839994Y00574994D01*
X00838162Y00576219D01*
X00836Y00576648D01*
D02*
G37*
G36*
X00857868Y00511992D02*
X00847868D01*
Y00511656D01*
X00834195D01*
Y00511992D01*
X00824195D01*
Y00507394D01*
X00824016Y00506492D01*
Y00488809D01*
X00815386Y00480179D01*
X00798577D01*
X00790844Y00487912D01*
X00790432Y00488188D01*
X00790156Y004886D01*
X00788476Y00489723D01*
X00788122Y00489793D01*
X00788052Y00490147D01*
X0078703Y00491676D01*
Y00506492D01*
X00786851Y00507394D01*
Y00511992D01*
X00776851D01*
Y00507394D01*
X00776671Y00506492D01*
Y0048958D01*
X00777065Y00487598D01*
X00778188Y00485918D01*
X00779604Y00484502D01*
X00781284Y00483379D01*
X00781496Y00483337D01*
X00781709Y00482268D01*
X00782831Y00480588D01*
X00784512Y00479465D01*
X00784674Y00479432D01*
X00792769Y00471337D01*
X00794449Y00470215D01*
X00796431Y0046982D01*
X00817531D01*
X00819513Y00470215D01*
X00821193Y00471337D01*
X00832858Y00483002D01*
X0083398Y00484682D01*
X00834375Y00486664D01*
Y00501297D01*
X00847688D01*
Y00478536D01*
X00848082Y00476554D01*
X00849205Y00474874D01*
X00857656Y00466423D01*
X00859336Y004653D01*
X00861318Y00464906D01*
X00870112D01*
Y00451043D01*
X00870017D01*
Y00441043D01*
X00870112D01*
Y00427D01*
X00870008D01*
Y00417D01*
X00874389D01*
X00875292Y00416821D01*
X00875508D01*
X00876411Y00417D01*
X00881009D01*
Y00427D01*
X00880471D01*
Y00441043D01*
X00881017D01*
Y00451043D01*
X00880471D01*
Y00465085D01*
X00881009D01*
Y00475085D01*
X00876411D01*
X00875508Y00475265D01*
X00863464D01*
X00858047Y00480681D01*
Y00506492D01*
X00857868Y00507394D01*
Y00511992D01*
D02*
G37*
G36*
X0080585Y00845111D02*
X00802974Y00844732D01*
X00800294Y00843622D01*
X00797993Y00841857D01*
X00796228Y00839556D01*
X00795118Y00836876D01*
X00794739Y00834D01*
X00795118Y00831124D01*
X00796228Y00828444D01*
X00797993Y00826143D01*
X00800294Y00824378D01*
X00802974Y00823268D01*
X0080585Y00822889D01*
X00808726Y00823268D01*
X00810397Y0082396D01*
X00822103Y00812253D01*
X00823363Y00811411D01*
X0082485Y00811115D01*
X00853391D01*
X00896328Y00768178D01*
Y00531532D01*
X00892673D01*
Y00517072D01*
X00892673Y00515452D01*
X00892673Y00512912D01*
Y00498452D01*
X00896865D01*
Y00493317D01*
X00896756Y00493244D01*
X00895531Y00491412D01*
X00895101Y0048925D01*
X00895531Y00487088D01*
X00896756Y00485256D01*
X00898588Y00484031D01*
X0090075Y00483601D01*
X00902912Y00484031D01*
X00904744Y00485256D01*
X00905969Y00487088D01*
X00906399Y0048925D01*
X00905969Y00491412D01*
X00904744Y00493244D01*
X00904635Y00493317D01*
Y00498452D01*
X00907753D01*
Y00512912D01*
X00907753Y00514532D01*
X00907753Y00517072D01*
Y00531532D01*
X00904097D01*
Y00769787D01*
X00903801Y00771274D01*
X00902959Y00772534D01*
X00857747Y00817747D01*
X00856487Y00818589D01*
X00855Y00818885D01*
X00826459D01*
X0081589Y00829453D01*
X00816582Y00831124D01*
X00816961Y00834D01*
X00816582Y00836876D01*
X00815472Y00839556D01*
X00813707Y00841857D01*
X00811405Y00843622D01*
X00808726Y00844732D01*
X0080585Y00845111D01*
D02*
G37*
G36*
X0008402Y00482646D02*
Y0047852D01*
X00088146D01*
X00087969Y00479412D01*
X00086744Y00481244D01*
X00084912Y00482469D01*
X0008402Y00482646D01*
D02*
G37*
G36*
X0008148D02*
X00080588Y00482469D01*
X00078756Y00481244D01*
X00077531Y00479412D01*
X00077354Y0047852D01*
X0008148D01*
Y00482646D01*
D02*
G37*
G36*
X00153841Y00481396D02*
Y0047727D01*
X00157967D01*
X0015779Y00478162D01*
X00156565Y00479994D01*
X00154733Y00481219D01*
X00153841Y00481396D01*
D02*
G37*
G36*
X00151301D02*
X0015041Y00481219D01*
X00148577Y00479994D01*
X00147353Y00478162D01*
X00147175Y0047727D01*
X00151301D01*
Y00481396D01*
D02*
G37*
G36*
X00157612Y0054304D02*
X00136532D01*
Y0053288D01*
X00136532Y0053096D01*
X00136532D01*
Y0053034D01*
X00136532D01*
Y0051826D01*
X00136738D01*
X0013771Y00515914D01*
X00127797Y00506001D01*
X00126675Y00504321D01*
X00126489Y0050339D01*
X0011846D01*
Y0048331D01*
X0012232D01*
Y0046573D01*
X0011846D01*
Y0044565D01*
X0013654D01*
Y0046573D01*
X00132679D01*
Y0048331D01*
X0013654D01*
Y00496809D01*
X00136639Y0049731D01*
Y00500193D01*
X0014894Y00512494D01*
X0014894Y00512494D01*
X00150063Y00514174D01*
X00150457Y00516156D01*
X00151873Y0051826D01*
X00157612D01*
X00158892Y0051625D01*
Y0050089D01*
X00156031D01*
Y0048581D01*
X00172111D01*
Y0048581D01*
X00173031D01*
Y0048581D01*
X00175891D01*
Y0046323D01*
X00175563D01*
Y00448685D01*
X00175563Y0044815D01*
X00174272Y00446145D01*
X00174917Y00447148D01*
X00175563Y0044815D01*
X00191643D01*
X00192289Y00447148D01*
X00191643Y0044815D01*
X00191643Y00448685D01*
Y0046323D01*
X0018625D01*
Y0048581D01*
X00189111D01*
Y00498818D01*
X00199065D01*
X00215903Y0048198D01*
Y00472809D01*
X00230983D01*
Y00488889D01*
X00221813D01*
X00204147Y00506555D01*
X00202677Y00507537D01*
X00200942Y00507882D01*
X00169251D01*
Y00524501D01*
X00168857Y00526483D01*
X00167734Y00528163D01*
X00157612Y00538285D01*
Y0054304D01*
D02*
G37*
G36*
X00088146Y0047598D02*
X0008402D01*
Y00471854D01*
X00084912Y00472032D01*
X00086744Y00473256D01*
X00087969Y00475088D01*
X00088146Y0047598D01*
D02*
G37*
G36*
X0008148D02*
X00077354D01*
X00077531Y00475088D01*
X00078756Y00473256D01*
X00080588Y00472032D01*
X0008148Y00471854D01*
Y0047598D01*
D02*
G37*
G36*
X00157967Y0047473D02*
X00153841D01*
Y00470604D01*
X00154733Y00470782D01*
X00156565Y00472006D01*
X0015779Y00473838D01*
X00157967Y0047473D01*
D02*
G37*
G36*
X00151301D02*
X00147175D01*
X00147353Y00473838D01*
X00148577Y00472006D01*
X0015041Y00470782D01*
X00151301Y00470604D01*
Y0047473D01*
D02*
G37*
G36*
X0025227Y00469396D02*
Y0046527D01*
X00256396D01*
X00256219Y00466162D01*
X00254994Y00467994D01*
X00253162Y00469219D01*
X0025227Y00469396D01*
D02*
G37*
G36*
X0024973D02*
X00248838Y00469219D01*
X00247006Y00467994D01*
X00245781Y00466162D01*
X00245604Y0046527D01*
X0024973D01*
Y00469396D01*
D02*
G37*
G36*
X0036277Y00471205D02*
Y0046302D01*
X00370955D01*
X00370794Y00464241D01*
X00369833Y00466561D01*
X00368304Y00468554D01*
X00366311Y00470083D01*
X0036399Y00471045D01*
X0036277Y00471205D01*
D02*
G37*
G36*
X0036023D02*
X0035901Y00471045D01*
X00356689Y00470083D01*
X00354696Y00468554D01*
X00353167Y00466561D01*
X00352206Y00464241D01*
X00352045Y0046302D01*
X0036023D01*
Y00471205D01*
D02*
G37*
G36*
X00256396Y0046273D02*
X0025227D01*
Y00458604D01*
X00253162Y00458782D01*
X00254994Y00460006D01*
X00256219Y00461838D01*
X00256396Y0046273D01*
D02*
G37*
G36*
X0024973D02*
X00245604D01*
X00245781Y00461838D01*
X00247006Y00460006D01*
X00248838Y00458782D01*
X0024973Y00458604D01*
Y0046273D01*
D02*
G37*
G36*
X00370955Y0046048D02*
X0036277D01*
Y00452295D01*
X0036399Y00452456D01*
X00366311Y00453417D01*
X00368304Y00454946D01*
X00369833Y00456939D01*
X00370794Y0045926D01*
X00370955Y0046048D01*
D02*
G37*
G36*
X0036023D02*
X00352045D01*
X00352206Y0045926D01*
X00353167Y00456939D01*
X00354696Y00454946D01*
X00356689Y00453417D01*
X0035901Y00452456D01*
X0036023Y00452295D01*
Y0046048D01*
D02*
G37*
G36*
X003865Y00471372D02*
X0038401Y00471045D01*
X00381689Y00470083D01*
X00379696Y00468554D01*
X00378167Y00466561D01*
X00377206Y00464241D01*
X00376878Y0046175D01*
X00377206Y0045926D01*
X00378167Y00456939D01*
X00379696Y00454946D01*
X00381689Y00453417D01*
X0038401Y00452456D01*
X003865Y00452128D01*
X00388991Y00452456D01*
X00391311Y00453417D01*
X00393304Y00454946D01*
X00394833Y00456939D01*
X00395795Y0045926D01*
X00396122Y0046175D01*
X00395795Y00464241D01*
X00394833Y00466561D01*
X00393304Y00468554D01*
X00391311Y00470083D01*
X00388991Y00471045D01*
X003865Y00471372D01*
D02*
G37*
G36*
X00035793Y00451396D02*
Y0044727D01*
X00039919D01*
X00039742Y00448162D01*
X00038517Y00449994D01*
X00036685Y00451219D01*
X00035793Y00451396D01*
D02*
G37*
G36*
X00033253D02*
X00032362Y00451219D01*
X00030529Y00449994D01*
X00029305Y00448162D01*
X00029127Y0044727D01*
X00033253D01*
Y00451396D01*
D02*
G37*
G36*
X00165168Y00446145D02*
X00163185Y00445751D01*
X00161505Y00444628D01*
X00160583Y00443706D01*
X00163676Y00445773D01*
X00164028Y00445919D01*
X00165168Y00446145D01*
D02*
G37*
G36*
X00158222Y00441345D02*
X00157843Y00440966D01*
X001586D01*
X00158222Y00441345D01*
D02*
G37*
G36*
X00039919Y0044473D02*
X00035793D01*
Y00440604D01*
X00036685Y00440782D01*
X00038517Y00442006D01*
X00039742Y00443838D01*
X00039919Y0044473D01*
D02*
G37*
G36*
X00033253D02*
X00029127D01*
X00029305Y00443838D01*
X00030529Y00442006D01*
X00032362Y00440782D01*
X00033253Y00440604D01*
Y0044473D01*
D02*
G37*
G36*
X0005425Y00442898D02*
X00052088Y00442469D01*
X00050256Y00441244D01*
X00049031Y00439412D01*
X00048601Y0043725D01*
X00048627Y00437121D01*
X00042253Y00430747D01*
X00041411Y00429487D01*
X00041115Y00428D01*
Y0041954D01*
X0001246D01*
Y0031446D01*
X0007754D01*
Y0041954D01*
X00048885D01*
Y00426391D01*
X00054121Y00431627D01*
X0005425Y00431601D01*
X00056412Y00432031D01*
X00058244Y00433256D01*
X00059469Y00435088D01*
X00059899Y0043725D01*
X00059469Y00439412D01*
X00058244Y00441244D01*
X00056412Y00442469D01*
X0005425Y00442898D01*
D02*
G37*
G36*
X0091052Y00427396D02*
Y0042327D01*
X00914646D01*
X00914469Y00424162D01*
X00913244Y00425994D01*
X00911412Y00427219D01*
X0091052Y00427396D01*
D02*
G37*
G36*
X0090798D02*
X00907088Y00427219D01*
X00905256Y00425994D01*
X00904032Y00424162D01*
X00903854Y0042327D01*
X0090798D01*
Y00427396D01*
D02*
G37*
G36*
X00914646Y0042073D02*
X0091052D01*
Y00416604D01*
X00911412Y00416782D01*
X00913244Y00418006D01*
X00914469Y00419839D01*
X00914646Y0042073D01*
D02*
G37*
G36*
X0090798D02*
X00903854D01*
X00904032Y00419839D01*
X00905256Y00418006D01*
X00907088Y00416782D01*
X0090798Y00416604D01*
Y0042073D01*
D02*
G37*
G36*
X0026127Y00411896D02*
Y0040777D01*
X00265396D01*
X00265219Y00408662D01*
X00263994Y00410494D01*
X00262162Y00411719D01*
X0026127Y00411896D01*
D02*
G37*
G36*
X0025873D02*
X00257838Y00411719D01*
X00256006Y00410494D01*
X00254781Y00408662D01*
X00254604Y0040777D01*
X0025873D01*
Y00411896D01*
D02*
G37*
G36*
X00265396Y0040523D02*
X0026127D01*
Y00401104D01*
X00262162Y00401282D01*
X00263994Y00402506D01*
X00265219Y00404338D01*
X00265396Y0040523D01*
D02*
G37*
G36*
X0025873D02*
X00254604D01*
X00254781Y00404338D01*
X00256006Y00402506D01*
X00257838Y00401282D01*
X0025873Y00401104D01*
Y0040523D01*
D02*
G37*
G36*
X003435Y0046875D02*
X003295D01*
Y0045475D01*
X00331321D01*
Y00393396D01*
X00326925Y00389D01*
X0032025D01*
Y00375D01*
X0033425D01*
Y00381675D01*
X00340163Y00387588D01*
X00341286Y00389268D01*
X0034168Y0039125D01*
Y0045475D01*
X003435D01*
Y0046875D01*
D02*
G37*
G36*
X0032852Y00366455D02*
Y0035827D01*
X00336705D01*
X00336544Y00359491D01*
X00335583Y00361811D01*
X00334054Y00363804D01*
X00332061Y00365333D01*
X0032974Y00366295D01*
X0032852Y00366455D01*
D02*
G37*
G36*
X0032598D02*
X0032476Y00366295D01*
X00322439Y00365333D01*
X00320446Y00363804D01*
X00318917Y00361811D01*
X00317956Y00359491D01*
X00317795Y0035827D01*
X0032598D01*
Y00366455D01*
D02*
G37*
G36*
X00226Y004155D02*
X00213D01*
Y004005D01*
X0021743D01*
Y003775D01*
X00213D01*
Y00365247D01*
X00200377Y00352623D01*
X00199956Y00351993D01*
X00199808Y0035125D01*
X0019731Y00351352D01*
Y00356211D01*
X00197996Y00357238D01*
X00198426Y003594D01*
X00197996Y00361561D01*
X00196772Y00363394D01*
X00194939Y00364618D01*
X00192778Y00365048D01*
X00190616Y00364618D01*
X00188784Y00363394D01*
X00187559Y00361561D01*
X00187129Y003594D01*
X00187559Y00357238D01*
X00188246Y00356211D01*
Y00304629D01*
X00168427Y00284811D01*
X00167444Y0028334D01*
X00167099Y00281606D01*
Y00249D01*
X00167444Y00247266D01*
X00168427Y00245795D01*
X00179237Y00234985D01*
X00179237Y00234985D01*
X00180707Y00234003D01*
X0018146Y00233853D01*
Y0022815D01*
X0019792D01*
X0019954Y0022815D01*
X0020208Y0022815D01*
X0021854D01*
Y00233658D01*
X0023646D01*
Y0022815D01*
X00245884D01*
X00246857Y00225803D01*
X00205032Y00183979D01*
X00180568D01*
Y00184243D01*
X00140182D01*
Y00173829D01*
X00180568D01*
Y00180094D01*
X00205836D01*
X00206579Y00180242D01*
X0020721Y00180663D01*
X00255049Y00228502D01*
X00255049Y00228502D01*
X0025547Y00229132D01*
X00255618Y00229875D01*
Y00283751D01*
X00255618Y00283751D01*
X0025547Y00284495D01*
X00255049Y00285125D01*
X00255049Y00285125D01*
X002238Y00316373D01*
X0022317Y00316794D01*
X00222427Y00316942D01*
X0021326D01*
X00210243Y0031996D01*
Y00341537D01*
X00211709Y00343003D01*
X00226782D01*
X00228377Y00341408D01*
X00228396Y00341312D01*
X00228817Y00340682D01*
X00231746Y00337753D01*
Y003255D01*
X00244746D01*
Y003405D01*
X00239875D01*
Y003625D01*
X00245D01*
Y003775D01*
X00232D01*
Y003625D01*
X00237125D01*
Y003405D01*
X00234493D01*
X00232004Y00342989D01*
X00231985Y00343085D01*
X00231564Y00343715D01*
X0022896Y00346319D01*
X0022833Y0034674D01*
X00227587Y00346887D01*
X00210905D01*
X00210161Y0034674D01*
X00209531Y00346319D01*
X00206927Y00343715D01*
X00206506Y00343085D01*
X00206358Y00342341D01*
Y00319155D01*
X00206506Y00318412D01*
X00206927Y00317782D01*
X00211082Y00313627D01*
X00211082Y00313627D01*
X00211713Y00313206D01*
X00212456Y00313058D01*
X00212456Y00313058D01*
X00221622D01*
X00247357Y00287323D01*
X00246385Y00284976D01*
X0023696D01*
Y00279722D01*
X0021854D01*
Y0028523D01*
X0020046D01*
Y0026515D01*
X0021854D01*
Y00270658D01*
X0023696D01*
Y00264896D01*
X00251733D01*
Y0024823D01*
X0023646D01*
Y00242722D01*
X0021854D01*
Y0024823D01*
X0020208D01*
X0020046Y0024823D01*
X0019792Y0024823D01*
X0018146D01*
Y0024823D01*
X00179587Y00247454D01*
X00176164Y00250877D01*
Y00279729D01*
X00186018Y00289583D01*
X00188558Y00288531D01*
Y0028269D01*
X00184D01*
Y0026769D01*
X00186279D01*
Y0026031D01*
X00186059Y00260163D01*
X00185396Y00259171D01*
X00185163Y00258D01*
X00185396Y00256829D01*
X00186059Y00255837D01*
X00187051Y00255174D01*
X00188222Y00254941D01*
X00189392Y00255174D01*
X00190385Y00255837D01*
X00191047Y00256829D01*
X0019128Y00258D01*
X00191047Y00259171D01*
X00190385Y00260163D01*
X00190164Y0026031D01*
Y0026769D01*
X00197D01*
Y0028269D01*
X00192442D01*
Y00289695D01*
X00203123Y00300377D01*
X00203545Y00301007D01*
X00203692Y0030175D01*
Y00350446D01*
X00215747Y003625D01*
X00226D01*
Y003775D01*
X00221315D01*
Y004005D01*
X00226D01*
Y004155D01*
D02*
G37*
G36*
X00336705Y0035573D02*
X0032852D01*
Y00347545D01*
X0032974Y00347706D01*
X00332061Y00348667D01*
X00334054Y00350196D01*
X00335583Y00352189D01*
X00336544Y0035451D01*
X00336705Y0035573D01*
D02*
G37*
G36*
X0032598D02*
X00317795D01*
X00317956Y0035451D01*
X00318917Y00352189D01*
X00320446Y00350196D01*
X00322439Y00348667D01*
X0032476Y00347706D01*
X0032598Y00347545D01*
Y0035573D01*
D02*
G37*
G36*
X0032725Y00341622D02*
X0032476Y00341294D01*
X00322439Y00340333D01*
X00320446Y00338804D01*
X00318917Y00336811D01*
X00317956Y0033449D01*
X00317628Y00332D01*
X00317956Y00329509D01*
X00318917Y00327189D01*
X00320446Y00325196D01*
X00322439Y00323667D01*
X0032476Y00322705D01*
X0032725Y00322378D01*
X0032974Y00322705D01*
X00332061Y00323667D01*
X00334054Y00325196D01*
X00335583Y00327189D01*
X00336544Y00329509D01*
X00336872Y00332D01*
X00336544Y0033449D01*
X00335583Y00336811D01*
X00334054Y00338804D01*
X00332061Y00340333D01*
X0032974Y00341294D01*
X0032725Y00341622D01*
D02*
G37*
G36*
X00181Y00316709D02*
X00180527Y00316D01*
X00181D01*
Y00316709D01*
D02*
G37*
G36*
X0032725Y00316623D02*
X0032476Y00316295D01*
X00322439Y00315333D01*
X00320446Y00313804D01*
X00318917Y00311811D01*
X00317956Y00309491D01*
X00317628Y00307D01*
X00317956Y0030451D01*
X00318917Y00302189D01*
X00320446Y00300196D01*
X00322439Y00298667D01*
X0032476Y00297706D01*
X0032725Y00297378D01*
X0032974Y00297706D01*
X00332061Y00298667D01*
X00334054Y00300196D01*
X00335583Y00302189D01*
X00336544Y0030451D01*
X00336872Y00307D01*
X00336544Y00309491D01*
X00335583Y00311811D01*
X00334054Y00313804D01*
X00332061Y00315333D01*
X0032974Y00316295D01*
X0032725Y00316623D01*
D02*
G37*
G36*
X00915896Y0023073D02*
X0091177D01*
Y00226604D01*
X00912662Y00226782D01*
X00914494Y00228006D01*
X00915719Y00229838D01*
X00915896Y0023073D01*
D02*
G37*
G36*
X0090923D02*
X00905104D01*
X00905282Y00229838D01*
X00906506Y00228006D01*
X00908338Y00226782D01*
X0090923Y00226604D01*
Y0023073D01*
D02*
G37*
G36*
X0012377Y00221396D02*
Y0021727D01*
X00127896D01*
X00127719Y00218162D01*
X00126494Y00219994D01*
X00124662Y00221219D01*
X0012377Y00221396D01*
D02*
G37*
G36*
X0012123D02*
X00120338Y00221219D01*
X00118506Y00219994D01*
X00117282Y00218162D01*
X00117104Y0021727D01*
X0012123D01*
Y00221396D01*
D02*
G37*
G36*
X00127896Y0021473D02*
X0012377D01*
Y00210604D01*
X00124662Y00210781D01*
X00126494Y00212006D01*
X00127719Y00213838D01*
X00127896Y0021473D01*
D02*
G37*
G36*
X0012123D02*
X00117104D01*
X00117282Y00213838D01*
X00118506Y00212006D01*
X00120338Y00210781D01*
X0012123Y00210604D01*
Y0021473D01*
D02*
G37*
G36*
X00099823Y00198962D02*
Y00198962D01*
X00099823Y00198962D01*
X00099823Y00198962D01*
Y00198962D01*
X00099823Y00198962D01*
D01*
X00099823D01*
X00099823Y00198962D01*
D02*
G37*
G36*
X00713094Y0018661D02*
X00708968D01*
Y00182484D01*
X0070986Y00182662D01*
X00711693Y00183886D01*
X00712917Y00185719D01*
X00713094Y0018661D01*
D02*
G37*
G36*
X00706428D02*
X00702302D01*
X0070248Y00185719D01*
X00703704Y00183886D01*
X00705537Y00182662D01*
X00706428Y00182484D01*
Y0018661D01*
D02*
G37*
G36*
X00255Y0019D02*
X00227D01*
Y00166961D01*
X00220411D01*
X00215998Y00171374D01*
X00215368Y00171795D01*
X00214625Y00171943D01*
X00209151D01*
X00209003Y00172163D01*
X00208011Y00172826D01*
X0020684Y00173059D01*
X0020567Y00172826D01*
X00204678Y00172163D01*
X0020453Y00171943D01*
X00199056D01*
X00198313Y00171795D01*
X00197683Y00171374D01*
X0019327Y00166961D01*
X00180568D01*
Y00167225D01*
X00140182D01*
Y00156811D01*
X00180568D01*
Y00163076D01*
X00194074D01*
X00194817Y00163224D01*
X00195448Y00163645D01*
X0019986Y00168058D01*
X0020453D01*
X00204678Y00167837D01*
X00204898Y0016769D01*
Y00154272D01*
X00205046Y00153529D01*
X00205467Y00152899D01*
X00209316Y0014905D01*
Y00125962D01*
X00207151Y00123798D01*
X0020673Y00123167D01*
X00206583Y00122424D01*
Y00098532D01*
X00201714Y00093663D01*
X00175232D01*
X00174488Y00093515D01*
X00173858Y00093094D01*
X00171626Y00090862D01*
X00171205Y00090232D01*
X00171058Y00089489D01*
Y00043712D01*
X00171049Y0004371D01*
X00169395Y00042605D01*
X0016829Y00040951D01*
X00167902Y00039D01*
X0016829Y00037049D01*
X00169395Y00035395D01*
X00171049Y0003429D01*
X00173Y00033902D01*
X00174951Y0003429D01*
X00176605Y00035395D01*
X0017771Y00037049D01*
X00178098Y00039D01*
X0017771Y00040951D01*
X00176605Y00042605D01*
X00174951Y0004371D01*
X00174942Y00043712D01*
Y00088684D01*
X00176036Y00089778D01*
X00202518D01*
X00203262Y00089926D01*
X00203577Y00090137D01*
X00203892Y00090347D01*
X00203892Y00090347D01*
X00209898Y00096354D01*
X00210319Y00096984D01*
X00210467Y00097727D01*
Y0012162D01*
X00212632Y00123784D01*
X00213053Y00124414D01*
X00213201Y00125158D01*
Y00149854D01*
X00213053Y00150597D01*
X00212632Y00151228D01*
X00208783Y00155077D01*
Y0016769D01*
X00209003Y00167837D01*
X00209151Y00168058D01*
X0021382D01*
X00218234Y00163645D01*
X00218864Y00163224D01*
X00219607Y00163076D01*
X00227D01*
Y0015D01*
X00255D01*
Y0019D01*
D02*
G37*
G36*
X00180568Y00133189D02*
X0018D01*
Y00122775D01*
X00180568D01*
Y00133189D01*
D02*
G37*
G36*
X00719114Y00124309D02*
Y00120183D01*
X0072324D01*
X00723062Y00121075D01*
X00721838Y00122907D01*
X00720005Y00124132D01*
X00719114Y00124309D01*
D02*
G37*
G36*
X00716574D02*
X00715682Y00124132D01*
X0071385Y00122907D01*
X00712625Y00121075D01*
X00712448Y00120183D01*
X00716574D01*
Y00124309D01*
D02*
G37*
G36*
X00702698Y00153389D02*
X00692698D01*
Y00148792D01*
X00692519Y00147889D01*
X00692698Y00146986D01*
Y00142389D01*
X00702698D01*
Y00142709D01*
X00708747D01*
X00730119Y00121337D01*
X00731799Y00120215D01*
X00733782Y0011982D01*
X00778252D01*
X0077947Y00118885D01*
X00781173Y0011818D01*
X00783Y0011794D01*
X00784828Y0011818D01*
X0078653Y00118885D01*
X00787993Y00120008D01*
X00789115Y0012147D01*
X0078982Y00123173D01*
X00790061Y00125D01*
X0078982Y00126827D01*
X00789115Y0012853D01*
X00787993Y00129993D01*
X0078653Y00131115D01*
X00784828Y0013182D01*
X00783Y0013206D01*
X00781173Y0013182D01*
X0077947Y00131115D01*
X00778252Y0013018D01*
X00735927D01*
X00714555Y00151551D01*
X00712875Y00152674D01*
X00710893Y00153069D01*
X00702698D01*
Y00153389D01*
D02*
G37*
G36*
X0072324Y00117643D02*
X00719114D01*
Y00113517D01*
X00720005Y00113695D01*
X00721838Y00114919D01*
X00723062Y00116752D01*
X0072324Y00117643D01*
D02*
G37*
G36*
X00716574D02*
X00712448D01*
X00712625Y00116752D01*
X0071385Y00114919D01*
X00715682Y00113695D01*
X00716574Y00113517D01*
Y00117643D01*
D02*
G37*
G36*
X0019577Y00114396D02*
Y0011027D01*
X00199896D01*
X00199718Y00111162D01*
X00198494Y00112994D01*
X00196662Y00114219D01*
X0019577Y00114396D01*
D02*
G37*
G36*
X0019323D02*
X00192338Y00114219D01*
X00190506Y00112994D01*
X00189281Y00111162D01*
X00189104Y0011027D01*
X0019323D01*
Y00114396D01*
D02*
G37*
G36*
X00675208Y00153397D02*
X00665208D01*
Y00152656D01*
X00654202D01*
X00652219Y00152262D01*
X00650539Y00151139D01*
X00650539Y00151139D01*
X00644587Y00145188D01*
X00643465Y00143507D01*
X00643071Y00141525D01*
Y00120438D01*
X00643465Y00118455D01*
X00644587Y00116775D01*
X00650539Y00110824D01*
X00650539Y00110823D01*
X00652219Y00109701D01*
X00654202Y00109306D01*
X00678881D01*
X00679018Y00109215D01*
X00681Y0010882D01*
X00682982Y00109215D01*
X00684662Y00110337D01*
X00685785Y00112018D01*
X0068618Y00114D01*
X00685785Y00115982D01*
X00684662Y00117662D01*
X00684176Y00118148D01*
X00682496Y00119271D01*
X00680514Y00119665D01*
X00656347D01*
X00653429Y00122583D01*
Y0013938D01*
X00656347Y00142297D01*
X00670128D01*
X00670628Y00142397D01*
X00675208D01*
Y00146654D01*
X00675387Y00147557D01*
Y00147897D01*
X00675208Y00148799D01*
Y00153397D01*
D02*
G37*
G36*
X00199896Y0010773D02*
X0019577D01*
Y00103604D01*
X00196662Y00103781D01*
X00198494Y00105006D01*
X00199718Y00106838D01*
X00199896Y0010773D01*
D02*
G37*
G36*
X0019323D02*
X00189104D01*
X00189281Y00106838D01*
X00190506Y00105006D01*
X00192338Y00103781D01*
X0019323Y00103604D01*
Y0010773D01*
D02*
G37*
G36*
X0009825Y00198807D02*
X00097383Y00198721D01*
X00097283Y00198721D01*
X00014325D01*
Y00091279D01*
X00097383D01*
Y00133183D01*
X00099923Y00133434D01*
X00099191Y00133361D01*
X0009825Y00134214D01*
Y00198807D01*
D02*
G37*
G36*
X00673198Y00089881D02*
X00658198D01*
Y00085323D01*
X0065056D01*
X00650413Y00085543D01*
X0064942Y00086207D01*
X0064825Y00086439D01*
X00647079Y00086207D01*
X00646087Y00085543D01*
X00645424Y00084551D01*
X00645191Y00083381D01*
X00645424Y0008221D01*
X00646087Y00081218D01*
X00647079Y00080555D01*
X0064825Y00080322D01*
X0064942Y00080555D01*
X00650413Y00081218D01*
X0065056Y00081438D01*
X00658198D01*
Y00076881D01*
X00673198D01*
Y00081438D01*
X00682181D01*
X00698111Y00065508D01*
X00698298Y00065382D01*
Y00057397D01*
X00713298D01*
Y00070397D01*
X00698716D01*
X00684359Y00084754D01*
X00683728Y00085175D01*
X00682985Y00085323D01*
X00673198D01*
Y00089881D01*
D02*
G37*
G36*
X00215704Y00084136D02*
Y0008001D01*
X00219829D01*
X00219652Y00080902D01*
X00218428Y00082734D01*
X00216595Y00083959D01*
X00215704Y00084136D01*
D02*
G37*
G36*
X00213164D02*
X00212272Y00083959D01*
X00210439Y00082734D01*
X00209215Y00080902D01*
X00209038Y0008001D01*
X00213164D01*
Y00084136D01*
D02*
G37*
G36*
X00697698Y00102255D02*
X00695716Y00101861D01*
X00694036Y00100738D01*
X00692913Y00099057D01*
X00692519Y00097075D01*
Y00083381D01*
X00692913Y00081398D01*
X00694036Y00079718D01*
X00695716Y00078595D01*
X00697698Y00078201D01*
X00698298Y00077709D01*
Y00076397D01*
X00713298D01*
Y00089397D01*
X00702878D01*
Y00097075D01*
X00702484Y00099057D01*
X00701361Y00100738D01*
X0069968Y00101861D01*
X00697698Y00102255D01*
D02*
G37*
G36*
X0079254Y0008454D02*
X0078427D01*
Y0007627D01*
X0079254D01*
Y0008454D01*
D02*
G37*
G36*
X0078173D02*
X0077346D01*
Y0007627D01*
X0078173D01*
Y0008454D01*
D02*
G37*
G36*
X00219829Y0007747D02*
X00215704D01*
Y00073344D01*
X00216595Y00073521D01*
X00218428Y00074746D01*
X00219652Y00076578D01*
X00219829Y0007747D01*
D02*
G37*
G36*
X00213164D02*
X00209038D01*
X00209215Y00076578D01*
X00210439Y00074746D01*
X00212272Y00073521D01*
X00213164Y00073344D01*
Y0007747D01*
D02*
G37*
G36*
X00604352Y00075875D02*
X0060338Y00075473D01*
X0060338Y00075472D01*
X00598882Y00070975D01*
X0060338Y00075472D01*
X00604352Y00075875D01*
X00604352D01*
X00604352Y00075875D01*
D02*
G37*
G36*
X00618735Y00075472D02*
X00621508Y00072699D01*
Y0007047D01*
X00620335Y00069984D01*
X00617194Y00073126D01*
X00624404Y00065916D01*
X00621516Y00068803D01*
Y00071032D01*
X0062269Y00071518D01*
X00625754Y00068454D01*
X00618735Y00075472D01*
D02*
G37*
G36*
X0079254Y0007373D02*
X0078427D01*
Y0006546D01*
X0079254D01*
Y0007373D01*
D02*
G37*
G36*
X0078173D02*
X0077346D01*
Y0006546D01*
X0078173D01*
Y0007373D01*
D02*
G37*
G36*
X0054627Y00057281D02*
Y00053155D01*
X00550396D01*
X00550219Y00054046D01*
X00548994Y00055879D01*
X00547162Y00057103D01*
X0054627Y00057281D01*
D02*
G37*
G36*
X0054373D02*
X00542838Y00057103D01*
X00541006Y00055879D01*
X00539781Y00054046D01*
X00539604Y00053155D01*
X0054373D01*
Y00057281D01*
D02*
G37*
G36*
X00550396Y00050615D02*
X0054627D01*
Y00046489D01*
X00547162Y00046666D01*
X00548994Y00047891D01*
X00550219Y00049723D01*
X00550396Y00050615D01*
D02*
G37*
G36*
X0054373D02*
X00539604D01*
X00539781Y00049723D01*
X00541006Y00047891D01*
X00542838Y00046666D01*
X0054373Y00046489D01*
Y00050615D01*
D02*
G37*
G36*
X00175554Y00122424D02*
X00165195D01*
Y00116171D01*
X00140182D01*
Y00116017D01*
X00133952D01*
X0013197Y00115623D01*
X00130289Y001145D01*
X00130289Y001145D01*
X00124338Y00108548D01*
X00123215Y00106868D01*
X00122821Y00104886D01*
Y00039D01*
X00123215Y00037018D01*
X00124338Y00035338D01*
X00126018Y00034215D01*
X00128Y00033821D01*
X00129982Y00034215D01*
X00131663Y00035338D01*
X00132786Y00037018D01*
X0013318Y00039D01*
Y0010274D01*
X00136097Y00105658D01*
X00160248D01*
X00160748Y00105757D01*
X00180568D01*
Y00116171D01*
X00175554D01*
Y00122424D01*
D02*
G37*
G36*
X00709568Y00030396D02*
Y0002627D01*
X00713694D01*
X00713517Y00027162D01*
X00712292Y00028994D01*
X0071046Y00030219D01*
X00709568Y00030396D01*
D02*
G37*
G36*
X00707028D02*
X00706137Y00030219D01*
X00704304Y00028994D01*
X0070308Y00027162D01*
X00702902Y0002627D01*
X00707028D01*
Y00030396D01*
D02*
G37*
G36*
X00713694Y0002373D02*
X00709568D01*
Y00019604D01*
X0071046Y00019782D01*
X00712292Y00021006D01*
X00713517Y00022839D01*
X00713694Y0002373D01*
D02*
G37*
G36*
X00707028D02*
X00702902D01*
X0070308Y00022839D01*
X00704304Y00021006D01*
X00706137Y00019782D01*
X00707028Y00019604D01*
Y0002373D01*
D02*
G37*
G36*
X009005Y00077677D02*
X00895793Y00077306D01*
X00891201Y00076204D01*
X00886838Y00074397D01*
X00882812Y00071929D01*
X00879221Y00068863D01*
X00876155Y00065272D01*
X00873687Y00061246D01*
X0087188Y00056883D01*
X00870778Y00052291D01*
X00870407Y00047584D01*
X00870778Y00042876D01*
X0087188Y00038285D01*
X00873687Y00033922D01*
X00876155Y00029896D01*
X00879221Y00026305D01*
X00882812Y00023238D01*
X00886838Y00020771D01*
X00891201Y00018964D01*
X00895793Y00017862D01*
X009005Y00017491D01*
X00905208Y00017862D01*
X00909799Y00018964D01*
X00914162Y00020771D01*
X00918188Y00023238D01*
X00921779Y00026305D01*
X00924846Y00029896D01*
X00927313Y00033922D01*
X0092912Y00038285D01*
X00930222Y00042876D01*
X00930593Y00047584D01*
X00930222Y00052291D01*
X0092912Y00056883D01*
X00927313Y00061246D01*
X00924846Y00065272D01*
X00921779Y00068863D01*
X00918188Y00071929D01*
X00914162Y00074397D01*
X00909799Y00076204D01*
X00905208Y00077306D01*
X009005Y00077677D01*
D02*
G37*
G36*
X000515D02*
X00046792Y00077306D01*
X00042201Y00076204D01*
X00037838Y00074397D01*
X00033812Y00071929D01*
X00030221Y00068863D01*
X00027155Y00065272D01*
X00024687Y00061246D01*
X0002288Y00056883D01*
X00021778Y00052291D01*
X00021407Y00047584D01*
X00021778Y00042876D01*
X0002288Y00038285D01*
X00024687Y00033922D01*
X00027155Y00029896D01*
X00030221Y00026305D01*
X00033812Y00023238D01*
X00037838Y00020771D01*
X00042201Y00018964D01*
X00046792Y00017862D01*
X000515Y00017491D01*
X00056208Y00017862D01*
X00060799Y00018964D01*
X00065162Y00020771D01*
X00069188Y00023238D01*
X00072779Y00026305D01*
X00075846Y00029896D01*
X00078313Y00033922D01*
X0008012Y00038285D01*
X00081222Y00042876D01*
X00081593Y00047584D01*
X00081222Y00052291D01*
X0008012Y00056883D01*
X00078313Y00061246D01*
X00075846Y00065272D01*
X00072779Y00068863D01*
X00069188Y00071929D01*
X00065162Y00074397D01*
X00060799Y00076204D01*
X00056208Y00077306D01*
X000515Y00077677D01*
D02*
G37*
%LPD*%
G36*
X00455982Y00691453D02*
X00457453Y0069047D01*
X00459187Y00690125D01*
X0046391D01*
Y00679032D01*
X00459939D01*
X00458912Y00679719D01*
X0045675Y00680149D01*
X00454588Y00679719D01*
X00452756Y00678494D01*
X00451531Y00676662D01*
X00451101Y006745D01*
X00451531Y00672338D01*
X00452756Y00670506D01*
X00454588Y00669281D01*
X0045675Y00668851D01*
X00458912Y00669281D01*
X00459939Y00669968D01*
X0046391D01*
Y00666442D01*
X0047799D01*
Y00673256D01*
X0048053Y00674027D01*
X00480795Y0067363D01*
X00497305Y0065712D01*
X00497305Y0065712D01*
X00498775Y00656138D01*
X00500509Y00655793D01*
X00509889D01*
X00516646Y00649036D01*
X00515594Y00646496D01*
X00513602D01*
Y00641693D01*
X00511062Y00640641D01*
X00510199Y00641504D01*
X00508728Y00642486D01*
X00507148Y00642801D01*
Y00646839D01*
X00488068D01*
Y00642831D01*
X00486281D01*
X00484547Y00642486D01*
X00483077Y00641504D01*
X00480845Y00639272D01*
X00479862Y00637802D01*
X00479517Y00636068D01*
Y0062784D01*
X00462018D01*
Y00623832D01*
X0044175D01*
X0044175Y00623832D01*
X0044151Y00623784D01*
X00426405D01*
X00426404Y00623784D01*
X00426404Y00623784D01*
X0041829D01*
Y00644932D01*
X00413532D01*
Y0068496D01*
X00430824D01*
Y00692365D01*
X00435683D01*
X00435756Y00692256D01*
X00437588Y00691031D01*
X0043975Y00690602D01*
X00441912Y00691031D01*
X00443744Y00692256D01*
X00444969Y00694089D01*
X00445399Y0069625D01*
X00444969Y00698412D01*
X00444037Y00699806D01*
X0044601Y00701425D01*
X00455982Y00691453D01*
D02*
G37*
G36*
X00493076Y0060803D02*
X00493421Y00606295D01*
X00494403Y00604825D01*
X00532433Y00566795D01*
X00533903Y00565813D01*
X00535637Y00565468D01*
X00594268D01*
X00596003Y00565813D01*
X00597473Y00566795D01*
X00619145Y00588468D01*
X00644768D01*
X00646503Y00588813D01*
X00648045Y00586789D01*
X00600391Y00539135D01*
X00569238D01*
X00567751Y00538839D01*
X00566491Y00537997D01*
X00565003Y00536509D01*
X00564161Y00535249D01*
X00563865Y00533762D01*
Y0053179D01*
X0056021D01*
Y0051733D01*
X0056021Y00514274D01*
X00557863Y00513302D01*
X00556054Y00515111D01*
X00555974Y00515231D01*
X00553709Y00517496D01*
X00552449Y00518338D01*
X00550962Y00518633D01*
X00533555D01*
X00532068Y00518338D01*
X00530808Y00517496D01*
X00528503Y00515191D01*
X00527661Y00513931D01*
X00527365Y00512444D01*
Y00489318D01*
X00527256Y00489244D01*
X00526032Y00487412D01*
X00525602Y0048525D01*
X00526032Y00483089D01*
X00527256Y00481256D01*
X00529089Y00480032D01*
X0053125Y00479602D01*
X00533412Y00480032D01*
X00535244Y00481256D01*
X00536469Y00483089D01*
X00536899Y0048525D01*
X00536469Y00487412D01*
X00535244Y00489244D01*
X00535135Y00489318D01*
Y0049824D01*
X00537587Y00498452D01*
Y00498452D01*
X00541242D01*
Y0049648D01*
X00541538Y00494994D01*
X0054238Y00493733D01*
X00543868Y00492245D01*
X00545129Y00491403D01*
X00546615Y00491107D01*
X00624698D01*
X00686559Y00429247D01*
X00685587Y004269D01*
X0067365D01*
Y004241D01*
X0068925D01*
X0068925Y004241D01*
X0069179Y00425377D01*
X006921Y00425315D01*
X00702582D01*
X00704069Y00425611D01*
X00705329Y00426453D01*
X00708337Y0042946D01*
X0070969D01*
Y00439143D01*
X00709755Y0043947D01*
X0070969Y00439797D01*
Y00448116D01*
X0071223Y00449168D01*
X00714245Y00447153D01*
Y0043993D01*
X00714245Y0043993D01*
X0071435Y00439677D01*
Y00432D01*
X0071715D01*
Y00432D01*
X0071927D01*
X0072181Y00431806D01*
Y0042946D01*
X0073469D01*
Y00432D01*
X0073715D01*
Y004476D01*
X00737124D01*
Y00462492D01*
X007378Y00463277D01*
X00740531Y00462567D01*
X00741756Y00460735D01*
X00741865Y00460662D01*
Y0045014D01*
X0074181D01*
Y0042946D01*
X00747372D01*
X00748244Y0042778D01*
X00748445Y0042692D01*
X00748128Y00426445D01*
X00748128Y00426445D01*
X00748128Y00426445D01*
X00747989Y00425747D01*
X00747832Y00424959D01*
Y00415867D01*
X00746593Y00415191D01*
X00745292Y00414846D01*
X00743761Y0041587D01*
X00742869Y00416047D01*
Y00410651D01*
Y00405255D01*
X00743761Y00405433D01*
X00745292Y00406456D01*
X00746593Y00406111D01*
X00747832Y00405436D01*
Y00371438D01*
X00748128Y00369951D01*
X00748709Y0036908D01*
X00748304Y00367698D01*
X00747528Y0036654D01*
X00729764D01*
Y00372627D01*
X0073075Y00374852D01*
X00732912Y00375282D01*
X00734744Y00376506D01*
X00735968Y00378339D01*
X00736398Y003805D01*
X00735968Y00382662D01*
X00734744Y00384494D01*
X00732912Y00385719D01*
X0073075Y00386149D01*
X00728588Y00385719D01*
X00726756Y00384494D01*
X00725531Y00382662D01*
X00725101Y003805D01*
X00725127Y00380371D01*
X00723133Y00378377D01*
X00722291Y00377117D01*
X00721995Y0037563D01*
Y0036654D01*
X0071681D01*
Y0034586D01*
X00717913D01*
X00718133Y00345531D01*
X00719102Y00344562D01*
Y00338408D01*
X0071702Y00336967D01*
Y00331163D01*
X0071575D01*
Y00329893D01*
X00710354D01*
X00710531Y00329002D01*
X00711756Y00327169D01*
X00713588Y00325945D01*
X00714405Y00325782D01*
X00716752Y00324562D01*
X00717182Y003224D01*
X00718406Y00320568D01*
X00720239Y00319343D01*
X007224Y00318913D01*
X00724494Y0031933D01*
X00724565Y00319342D01*
X00727161Y00318251D01*
X00728003Y00316991D01*
X00731493Y00313501D01*
X00730521Y00311155D01*
X00718324D01*
X00708497Y00320982D01*
X00707237Y00321824D01*
X00707125Y00321847D01*
Y00334401D01*
X00711802Y00339079D01*
X00711802Y00339079D01*
X00712205Y00340051D01*
X00712205Y00340051D01*
Y0035612D01*
X00712205Y0035612D01*
X0071215Y00356253D01*
Y00364D01*
X0071215Y00364D01*
X0071215Y00364001D01*
X00711995Y00364588D01*
X00711592Y0036556D01*
X00711592Y0036556D01*
X00711062Y0036609D01*
X00700442Y0037671D01*
X00700877Y00377361D01*
X0070111Y00378532D01*
X00700877Y00379702D01*
X00700214Y00380695D01*
X00699222Y00381358D01*
X00698051Y0038159D01*
X00696881Y00381358D01*
X00695888Y00380695D01*
X00695225Y00379702D01*
X00694992Y00378532D01*
X00695225Y00377361D01*
X00695888Y00376369D01*
X00696881Y00375706D01*
X00697727Y00375537D01*
X00703288Y00369976D01*
X00702711Y00367037D01*
X0070181Y0036654D01*
X0069969D01*
Y0036654D01*
X0069181D01*
Y00360085D01*
X00653385D01*
X00652704Y00360766D01*
X00652469Y00361952D01*
X00651244Y00363784D01*
X00649412Y00365009D01*
X0064725Y00365439D01*
X00645088Y00365009D01*
X00643256Y00363784D01*
X00642031Y00361952D01*
X00641601Y0035979D01*
X00642031Y00357629D01*
X00643256Y00355796D01*
X00645088Y00354572D01*
X0064725Y00354142D01*
X0064816Y00354323D01*
X00649029Y00353454D01*
X0065029Y00352612D01*
X00651776Y00352316D01*
X0069181D01*
Y0034586D01*
X00699489D01*
X00700521Y00345195D01*
X00700787Y00342686D01*
X00694887Y00336786D01*
X00694758Y00336812D01*
X00692597Y00336382D01*
X00690764Y00335158D01*
X0068954Y00333325D01*
X0068911Y00331163D01*
X0068954Y00329002D01*
X00690764Y00327169D01*
X00692597Y00325945D01*
X00694758Y00325515D01*
X0069692Y00325945D01*
X00698753Y00327169D01*
X00699977Y00329002D01*
X00700356Y00330907D01*
X00701987Y00332061D01*
X00704375Y0033096D01*
Y00321847D01*
X00704263Y00321824D01*
X00703003Y00320982D01*
X00702161Y00319722D01*
X00701865Y00318235D01*
X00702161Y00316749D01*
X00703003Y00315488D01*
X00713968Y00304523D01*
X00715229Y00303681D01*
X00716715Y00303386D01*
X00735905D01*
X00736676Y00300846D01*
X00735979Y0030038D01*
X00735979Y0030038D01*
X00732139Y0029654D01*
X00722969D01*
Y00293524D01*
X00716633D01*
X00707916Y00302241D01*
X00707675Y00303453D01*
X00706451Y00305285D01*
X00704618Y0030651D01*
X00702457Y0030694D01*
X00700295Y0030651D01*
X00698463Y00305285D01*
X00697238Y00303453D01*
X00696808Y00301291D01*
X00697238Y0029913D01*
X00698463Y00297297D01*
X00700295Y00296073D01*
X00701507Y00295831D01*
X00711551Y00285787D01*
X00713021Y00284805D01*
X00714756Y0028446D01*
X00714756Y0028446D01*
X00722969D01*
Y0028146D01*
X00734188D01*
X00734976Y002805D01*
Y00276189D01*
X0073429Y00275162D01*
X0073386Y00273D01*
X0073429Y00270838D01*
X00734984Y00269799D01*
Y00268331D01*
X00735329Y00266597D01*
X00736312Y00265126D01*
X0074046Y00260979D01*
Y00250308D01*
X00759539D01*
Y00253508D01*
X00769546D01*
Y0025D01*
X00780729D01*
Y00236897D01*
X0074036D01*
X0073754Y00239717D01*
Y00250388D01*
X0071846D01*
Y0024524D01*
X00709997D01*
Y00249396D01*
X00694917D01*
Y00233316D01*
X00709997D01*
Y00237471D01*
X0071846D01*
Y00233308D01*
X0073113D01*
X00735278Y0022916D01*
X00736748Y00228178D01*
X00738482Y00227833D01*
X00738482Y00227833D01*
X00773233D01*
X00774811Y00225293D01*
X00774608Y00224275D01*
X00775002Y00222293D01*
X00775317Y00221822D01*
X00773959Y00219282D01*
X00685289D01*
X00684018Y00220925D01*
X00671482D01*
X00670211Y00219282D01*
X00600579D01*
X00598845Y00218937D01*
X00597375Y00217955D01*
X00580552Y00201132D01*
X0057309D01*
Y00204768D01*
X0057481D01*
X00576544Y00205113D01*
X00578014Y00206095D01*
X00586396Y00214477D01*
X00586396Y00214477D01*
X00587379Y00215948D01*
X00587724Y00217682D01*
Y00255433D01*
X00587724Y00255433D01*
X00587379Y00257167D01*
X00586396Y00258638D01*
X00586396Y00258638D01*
X00580658Y00264376D01*
X00580238Y00266485D01*
X00579014Y00268318D01*
X00577182Y00269542D01*
X0057502Y00269972D01*
X00572858Y00269542D01*
X00571026Y00268318D01*
X00569801Y00266485D01*
X00569371Y00264324D01*
X00569801Y00262162D01*
X00571026Y00260329D01*
X00572858Y00259105D01*
X00573173Y00259042D01*
X0057866Y00253556D01*
Y00219559D01*
X0057563Y0021653D01*
X0057309Y00217582D01*
Y0022884D01*
X00562487D01*
Y0024683D01*
X00562642Y00247062D01*
X00563072Y00249223D01*
X00562642Y00251385D01*
X00561417Y00253218D01*
X00559585Y00254442D01*
X00557423Y00254872D01*
X00555262Y00254442D01*
X00553429Y00253218D01*
X00552205Y00251385D01*
X00551775Y00249223D01*
X00552205Y00247062D01*
X00553423Y00245239D01*
Y00224395D01*
X0055351Y00223957D01*
Y0021516D01*
Y0020246D01*
Y0018976D01*
Y0017706D01*
Y0016436D01*
Y00161088D01*
X00553232D01*
X00551498Y00160743D01*
X00550027Y0015976D01*
X00547795Y00157529D01*
X00546813Y00156058D01*
X00546468Y00154324D01*
Y00152672D01*
X00532972Y00139177D01*
X0053199Y00137707D01*
X00531645Y00135972D01*
Y00131369D01*
X00531461Y00131246D01*
X00530237Y00129413D01*
X00529807Y00127252D01*
X00530237Y0012509D01*
X00531461Y00123258D01*
X00533293Y00122033D01*
X00535455Y00121603D01*
X00537617Y00122033D01*
X00539449Y00123258D01*
X00540674Y0012509D01*
X00541104Y00127252D01*
X00540709Y00129234D01*
Y00134095D01*
X00543323Y00136709D01*
X00545863Y00135657D01*
Y00107273D01*
X00483636Y00045045D01*
X00413647D01*
X00413647Y00045045D01*
X00411912Y000447D01*
X00410442Y00043718D01*
X00382006Y00015282D01*
X00237627D01*
X00234532Y00018377D01*
Y00058697D01*
X00250043Y00074208D01*
X00292768D01*
X00294503Y00074553D01*
X00295973Y00075535D01*
X00298205Y00077767D01*
X00299187Y00079237D01*
X00299532Y00080972D01*
Y00209041D01*
X00399452Y00308961D01*
X00400435Y00310432D01*
X0040078Y00312166D01*
X0040078Y00312166D01*
Y00384203D01*
X00427138Y00410561D01*
X00427138Y00410561D01*
X00428121Y00412032D01*
X00428466Y00413766D01*
X00428466Y00413766D01*
Y0045077D01*
X00431006Y00452182D01*
X00431968Y00451584D01*
Y00433966D01*
X00432313Y00432231D01*
X00433295Y00430761D01*
X00516777Y0034728D01*
Y00341401D01*
X00514237Y00340631D01*
X00513994Y00340994D01*
X00512162Y00342219D01*
X0051127Y00342396D01*
Y00337D01*
Y00331604D01*
X00512162Y00331782D01*
X00513994Y00333006D01*
X00514237Y00333369D01*
X00516777Y00332598D01*
Y00268769D01*
X00504761Y00256754D01*
X00448568D01*
X00447798Y00259294D01*
X00447801Y00259296D01*
X00449025Y00261129D01*
X00449455Y0026329D01*
X00449025Y00265452D01*
X00447982Y00267013D01*
X00448293Y00268234D01*
X00448977Y00269553D01*
X00476213D01*
X00477948Y00269898D01*
X00479418Y00270881D01*
X00485878Y0027734D01*
X00495548D01*
Y0029242D01*
X00479468D01*
Y00285166D01*
X00478763Y00284726D01*
X00478589Y00284737D01*
X00476105Y0028606D01*
X00475945Y00286862D01*
X00474823Y00288543D01*
X00473142Y00289666D01*
X0047116Y0029006D01*
X00449758D01*
X00448856Y0028988D01*
X00444258D01*
Y00285125D01*
X00441718Y0028386D01*
X00440799Y00284556D01*
Y0029242D01*
X00437799D01*
Y00298298D01*
X00437454Y00300032D01*
X00436471Y00301503D01*
X00432532Y00305442D01*
Y00342952D01*
X0044054D01*
Y00362032D01*
X00418732D01*
X00417326Y00364175D01*
X00417265Y00364572D01*
X00417396Y0036523D01*
X0041327D01*
Y00360799D01*
X00415275Y00359451D01*
X0041546Y00359147D01*
Y00342952D01*
X00423468D01*
Y00303564D01*
X00423813Y0030183D01*
X00424795Y0030036D01*
X00428735Y00296421D01*
Y0029242D01*
X00424719D01*
Y00289412D01*
X00388932D01*
X00387197Y00289067D01*
X00385727Y00288085D01*
X00383495Y00285853D01*
X00382513Y00284383D01*
X00382168Y00282649D01*
Y0022884D01*
X0037691D01*
Y0021516D01*
X00377556D01*
X0037945Y002136D01*
X0037945Y0021262D01*
Y0020598D01*
X0037945Y00205D01*
X00377556Y0020344D01*
X0037691D01*
Y00201132D01*
X00372277D01*
X00371032Y00202377D01*
Y00244561D01*
X00371719Y00245588D01*
X00372149Y0024775D01*
X00371719Y00249912D01*
X00370494Y00251744D01*
X00368662Y00252969D01*
X003665Y00253398D01*
X00364338Y00252969D01*
X00362506Y00251744D01*
X00361281Y00249912D01*
X00360852Y0024775D01*
X00361281Y00245588D01*
X00361968Y00244561D01*
Y002005D01*
X00362313Y00198766D01*
X00363295Y00197295D01*
X00367195Y00193396D01*
X00367195Y00193395D01*
X00368666Y00192413D01*
X003704Y00192068D01*
X003704Y00192068D01*
X0037691D01*
Y0017706D01*
Y0016436D01*
Y0015166D01*
Y0013896D01*
X00377556D01*
X0037945Y001374D01*
X0037945Y0013642D01*
Y0012978D01*
X0037945Y001288D01*
X00378968Y00128403D01*
X0037691Y0012724D01*
D01*
X0037437Y0012669D01*
X00364532Y00136528D01*
Y0014525D01*
X00364532Y0014525D01*
X00364187Y00146984D01*
X00363205Y00148454D01*
X00363205Y00148454D01*
X00325928Y0018573D01*
X00326044Y0018601D01*
X00326372Y001885D01*
X00326044Y0019099D01*
X00325083Y00193311D01*
X00323554Y00195304D01*
X00321561Y00196833D01*
X0031924Y00197794D01*
X0031675Y00198122D01*
X00314259Y00197794D01*
X00311938Y00196833D01*
X00309946Y00195304D01*
X00308417Y00193311D01*
X00307455Y0019099D01*
X00307127Y001885D01*
X00307455Y0018601D01*
X00308417Y00183689D01*
X00309946Y00181696D01*
X00311938Y00180167D01*
X00314259Y00179206D01*
X0031675Y00178878D01*
X0031924Y00179206D01*
X00319519Y00179321D01*
X00355468Y00143372D01*
Y0013465D01*
X00355813Y00132916D01*
X00356795Y00131446D01*
X00371045Y00117195D01*
X00372516Y00116213D01*
X0037425Y00115868D01*
X0037691D01*
Y00113392D01*
X00375967Y00111199D01*
X00374232Y00110854D01*
X00372762Y00109872D01*
X00347673Y00084782D01*
X00316453D01*
X00314718Y00084437D01*
X00313248Y00083455D01*
X00285575Y00055782D01*
X00252232D01*
X00252232Y00055782D01*
X00252231Y00055782D01*
X00251293Y00055595D01*
X00250497Y00055437D01*
X00250497Y00055437D01*
X00250497Y00055437D01*
X00249829Y00054991D01*
X00249027Y00054455D01*
X00249027Y00054454D01*
X00249027Y00054454D01*
X00246795Y00052223D01*
X00246795Y00052223D01*
X00246795Y00052222D01*
X00246795Y00052222D01*
X00246361Y00051573D01*
X00245813Y00050752D01*
X00245813Y00050752D01*
X00245813Y00050752D01*
X00245653Y0004995D01*
X00245468Y00049018D01*
Y0003904D01*
X0023756D01*
Y0001896D01*
X0025764D01*
Y0003904D01*
X00254532D01*
Y00046718D01*
X00267306D01*
X00267433Y00046625D01*
X00268718Y00044556D01*
X00268768Y00044178D01*
X00268654Y000436D01*
X00268468Y00042668D01*
Y0003799D01*
X00267937Y0003777D01*
X0026584Y00036161D01*
X0026423Y00034063D01*
X00263219Y00031621D01*
X00262874Y00029D01*
X00263219Y00026379D01*
X0026423Y00023937D01*
X0026584Y0002184D01*
X00267937Y0002023D01*
X00270379Y00019219D01*
X00273Y00018874D01*
X00275621Y00019219D01*
X00278064Y0002023D01*
X00280161Y0002184D01*
X0028177Y00023937D01*
X00282782Y00026379D01*
X00283127Y00029D01*
X00282782Y00031621D01*
X0028177Y00034063D01*
X00280161Y00036161D01*
X00278064Y0003777D01*
X00277532Y0003799D01*
Y00040368D01*
X00290083D01*
X00291817Y00040713D01*
X00293287Y00041695D01*
X0032056Y00068968D01*
X0035275D01*
X00354484Y00069313D01*
X00355955Y00070295D01*
X00363227Y00077568D01*
X00365767Y00076516D01*
Y00073602D01*
X00365756Y00073594D01*
X00364532Y00071762D01*
X00364101Y000696D01*
X00364532Y00067439D01*
X00365756Y00065606D01*
X00367588Y00064381D01*
X0036975Y00063952D01*
X00371912Y00064381D01*
X00373744Y00065606D01*
X0037437Y00066542D01*
X0037691Y00065772D01*
Y0006276D01*
X0039649D01*
Y00065068D01*
X0047385D01*
X00475584Y00065413D01*
X00477055Y00066395D01*
X00515205Y00104545D01*
X00515205Y00104545D01*
X00516187Y00106016D01*
X00516532Y0010775D01*
X00516532Y0010775D01*
Y00131408D01*
X00541465Y0015634D01*
X00542676Y00156581D01*
X00544509Y00157806D01*
X00545733Y00159638D01*
X00546163Y001618D01*
X00545733Y00163962D01*
X00544509Y00165794D01*
X00542676Y00167019D01*
X00542139Y00167125D01*
X00541303Y00169881D01*
X00544644Y00173222D01*
X0054525Y00173102D01*
X00547412Y00173531D01*
X00549244Y00174756D01*
X00550469Y00176588D01*
X00550899Y0017875D01*
X00550469Y00180912D01*
X00549244Y00182744D01*
X00547412Y00183969D01*
X0054525Y00184398D01*
X00543088Y00183969D01*
X00541256Y00182744D01*
X00540032Y00180912D01*
X00539705Y00179271D01*
X00519009Y00158575D01*
X00492241D01*
X00491822Y00159083D01*
X00491247Y00161753D01*
X00517082Y00187588D01*
X00523313D01*
X00524738Y00187871D01*
X00525257Y00187768D01*
X00527418Y00188198D01*
X00529251Y00189422D01*
X00530475Y00191255D01*
X00530905Y00193417D01*
X00530475Y00195578D01*
X00529251Y00197411D01*
X00528597Y00197848D01*
X00529367Y00200388D01*
X00533483D01*
X00534536Y00199684D01*
X00536698Y00199254D01*
X0053886Y00199684D01*
X00540692Y00200908D01*
X00541917Y00202741D01*
X00542346Y00204903D01*
X00541917Y00207064D01*
X00540692Y00208897D01*
X0053886Y00210121D01*
X00536698Y00210551D01*
X00534536Y00210121D01*
X00533535Y00209452D01*
X0049317D01*
X00491436Y00209107D01*
X00489965Y00208125D01*
X00457573Y00175732D01*
X0039649D01*
Y00179901D01*
X00397678Y00180695D01*
X00401738Y00184755D01*
X00402721Y00186226D01*
X00403066Y0018796D01*
X00403066Y0018796D01*
Y00269353D01*
X00403752Y0027038D01*
X00404182Y00272542D01*
X00403752Y00274704D01*
X00402528Y00276536D01*
X00400695Y00277761D01*
X00400456Y00277808D01*
X00400706Y00280348D01*
X00424719D01*
Y0027734D01*
X00434103D01*
X00440211Y00271232D01*
X00439935Y00269822D01*
X00439266Y00268692D01*
X0042039D01*
X00418656Y00268347D01*
X00417185Y00267365D01*
X00417185Y00267365D01*
X00414645Y00264825D01*
X00413663Y00263354D01*
X00413318Y0026162D01*
Y0024509D01*
X0041101D01*
Y0022551D01*
X0043739D01*
Y00226156D01*
X0043895Y0022805D01*
X0043993Y0022805D01*
X0044755D01*
Y0024255D01*
X0043993D01*
X0043895Y0024255D01*
X00438553Y00243032D01*
X0043739Y0024509D01*
X00438808Y00246971D01*
X00439527Y0024769D01*
X00506639D01*
X00508373Y00248035D01*
X00509843Y00249017D01*
X00512571Y00251745D01*
X00514918Y00250773D01*
Y0024509D01*
X0051261D01*
Y00244444D01*
X0051105Y0024255D01*
X0051007Y0024255D01*
X0050245D01*
Y0022805D01*
X0051007D01*
X0051105Y0022805D01*
X0051261Y00226156D01*
Y0022551D01*
X0052629D01*
Y0024509D01*
X00523982D01*
Y00251876D01*
X00524048Y00251916D01*
X00526821Y00250616D01*
X00526931Y0025006D01*
X00528156Y00248228D01*
X00529988Y00247003D01*
X0053088Y00246826D01*
Y00252222D01*
Y00258024D01*
X00529825Y00259998D01*
X00533205Y00263377D01*
X00533205Y00263377D01*
X00534187Y00264848D01*
X00534532Y00266582D01*
X00534532Y00266582D01*
Y00307679D01*
X00537072Y00308718D01*
X00544173Y00301617D01*
X00545853Y00300494D01*
X00547835Y003001D01*
X00566859D01*
X00567281Y00299753D01*
X00567992Y00297507D01*
X00567992D01*
Y00284522D01*
X0056556Y00282299D01*
X0056492Y00282325D01*
X00561991Y00285254D01*
Y00297507D01*
X00548991D01*
Y00282507D01*
X00553549D01*
Y00265128D01*
X00545255Y00256834D01*
X00544834Y00256204D01*
X00544686Y0025546D01*
Y0022422D01*
X00539658Y00219192D01*
X004251D01*
X00424356Y00219044D01*
X00423726Y00218623D01*
X0041811Y00213007D01*
X0041785Y00213059D01*
X00416679Y00212826D01*
X00415687Y00212163D01*
X00415024Y00211171D01*
X00414791Y0021D01*
X00415024Y00208829D01*
X00415687Y00207837D01*
X00416679Y00207174D01*
X0041785Y00206941D01*
X0041902Y00207174D01*
X00420013Y00207837D01*
X00420676Y00208829D01*
X00420909Y0021D01*
X00420857Y0021026D01*
X00425904Y00215308D01*
X00540463D01*
X00541206Y00215456D01*
X00541836Y00215877D01*
X00548002Y00222042D01*
X00548002Y00222042D01*
X00548423Y00222672D01*
X00548571Y00223415D01*
Y00254656D01*
X00556865Y0026295D01*
X00556865Y0026295D01*
X00557286Y0026358D01*
X00557434Y00264324D01*
X00557434Y00264324D01*
Y00280747D01*
X00559974Y00281778D01*
X00561733Y00280019D01*
X00561752Y00279923D01*
X00562173Y00279292D01*
X00564777Y00276689D01*
X00565407Y00276268D01*
X0056615Y0027612D01*
X00578261D01*
X00594558Y00259823D01*
Y00237732D01*
X00594706Y00236989D01*
X00595127Y00236358D01*
X00597608Y00233877D01*
X00598239Y00233456D01*
X00598982Y00233308D01*
X0061119D01*
X00611337Y00233087D01*
X00612329Y00232424D01*
X006135Y00232191D01*
X00614671Y00232424D01*
X00615663Y00233087D01*
X00616326Y00234079D01*
X00616559Y0023525D01*
X00616326Y0023642D01*
X00615663Y00237413D01*
X00615442Y0023756D01*
Y00250848D01*
X0061798D01*
Y00265848D01*
X0060498D01*
Y00250848D01*
X00611558D01*
Y0023756D01*
X00611337Y00237413D01*
X0061119Y00237192D01*
X00599786D01*
X00598442Y00238536D01*
Y00260628D01*
X00598442Y00260628D01*
X00598294Y00261371D01*
X00597873Y00262001D01*
X00580439Y00279436D01*
X00579809Y00279856D01*
X00579066Y00280004D01*
X00579156Y00282507D01*
X00580992D01*
Y00297507D01*
X00579735D01*
Y00312976D01*
X00579735Y00312976D01*
X00579341Y00314958D01*
X00578991Y00315481D01*
Y003229D01*
X00574394D01*
X00573491Y00323079D01*
X00572589Y003229D01*
X00567991D01*
Y00313737D01*
X00564714Y00310459D01*
X00549981D01*
X00545179Y00315261D01*
Y00398639D01*
X00549981Y0040344D01*
X00563158D01*
X0056437Y00402631D01*
X00564976Y0040251D01*
X00567991Y00399495D01*
Y00391D01*
X00572589D01*
X00573491Y0039082D01*
X00573902Y00390902D01*
X00573911Y003909D01*
X00574412Y00391D01*
X00578991D01*
Y00393835D01*
X00581503Y00396346D01*
X00604042D01*
X00606025Y0039674D01*
X00607705Y00397863D01*
X00610537Y00400696D01*
X00610699Y00400728D01*
X00612379Y00401851D01*
X00613502Y00403531D01*
X00613896Y00405513D01*
X00613502Y00407495D01*
X00612379Y00409175D01*
X00610699Y00410298D01*
X00608717Y00410692D01*
X0060803D01*
X00606048Y00410298D01*
X00604367Y00409175D01*
X00601897Y00406705D01*
X00579357D01*
X00578465Y00407438D01*
Y00417D01*
X00578991D01*
Y00427D01*
X00578671D01*
Y00443D01*
X00578991D01*
Y00453D01*
X00574394D01*
X00573491Y00453179D01*
X00572589Y00453D01*
X00567991D01*
Y00443D01*
X00568312D01*
Y00427D01*
X00567991D01*
Y00417D01*
X00567991Y00417D01*
X00567991Y00417D01*
X00567091Y00414832D01*
X00565566Y00413716D01*
X00565148Y00413799D01*
X00547835D01*
X00545853Y00413405D01*
X00544173Y00412282D01*
X00536338Y00404447D01*
X00535215Y00402766D01*
X00534821Y00400784D01*
Y00392181D01*
X00532281Y00391129D01*
X0051246Y0041095D01*
X00512219Y00412162D01*
X00510994Y00413994D01*
X00509162Y00415219D01*
X00507Y00415648D01*
X00504838Y00415219D01*
X00503006Y00413994D01*
X00501782Y00412162D01*
X00501352Y0041D01*
X00501782Y00407838D01*
X00503006Y00406006D01*
X00504838Y00404781D01*
X0050605Y0040454D01*
X00525468Y00385123D01*
Y00354999D01*
X00522928Y00353947D01*
X00441032Y00435843D01*
Y00453301D01*
X00441311Y00453417D01*
X00443304Y00454946D01*
X00444833Y00456939D01*
X00445794Y0045926D01*
X00446122Y0046175D01*
X00445794Y00464241D01*
X00444833Y00466561D01*
X00443304Y00468554D01*
X00441311Y00470083D01*
X00438991Y00471045D01*
X004365Y00471372D01*
X0043401Y00471045D01*
X00431689Y00470083D01*
X00431006Y00469559D01*
X00428466Y00470812D01*
Y00544477D01*
X00487254Y00603265D01*
X00488237Y00604735D01*
X00488582Y0060647D01*
Y0061076D01*
X00493076D01*
Y0060803D01*
D02*
G37*
G36*
X00584932Y00515452D02*
X00600012D01*
Y00519607D01*
X00606808D01*
X00608604Y00517811D01*
X00608604Y00515452D01*
X00608604Y00512912D01*
Y00498877D01*
X0057529D01*
Y0051317D01*
X0057529Y0051479D01*
X0057529Y0051733D01*
Y00531366D01*
X00584932D01*
Y00515452D01*
D02*
G37*
G36*
X00859911Y00406603D02*
X00861172Y00405761D01*
X00862658Y00405466D01*
X00867468D01*
Y0039046D01*
X00871624D01*
Y00381498D01*
X0086746D01*
Y00377635D01*
X00857109D01*
X00821497Y00413247D01*
X00820237Y00414089D01*
X0081875Y00414385D01*
X00806878D01*
X00806188Y00415253D01*
X00805308Y00416925D01*
X00805396Y00417365D01*
X00794604D01*
X00794692Y00416925D01*
X00793812Y00415253D01*
X00793122Y00414385D01*
X00775389D01*
Y0041444D01*
X00773864D01*
X0077285Y004169D01*
Y004191D01*
X0077285Y0041944D01*
Y004219D01*
X00757744Y004219D01*
X00756297Y00424045D01*
X00757457Y00425205D01*
X00757457Y00425206D01*
X00758944Y00426694D01*
X00758945Y00426694D01*
X00761066Y00428815D01*
X00837699D01*
X00859911Y00406603D01*
D02*
G37*
G36*
X00852753Y00371003D02*
X00854013Y00370161D01*
X008555Y00369865D01*
X0086746D01*
Y00366418D01*
X0088354D01*
Y00381498D01*
X00879393D01*
Y0039046D01*
X00883549D01*
Y00405466D01*
X00886828D01*
X00887008Y00403D01*
X00887008D01*
Y00393D01*
X00891606D01*
X00892508Y00392821D01*
X00909854D01*
X00924094Y00378581D01*
Y00357193D01*
X00921177Y00354275D01*
X00892508D01*
X00891606Y00354096D01*
X00887008D01*
Y00344096D01*
X00891606D01*
X00892508Y00343916D01*
X00923322D01*
X00924094Y00343282D01*
Y0030618D01*
X00915D01*
Y00295821D01*
X00924094D01*
Y00263097D01*
X00921177Y0026018D01*
X00915D01*
Y00246885D01*
X00884572D01*
X0088354Y0024746D01*
Y0026254D01*
X0086746D01*
Y0024746D01*
X0087076D01*
Y0024418D01*
X00869516Y00242936D01*
X008669Y0024299D01*
Y002255D01*
X0081988D01*
Y0025D01*
X0083254D01*
Y0026608D01*
X0082825D01*
Y00311001D01*
X00867386D01*
Y0030473D01*
X0086746Y00304354D01*
Y0029346D01*
X00871616D01*
Y00285541D01*
X00867952D01*
Y0027046D01*
X0088157D01*
X00882217Y00269568D01*
X00882255Y0026919D01*
X0088223Y0026792D01*
X00882256Y00269251D01*
X00882652Y0027046D01*
X00884032D01*
Y00285541D01*
X00879385D01*
Y0029346D01*
X0088354D01*
Y0030854D01*
X00875155D01*
Y00313582D01*
X00874889Y00314921D01*
X00874887Y00315114D01*
X00876316Y00317461D01*
X0088354D01*
Y00332541D01*
X00879393D01*
Y00341556D01*
X00883549D01*
Y00356636D01*
X00867468D01*
Y00342118D01*
X00865275Y0034072D01*
X00801726Y00404269D01*
X00802698Y00406615D01*
X00817141D01*
X00852753Y00371003D01*
D02*
G37*
G36*
X00520571Y00148265D02*
X00508795Y0013649D01*
X00507813Y0013502D01*
X00507468Y00133285D01*
Y00109627D01*
X00471973Y00074132D01*
X0039649D01*
Y0008816D01*
Y0010086D01*
Y0011356D01*
Y0012724D01*
X00395844D01*
X0039395Y001288D01*
X0039395Y0012978D01*
Y0013642D01*
X0039395Y001374D01*
X00395844Y0013896D01*
X0039649D01*
Y00141915D01*
X00449056D01*
X00449827Y00139375D01*
X00449256Y00138994D01*
X00448031Y00137162D01*
X00447854Y0013627D01*
X00458646D01*
X00458469Y00137162D01*
X00457244Y00138994D01*
X0045597Y00139845D01*
X00455834Y00140315D01*
X00455793Y00141893D01*
X0045597Y00142668D01*
X00456547Y00143053D01*
X00464299Y00150805D01*
X00519519D01*
X00520571Y00148265D01*
D02*
G37*
%LPC*%
G36*
X0044102Y00684396D02*
Y0068027D01*
X00445146D01*
X00444969Y00681162D01*
X00443744Y00682994D01*
X00441912Y00684219D01*
X0044102Y00684396D01*
D02*
G37*
G36*
X0043848D02*
X00437588Y00684219D01*
X00435756Y00682994D01*
X00434532Y00681162D01*
X00434354Y0068027D01*
X0043848D01*
Y00684396D01*
D02*
G37*
G36*
X00445146Y0067773D02*
X0044102D01*
Y00673604D01*
X00441912Y00673782D01*
X00443744Y00675006D01*
X00444969Y00676838D01*
X00445146Y0067773D01*
D02*
G37*
G36*
X0043848D02*
X00434354D01*
X00434532Y00676838D01*
X00435756Y00675006D01*
X00437588Y00673782D01*
X0043848Y00673604D01*
Y0067773D01*
D02*
G37*
G36*
X004615Y00471372D02*
X0045901Y00471045D01*
X00456689Y00470083D01*
X00454696Y00468554D01*
X00453167Y00466561D01*
X00452206Y00464241D01*
X00451878Y0046175D01*
X00452206Y0045926D01*
X00453167Y00456939D01*
X00454696Y00454946D01*
X00456689Y00453417D01*
X0045901Y00452456D01*
X004615Y00452128D01*
X00463991Y00452456D01*
X00466311Y00453417D01*
X00468304Y00454946D01*
X00469833Y00456939D01*
X00470795Y0045926D01*
X00471123Y0046175D01*
X00470795Y00464241D01*
X00469833Y00466561D01*
X00468304Y00468554D01*
X00466311Y00470083D01*
X00463991Y00471045D01*
X004615Y00471372D01*
D02*
G37*
G36*
X00740329Y00416047D02*
X00739437Y0041587D01*
X00737605Y00414645D01*
X0073638Y00412813D01*
X00736203Y00411921D01*
X00740329D01*
Y00416047D01*
D02*
G37*
G36*
X0068925Y004169D02*
X0067365D01*
Y004141D01*
X0068925D01*
Y00414126D01*
X00698697D01*
Y00409106D01*
X00697447Y00406875D01*
X00697447Y00406875D01*
X0068925D01*
Y004069D01*
X0067365D01*
Y00406745D01*
X00665238D01*
X00664995Y0040711D01*
X00664002Y00407773D01*
X00662832Y00408006D01*
X00661661Y00407773D01*
X00660669Y0040711D01*
X00660006Y00406118D01*
X00659773Y00404947D01*
X00660006Y00403777D01*
X00660669Y00402784D01*
X00661661Y00402121D01*
X00662832Y00401888D01*
X00664002Y00402121D01*
X00664995Y00402784D01*
X00665658Y00403777D01*
X00665701Y00403996D01*
X00672577D01*
X0067365Y004019D01*
X0067365Y00401456D01*
Y003991D01*
X0068925D01*
Y0040156D01*
X0068925Y004019D01*
X00690009Y00404126D01*
X00694558D01*
X00697013Y00403812D01*
X00697246Y00402641D01*
X00697909Y00401649D01*
X0069813Y00401502D01*
Y00391287D01*
X00696273Y0038943D01*
X00695852Y003888D01*
X00695704Y00388059D01*
X0069465Y00387005D01*
X00690324D01*
X0068925Y003891D01*
X0068925Y00389545D01*
Y003919D01*
X0067365D01*
Y00391875D01*
X0066984D01*
X00668908Y00391489D01*
X0063437D01*
X0063437Y00391489D01*
X00633398Y00391086D01*
X00633398Y00391086D01*
X00629267Y00386955D01*
X00610337D01*
X00610337Y00386955D01*
X00609365Y00386552D01*
X00605107Y00382294D01*
X00585012D01*
X00585012Y00382295D01*
X0058404Y00381892D01*
X0058404Y00381892D01*
X00577048Y003749D01*
X00567991D01*
Y003649D01*
X00578991D01*
Y00372955D01*
X00585581Y00379545D01*
X00605676D01*
X00605676Y00379545D01*
X00606648Y00379948D01*
X00610906Y00384206D01*
X00622675D01*
X00622925Y00381665D01*
X00621772Y00381436D01*
X00620512Y00380594D01*
X00587659Y00347742D01*
X00581531D01*
Y00351397D01*
X00565451D01*
Y00336777D01*
X00565234Y00336734D01*
X00563401Y00335509D01*
X00562177Y00333677D01*
X00561999Y00332785D01*
X00572791D01*
X00572614Y00333677D01*
X00572547Y00333777D01*
X00573904Y00336317D01*
X00581531D01*
Y00339972D01*
X00589268D01*
X00590755Y00340268D01*
X00592015Y0034111D01*
X00624868Y00373963D01*
X0066785D01*
X00669336Y00374258D01*
X00670597Y003751D01*
X0067111Y00375614D01*
X0067365Y00374562D01*
X0067365Y003741D01*
Y003719D01*
X0067365Y0037156D01*
Y003691D01*
X0068925D01*
Y0037156D01*
X0068925Y003719D01*
Y003741D01*
X00690264Y0037656D01*
X0069179D01*
Y00384256D01*
X0069522D01*
X0069522Y00384256D01*
X00696192Y00384658D01*
X00697648Y00386115D01*
X0069839Y00386262D01*
X0069902Y00386683D01*
X00701445Y00389109D01*
X00701866Y00389739D01*
X00702014Y00390482D01*
Y00401502D01*
X00702235Y00401649D01*
X00702898Y00402641D01*
X00703131Y00403812D01*
X00702898Y00404982D01*
X00702235Y00405975D01*
X00701447Y00406502D01*
Y004155D01*
X00701044Y00416472D01*
X00700072Y00416875D01*
X0068925D01*
Y004169D01*
D02*
G37*
G36*
X00740329Y00409381D02*
X00736203D01*
X0073638Y00408489D01*
X00737605Y00406657D01*
X00739437Y00405433D01*
X00740329Y00405255D01*
Y00409381D01*
D02*
G37*
G36*
X00648331Y0040567D02*
Y00401544D01*
X00652457D01*
X0065228Y00402436D01*
X00651055Y00404268D01*
X00649222Y00405493D01*
X00648331Y0040567D01*
D02*
G37*
G36*
X00645791D02*
X00644899Y00405493D01*
X00643067Y00404268D01*
X00641842Y00402436D01*
X00641665Y00401544D01*
X00645791D01*
Y0040567D01*
D02*
G37*
G36*
X00652457Y00399004D02*
X00648331D01*
Y00394878D01*
X00649222Y00395055D01*
X00651055Y0039628D01*
X0065228Y00398112D01*
X00652457Y00399004D01*
D02*
G37*
G36*
X00645791D02*
X00641665D01*
X00641842Y00398112D01*
X00643067Y0039628D01*
X00644899Y00395055D01*
X00645791Y00394878D01*
Y00399004D01*
D02*
G37*
G36*
X0041327Y00371896D02*
Y0036777D01*
X00417396D01*
X00417219Y00368662D01*
X00415994Y00370494D01*
X00414162Y00371719D01*
X0041327Y00371896D01*
D02*
G37*
G36*
X0041073D02*
X00409838Y00371719D01*
X00408006Y00370494D01*
X00406782Y00368662D01*
X00406604Y0036777D01*
X0041073D01*
Y00371896D01*
D02*
G37*
G36*
Y0036523D02*
X00406604D01*
X00406782Y00364338D01*
X00408006Y00362506D01*
X00409838Y00361281D01*
X0041073Y00361104D01*
Y0036523D01*
D02*
G37*
G36*
X0050873Y00342396D02*
X00507838Y00342219D01*
X00506006Y00340994D01*
X00504781Y00339162D01*
X00504604Y0033827D01*
X0050873D01*
Y00342396D01*
D02*
G37*
G36*
X0071448Y00336559D02*
X00713588Y00336382D01*
X00711756Y00335158D01*
X00710531Y00333325D01*
X00710354Y00332433D01*
X0071448D01*
Y00336559D01*
D02*
G37*
G36*
X0050873Y0033573D02*
X00504604D01*
X00504781Y00334838D01*
X00506006Y00333006D01*
X00507838Y00331782D01*
X0050873Y00331604D01*
Y0033573D01*
D02*
G37*
G36*
X00572791Y00330245D02*
X00568665D01*
Y00326119D01*
X00569557Y00326297D01*
X00571389Y00327521D01*
X00572614Y00329354D01*
X00572791Y00330245D01*
D02*
G37*
G36*
X00566125D02*
X00561999D01*
X00562177Y00329354D01*
X00563401Y00327521D01*
X00565234Y00326297D01*
X00566125Y00326119D01*
Y00330245D01*
D02*
G37*
G36*
X00687785Y00304396D02*
Y0030027D01*
X00691911D01*
X00691733Y00301162D01*
X00690509Y00302994D01*
X00688676Y00304219D01*
X00687785Y00304396D01*
D02*
G37*
G36*
X00685245D02*
X00684353Y00304219D01*
X00682521Y00302994D01*
X00681296Y00301162D01*
X00681119Y0030027D01*
X00685245D01*
Y00304396D01*
D02*
G37*
G36*
X00691911Y0029773D02*
X00687785D01*
Y00293604D01*
X00688676Y00293782D01*
X00690509Y00295006D01*
X00691733Y00296838D01*
X00691911Y0029773D01*
D02*
G37*
G36*
X00685245D02*
X00681119D01*
X00681296Y00296838D01*
X00682521Y00295006D01*
X00684353Y00293782D01*
X00685245Y00293604D01*
Y0029773D01*
D02*
G37*
G36*
X0050527Y00273146D02*
Y0026902D01*
X00509396D01*
X00509219Y00269912D01*
X00507994Y00271744D01*
X00506162Y00272969D01*
X0050527Y00273146D01*
D02*
G37*
G36*
X0050273D02*
X00501838Y00272969D01*
X00500006Y00271744D01*
X00498782Y00269912D01*
X00498604Y0026902D01*
X0050273D01*
Y00273146D01*
D02*
G37*
G36*
X00509396Y0026648D02*
X0050527D01*
Y00262354D01*
X00506162Y00262532D01*
X00507994Y00263756D01*
X00509219Y00265588D01*
X00509396Y0026648D01*
D02*
G37*
G36*
X0050273D02*
X00498604D01*
X00498782Y00265588D01*
X00500006Y00263756D01*
X00501838Y00262532D01*
X0050273Y00262354D01*
Y0026648D01*
D02*
G37*
G36*
X0053342Y00257618D02*
Y00253492D01*
X00537546D01*
X00537368Y00254384D01*
X00536144Y00256216D01*
X00534311Y00257441D01*
X0053342Y00257618D01*
D02*
G37*
G36*
X0063698Y00265848D02*
X0062398D01*
Y00250848D01*
X00624748D01*
Y00234442D01*
X00625142Y0023246D01*
X00626265Y00230779D01*
X00627946Y00229657D01*
X00629928Y00229263D01*
X0063191Y00229657D01*
X0063359Y00230779D01*
X00634713Y0023246D01*
X00635107Y00234442D01*
Y00250848D01*
X0063698D01*
Y00253139D01*
X00649372D01*
Y00252848D01*
X00659372D01*
Y00253177D01*
X00673415D01*
Y00252856D01*
X00683415D01*
Y00257453D01*
X00683594Y00258356D01*
X00683415Y00259259D01*
Y00263856D01*
X00673415D01*
Y00263536D01*
X00659372D01*
Y00263848D01*
X00649372D01*
Y00263498D01*
X0063698D01*
Y00265848D01*
D02*
G37*
G36*
X00537546Y00250952D02*
X0053342D01*
Y00246826D01*
X00534311Y00247003D01*
X00536144Y00248228D01*
X00537368Y0025006D01*
X00537546Y00250952D01*
D02*
G37*
G36*
X0049835Y0024255D02*
X0048975D01*
Y0022805D01*
X0049835D01*
Y0024255D01*
D02*
G37*
G36*
X0048565D02*
X0047705D01*
Y0022805D01*
X0048565D01*
Y0024255D01*
D02*
G37*
G36*
X0047295D02*
X0046435D01*
Y0022805D01*
X0047295D01*
Y0024255D01*
D02*
G37*
G36*
X0046025D02*
X0045165D01*
Y0022805D01*
X0046025D01*
Y0024255D01*
D02*
G37*
G36*
X0067902Y00227591D02*
Y00223465D01*
X00683146D01*
X00682969Y00224357D01*
X00681744Y00226189D01*
X00679912Y00227414D01*
X0067902Y00227591D01*
D02*
G37*
G36*
X0067648D02*
X00675588Y00227414D01*
X00673756Y00226189D01*
X00672532Y00224357D01*
X00672354Y00223465D01*
X0067648D01*
Y00227591D01*
D02*
G37*
G36*
X0031675Y00173122D02*
X00314259Y00172794D01*
X00311938Y00171833D01*
X00309946Y00170304D01*
X00308417Y00168311D01*
X00307455Y0016599D01*
X00307127Y001635D01*
X00307455Y00161009D01*
X00308417Y00158689D01*
X00309946Y00156696D01*
X00311938Y00155167D01*
X00314259Y00154205D01*
X0031675Y00153877D01*
X0031924Y00154205D01*
X00321561Y00155167D01*
X00323554Y00156696D01*
X00325083Y00158689D01*
X00326044Y00161009D01*
X00326372Y001635D01*
X00326044Y0016599D01*
X00325083Y00168311D01*
X00323554Y00170304D01*
X00321561Y00171833D01*
X0031924Y00172794D01*
X0031675Y00173122D01*
D02*
G37*
G36*
X0031802Y00147955D02*
Y0013977D01*
X00326205D01*
X00326044Y0014099D01*
X00325083Y00143311D01*
X00323554Y00145304D01*
X00321561Y00146833D01*
X0031924Y00147795D01*
X0031802Y00147955D01*
D02*
G37*
G36*
X0031548D02*
X00314259Y00147795D01*
X00311938Y00146833D01*
X00309946Y00145304D01*
X00308417Y00143311D01*
X00307455Y0014099D01*
X00307295Y0013977D01*
X0031548D01*
Y00147955D01*
D02*
G37*
G36*
X00326205Y0013723D02*
X0031802D01*
Y00129045D01*
X0031924Y00129206D01*
X00321561Y00130167D01*
X00323554Y00131696D01*
X00325083Y00133689D01*
X00326044Y0013601D01*
X00326205Y0013723D01*
D02*
G37*
G36*
X0031548D02*
X00307295D01*
X00307455Y0013601D01*
X00308417Y00133689D01*
X00309946Y00131696D01*
X00311938Y00130167D01*
X00314259Y00129206D01*
X0031548Y00129045D01*
Y0013723D01*
D02*
G37*
G36*
X0032375Y001205D02*
X0030975D01*
Y001065D01*
X0032375D01*
Y001205D01*
D02*
G37*
G36*
X0035964Y00050396D02*
Y0004627D01*
X00363766D01*
X00363588Y00047162D01*
X00362364Y00048994D01*
X00360531Y00050219D01*
X0035964Y00050396D01*
D02*
G37*
G36*
X003571D02*
X00356208Y00050219D01*
X00354376Y00048994D01*
X00353151Y00047162D01*
X00352974Y0004627D01*
X003571D01*
Y00050396D01*
D02*
G37*
G36*
X00363766Y0004373D02*
X0035964D01*
Y00039604D01*
X00360531Y00039782D01*
X00362364Y00041006D01*
X00363588Y00042839D01*
X00363766Y0004373D01*
D02*
G37*
G36*
X003571D02*
X00352974D01*
X00353151Y00042839D01*
X00354376Y00041006D01*
X00356208Y00039782D01*
X003571Y00039604D01*
Y0004373D01*
D02*
G37*
G36*
X0029967Y0003896D02*
Y0003027D01*
X0030836D01*
X00308182Y00031621D01*
X0030717Y00034063D01*
X00305561Y00036161D01*
X00303463Y0003777D01*
X00301021Y00038782D01*
X0029967Y0003896D01*
D02*
G37*
G36*
X0029713D02*
X00295779Y00038782D01*
X00293337Y0003777D01*
X0029124Y00036161D01*
X0028963Y00034063D01*
X00288619Y00031621D01*
X00288441Y0003027D01*
X0029713D01*
Y0003896D01*
D02*
G37*
G36*
X0030836Y0002773D02*
X0029967D01*
Y00019041D01*
X00301021Y00019219D01*
X00303463Y0002023D01*
X00305561Y0002184D01*
X0030717Y00023937D01*
X00308182Y00026379D01*
X0030836Y0002773D01*
D02*
G37*
G36*
X0029713D02*
X00288441D01*
X00288619Y00026379D01*
X0028963Y00023937D01*
X0029124Y0002184D01*
X00293337Y0002023D01*
X00295779Y00019219D01*
X0029713Y00019041D01*
Y0002773D01*
D02*
G37*
G36*
X0080127Y00424031D02*
Y00419905D01*
X00805396D01*
X00805219Y00420797D01*
X00803994Y00422629D01*
X00802162Y00423854D01*
X0080127Y00424031D01*
D02*
G37*
G36*
X0079873D02*
X00797838Y00423854D01*
X00796006Y00422629D01*
X00794781Y00420797D01*
X00794604Y00419905D01*
X0079873D01*
Y00424031D01*
D02*
G37*
G36*
X0091377Y00378646D02*
Y0037452D01*
X00917896D01*
X00917719Y00375412D01*
X00916494Y00377244D01*
X00914662Y00378469D01*
X0091377Y00378646D01*
D02*
G37*
G36*
X0091123D02*
X00910338Y00378469D01*
X00908506Y00377244D01*
X00907281Y00375412D01*
X00907104Y0037452D01*
X0091123D01*
Y00378646D01*
D02*
G37*
G36*
X00917896Y0037198D02*
X0091377D01*
Y00367854D01*
X00914662Y00368031D01*
X00916494Y00369256D01*
X00917719Y00371088D01*
X00917896Y0037198D01*
D02*
G37*
G36*
X0091123D02*
X00907104D01*
X00907281Y00371088D01*
X00908506Y00369256D01*
X00910338Y00368031D01*
X0091123Y00367854D01*
Y0037198D01*
D02*
G37*
G36*
X0091327Y00327976D02*
Y0032385D01*
X00917396D01*
X00917219Y00324742D01*
X00915994Y00326574D01*
X00914162Y00327799D01*
X0091327Y00327976D01*
D02*
G37*
G36*
X0091073D02*
X00909838Y00327799D01*
X00908006Y00326574D01*
X00906781Y00324742D01*
X00906604Y0032385D01*
X0091073D01*
Y00327976D01*
D02*
G37*
G36*
X00917396Y0032131D02*
X0091327D01*
Y00317184D01*
X00914162Y00317361D01*
X00915994Y00318586D01*
X00917219Y00320418D01*
X00917396Y0032131D01*
D02*
G37*
G36*
X0091073D02*
X00906604D01*
X00906781Y00320418D01*
X00908006Y00318586D01*
X00909838Y00317361D01*
X0091073Y00317184D01*
Y0032131D01*
D02*
G37*
G36*
X0091177Y00283396D02*
Y0027927D01*
X00915896D01*
X00915719Y00280162D01*
X00914494Y00281995D01*
X00912662Y00283219D01*
X0091177Y00283396D01*
D02*
G37*
G36*
X0090923D02*
X00908338Y00283219D01*
X00906506Y00281995D01*
X00905282Y00280162D01*
X00905104Y0027927D01*
X0090923D01*
Y00283396D01*
D02*
G37*
G36*
X00915896Y0027673D02*
X0091177D01*
Y00272605D01*
X00912662Y00272782D01*
X00914494Y00274006D01*
X00915719Y00275839D01*
X00915896Y0027673D01*
D02*
G37*
G36*
X0090923D02*
X00905104D01*
X00905282Y00275839D01*
X00906506Y00274006D01*
X00908338Y00272782D01*
X0090923Y00272605D01*
Y0027673D01*
D02*
G37*
G36*
X00838394Y00238596D02*
Y00234396D01*
X00842595D01*
X00841821Y00236264D01*
X00840263Y00237822D01*
X00838394Y00238596D01*
D02*
G37*
G36*
X00835854D02*
X00833986Y00237822D01*
X00832428Y00236264D01*
X00831654Y00234396D01*
X00835854D01*
Y00238596D01*
D02*
G37*
G36*
X00842595Y00231856D02*
X00838394D01*
Y00227655D01*
X00840263Y00228429D01*
X00841821Y00229988D01*
X00842595Y00231856D01*
D02*
G37*
G36*
X00835854D02*
X00831654D01*
X00832428Y00229988D01*
X00833986Y00228429D01*
X00835854Y00227655D01*
Y00231856D01*
D02*
G37*
G36*
X00458646Y0013373D02*
X0045452D01*
Y00129604D01*
X00455412Y00129782D01*
X00457244Y00131006D01*
X00458469Y00132838D01*
X00458646Y0013373D01*
D02*
G37*
G36*
X0045198D02*
X00447854D01*
X00448031Y00132838D01*
X00449256Y00131006D01*
X00451088Y00129782D01*
X0045198Y00129604D01*
Y0013373D01*
D02*
G37*
%LPD*%
D14*
X00337Y00640054D02*
Y0065525D01*
X003645Y0071575D02*
Y00725D01*
X003595Y0071075D02*
X003645Y0071575D01*
X003595Y0068915D02*
X00360968Y00687682D01*
X003595Y0068915D02*
Y0071075D01*
X0034237Y00029D02*
X0035837Y00045D01*
X002984Y00029D02*
X0034237D01*
X00651776Y003562D02*
X0069575D01*
X00648186Y0035979D02*
X00651776Y003562D01*
X004885Y001645D02*
X00515473Y00191472D01*
X00396938Y001645D02*
X004885D01*
X003867Y001585D02*
X0038965D01*
X0039268Y0016153D01*
Y00161602D01*
X00394168Y0016309D02*
X00395528D01*
X00396938Y001645D01*
X0039268Y00161602D02*
X00394168Y0016309D01*
X0067775Y00222195D02*
Y00240691D01*
X00671102Y0038037D02*
X00671102Y0038037D01*
X00671406D01*
X00623258Y00377847D02*
X0066785D01*
X00671406Y0038037D02*
X0068132D01*
X00670373Y0038037D02*
X00671102D01*
X00671406Y0038037D02*
X00671406Y0038037D01*
X0066785Y00377847D02*
X00670373Y0038037D01*
X00589268Y00343857D02*
X00623258Y00377847D01*
X0068132Y0038037D02*
X0068145Y003805D01*
X0064725Y0035979D02*
X00648186D01*
X0072562Y00459461D02*
X00726581Y004585D01*
X0072562Y00459461D02*
Y00466806D01*
X0073075Y004398D02*
Y004585D01*
X00726581D02*
X0073067D01*
X0074575Y004398D02*
Y00464729D01*
X0073075Y00319738D02*
X00736738Y0031375D01*
X0075225D01*
X0070475Y00458464D02*
X00712172Y00451042D01*
X0070475Y00458464D02*
Y0047925D01*
X00662832Y00415107D02*
X00667309Y0041063D01*
X0068132D01*
X00649923Y00415107D02*
X00662832D01*
X00648436Y00401649D02*
Y00413619D01*
X00649923Y00415107D01*
X008755Y00243D02*
X00928165D01*
X008755D02*
Y00255D01*
X00928165Y00243D02*
X0094475Y00259585D01*
X00875292Y00255D02*
X008755D01*
X0094475Y00259585D02*
Y0038575D01*
X0092115Y0040935D02*
X0094475Y0038575D01*
X0073575Y00327643D02*
X0074083Y00322563D01*
X0073575Y00327643D02*
Y003562D01*
X0070575Y00334971D02*
X0071083Y00340051D01*
X0070575Y00318235D02*
Y00334971D01*
X0071075Y003562D02*
X0071083Y0035612D01*
Y00340051D02*
Y0035612D01*
X0071575Y00331163D02*
Y003515D01*
X00722987Y00325149D02*
Y00346171D01*
X0073075Y00319738D02*
Y003562D01*
X0072088Y00348278D02*
X00722987Y00346171D01*
X0072075Y003562D02*
X0072088Y00356071D01*
Y00348278D02*
Y00356071D01*
X007224Y00324562D02*
X00722987Y00325149D01*
X0071062Y0035633D02*
X0071083Y0035612D01*
X0070562Y004335D02*
Y00439219D01*
Y0043327D02*
Y004335D01*
Y00432237D02*
Y0043327D01*
X006921Y00429199D02*
X00702582D01*
X0070562Y00432237D01*
Y00439219D02*
X0070587Y0043947D01*
X00605676Y0038092D02*
X00610337Y0038558D01*
X00629836D02*
X0063437Y00390114D01*
X00610337Y0038558D02*
X00629836D01*
X00700072Y00403812D02*
Y004155D01*
X0068145D02*
X00700072D01*
X0087654Y00506992D02*
X00885052D01*
X00634808Y00642892D02*
X00643625Y00634075D01*
X00727Y00258848D02*
Y0026717D01*
X00688808Y0016899D02*
X00707698Y0018788D01*
X00670208Y00131381D02*
X00697207D01*
X00034039Y00498834D02*
Y005243D01*
X000285Y0046585D02*
X00031553Y00468903D01*
X00238417Y00440966D02*
Y00451417D01*
X00133399Y00144861D02*
X00193012D01*
X0071575Y003625D02*
Y00401904D01*
X0072588Y0036273D02*
Y0037563D01*
X0073075Y003805D01*
X0072575Y003562D02*
Y00362601D01*
X0072588Y0036273D01*
X0068145Y004205D02*
X00709132D01*
X0066432D02*
X0068145D01*
X0070575Y00342155D02*
Y003515D01*
X00698051Y00377157D02*
X0071062Y00364588D01*
Y0035633D02*
Y00364588D01*
X0077516Y0040034D02*
X008505Y00325001D01*
X00859852D01*
X0076505Y0040034D02*
X0077516D01*
X00859852Y00325001D02*
X0087127Y00313582D01*
Y0030473D02*
Y00313582D01*
Y0030473D02*
X00875001Y00301D01*
X008755D01*
X00875001Y00325001D02*
X00875508Y00325509D01*
X00875001Y00325001D02*
X008755D01*
X00875D02*
X00875001D01*
X0076505Y0040542D02*
X00795081D01*
X0076505Y004105D02*
X0081875D01*
X00795081Y0040542D02*
X0087127Y00329231D01*
X0075083Y0044633D02*
Y00457865D01*
X0075075Y0044625D02*
X0075083Y0044633D01*
Y00457865D02*
X00751465Y004585D01*
X0075075Y00444337D02*
Y0044625D01*
X00759457Y004327D02*
X00839308D01*
X00756198Y00429441D02*
X00759457Y004327D01*
X00839308D02*
X00862658Y0040935D01*
X0071062Y00421988D02*
Y00431878D01*
X0074075Y00421988D02*
Y004398D01*
X0071062Y00421988D02*
X0074075D01*
Y004115D02*
Y00421988D01*
X00709132Y004205D02*
X0071062Y00421988D01*
X0072562Y00466806D02*
X00726556D01*
X00142071Y00587011D02*
Y0059535D01*
Y00587011D02*
X00157612Y00571471D01*
Y0055574D02*
Y00571471D01*
X00538637Y00577D02*
X005775D01*
X0062125Y0062075D02*
Y006735D01*
X005775Y00577D02*
X0062125Y0062075D01*
X00532682Y00582955D02*
X00538637Y00577D01*
X00532682Y00582955D02*
Y0069045D01*
X00522882Y0070025D02*
X00532682Y0069045D01*
X0045325Y00135D02*
X004879D01*
X004896Y001333D01*
X00193012Y00144861D02*
X001945Y00143373D01*
Y00109D02*
Y00143373D01*
X0071Y00616488D02*
Y0064D01*
X00708512Y00615D02*
X0071Y00616488D01*
X0051655Y0070025D02*
X00522882D01*
X0066475Y00598D02*
Y007746D01*
X00602Y0053525D02*
X0066475Y00598D01*
Y007746D02*
X0071Y00819849D01*
X00569238Y0053525D02*
X00602D01*
X00634307Y006735D02*
X00634808Y00672999D01*
Y00642892D02*
Y00672999D01*
X0062125Y006735D02*
X00634307D01*
X00099678Y00460322D02*
X00103868D01*
X001085Y0045569D01*
X0008275Y0047725D02*
X00099678Y00460322D01*
X001195Y0044369D02*
X0013418D01*
X001085Y0045469D02*
X001195Y0044369D01*
X0013418D02*
X0014618Y0045569D01*
X00686515Y00299D02*
X00716857Y00268658D01*
X00725512D01*
X00727Y0026717D01*
X00759188Y00352973D02*
X0076125D01*
X0074588Y00348279D02*
X00757158Y00337D01*
X0077925D01*
X00755961Y003562D02*
X00759188Y00352973D01*
X00694758Y00331163D02*
X0070575Y00342155D01*
X0073575Y004398D02*
Y00464729D01*
X00662832Y00415107D02*
Y00419012D01*
X0066432Y004205D01*
X001225Y0015576D02*
X00133399Y00144861D01*
X001225Y0015576D02*
Y00216D01*
X00892992Y00278001D02*
X009105D01*
X00630008Y0006438D02*
X00665698D01*
X00629668Y00062595D02*
Y00106342D01*
Y0006188D02*
Y00062595D01*
X00629588D02*
Y00064372D01*
Y00061961D02*
Y00062595D01*
X00629668D01*
X00628794D02*
X00629588D01*
X00545Y00051885D02*
X00550015Y000569D01*
X005633D01*
X0056625D01*
X00425784Y00679D02*
X0043975D01*
X00421284Y006745D02*
X00425784Y00679D01*
X00421284Y006935D02*
X00424034Y0069625D01*
X0043975D01*
X00045Y00367D02*
Y00428D01*
X0005425Y0043725D01*
X0008275Y0047725D02*
Y0047725D01*
X00793135Y004255D02*
X008Y00418635D01*
X0076505Y004255D02*
X00793135D01*
X0068132Y0041063D02*
X0068145Y004105D01*
X0068158Y0038563D02*
X0069522D01*
X00697646Y00388057D01*
X0068145Y003855D02*
X0068158Y0038563D01*
X0068145Y004055D02*
X00697447D01*
X00699136Y00403812D01*
X00700072D01*
X00698051Y00377157D02*
Y00378532D01*
X0074075Y003415D02*
X00752Y0033025D01*
X00688808Y00146379D02*
Y0016899D01*
Y00140363D02*
X00693968Y00135203D01*
X00677917Y00157271D02*
X00688808Y00146379D01*
Y00140363D02*
Y00146379D01*
X00640899Y00157271D02*
X00677917D01*
X00577519Y000696D02*
X00599451D01*
X00625778Y0006561D02*
Y00066485D01*
X00629668Y00106342D02*
X00630017Y0010669D01*
X00604352Y000745D02*
X00617763D01*
X00625778Y00066485D01*
Y0006561D02*
X00628794Y00062595D01*
X00599451Y000696D02*
X00604352Y000745D01*
X00565548Y00329668D02*
X00567395Y00331515D01*
X00556492Y003179D02*
X00556992D01*
X00565548Y00326457D01*
Y00329668D01*
X00647061Y00400274D02*
X00648436Y00401649D01*
X00663255Y0040537D02*
X0068132D01*
X00662832Y00404947D02*
X00663255Y0040537D01*
X0068132D02*
X0068145Y004055D01*
X00654584Y003955D02*
X0068145D01*
X00669454Y00390114D02*
X0066984Y003905D01*
X0068157D01*
X0063437Y00390114D02*
X00669454D01*
X00649118Y00400966D02*
X00654584Y003955D01*
X00585012Y0038092D02*
X00605676D01*
X00566992Y00386D02*
X00603572D01*
X00573992Y003699D02*
X00585012Y0038092D01*
X00603572Y00386D02*
X0061914Y00401568D01*
X00556992Y00396D02*
X00566992Y00386D01*
X00582801Y00428578D02*
X00593379Y00418D01*
X00564181Y00439487D02*
Y00454578D01*
X00566493Y0045689D01*
X00562693Y00438D02*
X00564181Y00439487D01*
X00556492Y00438D02*
X00562693D01*
X0061914Y00401568D02*
Y00416512D01*
X00566493Y0045689D02*
X0058049D01*
X00582801Y00428578D02*
Y00454578D01*
X0058049Y0045689D02*
X00582801Y00454578D01*
X00593379Y00418D02*
X00617652D01*
X0061914Y00416512D01*
X0087654Y00506492D02*
Y00506992D01*
Y00485554D02*
Y00506492D01*
X0051655Y00680232D02*
Y0070025D01*
Y0067475D02*
Y00680232D01*
X00230518Y00320728D02*
X00266488Y00284758D01*
X00229862Y00321384D02*
X00230518Y00320728D01*
X00894921Y0032258D02*
X00912D01*
X00892501Y00325001D02*
X00894921Y0032258D01*
X00320346Y0073579D02*
X00321834Y00734302D01*
X00305334Y00742358D02*
X00306822Y0074087D01*
X00294124Y0073579D02*
X00320346D01*
X00321834Y00725D02*
Y00734302D01*
Y00688682D02*
Y00725D01*
X00306822Y0074087D02*
X0034813D01*
X0027825Y0072D02*
X0029325Y00735D01*
X00305334Y00742358D02*
Y00756D01*
X0029325Y00735D02*
X00293334D01*
X00294124Y0073579D01*
X0034813Y0074087D02*
X00364Y00725D01*
X00322835Y00687682D02*
X0034075D01*
X0037027Y000569D02*
X003867D01*
X0035837Y00045D02*
X0037027Y000569D01*
X00214433Y00100262D02*
X00215921Y0010175D01*
X0023575D01*
X00214433Y0007874D02*
Y00100262D01*
X00219246Y00332D02*
X00229556Y0032169D01*
X00230168D01*
X00230518Y00320728D02*
X00290978D01*
X00252726Y00329888D02*
X00255Y00332162D01*
X00252726Y0032169D02*
Y00329888D01*
X00290978Y00320728D02*
X0032725Y00357D01*
X00238373Y00394917D02*
Y00405D01*
X00255Y00332162D02*
Y0037829D01*
X00238373Y00394917D02*
X00255Y0037829D01*
X00616144Y00539656D02*
X00691488Y00615D01*
X00708512D01*
X00616144Y00523492D02*
Y00539656D01*
X00872427Y00731824D02*
Y00742073D01*
Y00731824D02*
X00873Y00731251D01*
X0086Y007545D02*
X00872427Y00742073D01*
X0068755Y007545D02*
X0086D01*
X0088654Y0050848D02*
Y00527584D01*
X00885052Y00506992D02*
X0088654Y0050848D01*
X00873Y00541124D02*
X0088654Y00527584D01*
X007587Y007215D02*
Y007235D01*
X00734506Y00523492D02*
Y00533506D01*
X00746Y00545D01*
X00689038Y00692227D02*
X00716727D01*
X0068755Y00693715D02*
Y007545D01*
Y00693715D02*
X00689038Y00692227D01*
X00716727D02*
X007206Y006961D01*
X00639816Y00537249D02*
X00643817Y0054125D01*
X0065407D01*
X00639816Y00523492D02*
Y00537249D01*
X00592472Y00523492D02*
X00616144D01*
X00492672Y0035182D02*
X00504322D01*
X0051Y00337D02*
Y00346142D01*
X00472375Y00337D02*
X0051D01*
X00492Y00352492D02*
X00492672Y0035182D01*
X00504322D02*
X0051Y00346142D01*
X00505009Y0028488D02*
X00508739Y0028861D01*
Y00335738D02*
X0051Y00337D01*
X00504509Y0028488D02*
X00505009D01*
X00508739Y0028861D02*
Y00335738D01*
X00442875Y003665D02*
X00472375Y00337D01*
X00504Y00284372D02*
X00504509Y0028488D01*
X0071Y00819849D02*
Y00819849D01*
X00873Y00541124D02*
Y00698251D01*
X00031553Y00468903D02*
Y0049835D01*
X00120071Y0054335D02*
X00136222D01*
X00099965Y00588964D02*
X00120071Y00568857D01*
Y0054335D02*
Y00568857D01*
X00099965Y00588964D02*
Y00600982D01*
X00097557Y0060339D02*
X00099965Y00600982D01*
X00083319Y0060339D02*
X00097557D01*
X00065779Y0058585D02*
X00083319Y0060339D01*
X00051047Y0058585D02*
X00065779D01*
X00091005Y00564466D02*
Y0059585D01*
Y00564466D02*
X00093071Y005624D01*
X0080585Y00834D02*
X0082485Y00815D01*
X00855D01*
X00900213Y00769787D01*
Y00523492D02*
Y00769787D01*
X0071Y00819849D02*
X0072415Y00834D01*
X00421284Y00656858D02*
Y006745D01*
X001225Y00216D02*
Y00248D01*
X00118474Y00672172D02*
X00130286Y0066036D01*
X00118474Y00672172D02*
Y00698806D01*
X0013Y00710332D01*
X00130286Y0066036D02*
X0013371D01*
X0013Y00710332D02*
Y0072D01*
X00717844Y00118913D02*
X00725Y00111757D01*
Y00041702D02*
Y00111757D01*
X00708298Y00025D02*
X00725Y00041702D01*
X00717844Y00118913D02*
Y00120356D01*
X0081875Y004105D02*
X008555Y0037375D01*
X0087127Y00328731D02*
X00875Y00325001D01*
X0087127Y00328731D02*
Y00329231D01*
X003856Y007956D02*
Y00821D01*
X00116Y0072D02*
X0013D01*
X0006425Y007135D02*
X001095D01*
X00116Y0072D01*
X0006425Y007135D02*
X00066447Y00715698D01*
X00266488Y00275449D02*
X00267Y00274936D01*
X00266488Y00275449D02*
Y00284758D01*
X00545127Y00523492D02*
X00553937D01*
X00523848D02*
X00545127D01*
X0067775Y00240691D02*
X00678407Y00241348D01*
X00166103Y0045569D02*
X00166603D01*
X0014618D02*
X00166103D01*
X00238373Y00405D02*
X00239873Y004065D01*
X0026D01*
X00223443Y0049735D02*
X00249056Y00471737D01*
X00238417Y00451417D02*
X00251Y00464D01*
X00249056Y00465944D02*
Y00471737D01*
Y00465944D02*
X00251Y00464D01*
X00223443Y0049735D02*
Y0049785D01*
X00162373Y0045942D02*
Y00466198D01*
Y0045942D02*
X00166103Y0045569D01*
X00152571Y00476D02*
X00162373Y00466198D01*
X00724871Y00258848D02*
X00727D01*
X00728D01*
X00523313Y00191472D02*
X00525257Y00193417D01*
X00515473Y00191472D02*
X00523313D01*
X00556492Y00422D02*
Y00438D01*
X0058515Y00507642D02*
X00591321D01*
X00578002Y0051479D02*
X0058515Y00507642D01*
X00591321D02*
X00592472Y00506492D01*
X0074075Y004115D02*
X00741599Y00410651D01*
X00725345Y004115D02*
X0074075D01*
X00836Y00571D02*
X00852868Y00554132D01*
Y00523492D02*
Y00554132D01*
X00687161Y0053315D02*
X00690068Y00536056D01*
X00697056D01*
X00699Y00538D01*
X0072562Y0043993D02*
Y00451666D01*
X00715036Y0046225D02*
X0072562Y00451666D01*
X00798788Y00499257D02*
X00801793Y00502262D01*
Y00502762D01*
X00798788Y00497079D02*
Y00499257D01*
X00751717Y00371438D02*
Y00424959D01*
X00754709Y00427952D01*
X00752654Y003705D02*
X0076505D01*
X00751717Y00371438D02*
X00752654Y003705D01*
X00801793Y00502762D02*
X00805523Y00506492D01*
X0074075Y004115D02*
X0074075Y004115D01*
X0071575Y00401904D02*
X00725345Y004115D01*
X00754709Y00427952D02*
Y00427952D01*
X00756198Y0042944D02*
Y00429441D01*
X00754709Y00427952D02*
X00756198Y0042944D01*
X00687161Y00523492D02*
Y0053315D01*
X0070062Y0043993D02*
Y00447722D01*
Y0043993D02*
X0070075Y004398D01*
X00696065Y00452276D02*
X0070062Y00447722D01*
X00696065Y00452276D02*
Y00467185D01*
X0071088Y00431878D02*
Y0043967D01*
X0071075Y004398D02*
X0071088Y0043967D01*
X00626308Y00494992D02*
X006921Y00429199D01*
X00892501Y00373958D02*
X00893208Y0037325D01*
X009125D01*
X00892508Y00422D02*
X0090925D01*
X00862658Y0040935D02*
X0092115D01*
X00558921Y0050675D02*
X0056775D01*
X00553227Y00512444D02*
Y00512484D01*
Y00512444D02*
X00558921Y0050675D01*
X00550962Y00514749D02*
X00553227Y00512484D01*
X0052236Y00522004D02*
X00523848Y00523492D01*
X0052236Y00481568D02*
Y00522004D01*
X00555992Y00448D02*
X00556492D01*
X00537342Y00466649D02*
X00555992Y00448D01*
X00537279Y00466649D02*
X00537342D01*
X0052236Y00481568D02*
X00537279Y00466649D01*
X0053125Y00512444D02*
X00533555Y00514749D01*
X0053125Y0048525D02*
Y00512444D01*
X00533555Y00514749D02*
X00550962D01*
X00556492Y00438D02*
Y00448D01*
X00702457Y00258356D02*
X0072466D01*
X0074075Y003415D02*
Y003562D01*
X00544678Y0017875D02*
X0054525D01*
X0046269Y0015469D02*
X00520618D01*
X00544678Y0017875D01*
X00689508Y0018788D02*
X00707698D01*
X0053215Y002353D02*
Y00252222D01*
X008755Y00373958D02*
X00875508Y00373966D01*
Y00398D01*
X00875293Y0037375D02*
X008755Y00373958D01*
X008555Y0037375D02*
X00875293D01*
X004538Y001458D02*
X0046269Y0015469D01*
X003867Y001458D02*
X004538D01*
X00613008Y00049488D02*
Y0006188D01*
X0057515Y00048D02*
X0061152D01*
X00613008Y00049488D01*
X0056625Y000569D02*
X0057515Y00048D01*
X00412Y003665D02*
X00442875D01*
X0043975Y00659D02*
Y00679D01*
X00460451Y00638299D02*
X00471558D01*
X0043975Y00659D02*
X00460451Y00638299D01*
X00337Y00640054D02*
X0037495Y00602104D01*
Y0058375D02*
Y00602104D01*
X00421284Y00656858D02*
X004425Y00635642D01*
Y00633392D02*
Y00635642D01*
X003035Y00659408D02*
X00321952Y0067786D01*
Y006868D01*
X003035Y00634D02*
Y00659408D01*
X00321952Y006868D02*
X00322835Y00687682D01*
X003035Y00619225D02*
Y00634D01*
X00032947Y00755D02*
Y00767447D01*
Y00716303D02*
Y00755D01*
X00147072Y005497D02*
X00151572D01*
X00142572D02*
X00147072D01*
X00321834Y00688682D02*
X00322835Y00687682D01*
Y007575D02*
X00362008D01*
X00362008Y007575D01*
X00364Y00725D02*
X003645D01*
X00303834Y007575D02*
X00305334Y00756D01*
X002917Y00770634D02*
X00303834Y007585D01*
Y007575D02*
Y007585D01*
X002917Y00770634D02*
Y0084275D01*
X00257252Y00600752D02*
Y0065786D01*
X00226571Y0058585D02*
X0024235D01*
X00257252Y00600752D01*
X00226571Y00567466D02*
Y0058585D01*
X003035Y00619225D02*
X0032415Y00598575D01*
Y0058375D02*
Y00598575D01*
X00255Y0072D02*
X0027825D01*
X00032947Y00767447D02*
X000655Y008D01*
X00146415D01*
X0056775Y00533762D02*
X00569238Y0053525D01*
X0056775Y0052375D02*
Y00533762D01*
X00050547Y0058585D02*
X00051047D01*
X00224955Y0055585D02*
X00226443Y00554362D01*
X00187471Y0055585D02*
X00224955D01*
X00187471D02*
X00193281Y0056166D01*
X00226443Y0053585D02*
Y00554362D01*
X00193281Y0056166D02*
X00220765D01*
X00226443Y00500849D02*
Y0053585D01*
X00181321Y005497D02*
X00187471Y0055585D01*
X00151572Y005497D02*
X00181321D01*
X00151572D02*
X00157612Y0055574D01*
X00220765Y0056166D02*
X00226571Y00567466D01*
X00141571Y0059585D02*
X00142071Y0059535D01*
X00504Y0026775D02*
Y00284372D01*
X00219246Y00332D02*
Y00333D01*
X00267Y0023869D02*
Y00274936D01*
X002665Y0023819D02*
X00267Y0023869D01*
X00238246Y00333D02*
X002385Y00333254D01*
Y0037D01*
X00708298Y00025D02*
X00748D01*
X00783Y0006D01*
X00033571Y0046585D02*
X00034523Y00464898D01*
Y00446D02*
Y00464898D01*
X00255Y00660111D02*
Y0072D01*
Y00660111D02*
X00257252Y0065786D01*
X00066447Y00715698D02*
Y00755D01*
X00032947Y00716303D02*
X0003575Y007135D01*
Y00662032D02*
X00037422Y0066036D01*
X0003575Y00662032D02*
Y007135D01*
X00037422Y00598975D02*
Y0066036D01*
Y00598975D02*
X00050547Y0058585D01*
X00136222Y0054335D02*
X00142572Y005497D01*
X001085Y0045469D02*
Y0045569D01*
X00223443Y0049785D02*
X00226443Y00500849D01*
X00697207Y00131381D02*
X00697698Y00130889D01*
X00693968Y00134619D02*
X00697207Y00131381D01*
X00693968Y00134619D02*
Y00135203D01*
X00630508Y00146881D02*
X00640899Y00157271D01*
X00630008Y00146881D02*
X00630508D01*
X00691508Y00025D02*
X00708298D01*
X00783Y0006D02*
Y00075D01*
X00783Y00075D01*
X00707311Y00130889D02*
X00717844Y00120356D01*
X00697698Y00130889D02*
X00707311D01*
X00892509Y00232D02*
X009105D01*
X00892508Y00232001D02*
X00892509Y00232D01*
X00678415Y00241856D02*
X00682145Y00245586D01*
X00690187D01*
X00702457Y00257856D01*
Y00258356D01*
X00654372Y00241348D02*
X00678407D01*
X00678415Y00241356D01*
X00727508D02*
X00728Y00241848D01*
X00702457Y00241356D02*
X00727508D01*
X00749999Y00241848D02*
X00776278D01*
X00777086Y0024104D01*
X0074588Y00348279D02*
Y00356071D01*
X0074575Y003562D02*
X0074588Y00356071D01*
X0075075Y003562D02*
X00755961D01*
X00729Y00258848D02*
X0074127Y00246578D01*
X00745269D01*
X00749999Y00241848D01*
X0071562Y0043993D02*
Y00447722D01*
X007123Y00451042D02*
X0071562Y00447722D01*
X00712172Y00451042D02*
X007123D01*
X0071562Y0043993D02*
X0071575Y004398D01*
X0072562Y0043993D02*
X0072575Y004398D01*
X00556492Y003179D02*
Y00343857D01*
Y003699D01*
Y00396D02*
X00556992D01*
X00573491Y003699D02*
X00573992D01*
X00556492D02*
Y00396D01*
X00562618Y0051479D02*
X00578002D01*
X00557817Y0051959D02*
X00562618Y0051479D01*
X00557817Y0051959D02*
Y00519612D01*
X00553937Y00523492D02*
X00557817Y00519612D01*
X00546615Y00494992D02*
X00626308D01*
X00545127Y0049648D02*
X00546615Y00494992D01*
X00892508Y00446035D02*
X00892516Y00446043D01*
X00892508Y00422D02*
Y00446035D01*
Y00446051D02*
X00892516Y00446043D01*
X00892508Y00446051D02*
Y00470085D01*
X00892008D02*
X00892508D01*
X0087654Y00485554D02*
X00892008Y00470085D01*
X00852868Y00523492D02*
X0087654D01*
X00900213Y00506492D02*
X0090075Y00505954D01*
Y0048925D02*
Y00505954D01*
X00710834Y00506492D02*
X00734506D01*
X00687161D02*
X00710834D01*
X00639325Y00506983D02*
X00639816Y00506492D01*
X00616145Y00506983D02*
X00639325D01*
X00616145Y00506492D02*
Y00506983D01*
X00616144Y00506492D02*
X00616145Y00506492D01*
X00639816Y00506492D02*
X00663489D01*
X008755Y00278492D02*
X00875992Y00278001D01*
X008755Y00278492D02*
Y00301D01*
X00875508Y00325509D02*
Y00349096D01*
X00545127Y0049648D02*
Y00506492D01*
X0023575Y0010175D02*
X00241Y00107D01*
X00573491Y00343857D02*
X00589268D01*
D22*
X0076505Y004255D02*
D03*
Y004205D02*
D03*
Y004155D02*
D03*
Y004105D02*
D03*
Y004055D02*
D03*
Y004005D02*
D03*
Y003955D02*
D03*
Y003905D02*
D03*
Y003855D02*
D03*
Y003805D02*
D03*
Y003755D02*
D03*
Y003705D02*
D03*
X0068145D02*
D03*
Y003755D02*
D03*
Y003805D02*
D03*
Y003855D02*
D03*
Y003905D02*
D03*
Y003955D02*
D03*
Y004005D02*
D03*
Y004055D02*
D03*
Y004105D02*
D03*
Y004155D02*
D03*
Y004205D02*
D03*
Y004255D02*
D03*
D23*
X0075075Y003562D02*
D03*
X0074575D02*
D03*
X0074075D02*
D03*
X0073575D02*
D03*
X0073075D02*
D03*
X0072575D02*
D03*
X0072075D02*
D03*
X0071575D02*
D03*
X0071075D02*
D03*
X0070575D02*
D03*
X0070075D02*
D03*
X0069575D02*
D03*
Y004398D02*
D03*
X0070075D02*
D03*
X0070575D02*
D03*
X0071075D02*
D03*
X0071575D02*
D03*
X0072075D02*
D03*
X0072575D02*
D03*
X0073075D02*
D03*
X0073575D02*
D03*
X0074075D02*
D03*
X0074575D02*
D03*
X0075075D02*
D03*
D24*
X00034047Y0055865D02*
D03*
X00051047D02*
D03*
X00630008Y0006188D02*
D03*
X00613008D02*
D03*
X00674509Y00025D02*
D03*
X00691508D02*
D03*
X00630017Y0010669D02*
D03*
X00613016D02*
D03*
X00613008Y00146881D02*
D03*
X00630008D02*
D03*
X00875508Y00232001D02*
D03*
X00892508D02*
D03*
X00892501Y00255D02*
D03*
X008755D02*
D03*
X00892992Y00278001D02*
D03*
X00875992D02*
D03*
X008755Y00301D02*
D03*
X00892501D02*
D03*
Y00325001D02*
D03*
X008755D02*
D03*
X00875508Y00349096D02*
D03*
X00892508D02*
D03*
X00892501Y00373958D02*
D03*
X008755D02*
D03*
X00875508Y00470085D02*
D03*
X00892508D02*
D03*
X00875517Y00446043D02*
D03*
X00892516D02*
D03*
X00875508Y00422D02*
D03*
X00892508D02*
D03*
X00875508Y00398D02*
D03*
X00892508D02*
D03*
X00304834Y00725D02*
D03*
X00321834D02*
D03*
X003815D02*
D03*
X003645D02*
D03*
X00183603Y0045569D02*
D03*
X00166603D02*
D03*
X00164071Y0049335D02*
D03*
X00181071D02*
D03*
X00158571Y0059585D02*
D03*
X00141571D02*
D03*
X00108005D02*
D03*
X00091005D02*
D03*
X00034047Y0058585D02*
D03*
X00051047D02*
D03*
X00573491Y00448D02*
D03*
X00556492D02*
D03*
X00573491Y00422D02*
D03*
X00556492D02*
D03*
X00573491Y00396D02*
D03*
X00556492D02*
D03*
X00449758Y0028488D02*
D03*
X00432759D02*
D03*
X00487508D02*
D03*
X00504509D02*
D03*
X00573491Y003699D02*
D03*
X00556492D02*
D03*
X00573491Y003179D02*
D03*
X00556492D02*
D03*
Y00343857D02*
D03*
X00573491D02*
D03*
X00050922Y005243D02*
D03*
X00033922D02*
D03*
X00748008Y00289D02*
D03*
X00731009D02*
D03*
D25*
X00421284Y006935D02*
D03*
Y006745D02*
D03*
X00421892Y00730456D02*
D03*
Y00749456D02*
D03*
X00523142Y00618956D02*
D03*
Y00637956D02*
D03*
X00497608Y00638299D02*
D03*
Y006193D02*
D03*
X00471558D02*
D03*
Y00638299D02*
D03*
D26*
X00705798Y00082897D02*
D03*
Y00063897D02*
D03*
X00665698Y0006438D02*
D03*
Y00083381D02*
D03*
D27*
X00697698Y00147889D02*
D03*
Y00130889D02*
D03*
X00670208Y00147897D02*
D03*
Y00130897D02*
D03*
X00223443Y00480849D02*
D03*
Y0049785D02*
D03*
X00825Y0024104D02*
D03*
Y0025804D02*
D03*
X008Y00241048D02*
D03*
Y00258048D02*
D03*
X00777086Y0024104D02*
D03*
Y0025804D02*
D03*
X00702457Y00241356D02*
D03*
Y00258356D02*
D03*
X00678415D02*
D03*
Y00241356D02*
D03*
X00654372Y00258348D02*
D03*
Y00241348D02*
D03*
X00900213Y00523492D02*
D03*
Y00506492D02*
D03*
X0087654Y00523492D02*
D03*
Y00506492D02*
D03*
X00852868D02*
D03*
Y00523492D02*
D03*
X00829195Y00506492D02*
D03*
Y00523492D02*
D03*
X00805523D02*
D03*
Y00506492D02*
D03*
X00781851D02*
D03*
Y00523492D02*
D03*
X00758178D02*
D03*
Y00506492D02*
D03*
X00734506D02*
D03*
Y00523492D02*
D03*
X00710834D02*
D03*
Y00506492D02*
D03*
X00687161D02*
D03*
Y00523492D02*
D03*
X00663489D02*
D03*
Y00506492D02*
D03*
X00639816D02*
D03*
Y00523492D02*
D03*
X00616144Y00506492D02*
D03*
Y00523492D02*
D03*
X00592472D02*
D03*
Y00506492D02*
D03*
X0056775Y0050675D02*
D03*
Y0052375D02*
D03*
X00545127Y00506492D02*
D03*
Y00523492D02*
D03*
D28*
X00625508Y0018788D02*
D03*
X00689508D02*
D03*
X00492Y00352492D02*
D03*
X00428D02*
D03*
D29*
X00873Y00698251D02*
D03*
Y00731251D02*
D03*
D30*
X0049375Y00746233D02*
D03*
X00612007Y00739D02*
D03*
D31*
X0051655Y00680232D02*
D03*
X0047095D02*
D03*
X00589207Y00672999D02*
D03*
X00634808D02*
D03*
D32*
X00384008Y007575D02*
D03*
X00362008D02*
D03*
X00267Y00274936D02*
D03*
X00245D02*
D03*
X002665Y0023819D02*
D03*
X002445D02*
D03*
D33*
X00303834Y007575D02*
D03*
X00322835D02*
D03*
X00360968Y00687682D02*
D03*
X00379968D02*
D03*
X00303834D02*
D03*
X00322835D02*
D03*
X002095Y0023819D02*
D03*
X001905D02*
D03*
Y0027519D02*
D03*
X002095D02*
D03*
X00238246Y00333D02*
D03*
X00219246D02*
D03*
X002195Y0037D02*
D03*
X002385D02*
D03*
Y00408D02*
D03*
X002195D02*
D03*
X001085Y0049335D02*
D03*
X001275D02*
D03*
Y0045569D02*
D03*
X001085D02*
D03*
X0063048Y00258348D02*
D03*
X0061148D02*
D03*
X00574492Y00290007D02*
D03*
X00555491D02*
D03*
D34*
X004425Y00633392D02*
D03*
X00409D02*
D03*
X00032947Y00755D02*
D03*
X00066447D02*
D03*
D35*
X00382544Y00633392D02*
D03*
X00363544D02*
D03*
X00219417Y00443326D02*
D03*
X00238416D02*
D03*
D36*
X003365Y00634D02*
D03*
X003035D02*
D03*
X00064553Y0049835D02*
D03*
X00031553D02*
D03*
X000665Y00465851D02*
D03*
X000335D02*
D03*
D37*
X00647Y0061205D02*
D03*
Y0063745D02*
D03*
X00565D02*
D03*
Y0061205D02*
D03*
D38*
X00226443Y0053585D02*
D03*
X00198443D02*
D03*
X00198571Y0058585D02*
D03*
X00226571D02*
D03*
X00257252Y0065786D02*
D03*
X00229252D02*
D03*
X00227Y0072D02*
D03*
X00255D02*
D03*
D39*
X00120071Y0054335D02*
D03*
D40*
X00093071Y005624D02*
D03*
Y005497D02*
D03*
Y00537D02*
D03*
Y005243D02*
D03*
X00147072Y005624D02*
D03*
Y005243D02*
D03*
Y00537D02*
D03*
Y005497D02*
D03*
D41*
X00174358Y0066036D02*
D03*
X0013371D02*
D03*
X00037422D02*
D03*
X0007807D02*
D03*
D42*
X00173Y0072D02*
D03*
X0013D02*
D03*
D43*
X0006425Y007135D02*
D03*
X0003575D02*
D03*
D44*
X00151Y00366D02*
D03*
X00045Y00367D02*
D03*
D45*
X00160375Y00110964D02*
D03*
Y00127982D02*
D03*
Y00145D02*
D03*
Y00162018D02*
D03*
Y00179036D02*
D03*
D46*
X00055854Y00145D02*
D03*
D47*
X000595Y00248D02*
D03*
X001225D02*
D03*
D48*
X00173Y00039D02*
D03*
X00128D02*
D03*
X0070785Y00785D02*
D03*
X0082215D02*
D03*
D49*
X00241Y00107D02*
D03*
Y0017D02*
D03*
D50*
X00728Y00258848D02*
D03*
Y00241848D02*
D03*
X00749999D02*
D03*
Y00258848D02*
D03*
D51*
X005633Y00222D02*
D03*
Y002093D02*
D03*
Y001966D02*
D03*
Y001839D02*
D03*
Y001712D02*
D03*
Y001585D02*
D03*
Y001458D02*
D03*
Y001331D02*
D03*
Y001204D02*
D03*
Y001077D02*
D03*
Y00095D02*
D03*
Y000696D02*
D03*
Y000569D02*
D03*
X003867Y00222D02*
D03*
Y002093D02*
D03*
Y001966D02*
D03*
Y001839D02*
D03*
Y001712D02*
D03*
Y001585D02*
D03*
Y001458D02*
D03*
Y001331D02*
D03*
Y001204D02*
D03*
Y001077D02*
D03*
Y00095D02*
D03*
Y000823D02*
D03*
Y000696D02*
D03*
Y000569D02*
D03*
X005633Y000823D02*
D03*
D52*
X0046865Y002353D02*
D03*
X0045595D02*
D03*
X0044325D02*
D03*
X0043055D02*
D03*
X0041785D02*
D03*
X0048135D02*
D03*
X0049405D02*
D03*
X0050675D02*
D03*
X0051945D02*
D03*
X0053215D02*
D03*
D53*
X004896Y001333D02*
D03*
D87*
X00783Y00125D02*
D03*
Y001D02*
D03*
X004615Y0046175D02*
D03*
X004365D02*
D03*
X004115D02*
D03*
X003865D02*
D03*
X003615D02*
D03*
X0032725Y00357D02*
D03*
Y00332D02*
D03*
Y00307D02*
D03*
X0031675Y001385D02*
D03*
Y001635D02*
D03*
Y001885D02*
D03*
D88*
X00783Y00075D02*
D03*
X0032725Y00382D02*
D03*
X0031675Y001135D02*
D03*
D96*
X003365Y0046175D02*
D03*
D99*
X00802103Y00662721D02*
G03*
X0080425Y00664868I0J00002147D01*
G01*
Y00640081D02*
G03*
X00797809Y00646522I-00006441J0D01*
G01*
X00791308Y00662721D02*
G03*
X007841Y00655513I0J-00007208D01*
G01*
Y0065281D02*
G03*
X00790388Y00646522I00006288J0D01*
G01*
X00818208Y00664161D02*
G03*
X00811Y00656953I0J-00007208D01*
G01*
Y0065425D02*
G03*
X00817288Y00647962I00006288J0D01*
G01*
X0083229Y00642332D02*
G03*
X00830555Y00646522I-00005926J0D01*
G01*
D02*
G03*
X00827078Y00647962I-00003476J-00003476D01*
G01*
X00825579Y00664161D02*
G03*
X00827285Y00664868I0J00002413D01*
G01*
D02*
G03*
X00830555Y00672762I-00007894J00007894D01*
G01*
X00782986Y00666021D02*
G03*
X007841Y00668713I-00002696J00002693D01*
G01*
X00778116Y00662721D02*
G03*
X00780801Y00663836I-00000008J0000381D01*
G01*
X0076398Y00662721D02*
G03*
X00762535Y00662437I0J-0000381D01*
G01*
X0077225Y00643619D02*
G03*
X00769503Y00647264I-0000381J-00000014D01*
G01*
X00759772Y00650124D02*
G03*
X00761088Y00648838I00003623J00002393D01*
G01*
X00761088Y00648838D02*
G03*
X00762996Y00648258I00002024J00003228D01*
G01*
X00758476Y00653D02*
G03*
X00759109Y00651122I00003803J00000236D01*
G01*
X00769503Y00647264D02*
G03*
X00762996Y00648258I-00007114J-00024775D01*
G01*
X00744159Y0064475D02*
G03*
X00736355Y00647983I-00007805J-00007805D01*
G01*
X00746Y00640307D02*
G03*
X00744159Y0064475I-00006284J0D01*
G01*
X00729727Y00652492D02*
G03*
X00730359Y00650614I00003803J00000236D01*
G01*
X00731022Y00649615D02*
G03*
X00733436Y00647983I00003179J000021D01*
G01*
X00733785Y00661928D02*
G03*
X00729584Y00654335I00002634J-00006415D01*
G01*
X0072963Y00653943D02*
G03*
X00729584Y00654335I-00003802J-00000242D01*
G01*
X00762535Y00662437D02*
G03*
X00758334Y00654843I00002634J-00006415D01*
G01*
X0075838Y00654451D02*
G03*
X00758334Y00654843I-00003802J-00000242D01*
G01*
X00745195Y00664236D02*
G03*
X00746Y00666578I-00003005J00002342D01*
G01*
X00741467Y00662213D02*
G03*
X00744159Y00663328I0J0000381D01*
G01*
X0073523Y00662213D02*
G03*
X00733785Y00661928I0J-0000381D01*
G01*
X00379652Y006505D02*
X00395D01*
X00363544Y00634392D02*
X00379652Y006505D01*
X0082246Y0026058D02*
X00825Y0025804D01*
X0082246Y0026058D02*
Y00279635D01*
X0081Y00292095D02*
X0082246Y00279635D01*
X00512Y0010775D02*
Y00133285D01*
X0047385Y000696D02*
X00512Y0010775D01*
X003867Y000696D02*
X0047385D01*
X00512Y00133285D02*
X00540515Y001618D01*
X00816672Y00206422D02*
X0082742Y0021717D01*
X00584553Y001839D02*
X00607075Y00206422D01*
X00816672D01*
X0080625Y0021475D02*
X00815348Y00223848D01*
X00600579Y0021475D02*
X0080625D01*
X0058243Y001966D02*
X00600579Y0021475D01*
X0073575Y00464729D02*
Y0047925D01*
X00540463Y0021725D02*
X00546628Y00223415D01*
X0041785Y0021D02*
X004251Y0021725D01*
X00540463D01*
X00546628Y00223415D02*
Y0025546D01*
X0049317Y0020492D02*
X0053668D01*
X00536698Y00204903D01*
X0078686Y0019939D02*
X008Y0018625D01*
X00610878Y0019939D02*
X0078686D01*
X008Y00117D02*
Y0018625D01*
X00875292Y00232001D02*
Y00243D01*
Y00255D01*
X00856542Y0026635D02*
X00881151D01*
X00892001Y00255D02*
X00892501D01*
X00815348Y00223848D02*
Y00254738D01*
X0082742Y0021717D02*
X0086945D01*
X00888906Y00258095D02*
X00892001Y00255D01*
X00888906Y00258095D02*
Y00258595D01*
X00751465Y004585D02*
X00758178Y00465214D01*
Y00506492D01*
X0007807Y00642519D02*
Y0066036D01*
X00106562Y00614345D02*
X00108005Y00612903D01*
X0007807Y00642519D02*
X00106244Y00614345D01*
X00106562D01*
X00108005Y0059585D02*
Y00612903D01*
X00135948Y005815D02*
X00147072Y00570377D01*
X00122855Y005815D02*
X00135948D01*
X00147072Y005624D02*
Y00570377D01*
X00108505Y0059585D02*
X00122855Y005815D01*
X0056175Y00640699D02*
Y006665D01*
Y00640699D02*
X00565Y0063745D01*
X008095Y007215D02*
Y007215D01*
Y007215D02*
X00827361D01*
X00829942Y00718919D02*
X00830555Y00676035D01*
X00827361Y007215D02*
X00829942Y00718919D01*
X00830555Y00672762D02*
Y00676035D01*
X0080425Y00664868D02*
Y006961D01*
X007968D02*
X0080425D01*
Y00589774D02*
Y00640081D01*
X00791308Y00662721D02*
X00802103D01*
X00790388Y00646522D02*
X00797809D01*
X007841Y0065281D02*
Y00655513D01*
X00811Y0065425D02*
Y00656953D01*
X00818208Y00664161D02*
X00825579D01*
X007968Y00693223D02*
Y006961D01*
X00817288Y00647962D02*
X00827078D01*
X0083229Y00589018D02*
Y00642332D01*
X00807475Y00564203D02*
X0083229Y00589018D01*
X00807475Y00525444D02*
Y00564203D01*
X00781851Y00523492D02*
Y00567375D01*
X0080425Y00589774D01*
X00805523Y00523492D02*
X00807475Y00525444D01*
X0072525Y00581395D02*
X0077225Y00628395D01*
X0072525Y00562219D02*
Y00581395D01*
X0077225Y00628395D02*
Y00643619D01*
X00713633Y00550601D02*
X0072525Y00562219D01*
X00780801Y00663836D02*
X00782986Y00666021D01*
X00780801Y00663836D02*
X00780801Y00663836D01*
X0076398Y00662721D02*
X00778116Y00662721D01*
X0076398Y00662721D02*
X0076398D01*
X0077225Y00643619D02*
Y00643619D01*
X00761088Y00648838D02*
X00761088Y00648838D01*
X00759109Y00651122D02*
X00759772Y00650124D01*
X00713633Y00526291D02*
Y00550601D01*
X00746Y00621858D02*
Y00640307D01*
X00664975Y00524978D02*
Y00540834D01*
X00746Y00621858D01*
X00733436Y00647983D02*
X00736355D01*
X0072963Y00653943D02*
X00729727Y00652492D01*
X00730359Y00650614D02*
X00731022Y00649615D01*
X0075838Y00654451D02*
X00758476Y00653D01*
X007841Y00668713D02*
Y007215D01*
X00745195Y00664236D02*
X00745195Y00664236D01*
X00744708Y00663749D02*
X00745195Y00664236D01*
X00744159Y00663328D02*
X00744708Y00663749D01*
X00741467Y00662213D02*
X00741467D01*
X0073523Y00662213D02*
X00741467Y00662213D01*
X0073523Y00662213D02*
X0073523D01*
X00746Y00666578D02*
Y006961D01*
X00644768Y00593D02*
X00647Y00595232D01*
X00617268Y00593D02*
X00644768D01*
X00647Y00595232D02*
Y0061205D01*
X00579483Y00641983D02*
X00589207Y00651707D01*
X00569533Y00641983D02*
X00579483D01*
X00565Y0063745D02*
X00569533Y00641983D01*
X00535637Y0057D02*
X00594268D01*
X00617268Y00593D01*
X00497608Y0060803D02*
X00535637Y0057D01*
X0044383Y00710014D02*
Y0074538D01*
X0041295Y0077626D02*
X0044383Y0074538D01*
Y00710014D02*
X00459187Y00694657D01*
X00052447Y0055725D02*
X0007D01*
X00051047Y0055865D02*
X00052447Y0055725D01*
X0007D02*
X0007755Y005497D01*
X00093071D01*
X00739508Y002805D02*
X00744413Y00285405D01*
X00739508Y00273D02*
Y002805D01*
X00744508Y00286D02*
X00748D01*
X00744413Y00285405D02*
Y00285905D01*
X00744508Y00286D01*
X00714756Y00288992D02*
X00731D01*
X00739184Y00297175D02*
X00755615D01*
X00731Y00288992D02*
X00731009Y00289D01*
X00731009D02*
X00731508D01*
X00734604Y00292595D02*
X00739184Y00297175D01*
X00734604Y00292095D02*
Y00292595D01*
X00731508Y00289D02*
X00734604Y00292095D01*
X00702457Y00301291D02*
X00714756Y00288992D01*
X00881151Y0026635D02*
X00888906Y00258595D01*
X00739508Y00273D02*
X00739516Y00272992D01*
Y00268331D02*
X00748999Y00258848D01*
X00739516Y00268331D02*
Y00272992D01*
X00174886Y00582D02*
X00177292D01*
X00172921D02*
X00174886D01*
X00697646Y00388057D02*
X00700072Y00390482D01*
Y00403812D01*
X00785261Y00234225D02*
Y00267529D01*
X00774546Y00292095D02*
X00799609Y00267031D01*
X00755615Y00297175D02*
X00785261Y00267529D01*
X00783Y001D02*
X008Y00117D01*
X00413647Y00040513D02*
X00485513D01*
X00550395Y00105395D02*
Y00138032D01*
X00485513Y00040513D02*
X00550395Y00105395D01*
Y00138032D02*
X00554209Y00141845D01*
X00553232Y00156556D02*
X00561356D01*
X00551Y00154324D02*
X00553232Y00156556D01*
X00551Y00150795D02*
Y00154324D01*
X00536177Y00135972D02*
X00551Y00150795D01*
X00561356Y00156556D02*
X005633Y001585D01*
X00535455Y00127252D02*
X00536177Y00127974D01*
Y00135972D01*
X00556395Y00141845D02*
X0056035Y001458D01*
X00554209Y00141845D02*
X00556395D01*
X00605519Y00089138D02*
X00606179D01*
X00598681Y000823D02*
X00605519Y00089138D01*
X00606179D02*
X00613016Y00095975D01*
X005633Y000823D02*
X00598681D01*
X00613016Y00095975D02*
Y0010669D01*
X00682985Y00083381D02*
X00699485Y00066881D01*
X00665698Y00083381D02*
X00682985D01*
X0064825D02*
X00665698D01*
X00563547Y00280666D02*
Y00280952D01*
X00555491Y00289007D02*
X00563547Y00280952D01*
X0056615Y00278062D02*
X00579066D01*
X005965Y00260628D01*
X00563547Y00280666D02*
X0056615Y00278062D01*
X0057502Y00263605D02*
X00583192Y00255433D01*
X0057502Y00263605D02*
Y00264324D01*
X00583192Y00217682D02*
Y00255433D01*
X00546628Y0025546D02*
X00555491Y00264324D01*
X00557955Y00224395D02*
Y00248692D01*
X00555491Y00264324D02*
Y00289007D01*
X00557423Y00249223D02*
X00557955Y00248692D01*
X0051945Y00256032D02*
X0053Y00266582D01*
Y00387D01*
X00507Y0041D02*
X0053Y00387D01*
X00442937Y0026416D02*
X00443807Y0026329D01*
X00436354Y00281499D02*
X00443767Y00274085D01*
X0042039Y0026416D02*
X00442937D01*
X00443767Y00274085D02*
X00476213D01*
X0043257Y0028488D02*
X00433259D01*
X00476213Y00274085D02*
X00487008Y0028488D01*
X00487508D01*
X00436354Y00281499D02*
Y00281785D01*
X00433259Y0028488D02*
X00436354Y00281785D01*
X0043765Y00252222D02*
X00506639D01*
X0043055Y00245122D02*
X0043765Y00252222D01*
X00506639D02*
X00521309Y00266892D01*
X0045945Y001712D02*
X0049317Y0020492D01*
X00370299Y00078493D02*
X00374106Y000823D01*
X00370299Y0007015D02*
Y00078493D01*
X0036975Y000696D02*
X00370299Y0007015D01*
X00374106Y000823D02*
X003867D01*
X0036Y0013465D02*
X0037425Y001204D01*
X0036Y0013465D02*
Y0014525D01*
X0037425Y001204D02*
X003867D01*
X0031675Y001885D02*
X0036Y0014525D01*
X00292768Y0007874D02*
X00295Y00080972D01*
Y00210918D02*
X00396248Y00312166D01*
X00248166Y0007874D02*
X00292768D01*
X00295Y00080972D02*
Y00210918D01*
X00208525Y00097727D02*
Y00122424D01*
X00211259Y00125158D01*
Y00149854D01*
X0020684Y00154272D02*
X00211259Y00149854D01*
X0020684Y00154272D02*
Y0017D01*
X00199056D02*
X0020684D01*
X00188222Y00258D02*
Y00272912D01*
X00171631Y00281606D02*
X00192778Y00302752D01*
X00171631Y00249D02*
X00182442Y0023819D01*
X00171631Y00249D02*
Y00281606D01*
X00182442Y0023819D02*
X001905D01*
X00192778Y00302752D02*
Y003594D01*
X0020175Y0035125D02*
X002195Y00369D01*
X0020175Y0030175D02*
Y0035125D01*
X001905Y002905D02*
X0020175Y0030175D01*
X00208301Y00319155D02*
Y00342341D01*
X00210905Y00344945D01*
X00208301Y00319155D02*
X00212456Y00315D01*
X00230191Y00342055D02*
Y00342341D01*
Y00342055D02*
X00238246Y00334D01*
X00227587Y00344945D02*
X00230191Y00342341D01*
X00212456Y00315D02*
X00222427D01*
X00210905Y00344945D02*
X00227587D01*
X00663489Y00523492D02*
X00664975Y00524978D01*
X00174358Y00637062D02*
Y0066036D01*
X00158571Y00621275D02*
X00174358Y00637062D01*
X00568729Y00786029D02*
X00612007Y0074275D01*
X00568729Y00786029D02*
Y00842D01*
X00459187Y00694657D02*
X00480343D01*
X00484Y00691D01*
Y00676834D02*
X00500509Y00660325D01*
X00484Y00676834D02*
Y00691D01*
X00710834Y00523492D02*
X00713633Y00526291D01*
X00429219Y00739631D02*
X00432288D01*
X00435Y00719132D02*
Y00736919D01*
X00422892Y00749456D02*
X00426987Y00745361D01*
Y00741863D02*
X00429219Y00739631D01*
X00421892Y00749456D02*
X00422892D01*
X00426987Y00741863D02*
Y00745361D01*
X00432288Y00739631D02*
X00435Y00736919D01*
X00382532Y0062484D02*
Y00633392D01*
X003983Y007437D02*
X00401719Y00740281D01*
X00419052D01*
X00421284Y00738049D01*
Y00731064D02*
Y00738049D01*
Y00731064D02*
X00421892Y00730456D01*
X003983Y007437D02*
Y0080455D01*
X00432768Y007169D02*
X00435Y00719132D01*
X00411232Y007169D02*
X00432768D01*
X00409Y00633392D02*
Y00714668D01*
X00411232Y007169D01*
X003983Y0080455D02*
X0041295Y008192D01*
X00174358Y0066036D02*
X00226752D01*
X00158571Y0059585D02*
Y00621275D01*
X00382544Y00633392D02*
X00409D01*
X00409Y00633392D01*
X00363544Y00633392D02*
Y00634392D01*
X00500509Y00660325D02*
X00511767D01*
X00441702Y00619252D02*
X0044175Y006193D01*
X00426404Y00619252D02*
X00441702D01*
X00222427Y00315D02*
X00253675Y00283751D01*
Y00229875D02*
Y00283751D01*
X00188222Y00272912D02*
X001905Y0027519D01*
Y002905D01*
X00799609Y00258439D02*
X008Y00258048D01*
X00799609Y00258439D02*
Y00267031D01*
X00388932Y0028488D02*
X00432259D01*
X003867Y00222D02*
Y00282649D01*
X00388932Y0028488D01*
X003704Y001966D02*
X003867D01*
X003665Y002005D02*
X003704Y001966D01*
X003665Y002005D02*
Y0024775D01*
X00433267Y00285528D02*
Y00298298D01*
X00432619Y0028488D02*
X00433267Y00285528D01*
X00432259Y0028488D02*
X0043257D01*
X00428Y00303564D02*
X00433267Y00298298D01*
X00428Y00303564D02*
Y00352492D01*
X00696065Y00467185D02*
Y00478934D01*
X0069575Y0047925D02*
X00696065Y00478934D01*
X00748999Y00258848D02*
X00749999D01*
X00521309Y00266892D02*
Y00349157D01*
X004365Y00433966D02*
X00521309Y00349157D01*
X0056035Y001458D02*
X005633D01*
X005965Y00237732D02*
X00598982Y0023525D01*
X006135D01*
X0061148Y00258348D02*
X006135Y00256328D01*
Y0023525D02*
Y00256328D01*
X005965Y00237732D02*
Y00260628D01*
X00602496Y00191008D02*
X00610878Y0019939D01*
X0051945Y002353D02*
Y00256032D01*
X003867Y001712D02*
X0045945D01*
X0086945Y0021717D02*
X00875508Y00223229D01*
X00815348Y00254738D02*
X0081865Y0025804D01*
X00825D01*
X0057481Y002093D02*
X00583192Y00217682D01*
X005633Y002093D02*
X0057481D01*
X005633Y001839D02*
X00584553D01*
X005633Y001966D02*
X0058243D01*
X00383884Y0001075D02*
X00413647Y00040513D01*
X0034955Y0008025D02*
X00375967Y00106667D01*
X00287452Y0005125D02*
X00316453Y0008025D01*
X00385667Y00106667D02*
X003867Y001077D01*
X00316453Y0008025D02*
X0034955D01*
X00252232Y0005125D02*
X00287452D01*
X00375967Y00106667D02*
X00385667D01*
X0025Y00049018D02*
X00252232Y0005125D01*
X0035275Y000735D02*
X0037425Y00095D01*
X00318683Y000735D02*
X0035275D01*
X0037425Y00095D02*
X003867D01*
X00275232Y000449D02*
X00290083D01*
X00318683Y000735D01*
X0056035Y00222D02*
X005633D01*
X00557955Y00224395D02*
X0056035Y00222D01*
X00589207Y00651707D02*
Y00672999D01*
X00511767Y00660325D02*
X00523142Y0064895D01*
Y00637956D02*
Y0064895D01*
X004707Y006745D02*
X0047095Y0067475D01*
X0045675Y006745D02*
X004707D01*
X00497608Y0060803D02*
Y006193D01*
X00510294Y006223D02*
Y00635D01*
X00513637Y00618956D02*
X00523142D01*
X00510294Y006223D02*
X00513637Y00618956D01*
X00229252Y00632998D02*
Y0065786D01*
Y00632998D02*
X00231Y0063125D01*
X00181142Y0058585D02*
X00198571D01*
X00177292Y00582D02*
X00181142Y0058585D01*
X00158571Y0059585D02*
X00159071D01*
X00172921Y00582D01*
X00108005Y0059585D02*
X00108127Y00595973D01*
Y00613128D02*
X0010825Y0061325D01*
X00108127Y00595973D02*
Y00613128D01*
X00175103Y0053585D02*
X00198443D01*
X00394474Y001839D02*
X00398534Y0018796D01*
Y00272542D01*
X003867Y001839D02*
X00394474D01*
X0020684Y0017D02*
X00214625D01*
X00238246Y00333D02*
Y00334D01*
X00205836Y00182036D02*
X00253675Y00229875D01*
X00170375Y00182036D02*
X00205836D01*
X002095Y0023819D02*
X002445D01*
X00194074Y00165018D02*
X00199056Y0017D01*
X00170375Y00165018D02*
X00194074D01*
X00214625Y0017D02*
X00219607Y00165018D01*
X00236018D01*
X002095Y0027519D02*
X00244746D01*
X00245Y00274936D01*
X002195Y00369D02*
Y0037D01*
X00219373Y00370127D02*
Y00405D01*
Y00370127D02*
X002195Y0037D01*
X00175232Y0009172D02*
X00202518D01*
X00208525Y00097727D01*
X00497608Y00638299D02*
X00506994D01*
X00486281D02*
X00497608D01*
X0023575Y0001075D02*
X00383884D01*
X0023Y000165D02*
Y00060574D01*
Y000165D02*
X0023575Y0001075D01*
X0023Y00060574D02*
X00248166Y0007874D01*
X00223443Y00480849D02*
Y00481349D01*
X00220348Y00484444D02*
X00223443Y00481349D01*
X00166603Y00495882D02*
Y00501118D01*
X00219848Y00484444D02*
X00220348D01*
X00200942Y0050335D02*
X00219848Y00484444D01*
X00168835Y0050335D02*
X00200942D01*
X00166603Y00501118D02*
X00168835Y0050335D01*
X00164071Y0049335D02*
X00166603Y00495882D01*
X00223244Y0048065D02*
X00223443Y00480849D01*
X00226752Y0066036D02*
X00229252Y0065786D01*
X00227Y0072D02*
X00229252Y00717749D01*
Y0065786D02*
Y00717749D01*
X0041295Y0077626D02*
Y007938D01*
X00484049Y0060647D02*
Y00636068D01*
X00423934Y00546354D02*
X00484049Y0060647D01*
Y00636068D02*
X00486281Y00638299D01*
X00506994D02*
X00510294Y00635D01*
X00783401Y00232365D02*
X00785261Y00234225D01*
X00738482Y00232365D02*
X00783401D01*
X00729Y00241848D02*
X00738482Y00232365D01*
X00728Y00241848D02*
X00729D01*
X00750807Y0025804D02*
X00777086D01*
X00749999Y00258848D02*
X00750807Y0025804D01*
X0061291Y0010669D02*
Y00146881D01*
X00805523Y00523492D02*
X00829195D01*
X00758178D02*
X00781851D01*
X00405392Y00571358D02*
Y00598239D01*
Y00571358D02*
X004055Y0057125D01*
X00405392Y00598239D02*
X00426404Y00619252D01*
X00173Y00039D02*
Y00089489D01*
X00175232Y0009172D01*
X00236018Y00165018D02*
X00241Y0017D01*
X0038812Y00619252D02*
X00426404D01*
X00875508Y00223229D02*
Y00232001D01*
X0061291Y0010669D02*
X00613016D01*
X0061291Y00146881D02*
X00613008D01*
Y0018788D01*
X00625508D01*
X00875292Y00232001D02*
X00875508D01*
X00612007Y00739D02*
Y0074275D01*
X0049375Y0074075D02*
Y007445D01*
X00396248Y00312166D02*
Y0038608D01*
X00423934Y00413766D01*
Y00546354D01*
X00382532Y00633392D02*
X00382544D01*
X00382532Y0062484D02*
X0038812Y00619252D01*
X0044175Y006193D02*
X00471558D01*
X005633Y001712D02*
X0059005D01*
X00602496Y00183646D01*
Y00191008D01*
X0043055Y002353D02*
Y00245122D01*
X004365Y00433966D02*
Y0046175D01*
X002476Y00029D02*
X0025Y000314D01*
Y00049018D01*
X00273Y00029D02*
Y00042668D01*
X00275232Y000449D01*
X0041785Y0026162D02*
X0042039Y0026416D01*
X0041785Y002353D02*
Y0026162D01*
D100*
X00779788Y00224275D02*
X00786626D01*
X00793262Y00230911D01*
X008Y00240708D02*
Y00241048D01*
X00793262Y0023397D02*
X008Y00240708D01*
X00793262Y00230911D02*
Y0023397D01*
X00733782Y00125D02*
X00783D01*
X00710893Y00147889D02*
X00733782Y00125D01*
X00697698Y00147889D02*
X00706829D01*
X00710893D01*
X0064825Y00141525D02*
X00654202Y00147477D01*
X0064825Y00120438D02*
Y00141525D01*
X00654202Y00147477D02*
X00670128D01*
X00670208Y00147557D02*
Y00147897D01*
X00670128Y00147477D02*
X00670208Y00147557D01*
X0064825Y00120438D02*
X00654202Y00114486D01*
X00680514D01*
X00929274Y00260952D02*
Y00301D01*
Y00358226D01*
X00892501Y00301D02*
X00929274D01*
X00923322Y00255D02*
X00929274Y00260952D01*
X00892501Y00255D02*
X00923322D01*
Y00349096D02*
X00929274Y00355047D01*
X00892508Y00349096D02*
X00923322D01*
X00831231Y0024104D02*
X00833791Y00243599D01*
X00856542Y0026635D01*
X00830835Y0024104D02*
X00833593Y00243797D01*
X00654372Y00258356D02*
X00678415D01*
X0063048Y00258318D02*
X00654372D01*
X00829195Y00506476D02*
X00852868D01*
X00875292Y00446043D02*
Y00470085D01*
Y00422D02*
Y00446043D01*
X00573286Y00401526D02*
Y00422D01*
X00574556Y00290007D02*
Y00312976D01*
X00573491Y00311912D02*
X00574556Y00312976D01*
X00566859Y0030528D02*
X00573491Y00311912D01*
X00346836Y00550164D02*
X00410652D01*
X0033939Y0055761D02*
Y00603334D01*
Y0055761D02*
X00346836Y00550164D01*
X00319074Y0062365D02*
X0033939Y00603334D01*
X00319074Y0062365D02*
Y00659671D01*
X00330903Y006715D01*
X005625Y0061205D02*
X00565D01*
X0055908Y0059932D02*
Y0060863D01*
X005565Y0059D02*
Y0059674D01*
X0055908Y0060863D02*
X005625Y0061205D01*
X005565Y0059674D02*
X0055908Y0059932D01*
X00546884Y00614666D02*
X00562383D01*
X0054325Y006183D02*
X00546884Y00614666D01*
X00562383D02*
X00565Y0061205D01*
X0050875Y00842D02*
X0054325Y008075D01*
X00105003Y00133934D02*
Y00207798D01*
X00061805Y0021375D02*
X00099051D01*
X00105003Y00207798D01*
X00055854Y00219702D02*
Y00244354D01*
Y00219702D02*
X00061805Y0021375D01*
X003425Y00802708D02*
Y0084275D01*
X00383588Y0075792D02*
Y0076162D01*
X003425Y00802708D02*
X00383588Y0076162D01*
Y0075792D02*
X00384008Y007575D01*
Y00727508D02*
Y007575D01*
X00160375Y00110964D02*
X00170248D01*
X00170375Y00111091D01*
Y00127982D01*
X00133952Y00110837D02*
X00160248D01*
X00128Y00104886D02*
X00133952Y00110837D01*
X00128Y00039D02*
Y00104886D01*
X00160248Y00110837D02*
X00160375Y00110964D01*
X00303834Y00687682D02*
X00304834Y00688682D01*
X00302414Y00686262D02*
X00303834Y00687682D01*
X00165168Y00440966D02*
X00219417D01*
X000595Y00248D02*
X00061288Y00249788D01*
X00055854Y00244354D02*
X000595Y00248D01*
X00105003Y00133934D02*
X00110954Y00127982D01*
X00160375D01*
X00856242Y0026665D02*
X00856542Y0026635D01*
X00674509Y00025D02*
Y0006438D01*
X00526878Y00064674D02*
X00531804Y000696D01*
X00526706Y00064502D02*
X00526878Y00064674D01*
X005633Y000696D02*
X00577519D01*
X00531804D02*
X005633D01*
X00304834Y00688682D02*
Y00725D01*
X0052619Y00064674D02*
X00526878D01*
X00629668Y0006188D02*
X00630008D01*
X00697698Y00083381D02*
Y00097075D01*
X0054Y00313115D02*
Y00400784D01*
X00547835Y0040862D02*
X00565148D01*
X0054Y00400784D02*
X00547835Y0040862D01*
Y0030528D02*
X00566859D01*
X00566352Y00407416D02*
X00567395D01*
X00565148Y0040862D02*
X00566352Y00407416D01*
X0054Y00313115D02*
X00547835Y0030528D01*
X0060803Y00405513D02*
X00608717D01*
X00604042Y00401526D02*
X0060803Y00405513D01*
X00573911Y0039608D02*
X00579357Y00401526D01*
X00604042D01*
X00781851Y0048958D02*
X00783267Y00488164D01*
X00285Y00607872D02*
X0029621Y00596662D01*
X00285Y00607872D02*
Y00667848D01*
X00302414Y00685262D01*
X0029621Y0058629D02*
Y00596662D01*
X00302414Y00685262D02*
Y00686262D01*
X0029621Y0058629D02*
X0029875Y0058375D01*
Y0047411D02*
Y0058375D01*
X000665Y00465851D02*
X0006992Y00462431D01*
X00064553Y00467798D02*
X000665Y00465851D01*
X00449758Y0028488D02*
X0047116D01*
X00220337Y00433549D02*
X00226288Y00427597D01*
X00252237D01*
X00220337Y00433549D02*
Y00441406D01*
X00252237Y00427597D02*
X0029875Y0047411D01*
X0010075Y0031075D02*
Y0035075D01*
X00061288Y00249788D02*
Y00271288D01*
X0010075Y0031075D01*
Y0035075D02*
X00111712Y00361712D01*
X00146711D01*
X00151Y00366D01*
X00064553Y00467798D02*
Y0049835D01*
X00101128D01*
X00103708Y0049577D01*
X0010708D01*
X00074991Y00462431D02*
X0010354Y00433882D01*
X0006992Y00462431D02*
X00074991D01*
X0010354Y00433882D02*
X00158084D01*
X001085Y0049335D02*
Y0049435D01*
X0010708Y0049577D02*
X001085Y0049435D01*
X00680514Y00114486D02*
X00681Y00114D01*
X00209901Y00787286D02*
X00222615Y008D01*
X00209901Y00761952D02*
Y00787286D01*
X00178952Y00756D02*
X00203949D01*
X00209901Y00761952D01*
X00173Y00750048D02*
X00178952Y00756D01*
X00173Y0072D02*
Y00750048D01*
X003815Y00725D02*
X00384008Y00727508D01*
X003815Y00690214D02*
Y00725D01*
X00378548Y00686262D02*
X00379968Y00687682D01*
X00378548Y0067556D02*
Y00686262D01*
X00374488Y006715D02*
X00378548Y0067556D01*
X00330903Y006715D02*
X00374488D01*
X00379968Y00687682D02*
Y00688682D01*
X00219417Y00441406D02*
X00220337D01*
X00786494Y0048425D02*
Y00484937D01*
X00781851Y0048958D02*
Y00506492D01*
X00796431Y00475D02*
X00817531D01*
X00787181Y0048425D02*
X00796431Y00475D01*
X00817531D02*
X00829195Y00486664D01*
X00929274Y00355047D02*
Y00380726D01*
X00912Y00398D02*
X00929274Y00380726D01*
X00892508Y00398D02*
X00912D01*
X00629928Y00257796D02*
X0063048Y00258348D01*
X00629928Y00234442D02*
Y00257796D01*
X00837124Y00233126D02*
X0083761Y00233612D01*
Y0023924D01*
X0083788Y0023951D01*
X00830835Y0024104D02*
X0083635D01*
X0083788Y0023951D01*
X00158084Y00433882D02*
X00165168Y00440966D01*
X00151Y00426798D02*
X00158084Y00433882D01*
X00665698Y0006438D02*
X00674509D01*
X00410652Y00550164D02*
X00424778Y0056429D01*
Y00582778D01*
X0042575Y0058375D01*
X00379968Y00688682D02*
X003815Y00690214D01*
X00151Y00366D02*
Y00426798D01*
X00654372Y00258318D02*
Y00258348D01*
X00852868Y00506476D02*
Y00506492D01*
Y00478536D02*
Y00506476D01*
X00573286Y00401526D02*
X00573491Y0040132D01*
X00567395Y00407416D02*
X00573286Y00401526D01*
X003365Y0039125D02*
Y0046175D01*
X0032725Y00382D02*
X003365Y0039125D01*
X00825Y0024104D02*
X00830835D01*
X00573491Y00311912D02*
Y003179D01*
X00574492Y00290007D02*
X00574556D01*
X00573491Y00396D02*
Y0040132D01*
X00573286Y00422D02*
X00573491D01*
Y00448D01*
X00875292Y00422D02*
X00875508D01*
X00875292Y00470085D02*
X00875508D01*
X00861318D02*
X00875292D01*
X00852868Y00478536D02*
X00861318Y00470085D01*
X00875292Y00446043D02*
X00875517D01*
X00829195Y00486664D02*
Y00506476D01*
Y00506492D01*
D101*
X0070475Y0047925D02*
X0073575D01*
X0069575D02*
X0070475D01*
X00851778Y0030727D02*
X00856242Y00302806D01*
Y0026665D02*
Y00302806D01*
X00716715Y0030727D02*
X00851778D01*
X0070575Y00318235D02*
X00716715Y0030727D01*
X0083125Y00834D02*
Y00855D01*
X0082625Y0086D02*
X0083125Y00855D01*
X0069875Y00834D02*
Y00855536D01*
X00703214Y0086D01*
X0082625D01*
D102*
X00051422Y005243D02*
X00093071D01*
X0049375Y00746233D02*
Y00749983D01*
Y007445D02*
Y00746233D01*
X0045795Y00785783D02*
X0049375Y00749983D01*
X0045795Y00785783D02*
Y00842D01*
X00034047Y00539976D02*
X00037023Y00537D01*
X00034047Y00539976D02*
Y0055865D01*
X00037023Y00537D02*
X00093071D01*
X00034047Y0055865D02*
X00034047Y0055865D01*
X00145277Y00516156D02*
Y0052334D01*
X00146237Y005243D01*
X0013146Y0049731D02*
Y00502338D01*
X00146237Y005243D02*
X00147072D01*
X001275Y0049335D02*
X0013146Y0049731D01*
Y00502338D02*
X00145277Y00516156D01*
X00183531Y0045569D02*
X00183603D01*
X00181071Y0045815D02*
Y0049335D01*
Y0045815D02*
X00183531Y0045569D01*
X00164071Y0049335D02*
Y00524501D01*
X00147072Y00537D02*
X00151572D01*
X00164071Y00524501D01*
X00034047Y0055865D02*
Y0058585D01*
X00034047Y0058585D02*
X00034047Y0058585D01*
X001275Y0045569D02*
Y0049335D01*
D103*
X0054325Y006183D02*
Y008075D01*
D104*
X008095Y007215D02*
D03*
X007841D02*
D03*
X007587D02*
D03*
X007333D02*
D03*
X007206Y006961D02*
D03*
X00746D02*
D03*
X007968D02*
D03*
X007714D02*
D03*
D105*
X0083125Y00834D02*
D03*
X0080585D02*
D03*
X0072415D02*
D03*
X0069875D02*
D03*
D106*
X0068755Y007545D02*
D03*
X0084245D02*
D03*
D107*
X00222615Y008D02*
D03*
D108*
X00146415D02*
D03*
D109*
X002917Y0084275D02*
D03*
X003425D02*
D03*
X00568729Y00842D02*
D03*
X00619529D02*
D03*
X0050875D02*
D03*
X0045795D02*
D03*
D110*
X003856Y007956D02*
D03*
X00411Y00821D02*
D03*
X003856D02*
D03*
X002984Y00029D02*
D03*
X00273D02*
D03*
D111*
X00411Y007956D02*
D03*
X002476Y00029D02*
D03*
D112*
X0029875Y0058375D02*
D03*
D113*
X0032415D02*
D03*
X0037495D02*
D03*
X0042575D02*
D03*
D114*
X009005Y008475D02*
D03*
Y00047584D02*
D03*
X000515D02*
D03*
Y008475D02*
D03*
D115*
X009105Y00278001D02*
D03*
X00337Y0065525D02*
D03*
X00395Y006505D02*
D03*
X003595Y0071075D02*
D03*
X0067775Y00222195D02*
D03*
X00779788Y00224275D02*
D03*
X0064725Y0035979D02*
D03*
X0074575Y00464729D02*
D03*
X0072562Y00466806D02*
D03*
X00536698Y00204903D02*
D03*
X0064825Y00129D02*
D03*
X0075225Y0031375D02*
D03*
X00740767Y003225D02*
D03*
X0071575Y00331163D02*
D03*
X007224Y00324562D02*
D03*
X0074975Y005765D02*
D03*
X0073075Y003805D02*
D03*
X0056175Y006665D02*
D03*
X0045325Y00135D02*
D03*
X001945Y00109D02*
D03*
X0075725Y005925D02*
D03*
X0071Y0064D02*
D03*
X005565Y0059D02*
D03*
X0076125Y00352973D02*
D03*
X0077925Y00337D02*
D03*
X00694758Y00331163D02*
D03*
X00545Y00051885D02*
D03*
X00251Y00464D02*
D03*
X008Y00418635D02*
D03*
X00698051Y00378532D02*
D03*
X00752Y0033025D02*
D03*
X0081Y00292095D02*
D03*
X00774546D02*
D03*
X0052619Y00064674D02*
D03*
X00535455Y00127252D02*
D03*
X00567395Y00331515D02*
D03*
X0057502Y00264324D02*
D03*
X00557423Y00249223D02*
D03*
X00540515Y001618D02*
D03*
X00662832Y00404947D02*
D03*
X00647061Y00400274D02*
D03*
X00608717Y00405513D02*
D03*
X00912Y0032258D02*
D03*
X0034075Y00687682D02*
D03*
X00443807Y0026329D02*
D03*
X0047116Y0028488D02*
D03*
X0041785Y0021D02*
D03*
X0036975Y000696D02*
D03*
X0035837Y00045D02*
D03*
X00214433Y0007874D02*
D03*
X00188222Y00258D02*
D03*
X00192778Y003594D02*
D03*
X0051655Y0070025D02*
D03*
X0065407Y0054125D02*
D03*
X0051Y00337D02*
D03*
X001225Y00216D02*
D03*
X00681Y00114D02*
D03*
X0026Y004065D02*
D03*
X00152571Y00476D02*
D03*
X00739508Y00273D02*
D03*
X00702457Y00301291D02*
D03*
X00686515Y00299D02*
D03*
X00525257Y00193417D02*
D03*
X00507Y0041D02*
D03*
X00741599Y00410651D02*
D03*
X00836Y00571D02*
D03*
X00746Y00545D02*
D03*
X00699Y00538D02*
D03*
X0069575Y0047925D02*
D03*
X00798788Y00497079D02*
D03*
X00783267Y00487477D02*
D03*
X00700072Y00403812D02*
D03*
X00715036Y0046225D02*
D03*
X009125Y0037325D02*
D03*
X0090925Y00422D02*
D03*
X00629928Y00234442D02*
D03*
X006135Y0023525D02*
D03*
X00837124Y00233126D02*
D03*
X0054525Y0017875D02*
D03*
X00707698Y0018788D02*
D03*
X0053215Y00252222D02*
D03*
X00412Y003665D02*
D03*
X0043975Y0069625D02*
D03*
X0045675Y006745D02*
D03*
X0043975Y00679D02*
D03*
X00231Y0063125D02*
D03*
X00174886Y00582D02*
D03*
X0010825Y0061325D02*
D03*
X00175103Y0053585D02*
D03*
X0007Y0055725D02*
D03*
X00504Y0026775D02*
D03*
X003665Y0024775D02*
D03*
X0020684Y0017D02*
D03*
X0008275Y0047725D02*
D03*
X0005425Y0043725D02*
D03*
X0053125Y0048525D02*
D03*
X00034523Y00446D02*
D03*
X0064825Y00083381D02*
D03*
X00708298Y00025D02*
D03*
X00717844Y00118913D02*
D03*
X009105Y00232D02*
D03*
X0090075Y0048925D02*
D03*
X004055Y0057125D02*
D03*
X00697698Y00097075D02*
D03*
X0071832Y00140462D02*
D03*
X00398534Y00272542D02*
D03*
M02*
