G04*
G04 #@! TF.GenerationSoftware,Altium Limited,Altium Designer,23.0.1 (38)*
G04*
G04 Layer_Physical_Order=2*
G04 Layer_Color=16711680*
%FSTAX44Y44*%
%MOMM*%
G71*
G04*
G04 #@! TF.SameCoordinates,F694FBC8-736E-493C-811D-9B4FADD6A984*
G04*
G04*
G04 #@! TF.FilePolarity,Positive*
G04*
G01*
G75*
%ADD14C,0.2540*%
%ADD48C,1.0000*%
%ADD87C,1.4000*%
%ADD88R,1.4000X1.4000*%
%ADD96R,1.4000X1.4000*%
%ADD99C,0.3810*%
%ADD100C,1.0160*%
%ADD101C,0.7620*%
%ADD104O,1.6000X2.0000*%
%ADD105C,2.0000*%
%ADD106O,2.0000X3.0000*%
%ADD107R,3.8100X6.0960*%
%ADD108O,3.8100X6.0960*%
%ADD109C,2.7940*%
%ADD110C,1.5000*%
%ADD111R,1.5000X1.5000*%
%ADD112R,1.5240X2.0320*%
%ADD113O,1.5240X2.0320*%
%ADD114C,6.0000*%
%ADD115C,0.6000*%
G36*
X00952794Y-00002118D02*
X00000795D01*
Y00892882D01*
X00952794D01*
Y-00002118D01*
D02*
G37*
%LPC*%
G36*
X003425Y00856841D02*
X00338853Y00856361D01*
X00335455Y00854953D01*
X00332537Y00852714D01*
X00330297Y00849795D01*
X0032889Y00846397D01*
X0032841Y0084275D01*
X0032889Y00839103D01*
X00330297Y00835705D01*
X00332537Y00832787D01*
X00335455Y00830547D01*
X00338853Y0082914D01*
X003425Y0082866D01*
X00346147Y0082914D01*
X00349546Y00830547D01*
X00352464Y00832787D01*
X00354703Y00835705D01*
X00356111Y00839103D01*
X00356591Y0084275D01*
X00356111Y00846397D01*
X00354703Y00849795D01*
X00352464Y00852714D01*
X00349546Y00854953D01*
X00346147Y00856361D01*
X003425Y00856841D01*
D02*
G37*
G36*
X002917D02*
X00288053Y00856361D01*
X00284655Y00854953D01*
X00281737Y00852714D01*
X00279497Y00849795D01*
X0027809Y00846397D01*
X0027761Y0084275D01*
X0027809Y00839103D01*
X00279497Y00835705D01*
X00281737Y00832787D01*
X00284655Y00830547D01*
X00288053Y0082914D01*
X002917Y0082866D01*
X00295347Y0082914D01*
X00298745Y00830547D01*
X00301664Y00832787D01*
X00303903Y00835705D01*
X00305311Y00839103D01*
X00305791Y0084275D01*
X00305311Y00846397D01*
X00303903Y00849795D01*
X00301664Y00852714D01*
X00298745Y00854953D01*
X00295347Y00856361D01*
X002917Y00856841D01*
D02*
G37*
G36*
X00612671Y00880707D02*
X00542278D01*
X00540296Y00880313D01*
X00538615Y0087919D01*
X00514262Y00854837D01*
X00512397Y0085561D01*
X0050875Y0085609D01*
X00505103Y0085561D01*
X00501704Y00854203D01*
X00498786Y00851963D01*
X00496547Y00849045D01*
X00495139Y00845647D01*
X00494659Y00842D01*
X00495139Y00838353D01*
X00496547Y00834955D01*
X00498786Y00832036D01*
X00501704Y00829797D01*
X00505103Y00828389D01*
X0050875Y00827909D01*
X00512397Y00828389D01*
X00515795Y00829797D01*
X00518713Y00832036D01*
X00520953Y00834955D01*
X0052236Y00838353D01*
X0052284Y00842D01*
X0052236Y00845647D01*
X00521587Y00847513D01*
X00544423Y00870348D01*
X00610525D01*
X00614349Y00866524D01*
Y00854975D01*
X00612484Y00854203D01*
X00609565Y00851963D01*
X00607326Y00849045D01*
X00605918Y00845647D01*
X00605438Y00842D01*
X00605918Y00838353D01*
X00607326Y00834955D01*
X00609565Y00832036D01*
X00612484Y00829797D01*
X00615882Y00828389D01*
X00619529Y00827909D01*
X00623176Y00828389D01*
X00626574Y00829797D01*
X00629492Y00832036D01*
X00631732Y00834955D01*
X00633139Y00838353D01*
X00633619Y00842D01*
X00633139Y00845647D01*
X00631732Y00849045D01*
X00629492Y00851963D01*
X00626574Y00854203D01*
X00624708Y00854975D01*
Y0086867D01*
X00624708Y0086867D01*
X00624314Y00870652D01*
X00623191Y00872332D01*
X00616333Y0087919D01*
X00614653Y00880313D01*
X00612671Y00880707D01*
D02*
G37*
G36*
X00568729Y0085609D02*
X00565082Y0085561D01*
X00561684Y00854203D01*
X00558765Y00851963D01*
X00556526Y00849045D01*
X00555118Y00845647D01*
X00554638Y00842D01*
X00555118Y00838353D01*
X00556526Y00834955D01*
X00558765Y00832036D01*
X00561684Y00829797D01*
X00565082Y00828389D01*
X00568729Y00827909D01*
X00572376Y00828389D01*
X00575774Y00829797D01*
X00578692Y00832036D01*
X00580932Y00834955D01*
X00582339Y00838353D01*
X00582819Y00842D01*
X00582339Y00845647D01*
X00580932Y00849045D01*
X00578692Y00851963D01*
X00575774Y00854203D01*
X00572376Y0085561D01*
X00568729Y0085609D01*
D02*
G37*
G36*
X0045795D02*
X00454303Y0085561D01*
X00450905Y00854203D01*
X00447986Y00851963D01*
X00445747Y00849045D01*
X00444339Y00845647D01*
X00443859Y00842D01*
X00444339Y00838353D01*
X00445747Y00834955D01*
X00447986Y00832036D01*
X00450905Y00829797D01*
X00454303Y00828389D01*
X0045795Y00827909D01*
X00461597Y00828389D01*
X00464995Y00829797D01*
X00467913Y00832036D01*
X00470153Y00834955D01*
X0047156Y00838353D01*
X0047204Y00842D01*
X0047156Y00845647D01*
X00470153Y00849045D01*
X00467913Y00851963D01*
X00464995Y00854203D01*
X00461597Y0085561D01*
X0045795Y0085609D01*
D02*
G37*
G36*
X0083125Y00844086D02*
X0082864Y00843743D01*
X00826207Y00842735D01*
X00824118Y00841132D01*
X00822515Y00839043D01*
X00821507Y0083661D01*
X00821164Y00834D01*
X00821507Y00831389D01*
X00822515Y00828957D01*
X00824118Y00826868D01*
X00826207Y00825265D01*
X0082864Y00824257D01*
X0083125Y00823914D01*
X00833861Y00824257D01*
X00836293Y00825265D01*
X00838382Y00826868D01*
X00839985Y00828957D01*
X00840993Y00831389D01*
X00841336Y00834D01*
X00840993Y0083661D01*
X00839985Y00839043D01*
X00838382Y00841132D01*
X00836293Y00842735D01*
X00833861Y00843743D01*
X0083125Y00844086D01*
D02*
G37*
G36*
X0069875D02*
X0069614Y00843743D01*
X00693707Y00842735D01*
X00691618Y00841132D01*
X00690015Y00839043D01*
X00689536Y00837885D01*
X00674D01*
X00672513Y00837589D01*
X00671253Y00836747D01*
X0062707Y00792563D01*
X00626227Y00791303D01*
X00625932Y00789816D01*
Y00506936D01*
X00626227Y0050545D01*
X0062707Y00504189D01*
X00674615Y00456644D01*
Y00398068D01*
X00674911Y00396581D01*
X00675753Y00395321D01*
X00686039Y00385036D01*
X00686083Y00385006D01*
X00695304Y00375785D01*
X00696318Y00375108D01*
X00696825Y0037424D01*
X00696888Y00374072D01*
X00697057Y00372255D01*
X00695287Y00370485D01*
X00678194D01*
X00676707Y00370189D01*
X00675447Y00369347D01*
X00671243Y00365144D01*
X00670401Y00363883D01*
X00670106Y00362397D01*
Y00340372D01*
X00670401Y00338886D01*
X00671243Y00337626D01*
X00680452Y00328416D01*
X00681713Y00327575D01*
X00683199Y00327279D01*
X00690691D01*
X00690764Y00327169D01*
X00692597Y00325945D01*
X00694758Y00325515D01*
X0069692Y00325945D01*
X00698753Y00327169D01*
X00699977Y00329002D01*
X00700407Y00331163D01*
X00699977Y00333325D01*
X00698753Y00335158D01*
X0069692Y00336382D01*
X00694758Y00336812D01*
X00692597Y00336382D01*
X00690764Y00335158D01*
X00690691Y00335048D01*
X00684808D01*
X00677875Y00341982D01*
Y00360788D01*
X00679803Y00362716D01*
X00696896D01*
X00698382Y00363011D01*
X00699643Y00363853D01*
X00715497Y00379707D01*
X00716339Y00380968D01*
X00716635Y00382454D01*
Y00392765D01*
X00733553Y00409684D01*
X00736309Y00408848D01*
X0073638Y00408489D01*
X00737605Y00406657D01*
X00739437Y00405433D01*
X00740329Y00405255D01*
Y00410651D01*
X00741599D01*
Y00411921D01*
X00746995D01*
X00746818Y00412813D01*
X00745593Y00414645D01*
X00743761Y0041587D01*
X00743402Y00415941D01*
X00742566Y00418697D01*
X00809235Y00485365D01*
X00896683D01*
X00896756Y00485256D01*
X00898588Y00484031D01*
X0090075Y00483601D01*
X00902912Y00484031D01*
X00904744Y00485256D01*
X00905969Y00487088D01*
X00906399Y0048925D01*
X00905969Y00491412D01*
X00904744Y00493244D01*
X00902912Y00494469D01*
X0090075Y00494899D01*
X00898588Y00494469D01*
X00896756Y00493244D01*
X00896683Y00493135D01*
X00807626D01*
X00806139Y00492839D01*
X00804879Y00491997D01*
X00803322Y00493892D01*
X00804007Y00494917D01*
X00804437Y00497079D01*
X00804007Y00499241D01*
X00802782Y00501073D01*
X0080095Y00502298D01*
X00798788Y00502728D01*
X00796627Y00502298D01*
X00794794Y00501073D01*
X0079357Y00499241D01*
X0079314Y00497079D01*
X00793243Y0049656D01*
X0079296Y00495135D01*
Y00490092D01*
X00789591Y00486723D01*
X007881Y00487184D01*
X00787151Y00487875D01*
Y00504231D01*
X00789241Y0050632D01*
X00790083Y00507581D01*
X00790378Y00509067D01*
Y00524421D01*
X00790083Y00525908D01*
X00789241Y00527168D01*
X00780842Y00535567D01*
X00779581Y00536409D01*
X00778095Y00536705D01*
X00736815D01*
X00701023Y00572497D01*
X00699763Y00573339D01*
X00698276Y00573635D01*
X0064775D01*
X00646263Y00573339D01*
X00645003Y00572497D01*
X00639893Y00567387D01*
X00639051Y00566127D01*
X00638755Y0056464D01*
Y0053236D01*
X00639051Y00530873D01*
X00639893Y00529613D01*
X00691923Y00477583D01*
X00692161Y00476389D01*
X00693003Y00475129D01*
X00696187Y00471944D01*
Y00403812D01*
X00696483Y00402325D01*
X00697325Y00401065D01*
X00698585Y00400223D01*
X00700072Y00399927D01*
X00701559Y00400223D01*
X00702819Y00401065D01*
X00703661Y00402325D01*
X00703957Y00403812D01*
Y00473553D01*
X00703661Y0047504D01*
X00702819Y004763D01*
X00699576Y00479543D01*
X00699339Y00480737D01*
X00698496Y00481997D01*
X00646525Y00533969D01*
Y00538347D01*
X00647832Y00538764D01*
X00649065Y00538769D01*
X00650076Y00537256D01*
X00651908Y00536031D01*
X0065407Y00535602D01*
X00656232Y00536031D01*
X00658064Y00537256D01*
X00658137Y00537365D01*
X00670875D01*
X00672361Y00537661D01*
X00673622Y00538503D01*
X00682984Y00547865D01*
X00703891D01*
X00722918Y00528838D01*
Y00501295D01*
X00722873Y0050125D01*
X00722031Y0049999D01*
X00721735Y00498503D01*
Y00473124D01*
X00721461Y00472921D01*
X00718921Y00474199D01*
Y00521964D01*
X00718625Y00523451D01*
X00717783Y00524711D01*
X00704623Y00537871D01*
X00704649Y00538D01*
X00704219Y00540162D01*
X00702994Y00541994D01*
X00701162Y00543218D01*
X00699Y00543648D01*
X00696838Y00543218D01*
X00695006Y00541994D01*
X00693781Y00540162D01*
X00693352Y00538D01*
X00693781Y00535838D01*
X00695006Y00534006D01*
X00696838Y00532781D01*
X00699Y00532351D01*
X00699129Y00532377D01*
X00711151Y00520355D01*
Y00466317D01*
X00711042Y00466244D01*
X00709818Y00464412D01*
X00709388Y0046225D01*
X00709818Y00460088D01*
X00711042Y00458256D01*
X00712874Y00457032D01*
X00715036Y00456601D01*
X00717198Y00457032D01*
X0071903Y00458256D01*
X00720255Y00460088D01*
X00720357Y00460604D01*
X00723171Y00461779D01*
X00723458Y00461587D01*
X0072562Y00461157D01*
X00727781Y00461587D01*
X00729614Y00462812D01*
X00730838Y00464644D01*
X00731268Y00466806D01*
X00730838Y00468967D01*
X00729614Y004708D01*
X00729504Y00470873D01*
Y00496894D01*
X0072955Y00496939D01*
X00730392Y004982D01*
X00730688Y00499686D01*
Y00528267D01*
X00731076Y00528663D01*
X00733228Y0052956D01*
X0073372Y00529231D01*
X00735206Y00528935D01*
X00776486D01*
X00782609Y00522812D01*
Y00510676D01*
X0078052Y00508587D01*
X00779678Y00507327D01*
X00779382Y0050584D01*
Y00487477D01*
X00779678Y0048599D01*
X0078052Y0048473D01*
X0078178Y00483888D01*
X00782935Y00483658D01*
X0078359Y00482547D01*
X00784021Y00481153D01*
X00771482Y00468614D01*
X00749817D01*
X00749744Y00468723D01*
X00747911Y00469948D01*
X0074575Y00470378D01*
X00743588Y00469948D01*
X00741756Y00468723D01*
X00740531Y0046689D01*
X00740101Y00464729D01*
X00740531Y00462567D01*
X00741756Y00460735D01*
X00743588Y0045951D01*
X0074575Y0045908D01*
X00747911Y0045951D01*
X00749744Y00460735D01*
X00749817Y00460844D01*
X00770134D01*
X00771186Y00458304D01*
X00710003Y00397121D01*
X00709161Y00395861D01*
X00708865Y00394374D01*
Y00384063D01*
X00704328Y00379526D01*
X00702015Y0037995D01*
X00701475Y00380265D01*
X00700798Y00381279D01*
X00700798Y00381279D01*
X00691547Y00390529D01*
X00691502Y00390559D01*
X00682385Y00399677D01*
Y00458253D01*
X00682089Y00459739D01*
X00681247Y00460999D01*
X00633701Y00508545D01*
Y00788207D01*
X00675609Y00830115D01*
X00689536D01*
X00690015Y00828957D01*
X00691618Y00826868D01*
X00693707Y00825265D01*
X0069614Y00824257D01*
X0069875Y00823914D01*
X00701361Y00824257D01*
X00703794Y00825265D01*
X00705882Y00826868D01*
X00707485Y00828957D01*
X00708493Y00831389D01*
X00708837Y00834D01*
X00708493Y0083661D01*
X00707485Y00839043D01*
X00705882Y00841132D01*
X00703794Y00842735D01*
X00701361Y00843743D01*
X0069875Y00844086D01*
D02*
G37*
G36*
X0080585Y00845111D02*
X00802974Y00844732D01*
X00800294Y00843622D01*
X00797993Y00841857D01*
X00796228Y00839556D01*
X00795118Y00836876D01*
X00794739Y00834D01*
X00795118Y00831124D01*
X00796228Y00828444D01*
X00797993Y00826143D01*
X00800294Y00824378D01*
X00802974Y00823268D01*
X0080585Y00822889D01*
X00808726Y00823268D01*
X00811405Y00824378D01*
X00813707Y00826143D01*
X00815472Y00828444D01*
X00816582Y00831124D01*
X00816961Y00834D01*
X00816582Y00836876D01*
X00815472Y00839556D01*
X00813707Y00841857D01*
X00811405Y00843622D01*
X00808726Y00844732D01*
X0080585Y00845111D01*
D02*
G37*
G36*
X0072415D02*
X00721275Y00844732D01*
X00718595Y00843622D01*
X00716294Y00841857D01*
X00714528Y00839556D01*
X00713418Y00836876D01*
X00713039Y00834D01*
X00713418Y00831124D01*
X00714528Y00828444D01*
X00716294Y00826143D01*
X00718595Y00824378D01*
X00721275Y00823268D01*
X0072415Y00822889D01*
X00727026Y00823268D01*
X00729706Y00824378D01*
X00732007Y00826143D01*
X00733773Y00828444D01*
X00734883Y00831124D01*
X00735262Y00834D01*
X00734883Y00836876D01*
X00733773Y00839556D01*
X00732007Y00841857D01*
X00729706Y00843622D01*
X00727026Y00844732D01*
X0072415Y00845111D01*
D02*
G37*
G36*
X0038687Y00830959D02*
Y0082227D01*
X00395559D01*
X00395382Y00823621D01*
X0039437Y00826063D01*
X00392761Y00828161D01*
X00390663Y0082977D01*
X00388221Y00830782D01*
X0038687Y00830959D01*
D02*
G37*
G36*
X0038433D02*
X00382979Y00830782D01*
X00380537Y0082977D01*
X00378439Y00828161D01*
X0037683Y00826063D01*
X00375818Y00823621D01*
X00375641Y0082227D01*
X0038433D01*
Y00830959D01*
D02*
G37*
G36*
X009005Y00877593D02*
X00895793Y00877222D01*
X00891201Y0087612D01*
X00886838Y00874313D01*
X00882812Y00871845D01*
X00879221Y00868779D01*
X00876155Y00865188D01*
X00873687Y00861162D01*
X0087188Y00856799D01*
X00870778Y00852207D01*
X00870407Y008475D01*
X00870778Y00842792D01*
X0087188Y00838201D01*
X00873687Y00833838D01*
X00876155Y00829812D01*
X00879221Y00826221D01*
X00882812Y00823154D01*
X00886838Y00820687D01*
X00891201Y0081888D01*
X00895793Y00817778D01*
X009005Y00817407D01*
X00905208Y00817778D01*
X00909799Y0081888D01*
X00914162Y00820687D01*
X00918188Y00823154D01*
X00921779Y00826221D01*
X00924846Y00829812D01*
X00927313Y00833838D01*
X0092912Y00838201D01*
X00930222Y00842792D01*
X00930593Y008475D01*
X00930222Y00852207D01*
X0092912Y00856799D01*
X00927313Y00861162D01*
X00924846Y00865188D01*
X00921779Y00868779D01*
X00918188Y00871845D01*
X00914162Y00874313D01*
X00909799Y0087612D01*
X00905208Y00877222D01*
X009005Y00877593D01*
D02*
G37*
G36*
X000515D02*
X00046792Y00877222D01*
X00042201Y0087612D01*
X00037838Y00874313D01*
X00033812Y00871845D01*
X00030221Y00868779D01*
X00027155Y00865188D01*
X00024687Y00861162D01*
X0002288Y00856799D01*
X00021778Y00852207D01*
X00021407Y008475D01*
X00021778Y00842792D01*
X0002288Y00838201D01*
X00024687Y00833838D01*
X00027155Y00829812D01*
X00030221Y00826221D01*
X00033812Y00823154D01*
X00037838Y00820687D01*
X00042201Y0081888D01*
X00046792Y00817778D01*
X000515Y00817407D01*
X00056208Y00817778D01*
X00060799Y0081888D01*
X00065162Y00820687D01*
X00069188Y00823154D01*
X00072779Y00826221D01*
X00075846Y00829812D01*
X00078313Y00833838D01*
X0008012Y00838201D01*
X00081222Y00842792D01*
X00081593Y008475D01*
X00081222Y00852207D01*
X0008012Y00856799D01*
X00078313Y00861162D01*
X00075846Y00865188D01*
X00072779Y00868779D01*
X00069188Y00871845D01*
X00065162Y00874313D01*
X00060799Y0087612D01*
X00056208Y00877222D01*
X000515Y00877593D01*
D02*
G37*
G36*
X00411Y00829589D02*
X00408777Y00829297D01*
X00406705Y00828439D01*
X00404926Y00827074D01*
X00403561Y00825295D01*
X00402703Y00823223D01*
X00402411Y00821D01*
X00402703Y00818777D01*
X00403561Y00816705D01*
X00404926Y00814926D01*
X00406705Y00813561D01*
X00408777Y00812703D01*
X00411Y00812411D01*
X00413223Y00812703D01*
X00415295Y00813561D01*
X00417074Y00814926D01*
X00418439Y00816705D01*
X00419297Y00818777D01*
X0041959Y00821D01*
X00419297Y00823223D01*
X00418439Y00825295D01*
X00417074Y00827074D01*
X00415295Y00828439D01*
X00413223Y00829297D01*
X00411Y00829589D01*
D02*
G37*
G36*
X00395559Y0081973D02*
X0038687D01*
Y00811041D01*
X00388221Y00811218D01*
X00390663Y0081223D01*
X00392761Y00813839D01*
X0039437Y00815937D01*
X00395382Y00818379D01*
X00395559Y0081973D01*
D02*
G37*
G36*
X0038433D02*
X00375641D01*
X00375818Y00818379D01*
X0037683Y00815937D01*
X00378439Y00813839D01*
X00380537Y0081223D01*
X00382979Y00811218D01*
X0038433Y00811041D01*
Y0081973D01*
D02*
G37*
G36*
X00147685Y00832999D02*
Y0080127D01*
X0016811D01*
Y0081143D01*
X00167693Y00815662D01*
X00166458Y00819732D01*
X00164454Y00823483D01*
X00161756Y0082677D01*
X00158468Y00829468D01*
X00154717Y00831473D01*
X00150648Y00832708D01*
X00147685Y00832999D01*
D02*
G37*
G36*
X00145145D02*
X00142183Y00832708D01*
X00138113Y00831473D01*
X00134362Y00829468D01*
X00131075Y0082677D01*
X00128377Y00823483D01*
X00126372Y00819732D01*
X00125138Y00815662D01*
X00124721Y0081143D01*
Y0080127D01*
X00145145D01*
Y00832999D01*
D02*
G37*
G36*
X0038687Y00805559D02*
Y0079687D01*
X00395559D01*
X00395382Y00798221D01*
X0039437Y00800663D01*
X00392761Y00802761D01*
X00390663Y0080437D01*
X00388221Y00805382D01*
X0038687Y00805559D01*
D02*
G37*
G36*
X0038433Y00805559D02*
X00382979Y00805382D01*
X00380537Y0080437D01*
X00378439Y00802761D01*
X0037683Y00800663D01*
X00375818Y00798221D01*
X00375641Y0079687D01*
X0038433D01*
Y00805559D01*
D02*
G37*
G36*
X00419516Y00804116D02*
X00402484D01*
Y00787084D01*
X00419516D01*
Y00804116D01*
D02*
G37*
G36*
X00395559Y0079433D02*
X0038687D01*
Y00785641D01*
X00388221Y00785818D01*
X00390663Y0078683D01*
X00392761Y00788439D01*
X0039437Y00790537D01*
X00395382Y00792979D01*
X00395559Y0079433D01*
D02*
G37*
G36*
X0038433D02*
X00375641D01*
X00375818Y00792979D01*
X0037683Y00790537D01*
X00378439Y00788439D01*
X00380537Y0078683D01*
X00382979Y00785818D01*
X0038433Y00785641D01*
Y0079433D01*
D02*
G37*
G36*
X00241665Y0083048D02*
X00203565D01*
Y0076952D01*
X00241665D01*
Y0083048D01*
D02*
G37*
G36*
X0082215Y0080158D02*
X00818916Y00801261D01*
X00815805Y00800318D01*
X00812939Y00798785D01*
X00810426Y00796723D01*
X00808365Y00794211D01*
X00806833Y00791345D01*
X00805889Y00788234D01*
X0080557Y00785D01*
X00805889Y00781765D01*
X00806833Y00778655D01*
X00808365Y00775788D01*
X00810426Y00773276D01*
X00812939Y00771214D01*
X00815805Y00769682D01*
X00818916Y00768738D01*
X0082215Y0076842D01*
X00825385Y00768738D01*
X00828495Y00769682D01*
X00831361Y00771214D01*
X00833874Y00773276D01*
X00835936Y00775788D01*
X00837468Y00778655D01*
X00838411Y00781765D01*
X0083873Y00785D01*
X00838411Y00788234D01*
X00837468Y00791345D01*
X00835936Y00794211D01*
X00833874Y00796723D01*
X00831361Y00798785D01*
X00828495Y00800318D01*
X00825385Y00801261D01*
X0082215Y0080158D01*
D02*
G37*
G36*
X0070785D02*
X00704616Y00801261D01*
X00701505Y00800318D01*
X00698639Y00798785D01*
X00696126Y00796723D01*
X00694065Y00794211D01*
X00692533Y00791345D01*
X00691589Y00788234D01*
X0069127Y00785D01*
X00691589Y00781765D01*
X00692533Y00778655D01*
X00694065Y00775788D01*
X00696126Y00773276D01*
X00698639Y00771214D01*
X00701505Y00769682D01*
X00704616Y00768738D01*
X0070785Y0076842D01*
X00711085Y00768738D01*
X00714195Y00769682D01*
X00717061Y00771214D01*
X00719574Y00773276D01*
X00721636Y00775788D01*
X00723168Y00778655D01*
X00724111Y00781765D01*
X0072443Y00785D01*
X00724111Y00788234D01*
X00723168Y00791345D01*
X00721636Y00794211D01*
X00719574Y00796723D01*
X00717061Y00798785D01*
X00714195Y00800318D01*
X00711085Y00801261D01*
X0070785Y0080158D01*
D02*
G37*
G36*
X0016811Y0079873D02*
X00147685D01*
Y00767001D01*
X00150648Y00767292D01*
X00154717Y00768527D01*
X00158468Y00770532D01*
X00161756Y0077323D01*
X00164454Y00776517D01*
X00166458Y00780268D01*
X00167693Y00784337D01*
X0016811Y0078857D01*
Y0079873D01*
D02*
G37*
G36*
X00145145D02*
X00124721D01*
Y0078857D01*
X00125138Y00784337D01*
X00126372Y00780268D01*
X00128377Y00776517D01*
X00131075Y0077323D01*
X00134362Y00770532D01*
X00138113Y00768527D01*
X00142183Y00767292D01*
X00145145Y00767001D01*
Y0079873D01*
D02*
G37*
G36*
X0084245Y00769586D02*
X0083984Y00769243D01*
X00837407Y00768235D01*
X00835318Y00766632D01*
X00833715Y00764543D01*
X00832708Y00762111D01*
X00832364Y007595D01*
Y007495D01*
X00832708Y00746889D01*
X00833715Y00744457D01*
X00835318Y00742368D01*
X00837407Y00740765D01*
X0083984Y00739757D01*
X0084245Y00739414D01*
X00845061Y00739757D01*
X00847494Y00740765D01*
X00849583Y00742368D01*
X00851185Y00744457D01*
X00852193Y00746889D01*
X00852537Y007495D01*
Y007595D01*
X00852193Y00762111D01*
X00851185Y00764543D01*
X00849583Y00766632D01*
X00847494Y00768235D01*
X00845061Y00769243D01*
X0084245Y00769586D01*
D02*
G37*
G36*
X0068755D02*
X00684939Y00769243D01*
X00682507Y00768235D01*
X00680418Y00766632D01*
X00678815Y00764543D01*
X00677807Y00762111D01*
X00677464Y007595D01*
Y007495D01*
X00677807Y00746889D01*
X00678815Y00744457D01*
X00680418Y00742368D01*
X00682507Y00740765D01*
X00684939Y00739757D01*
X0068755Y00739414D01*
X00690161Y00739757D01*
X00692593Y00740765D01*
X00694682Y00742368D01*
X00696285Y00744457D01*
X00697293Y00746889D01*
X00697636Y007495D01*
Y007595D01*
X00697293Y00762111D01*
X00696285Y00764543D01*
X00694682Y00766632D01*
X00692593Y00768235D01*
X00690161Y00769243D01*
X0068755Y00769586D01*
D02*
G37*
G36*
X007333Y00731569D02*
X00731212Y00731294D01*
X00729266Y00730488D01*
X00727594Y00729205D01*
X00726312Y00727534D01*
X00725506Y00725588D01*
X00725231Y007235D01*
Y007195D01*
X00725506Y00717411D01*
X00726312Y00715465D01*
X00727594Y00713794D01*
X00729266Y00712512D01*
X00731212Y00711706D01*
X007333Y00711431D01*
X00735388Y00711706D01*
X00737335Y00712512D01*
X00739006Y00713794D01*
X00740288Y00715465D01*
X00741094Y00717411D01*
X00741369Y007195D01*
Y007235D01*
X00741094Y00725588D01*
X00740288Y00727534D01*
X00739006Y00729205D01*
X00737335Y00730488D01*
X00735388Y00731294D01*
X007333Y00731569D01*
D02*
G37*
G36*
X008095Y00732594D02*
X00807146Y00732284D01*
X00804953Y00731375D01*
X0080307Y0072993D01*
X00801625Y00728047D01*
X00800716Y00725854D01*
X00800406Y007235D01*
Y007195D01*
X00800716Y00717146D01*
X00801625Y00714953D01*
X0080307Y0071307D01*
X00804953Y00711624D01*
X00807146Y00710716D01*
X008095Y00710406D01*
X00811854Y00710716D01*
X00814047Y00711624D01*
X0081593Y0071307D01*
X00817375Y00714953D01*
X00818284Y00717146D01*
X00818594Y007195D01*
Y007235D01*
X00818284Y00725854D01*
X00817375Y00728047D01*
X0081593Y0072993D01*
X00814047Y00731375D01*
X00811854Y00732284D01*
X008095Y00732594D01*
D02*
G37*
G36*
X007841D02*
X00781746Y00732284D01*
X00779553Y00731375D01*
X0077767Y0072993D01*
X00776225Y00728047D01*
X00775316Y00725854D01*
X00775006Y007235D01*
Y007195D01*
X00775316Y00717146D01*
X00776225Y00714953D01*
X0077767Y0071307D01*
X00779553Y00711624D01*
X00781746Y00710716D01*
X007841Y00710406D01*
X00786454Y00710716D01*
X00788647Y00711624D01*
X0079053Y0071307D01*
X00791975Y00714953D01*
X00792884Y00717146D01*
X00793194Y007195D01*
Y007235D01*
X00792884Y00725854D01*
X00791975Y00728047D01*
X0079053Y0072993D01*
X00788647Y00731375D01*
X00786454Y00732284D01*
X007841Y00732594D01*
D02*
G37*
G36*
X007422Y00743885D02*
X007111D01*
X00709613Y00743589D01*
X00708353Y00742747D01*
X00687253Y00721647D01*
X00686411Y00720387D01*
X00686115Y007189D01*
Y00641488D01*
X00686411Y00640001D01*
X00687253Y00638741D01*
X00688741Y00637253D01*
X00690001Y00636411D01*
X00691488Y00636115D01*
X00705933D01*
X00706006Y00636006D01*
X00706115Y00635933D01*
Y005765D01*
X00706411Y00575013D01*
X00707253Y00573753D01*
X00708513Y00572911D01*
X0071Y00572615D01*
X00745683D01*
X00745756Y00572506D01*
X00746115Y00572266D01*
Y00568984D01*
X00743253Y00566121D01*
X00742411Y00564861D01*
X00742115Y00563375D01*
Y00549067D01*
X00742006Y00548994D01*
X00740781Y00547162D01*
X00740351Y00545D01*
X00740781Y00542838D01*
X00742006Y00541006D01*
X00743838Y00539781D01*
X00746Y00539352D01*
X00748162Y00539781D01*
X00749994Y00541006D01*
X00751219Y00542838D01*
X00751648Y00545D01*
X00751219Y00547162D01*
X00749994Y00548994D01*
X00749885Y00549067D01*
Y00561766D01*
X00752747Y00564628D01*
X00753589Y00565888D01*
X00753885Y00567375D01*
Y00572716D01*
X00754969Y00574338D01*
X00755398Y005765D01*
X00754969Y00578662D01*
X00753744Y00580494D01*
X00751912Y00581718D01*
X0074975Y00582149D01*
X00747588Y00581718D01*
X00745756Y00580494D01*
X00745683Y00580385D01*
X00713885D01*
Y00635933D01*
X00713994Y00636006D01*
X00715219Y00637838D01*
X00715648Y0064D01*
X00715219Y00642162D01*
X00713994Y00643994D01*
X00712162Y00645219D01*
X0071Y00645648D01*
X00707838Y00645219D01*
X00706006Y00643994D01*
X00705933Y00643885D01*
X00693885D01*
Y00717291D01*
X00712709Y00736115D01*
X00740591D01*
X0075019Y00726516D01*
X00749916Y00725854D01*
X00749606Y007235D01*
Y007195D01*
X00749916Y00717146D01*
X00750825Y00714953D01*
X0075227Y0071307D01*
X00754153Y00711624D01*
X00756346Y00710716D01*
X007587Y00710406D01*
X00761054Y00710716D01*
X00763247Y00711624D01*
X0076513Y0071307D01*
X00766575Y00714953D01*
X00767484Y00717146D01*
X00767794Y007195D01*
Y007235D01*
X00767484Y00725854D01*
X00766575Y00728047D01*
X0076513Y0072993D01*
X00763247Y00731375D01*
X00761054Y00732284D01*
X007587Y00732594D01*
X00756346Y00732284D01*
X00755684Y00732009D01*
X00744947Y00742747D01*
X00743686Y00743589D01*
X007422Y00743885D01*
D02*
G37*
G36*
X0051782Y00705646D02*
Y0070152D01*
X00521946D01*
X00521769Y00702412D01*
X00520544Y00704244D01*
X00518712Y00705469D01*
X0051782Y00705646D01*
D02*
G37*
G36*
X0051528D02*
X00514389Y00705469D01*
X00512556Y00704244D01*
X00511332Y00702412D01*
X00511154Y0070152D01*
X0051528D01*
Y00705646D01*
D02*
G37*
G36*
X003595Y00713809D02*
X0035833Y00713576D01*
X00357337Y00712913D01*
X00356674Y0071192D01*
X00356441Y0071075D01*
X00356674Y00709579D01*
X00357337Y00708587D01*
X00358125Y0070806D01*
Y00701432D01*
X0035646Y00699766D01*
X00326295D01*
X00325323Y00699363D01*
X00325323Y00699363D01*
X00323835Y00697875D01*
X00323433Y00696903D01*
X00323433Y00696903D01*
Y00667443D01*
X00323433Y00667443D01*
X00323835Y00666471D01*
X00334126Y0065618D01*
X00333941Y0065525D01*
X00334174Y0065408D01*
X00334837Y00653087D01*
X0033583Y00652424D01*
X00337Y00652191D01*
X00338171Y00652424D01*
X00339163Y00653087D01*
X00339826Y0065408D01*
X00340059Y0065525D01*
X00339826Y00656421D01*
X00339163Y00657413D01*
X00338171Y00658076D01*
X00337Y00658309D01*
X0033607Y00658124D01*
X00326182Y00668012D01*
Y00696334D01*
X00326865Y00697016D01*
X00357029D01*
X00357029Y00697016D01*
X00358001Y00697419D01*
X00360472Y0069989D01*
X00360875Y00700862D01*
X00360875Y00700862D01*
Y0070806D01*
X00361663Y00708587D01*
X00362326Y00709579D01*
X00362559Y0071075D01*
X00362326Y0071192D01*
X00361663Y00712913D01*
X00360671Y00713576D01*
X003595Y00713809D01*
D02*
G37*
G36*
X00521946Y0069898D02*
X0051782D01*
Y00694854D01*
X00518712Y00695032D01*
X00520544Y00696256D01*
X00521769Y00698088D01*
X00521946Y0069898D01*
D02*
G37*
G36*
X0051528D02*
X00511154D01*
X00511332Y00698088D01*
X00512556Y00696256D01*
X00514389Y00695032D01*
X0051528Y00694854D01*
Y0069898D01*
D02*
G37*
G36*
X0034202Y00693078D02*
Y00688952D01*
X00346146D01*
X00345969Y00689844D01*
X00344744Y00691676D01*
X00342912Y00692901D01*
X0034202Y00693078D01*
D02*
G37*
G36*
X0033948D02*
X00338588Y00692901D01*
X00336756Y00691676D01*
X00335532Y00689844D01*
X00335354Y00688952D01*
X0033948D01*
Y00693078D01*
D02*
G37*
G36*
X007206Y00706169D02*
X00718512Y00705894D01*
X00716565Y00705088D01*
X00714894Y00703805D01*
X00713612Y00702134D01*
X00712806Y00700188D01*
X00712531Y006981D01*
Y006941D01*
X00712806Y00692011D01*
X00713612Y00690065D01*
X00714894Y00688394D01*
X00716565Y00687112D01*
X00718512Y00686306D01*
X007206Y00686031D01*
X00722688Y00686306D01*
X00724634Y00687112D01*
X00726306Y00688394D01*
X00727588Y00690065D01*
X00728394Y00692011D01*
X00728669Y006941D01*
Y006981D01*
X00728394Y00700188D01*
X00727588Y00702134D01*
X00726306Y00703805D01*
X00724634Y00705088D01*
X00722688Y00705894D01*
X007206Y00706169D01*
D02*
G37*
G36*
X007968Y00707194D02*
X00794446Y00706884D01*
X00792253Y00705975D01*
X0079037Y0070453D01*
X00788925Y00702647D01*
X00788016Y00700453D01*
X00787706Y006981D01*
Y006941D01*
X00788016Y00691746D01*
X00788925Y00689553D01*
X0079037Y0068767D01*
X00792253Y00686224D01*
X00794446Y00685316D01*
X007968Y00685006D01*
X00799154Y00685316D01*
X00801347Y00686224D01*
X0080323Y0068767D01*
X00804676Y00689553D01*
X00805584Y00691746D01*
X00805894Y006941D01*
Y006981D01*
X00805584Y00700453D01*
X00804676Y00702647D01*
X0080323Y0070453D01*
X00801347Y00705975D01*
X00799154Y00706884D01*
X007968Y00707194D01*
D02*
G37*
G36*
X00746D02*
X00743646Y00706884D01*
X00741453Y00705975D01*
X0073957Y0070453D01*
X00738125Y00702647D01*
X00737216Y00700453D01*
X00736906Y006981D01*
Y006941D01*
X00737216Y00691746D01*
X00738125Y00689553D01*
X0073957Y0068767D01*
X00741453Y00686224D01*
X00743646Y00685316D01*
X00746Y00685006D01*
X00748354Y00685316D01*
X00750547Y00686224D01*
X0075243Y0068767D01*
X00753876Y00689553D01*
X00754784Y00691746D01*
X00755094Y006941D01*
Y006981D01*
X00754784Y00700453D01*
X00753876Y00702647D01*
X0075243Y0070453D01*
X00750547Y00705975D01*
X00748354Y00706884D01*
X00746Y00707194D01*
D02*
G37*
G36*
X00346146Y00686412D02*
X0034202D01*
Y00682286D01*
X00342912Y00682464D01*
X00344744Y00683688D01*
X00345969Y0068552D01*
X00346146Y00686412D01*
D02*
G37*
G36*
X0033948D02*
X00335354D01*
X00335532Y0068552D01*
X00336756Y00683688D01*
X00338588Y00682464D01*
X0033948Y00682286D01*
Y00686412D01*
D02*
G37*
G36*
X0044102Y00684396D02*
Y0068027D01*
X00445146D01*
X00444969Y00681162D01*
X00443744Y00682994D01*
X00441912Y00684219D01*
X0044102Y00684396D01*
D02*
G37*
G36*
X0043848D02*
X00437588Y00684219D01*
X00435756Y00682994D01*
X00434532Y00681162D01*
X00434354Y0068027D01*
X0043848D01*
Y00684396D01*
D02*
G37*
G36*
X00445146Y0067773D02*
X0044102D01*
Y00673604D01*
X00441912Y00673782D01*
X00443744Y00675006D01*
X00444969Y00676838D01*
X00445146Y0067773D01*
D02*
G37*
G36*
X0043848D02*
X00434354D01*
X00434532Y00676838D01*
X00435756Y00675006D01*
X00437588Y00673782D01*
X0043848Y00673604D01*
Y0067773D01*
D02*
G37*
G36*
X00550036Y007192D02*
X00458168D01*
X00456433Y00718855D01*
X00454963Y00717873D01*
X00454963Y00717872D01*
X004388Y0070171D01*
X00437588Y00701469D01*
X00435756Y00700244D01*
X00434532Y00698412D01*
X00434101Y0069625D01*
X00434532Y00694089D01*
X00435756Y00692256D01*
X00437588Y00691031D01*
X0043975Y00690602D01*
X00441912Y00691031D01*
X00443744Y00692256D01*
X00444969Y00694089D01*
X0044521Y006953D01*
X00460045Y00710136D01*
X00548159D01*
X00557218Y00701077D01*
Y00669689D01*
X00556531Y00668662D01*
X00556101Y006665D01*
X00556531Y00664338D01*
X00557756Y00662506D01*
X00559588Y00661281D01*
X0056175Y00660852D01*
X00563912Y00661281D01*
X00565744Y00662506D01*
X00566969Y00664338D01*
X00567398Y006665D01*
X00566969Y00668662D01*
X00566282Y00669689D01*
Y00702954D01*
X00565937Y00704689D01*
X00564955Y00706159D01*
X00564955Y00706159D01*
X00553241Y00717873D01*
X00551771Y00718855D01*
X00550036Y007192D01*
D02*
G37*
G36*
X0045675Y00680149D02*
X00454588Y00679719D01*
X00452756Y00678494D01*
X00451531Y00676662D01*
X00451213Y00675058D01*
X00450862Y00674533D01*
X00450517Y00672799D01*
Y00669266D01*
X00446705Y00665455D01*
X00446084Y00664525D01*
X00436591Y00655032D01*
X00398189D01*
X00397162Y00655719D01*
X00395Y00656149D01*
X00392838Y00655719D01*
X00391006Y00654494D01*
X00389781Y00652662D01*
X00389352Y006505D01*
X00389781Y00648338D01*
X00391006Y00646506D01*
X00392838Y00645281D01*
X00395Y00644852D01*
X00397162Y00645281D01*
X00398189Y00645968D01*
X00438468D01*
X00440203Y00646313D01*
X00441673Y00647295D01*
X00453115Y00658737D01*
X00453115Y00658737D01*
X00453736Y00659667D01*
X00458254Y00664184D01*
X00458254Y00664184D01*
X00459236Y00665655D01*
X00459581Y00667389D01*
X00459581Y00667389D01*
Y00669729D01*
X00460744Y00670506D01*
X00461969Y00672338D01*
X00462398Y006745D01*
X00461969Y00676662D01*
X00460744Y00678494D01*
X00458912Y00679719D01*
X0045675Y00680149D01*
D02*
G37*
G36*
X0032542Y0059637D02*
Y0058502D01*
X00334398D01*
Y0058629D01*
X00334049Y00588942D01*
X00333025Y00591414D01*
X00331396Y00593536D01*
X00329274Y00595165D01*
X00326802Y00596188D01*
X0032542Y0059637D01*
D02*
G37*
G36*
X0032288D02*
X00321498Y00596188D01*
X00319026Y00595165D01*
X00316904Y00593536D01*
X00315275Y00591414D01*
X00314252Y00588942D01*
X00313902Y0058629D01*
Y0058502D01*
X0032288D01*
Y0059637D01*
D02*
G37*
G36*
X0051525Y00636429D02*
X00231D01*
X00229018Y00636035D01*
X00227337Y00634912D01*
X00226215Y00633232D01*
X00225821Y0063125D01*
X00226215Y00629268D01*
X00227337Y00627588D01*
X00229018Y00626465D01*
X00231Y00626071D01*
X00513104D01*
X00552837Y00586338D01*
X00554518Y00585215D01*
X005565Y00584821D01*
X00558482Y00585215D01*
X00560162Y00586338D01*
X00561285Y00588018D01*
X00561679Y0059D01*
X00561285Y00591982D01*
X00560162Y00593662D01*
X00518912Y00634912D01*
X00517232Y00636035D01*
X0051525Y00636429D01*
D02*
G37*
G36*
X0030637Y0059391D02*
X0029113D01*
Y0057359D01*
X0030637D01*
Y0059391D01*
D02*
G37*
G36*
X0042575Y00593976D02*
X00423761Y00593714D01*
X00421907Y00592946D01*
X00420316Y00591725D01*
X00419094Y00590133D01*
X00418326Y00588279D01*
X00418064Y0058629D01*
Y0058121D01*
X00418326Y00579221D01*
X00419094Y00577367D01*
X00420316Y00575775D01*
X00421907Y00574554D01*
X00423761Y00573786D01*
X0042575Y00573524D01*
X00427739Y00573786D01*
X00429593Y00574554D01*
X00431185Y00575775D01*
X00432406Y00577367D01*
X00433174Y00579221D01*
X00433436Y0058121D01*
Y0058629D01*
X00433174Y00588279D01*
X00432406Y00590133D01*
X00431185Y00591725D01*
X00429593Y00592946D01*
X00427739Y00593714D01*
X0042575Y00593976D01*
D02*
G37*
G36*
X0037495D02*
X00372961Y00593714D01*
X00371107Y00592946D01*
X00369516Y00591725D01*
X00368294Y00590133D01*
X00367526Y00588279D01*
X00367265Y0058629D01*
Y0058121D01*
X00367526Y00579221D01*
X00368294Y00577367D01*
X00369516Y00575775D01*
X00371107Y00574554D01*
X00372961Y00573786D01*
X0037495Y00573524D01*
X0037694Y00573786D01*
X00378793Y00574554D01*
X00380385Y00575775D01*
X00381606Y00577367D01*
X00382374Y00579221D01*
X00382636Y0058121D01*
Y0058629D01*
X00382374Y00588279D01*
X00381606Y00590133D01*
X00380385Y00591725D01*
X00378793Y00592946D01*
X0037694Y00593714D01*
X0037495Y00593976D01*
D02*
G37*
G36*
X00334398Y0058248D02*
X0032542D01*
Y00571129D01*
X00326802Y00571311D01*
X00329274Y00572335D01*
X00331396Y00573964D01*
X00333025Y00576086D01*
X00334049Y00578558D01*
X00334398Y0058121D01*
Y0058248D01*
D02*
G37*
G36*
X0032288D02*
X00313902D01*
Y0058121D01*
X00314252Y00578558D01*
X00315275Y00576086D01*
X00316904Y00573964D01*
X00319026Y00572335D01*
X00321498Y00571311D01*
X0032288Y00571129D01*
Y0058248D01*
D02*
G37*
G36*
X007714Y00707194D02*
X00769046Y00706884D01*
X00766853Y00705975D01*
X0076497Y0070453D01*
X00763525Y00702647D01*
X00762616Y00700453D01*
X00762306Y006981D01*
Y006941D01*
X00762616Y00691746D01*
X00763525Y00689553D01*
X0076497Y0068767D01*
X00766853Y00686224D01*
X00767515Y0068595D01*
Y00648509D01*
X00754503Y00635497D01*
X00753661Y00634237D01*
X00753365Y0063275D01*
Y00596567D01*
X00753256Y00596494D01*
X00752031Y00594662D01*
X00751601Y005925D01*
X00752031Y00590338D01*
X00753256Y00588506D01*
X00755088Y00587281D01*
X0075725Y00586852D01*
X00757379Y00586877D01*
X00778503Y00565753D01*
X00779763Y00564911D01*
X0078125Y00564615D01*
X00832782D01*
X00834269Y00564911D01*
X00835174Y00565516D01*
X00836Y00565351D01*
X00838162Y00565781D01*
X00839994Y00567006D01*
X00841219Y00568838D01*
X00841648Y00571D01*
X00841219Y00573162D01*
X00839994Y00574994D01*
X00838162Y00576219D01*
X00836Y00576648D01*
X00833838Y00576219D01*
X00832006Y00574994D01*
X00830781Y00573162D01*
X00830627Y00572385D01*
X00782859D01*
X00762873Y00592371D01*
X00762899Y005925D01*
X00762469Y00594662D01*
X00761244Y00596494D01*
X00761135Y00596567D01*
Y00631141D01*
X00774147Y00644153D01*
X00774989Y00645413D01*
X00775285Y006469D01*
Y0068595D01*
X00775947Y00686224D01*
X0077783Y0068767D01*
X00779276Y00689553D01*
X00780184Y00691746D01*
X00780494Y006941D01*
Y006981D01*
X00780184Y00700453D01*
X00779276Y00702647D01*
X0077783Y0070453D01*
X00775947Y00705975D01*
X00773754Y00706884D01*
X007714Y00707194D01*
D02*
G37*
G36*
X00079775Y00624717D02*
X00079032Y0062457D01*
X00078402Y00624148D01*
X00068627Y00614374D01*
X00068206Y00613743D01*
X00068058Y00613D01*
Y0055956D01*
X00067837Y00559413D01*
X00067174Y0055842D01*
X00066941Y0055725D01*
X00067174Y00556079D01*
X00067837Y00555087D01*
X00068829Y00554424D01*
X0007Y00554191D01*
X00071171Y00554424D01*
X00072163Y00555087D01*
X00072826Y00556079D01*
X00073059Y0055725D01*
X00072826Y0055842D01*
X00072163Y00559413D01*
X00071942Y0055956D01*
Y00612196D01*
X0008058Y00620833D01*
X00104033D01*
X00104378Y0062038D01*
X00104256Y00617244D01*
X00103031Y00615412D01*
X00102601Y0061325D01*
X00102627Y00613121D01*
X00090753Y00601247D01*
X00089911Y00599987D01*
X00089615Y005985D01*
Y00481519D01*
X00087075Y00480748D01*
X00086744Y00481244D01*
X00084912Y00482469D01*
X0008402Y00482646D01*
Y0047725D01*
Y0047185D01*
X00085269Y00469513D01*
X00057499Y00441742D01*
X00056412Y00442469D01*
X0005425Y00442898D01*
X00052088Y00442469D01*
X00050256Y00441244D01*
X00049031Y00439412D01*
X00048601Y0043725D01*
X00049031Y00435088D01*
X00050256Y00433256D01*
X00052088Y00432031D01*
X0005425Y00431601D01*
X00056412Y00432031D01*
X00058244Y00433256D01*
X00058418Y00433516D01*
X0005865D01*
X00060137Y00433811D01*
X00061397Y00434654D01*
X00096247Y00469503D01*
X00097089Y00470763D01*
X00097385Y0047225D01*
Y00596891D01*
X00108121Y00607627D01*
X0010825Y00607602D01*
X00110412Y00608032D01*
X00112244Y00609256D01*
X00113469Y00611088D01*
X00113898Y0061325D01*
X0011603Y00615554D01*
X00116594Y0061563D01*
X00120413Y00611811D01*
Y0057675D01*
X0012056Y00576007D01*
X00120981Y00575377D01*
X00161665Y00534693D01*
X00162295Y00534272D01*
X00163038Y00534124D01*
X00163038Y00534124D01*
X00172648D01*
X0017294Y00533687D01*
X00173932Y00533024D01*
X00175103Y00532791D01*
X00176274Y00533024D01*
X00177266Y00533687D01*
X00177929Y0053468D01*
X00178162Y0053585D01*
X00177929Y00537021D01*
X00177266Y00538013D01*
X00176937Y00538233D01*
Y00579762D01*
X00177049Y00579837D01*
X00177712Y0058083D01*
X00177945Y00582D01*
X00177712Y00583171D01*
X00177049Y00584163D01*
X00176057Y00584826D01*
X00174886Y00585059D01*
X00173716Y00584826D01*
X00172723Y00584163D01*
X0017206Y00583171D01*
X00171828Y00582D01*
X0017206Y0058083D01*
X00172723Y00579837D01*
X00173052Y00579617D01*
Y00538088D01*
X0017294Y00538013D01*
X00172938Y00538009D01*
X00163843D01*
X00124297Y00577555D01*
Y00612616D01*
X00124149Y00613359D01*
X00123728Y00613989D01*
X00113569Y00624148D01*
X00112939Y0062457D01*
X00112195Y00624717D01*
X00079775D01*
X00079775Y00624717D01*
D02*
G37*
G36*
X0008148Y00482646D02*
X00080588Y00482469D01*
X00078756Y00481244D01*
X00077531Y00479412D01*
X00077354Y0047852D01*
X0008148D01*
Y00482646D01*
D02*
G37*
G36*
X00153841Y00481396D02*
Y0047727D01*
X00157967D01*
X0015779Y00478162D01*
X00156565Y00479994D01*
X00154733Y00481219D01*
X00153841Y00481396D01*
D02*
G37*
G36*
X00151301D02*
X0015041Y00481219D01*
X00148577Y00479994D01*
X00147353Y00478162D01*
X00147175Y0047727D01*
X00151301D01*
Y00481396D01*
D02*
G37*
G36*
X0008148Y0047598D02*
X00077354D01*
X00077531Y00475088D01*
X00078756Y00473256D01*
X00080588Y00472032D01*
X0008148Y00471854D01*
Y0047598D01*
D02*
G37*
G36*
X00157967Y0047473D02*
X00153841D01*
Y00470604D01*
X00154733Y00470782D01*
X00156565Y00472006D01*
X0015779Y00473838D01*
X00157967Y0047473D01*
D02*
G37*
G36*
X00151301D02*
X00147175D01*
X00147353Y00473838D01*
X00148577Y00472006D01*
X0015041Y00470782D01*
X00151301Y00470604D01*
Y0047473D01*
D02*
G37*
G36*
X004055Y00576899D02*
X00403338Y00576469D01*
X00401506Y00575244D01*
X00400281Y00573412D01*
X00399851Y0057125D01*
X00400124Y00569878D01*
X00395795Y00565549D01*
X00394813Y00564079D01*
X00394468Y00562345D01*
Y00470863D01*
X00391928Y0046961D01*
X00391311Y00470083D01*
X00388991Y00471045D01*
X003865Y00471372D01*
X0038401Y00471045D01*
X00381689Y00470083D01*
X00379696Y00468554D01*
X00378167Y00466561D01*
X00377206Y00464241D01*
X00376878Y0046175D01*
X00377206Y0045926D01*
X00378167Y00456939D01*
X00379696Y00454946D01*
X00381689Y00453417D01*
X00381968Y00453301D01*
Y00414115D01*
X00382313Y00412381D01*
X00383295Y00410911D01*
X00534142Y00260064D01*
X0053342Y00258712D01*
Y00253492D01*
X0053864D01*
X00539992Y00254215D01*
X00546486Y0024772D01*
X00546486Y0024772D01*
X00547957Y00246737D01*
X00549691Y00246392D01*
X00552652D01*
X00553429Y00245229D01*
X00555262Y00244005D01*
X00557423Y00243575D01*
X00559585Y00244005D01*
X00561417Y00245229D01*
X00562642Y00247062D01*
X00562817Y00247942D01*
X0056538Y00249009D01*
X00566119Y00248413D01*
X00566225Y00245634D01*
X00550709Y00230118D01*
X00526644D01*
X00524909Y00229773D01*
X00523439Y00228791D01*
X00523439Y00228791D01*
X00506798Y0021215D01*
X00505816Y0021068D01*
X00505471Y00208945D01*
Y00174247D01*
X00505816Y00172512D01*
X00506798Y00171042D01*
X00516732Y00161108D01*
Y00141443D01*
X00517077Y00139708D01*
X00518059Y00138238D01*
X00529995Y00126302D01*
X00530237Y0012509D01*
X00531461Y00123258D01*
X00533293Y00122033D01*
X00535455Y00121603D01*
X00537617Y00122033D01*
X00539449Y00123258D01*
X00540674Y0012509D01*
X00541104Y00127252D01*
X00540674Y00129413D01*
X00539449Y00131246D01*
X00537617Y00132471D01*
X00536405Y00132711D01*
X00525796Y0014332D01*
Y00155115D01*
X00528336Y00156167D01*
X00533602Y00150902D01*
X00534232Y0015048D01*
X00534975Y00150333D01*
X00534975Y00150333D01*
X00648391D01*
X00660808Y00137916D01*
Y00098685D01*
X0064851Y00086388D01*
X0064825Y00086439D01*
X00647079Y00086207D01*
X00646087Y00085543D01*
X00645424Y00084551D01*
X00645191Y00083381D01*
X00645424Y0008221D01*
X00646087Y00081218D01*
X00647079Y00080555D01*
X0064825Y00080322D01*
X0064942Y00080555D01*
X00650413Y00081218D01*
X00651076Y0008221D01*
X00651309Y00083381D01*
X00651257Y00083641D01*
X00664123Y00096507D01*
X00664123Y00096507D01*
X00664545Y00097137D01*
X00664692Y00097881D01*
Y0013872D01*
X00664545Y00139464D01*
X00664123Y00140094D01*
X00664123Y00140094D01*
X00650569Y00153648D01*
X00649939Y00154069D01*
X00649195Y00154217D01*
X00544732D01*
X00544387Y0015467D01*
X00544509Y00157806D01*
X00544942Y00158454D01*
X00802236D01*
X0080397Y00158799D01*
X0080544Y00159781D01*
X00862271Y00216611D01*
X00863253Y00218082D01*
X00863598Y00219816D01*
X00863598Y00219816D01*
Y00257184D01*
X00863253Y00258918D01*
X00862271Y00260389D01*
X00862271Y00260389D01*
X0078471Y0033795D01*
X00784469Y00339162D01*
X00783244Y00340994D01*
X00781412Y00342219D01*
X0077925Y00342649D01*
X00777088Y00342219D01*
X00775256Y00340994D01*
X00774032Y00339162D01*
X00773602Y00337D01*
X00774032Y00334838D01*
X00772056Y00333223D01*
X00765134Y00340145D01*
Y00348906D01*
X00765244Y00348979D01*
X00766468Y00350812D01*
X00766898Y00352973D01*
X00766468Y00355135D01*
X00765244Y00356967D01*
X00763411Y00358192D01*
X0076125Y00358622D01*
X00759088Y00358192D01*
X00757256Y00356967D01*
X00756031Y00355135D01*
X00755601Y00352973D01*
X00756031Y00350812D01*
X00757256Y00348979D01*
X00757365Y00348906D01*
Y00338535D01*
X00757661Y00337049D01*
X00755626Y00335522D01*
X00754511Y00335235D01*
X00754162Y00335469D01*
X00752Y00335899D01*
X00749838Y00335469D01*
X00748006Y00334244D01*
X00746781Y00332412D01*
X00746351Y0033025D01*
X00744389Y00327559D01*
X00743384Y00327414D01*
X00742929Y00327719D01*
X00740767Y00328148D01*
X00738606Y00327719D01*
X00737045Y00326676D01*
X00735823Y00326987D01*
X00734505Y00327671D01*
Y00376346D01*
X00734744Y00376506D01*
X00735968Y00378339D01*
X00736398Y003805D01*
X00735968Y00382662D01*
X00734744Y00384494D01*
X00732912Y00385719D01*
X0073075Y00386149D01*
X00728588Y00385719D01*
X00726756Y00384494D01*
X00725531Y00382662D01*
X00725101Y003805D01*
X00725531Y00378339D01*
X00726735Y00376536D01*
Y00331383D01*
X00725229Y00330272D01*
X00724195Y00329853D01*
X00723745Y00329943D01*
X00721398Y00331163D01*
X00720968Y00333325D01*
X00719744Y00335158D01*
X00717911Y00336382D01*
X0071702Y00336559D01*
Y00331163D01*
X0071575D01*
Y00329893D01*
X00710354D01*
X00710531Y00329002D01*
X00711756Y00327169D01*
X00713588Y00325945D01*
X00714405Y00325782D01*
X00716752Y00324562D01*
X00717182Y003224D01*
X00717539Y00321866D01*
X00702586Y00306914D01*
X00702457Y0030694D01*
X00700295Y0030651D01*
X00698463Y00305285D01*
X00697238Y00303453D01*
X00696808Y00301291D01*
X00697238Y0029913D01*
X00698463Y00297297D01*
X00700295Y00296073D01*
X00702457Y00295643D01*
X00704618Y00296073D01*
X00706451Y00297297D01*
X00707675Y0029913D01*
X00708105Y00301291D01*
X0070808Y0030142D01*
X00724195Y00317536D01*
X00725567Y00317276D01*
X00726735Y00316596D01*
Y00280845D01*
X00727031Y00279359D01*
X00727873Y00278098D01*
X0073408Y00271891D01*
X0073429Y00270838D01*
X00735514Y00269006D01*
X00737347Y00267782D01*
X00738021Y00265058D01*
X00738003Y00265025D01*
X00737591Y00264757D01*
X00597225D01*
X00595491Y00264412D01*
X0059402Y0026343D01*
X0059402Y0026343D01*
X00578356Y00247766D01*
X00576009Y00248738D01*
Y00250436D01*
X00576009Y00250436D01*
X00575664Y0025217D01*
X00574682Y0025364D01*
X00571092Y0025723D01*
X00572711Y00259203D01*
X00572858Y00259105D01*
X0057502Y00258675D01*
X00577182Y00259105D01*
X00579014Y00260329D01*
X00580238Y00262162D01*
X00580668Y00264324D01*
X00580238Y00266485D01*
X00579014Y00268318D01*
X00577182Y00269542D01*
X0057502Y00269972D01*
X00573648Y00269699D01*
X00569907Y0027344D01*
X00568437Y00274422D01*
X00566703Y00274767D01*
X00561922D01*
X00507413Y00329276D01*
X00508664Y00331617D01*
X0050873Y00331604D01*
Y0033573D01*
X00504604D01*
X00504617Y00335664D01*
X00502276Y00334413D01*
X00466032Y00370657D01*
Y00453301D01*
X00466311Y00453417D01*
X00468304Y00454946D01*
X00469833Y00456939D01*
X00470795Y0045926D01*
X00471123Y0046175D01*
X00470795Y00464241D01*
X00470012Y0046613D01*
X00470604Y00467587D01*
X00471417Y0046867D01*
X00475142D01*
X00502468Y00441344D01*
Y00413189D01*
X00501782Y00412162D01*
X00501352Y0041D01*
X00501782Y00407838D01*
X00503006Y00406006D01*
X00504838Y00404781D01*
X00507Y00404352D01*
X00509162Y00404781D01*
X00510994Y00406006D01*
X00512219Y00407838D01*
X00512649Y0041D01*
X00512219Y00412162D01*
X00511532Y00413189D01*
Y00443222D01*
X00511187Y00444956D01*
X00510205Y00446426D01*
X00480224Y00476407D01*
X00478754Y00477389D01*
X0047702Y00477734D01*
X00422952D01*
X00421217Y00477389D01*
X00419747Y00476407D01*
X00419747Y00476407D01*
X00414269Y00470929D01*
X0041399Y00471045D01*
X004115Y00471372D01*
X00409009Y00471045D01*
X00406689Y00470083D01*
X00406072Y0046961D01*
X00403532Y00470863D01*
Y00560467D01*
X00408704Y0056564D01*
X00408704Y0056564D01*
X00409687Y0056711D01*
X0040981Y00567729D01*
X00410718Y00569089D01*
X00411148Y0057125D01*
X00410718Y00573412D01*
X00409494Y00575244D01*
X00407661Y00576469D01*
X004055Y00576899D01*
D02*
G37*
G36*
X0025227Y00469396D02*
Y0046527D01*
X00256396D01*
X00256219Y00466162D01*
X00254994Y00467994D01*
X00253162Y00469219D01*
X0025227Y00469396D01*
D02*
G37*
G36*
X0024973D02*
X00248838Y00469219D01*
X00247006Y00467994D01*
X00245781Y00466162D01*
X00245604Y0046527D01*
X0024973D01*
Y00469396D01*
D02*
G37*
G36*
X0036277Y00471205D02*
Y0046302D01*
X00370955D01*
X00370794Y00464241D01*
X00369833Y00466561D01*
X00368304Y00468554D01*
X00366311Y00470083D01*
X0036399Y00471045D01*
X0036277Y00471205D01*
D02*
G37*
G36*
X0036023D02*
X0035901Y00471045D01*
X00356689Y00470083D01*
X00354696Y00468554D01*
X00353167Y00466561D01*
X00352206Y00464241D01*
X00352045Y0046302D01*
X0036023D01*
Y00471205D01*
D02*
G37*
G36*
X00256396Y0046273D02*
X0025227D01*
Y00458604D01*
X00253162Y00458782D01*
X00254994Y00460006D01*
X00256219Y00461838D01*
X00256396Y0046273D01*
D02*
G37*
G36*
X0024973D02*
X00245604D01*
X00245781Y00461838D01*
X00247006Y00460006D01*
X00248838Y00458782D01*
X0024973Y00458604D01*
Y0046273D01*
D02*
G37*
G36*
X003435Y0046875D02*
X003295D01*
Y0045475D01*
X003435D01*
Y0046875D01*
D02*
G37*
G36*
X00370955Y0046048D02*
X0036277D01*
Y00452295D01*
X0036399Y00452456D01*
X00366311Y00453417D01*
X00368304Y00454946D01*
X00369833Y00456939D01*
X00370794Y0045926D01*
X00370955Y0046048D01*
D02*
G37*
G36*
X0036023D02*
X00352045D01*
X00352206Y0045926D01*
X00353167Y00456939D01*
X00354696Y00454946D01*
X00356689Y00453417D01*
X0035901Y00452456D01*
X0036023Y00452295D01*
Y0046048D01*
D02*
G37*
G36*
X00035793Y00451396D02*
Y0044727D01*
X00039919D01*
X00039742Y00448162D01*
X00038517Y00449994D01*
X00036685Y00451219D01*
X00035793Y00451396D01*
D02*
G37*
G36*
X00033253D02*
X00032362Y00451219D01*
X00030529Y00449994D01*
X00029305Y00448162D01*
X00029127Y0044727D01*
X00033253D01*
Y00451396D01*
D02*
G37*
G36*
X00039919Y0044473D02*
X00035793D01*
Y00440604D01*
X00036685Y00440782D01*
X00038517Y00442006D01*
X00039742Y00443838D01*
X00039919Y0044473D01*
D02*
G37*
G36*
X00033253D02*
X00029127D01*
X00029305Y00443838D01*
X00030529Y00442006D01*
X00032362Y00440782D01*
X00033253Y00440604D01*
Y0044473D01*
D02*
G37*
G36*
X0091052Y00427396D02*
Y0042327D01*
X00914646D01*
X00914469Y00424162D01*
X00913244Y00425994D01*
X00911412Y00427219D01*
X0091052Y00427396D01*
D02*
G37*
G36*
X0090798D02*
X00907088Y00427219D01*
X00905256Y00425994D01*
X00904032Y00424162D01*
X00903854Y0042327D01*
X0090798D01*
Y00427396D01*
D02*
G37*
G36*
X0080127Y00424031D02*
Y00419905D01*
X00805396D01*
X00805219Y00420797D01*
X00803994Y00422629D01*
X00802162Y00423854D01*
X0080127Y00424031D01*
D02*
G37*
G36*
X0079873D02*
X00797838Y00423854D01*
X00796006Y00422629D01*
X00794781Y00420797D01*
X00794604Y00419905D01*
X0079873D01*
Y00424031D01*
D02*
G37*
G36*
X00914646Y0042073D02*
X0091052D01*
Y00416604D01*
X00911412Y00416782D01*
X00913244Y00418006D01*
X00914469Y00419839D01*
X00914646Y0042073D01*
D02*
G37*
G36*
X0090798D02*
X00903854D01*
X00904032Y00419839D01*
X00905256Y00418006D01*
X00907088Y00416782D01*
X0090798Y00416604D01*
Y0042073D01*
D02*
G37*
G36*
X00805396Y00417365D02*
X0080127D01*
Y00413239D01*
X00802162Y00413417D01*
X00803994Y00414641D01*
X00805219Y00416474D01*
X00805396Y00417365D01*
D02*
G37*
G36*
X0079873D02*
X00794604D01*
X00794781Y00416474D01*
X00796006Y00414641D01*
X00797838Y00413417D01*
X0079873Y00413239D01*
Y00417365D01*
D02*
G37*
G36*
X0026127Y00411896D02*
Y0040777D01*
X00265396D01*
X00265219Y00408662D01*
X00263994Y00410494D01*
X00262162Y00411719D01*
X0026127Y00411896D01*
D02*
G37*
G36*
X0025873D02*
X00257838Y00411719D01*
X00256006Y00410494D01*
X00254781Y00408662D01*
X00254604Y0040777D01*
X0025873D01*
Y00411896D01*
D02*
G37*
G36*
X00746995Y00409381D02*
X00742869D01*
Y00405255D01*
X00743761Y00405433D01*
X00745593Y00406657D01*
X00746818Y00408489D01*
X00746995Y00409381D01*
D02*
G37*
G36*
X00648331Y0040567D02*
Y00401544D01*
X00652457D01*
X0065228Y00402436D01*
X00651055Y00404268D01*
X00649222Y00405493D01*
X00648331Y0040567D01*
D02*
G37*
G36*
X00645791D02*
X00644899Y00405493D01*
X00643067Y00404268D01*
X00641842Y00402436D01*
X00641665Y00401544D01*
X00645791D01*
Y0040567D01*
D02*
G37*
G36*
X00265396Y0040523D02*
X0026127D01*
Y00401104D01*
X00262162Y00401282D01*
X00263994Y00402506D01*
X00265219Y00404338D01*
X00265396Y0040523D01*
D02*
G37*
G36*
X0025873D02*
X00254604D01*
X00254781Y00404338D01*
X00256006Y00402506D01*
X00257838Y00401282D01*
X0025873Y00401104D01*
Y0040523D01*
D02*
G37*
G36*
X00634756Y00424662D02*
X00632774Y00424268D01*
X00631094Y00423145D01*
X00631093Y00423145D01*
X00618864Y00410915D01*
X0060894D01*
X00606958Y00410521D01*
X00605277Y00409398D01*
X00605055Y00409175D01*
X00603932Y00407495D01*
X00603537Y00405513D01*
X00603932Y00403531D01*
X00605055Y00401851D01*
X00606735Y00400728D01*
X00608717Y00400334D01*
X00609838Y00400556D01*
X00621009D01*
X00622991Y00400951D01*
X00624672Y00402074D01*
X00636902Y00414303D01*
X00645463D01*
X00658482Y00401285D01*
X00660162Y00400162D01*
X00662144Y00399768D01*
X00662832D01*
X00664814Y00400162D01*
X00666494Y00401285D01*
X00667617Y00402965D01*
X00668011Y00404947D01*
X00667617Y00406929D01*
X00666494Y0040861D01*
X00664814Y00409732D01*
X00664652Y00409765D01*
X00651271Y00423145D01*
X00649591Y00424268D01*
X00647609Y00424662D01*
X00634756D01*
X00634756Y00424662D01*
D02*
G37*
G36*
X00652457Y00399004D02*
X00648331D01*
Y00394878D01*
X00649222Y00395055D01*
X00651055Y0039628D01*
X0065228Y00398112D01*
X00652457Y00399004D01*
D02*
G37*
G36*
X00645791D02*
X00641665D01*
X00641842Y00398112D01*
X00643067Y0039628D01*
X00644899Y00395055D01*
X00645791Y00394878D01*
Y00399004D01*
D02*
G37*
G36*
X0033425Y00389D02*
X0032025D01*
Y0038718D01*
X00192778D01*
X00190796Y00386786D01*
X00189115Y00385663D01*
X00164338Y00360885D01*
X00163215Y00359204D01*
X0016282Y00357222D01*
Y001815D01*
X00163215Y00179518D01*
X00164338Y00177838D01*
X00232338Y00109837D01*
X00234018Y00108715D01*
X00236Y0010832D01*
X0030975D01*
Y001065D01*
X0031157D01*
Y0005387D01*
X00311964Y00051888D01*
X00313087Y00050208D01*
X00354707Y00008587D01*
X00356388Y00007465D01*
X0035837Y00007071D01*
X00605804D01*
X00607786Y00007465D01*
X00609467Y00008587D01*
X00615418Y00014539D01*
X00615418Y00014539D01*
X00616541Y00016219D01*
X00616936Y00018202D01*
Y00042457D01*
X00616541Y00044439D01*
X00615418Y00046119D01*
X00594826Y00066712D01*
X00615418Y00087305D01*
X00616541Y00088986D01*
X00616936Y00090968D01*
Y00109296D01*
X0062035Y0011271D01*
X00621877Y00113731D01*
X00631967Y0012382D01*
X0064825D01*
X00650232Y00124215D01*
X00651913Y00125337D01*
X00653035Y00127018D01*
X00653429Y00129D01*
X00653035Y00130982D01*
X00651913Y00132662D01*
X00650232Y00133785D01*
X0064825Y00134179D01*
X00629821D01*
X00627839Y00133785D01*
X00626159Y00132662D01*
X00615572Y00122076D01*
X00614045Y00121056D01*
X00614045Y00121055D01*
X00608093Y00115104D01*
X00606971Y00113424D01*
X00606576Y00111441D01*
Y00093113D01*
X00585625Y00072162D01*
X00584502Y00070481D01*
X00584108Y00068499D01*
Y00064925D01*
X00584502Y00062943D01*
X00585625Y00061263D01*
X00606576Y00040311D01*
Y00020347D01*
X00603659Y00017429D01*
X00360515D01*
X00321929Y00056016D01*
Y001065D01*
X0032375D01*
Y001205D01*
X0030975D01*
Y00118679D01*
X00238146D01*
X00173179Y00183645D01*
Y00355077D01*
X00194923Y00376821D01*
X0032025D01*
Y00375D01*
X0033425D01*
Y00389D01*
D02*
G37*
G36*
X0091377Y00378646D02*
Y0037452D01*
X00917896D01*
X00917719Y00375412D01*
X00916494Y00377244D01*
X00914662Y00378469D01*
X0091377Y00378646D01*
D02*
G37*
G36*
X0091123D02*
X00910338Y00378469D01*
X00908506Y00377244D01*
X00907281Y00375412D01*
X00907104Y0037452D01*
X0091123D01*
Y00378646D01*
D02*
G37*
G36*
X00917896Y0037198D02*
X0091377D01*
Y00367854D01*
X00914662Y00368031D01*
X00916494Y00369256D01*
X00917719Y00371088D01*
X00917896Y0037198D01*
D02*
G37*
G36*
X0091123D02*
X00907104D01*
X00907281Y00371088D01*
X00908506Y00369256D01*
X00910338Y00368031D01*
X0091123Y00367854D01*
Y0037198D01*
D02*
G37*
G36*
X0041327Y00371896D02*
Y0036777D01*
X00417396D01*
X00417219Y00368662D01*
X00415994Y00370494D01*
X00414162Y00371719D01*
X0041327Y00371896D01*
D02*
G37*
G36*
X0041073D02*
X00409838Y00371719D01*
X00408006Y00370494D01*
X00406782Y00368662D01*
X00406604Y0036777D01*
X0041073D01*
Y00371896D01*
D02*
G37*
G36*
X00417396Y0036523D02*
X0041327D01*
Y00361104D01*
X00414162Y00361281D01*
X00415994Y00362506D01*
X00417219Y00364338D01*
X00417396Y0036523D01*
D02*
G37*
G36*
X0041073D02*
X00406604D01*
X00406782Y00364338D01*
X00408006Y00362506D01*
X00409838Y00361281D01*
X0041073Y00361104D01*
Y0036523D01*
D02*
G37*
G36*
X0032598Y00366455D02*
X0032476Y00366295D01*
X00322439Y00365333D01*
X00320446Y00363804D01*
X00318917Y00361811D01*
X00318137Y00359929D01*
X00316672Y00359312D01*
X00315346Y00359128D01*
X00311869Y00362604D01*
X00310399Y00363587D01*
X00308665Y00363932D01*
X00195967D01*
X00194939Y00364618D01*
X00192778Y00365048D01*
X00190616Y00364618D01*
X00188784Y00363394D01*
X00187559Y00361561D01*
X00187129Y003594D01*
X00187559Y00357238D01*
X00188784Y00355406D01*
X00190616Y00354181D01*
X00192778Y00353751D01*
X00194939Y00354181D01*
X00195967Y00354868D01*
X00306787D01*
X00319995Y0034166D01*
X00320439Y00338851D01*
X00319968Y00338181D01*
X00318917Y00336811D01*
X00317956Y0033449D01*
X00317628Y00332D01*
X00317956Y00329509D01*
X00318917Y00327189D01*
X00320446Y00325196D01*
X00322439Y00323667D01*
X0032476Y00322705D01*
X0032725Y00322378D01*
X0032974Y00322705D01*
X00332061Y00323667D01*
X00334054Y00325196D01*
X00335583Y00327189D01*
X00335699Y00327468D01*
X00362954D01*
X00394002Y00296421D01*
Y00275731D01*
X00393315Y00274704D01*
X00392885Y00272542D01*
X00393315Y0027038D01*
X00394539Y00268548D01*
X00396372Y00267323D01*
X00398534Y00266894D01*
X00400695Y00267323D01*
X00402528Y00268548D01*
X00403752Y0027038D01*
X00404182Y00272542D01*
X00403752Y00274704D01*
X00403066Y00275731D01*
Y00294899D01*
X00405606Y00295952D01*
X00438176Y00263381D01*
X00438158Y0026329D01*
X00438588Y00261129D01*
X00439813Y00259296D01*
X00441645Y00258072D01*
X00443807Y00257642D01*
X00445968Y00258072D01*
X00447801Y00259296D01*
X00449025Y00261129D01*
X00449455Y0026329D01*
X00449025Y00265452D01*
X00447801Y00267284D01*
X00445968Y00268509D01*
X00445842Y00268534D01*
X00411498Y00302878D01*
Y00308305D01*
X00411153Y0031004D01*
X00410171Y0031151D01*
X00375031Y0034665D01*
X00373561Y00347632D01*
X00371827Y00347977D01*
X00335335D01*
X00334602Y00349246D01*
X003343Y00350517D01*
X00335583Y00352189D01*
X00336544Y0035451D01*
X00336705Y0035573D01*
X0032725D01*
Y00357D01*
X0032598D01*
Y00366455D01*
D02*
G37*
G36*
X0032852D02*
Y0035827D01*
X00336705D01*
X00336544Y00359491D01*
X00335583Y00361811D01*
X00334054Y00363804D01*
X00332061Y00365333D01*
X0032974Y00366295D01*
X0032852Y00366455D01*
D02*
G37*
G36*
X0053125Y00490899D02*
X00529089Y00490469D01*
X00527256Y00489244D01*
X00526032Y00487412D01*
X00525602Y0048525D01*
X00526032Y00483089D01*
X00527256Y00481256D01*
X00529089Y00480032D01*
X0053125Y00479602D01*
X00531379Y00479627D01*
X00584678Y00426329D01*
Y00404595D01*
X00584974Y00403109D01*
X00585816Y00401848D01*
X00630621Y00357043D01*
X00631881Y00356201D01*
X00633368Y00355906D01*
X00643183D01*
X00643256Y00355796D01*
X00645088Y00354572D01*
X0064725Y00354142D01*
X00649412Y00354572D01*
X00651244Y00355796D01*
X00652469Y00357629D01*
X00652898Y0035979D01*
X00652469Y00361952D01*
X00651244Y00363784D01*
X00649412Y00365009D01*
X0064725Y00365439D01*
X00645088Y00365009D01*
X00643256Y00363784D01*
X00643183Y00363675D01*
X00634977D01*
X00592447Y00406204D01*
Y00427938D01*
X00592152Y00429424D01*
X0059131Y00430685D01*
X00536873Y00485121D01*
X00536899Y0048525D01*
X00536469Y00487412D01*
X00535244Y00489244D01*
X00533412Y00490469D01*
X0053125Y00490899D01*
D02*
G37*
G36*
X0051127Y00342396D02*
Y0033827D01*
X00515396D01*
X00515219Y00339162D01*
X00513994Y00340994D01*
X00512162Y00342219D01*
X0051127Y00342396D01*
D02*
G37*
G36*
X0050873D02*
X00507838Y00342219D01*
X00506006Y00340994D01*
X00504781Y00339162D01*
X00504604Y0033827D01*
X0050873D01*
Y00342396D01*
D02*
G37*
G36*
X00568665Y00336911D02*
Y00332785D01*
X00572791D01*
X00572614Y00333677D01*
X00571389Y00335509D01*
X00569557Y00336734D01*
X00568665Y00336911D01*
D02*
G37*
G36*
X00566125D02*
X00565234Y00336734D01*
X00563401Y00335509D01*
X00562177Y00333677D01*
X00561999Y00332785D01*
X00566125D01*
Y00336911D01*
D02*
G37*
G36*
X0071448Y00336559D02*
X00713588Y00336382D01*
X00711756Y00335158D01*
X00710531Y00333325D01*
X00710354Y00332433D01*
X0071448D01*
Y00336559D01*
D02*
G37*
G36*
X00515396Y0033573D02*
X0051127D01*
Y00331604D01*
X00512162Y00331782D01*
X00513994Y00333006D01*
X00515219Y00334838D01*
X00515396Y0033573D01*
D02*
G37*
G36*
X00572791Y00330245D02*
X00568665D01*
Y00326119D01*
X00569557Y00326297D01*
X00571389Y00327521D01*
X00572614Y00329354D01*
X00572791Y00330245D01*
D02*
G37*
G36*
X00566125D02*
X00561999D01*
X00562177Y00329354D01*
X00563401Y00327521D01*
X00565234Y00326297D01*
X00566125Y00326119D01*
Y00330245D01*
D02*
G37*
G36*
X0091327Y00327976D02*
Y0032385D01*
X00917396D01*
X00917219Y00324742D01*
X00915994Y00326574D01*
X00914162Y00327799D01*
X0091327Y00327976D01*
D02*
G37*
G36*
X0091073D02*
X00909838Y00327799D01*
X00908006Y00326574D01*
X00906781Y00324742D01*
X00906604Y0032385D01*
X0091073D01*
Y00327976D01*
D02*
G37*
G36*
X00917396Y0032131D02*
X0091327D01*
Y00317184D01*
X00914162Y00317361D01*
X00915994Y00318586D01*
X00917219Y00320418D01*
X00917396Y0032131D01*
D02*
G37*
G36*
X0091073D02*
X00906604D01*
X00906781Y00320418D01*
X00908006Y00318586D01*
X00909838Y00317361D01*
X0091073Y00317184D01*
Y0032131D01*
D02*
G37*
G36*
X00687785Y00304396D02*
Y0030027D01*
X00691911D01*
X00691733Y00301162D01*
X00690509Y00302994D01*
X00688676Y00304219D01*
X00687785Y00304396D01*
D02*
G37*
G36*
X00685245D02*
X00684353Y00304219D01*
X00682521Y00302994D01*
X00681296Y00301162D01*
X00681119Y0030027D01*
X00685245D01*
Y00304396D01*
D02*
G37*
G36*
X00691911Y0029773D02*
X00687785D01*
Y00293604D01*
X00688676Y00293782D01*
X00690509Y00295006D01*
X00691733Y00296838D01*
X00691911Y0029773D01*
D02*
G37*
G36*
X00685245D02*
X00681119D01*
X00681296Y00296838D01*
X00682521Y00295006D01*
X00684353Y00293782D01*
X00685245Y00293604D01*
Y0029773D01*
D02*
G37*
G36*
X0091177Y00283396D02*
Y0027927D01*
X00915896D01*
X00915719Y00280162D01*
X00914494Y00281995D01*
X00912662Y00283219D01*
X0091177Y00283396D01*
D02*
G37*
G36*
X0090923D02*
X00908338Y00283219D01*
X00906506Y00281995D01*
X00905282Y00280162D01*
X00905104Y0027927D01*
X0090923D01*
Y00283396D01*
D02*
G37*
G36*
X00915896Y0027673D02*
X0091177D01*
Y00272605D01*
X00912662Y00272782D01*
X00914494Y00274006D01*
X00915719Y00275839D01*
X00915896Y0027673D01*
D02*
G37*
G36*
X0090923D02*
X00905104D01*
X00905282Y00275839D01*
X00906506Y00274006D01*
X00908338Y00272782D01*
X0090923Y00272605D01*
Y0027673D01*
D02*
G37*
G36*
X0050527Y00273146D02*
Y0026902D01*
X00509396D01*
X00509219Y00269912D01*
X00507994Y00271744D01*
X00506162Y00272969D01*
X0050527Y00273146D01*
D02*
G37*
G36*
X0050273D02*
X00501838Y00272969D01*
X00500006Y00271744D01*
X00498782Y00269912D01*
X00498604Y0026902D01*
X0050273D01*
Y00273146D01*
D02*
G37*
G36*
X00509396Y0026648D02*
X0050527D01*
Y00262354D01*
X00506162Y00262532D01*
X00507994Y00263756D01*
X00509219Y00265588D01*
X00509396Y0026648D01*
D02*
G37*
G36*
X0050273D02*
X00498604D01*
X00498782Y00265588D01*
X00500006Y00263756D01*
X00501838Y00262532D01*
X0050273Y00262354D01*
Y0026648D01*
D02*
G37*
G36*
X0053088Y00257618D02*
X00529988Y00257441D01*
X00528156Y00256216D01*
X00526931Y00254384D01*
X00526754Y00253492D01*
X0053088D01*
Y00257618D01*
D02*
G37*
G36*
X00537546Y00250952D02*
X0053342D01*
Y00246826D01*
X00534311Y00247003D01*
X00536144Y00248228D01*
X00537368Y0025006D01*
X00537546Y00250952D01*
D02*
G37*
G36*
X0053088D02*
X00526754D01*
X00526931Y0025006D01*
X00528156Y00248228D01*
X00529988Y00247003D01*
X0053088Y00246826D01*
Y00250952D01*
D02*
G37*
G36*
X0032725Y00316623D02*
X0032476Y00316295D01*
X00322439Y00315333D01*
X00320446Y00313804D01*
X00318917Y00311811D01*
X00317956Y00309491D01*
X00317628Y00307D01*
X00317956Y0030451D01*
X00318917Y00302189D01*
X00320446Y00300196D01*
X00322439Y00298667D01*
X0032476Y00297706D01*
X0032725Y00297378D01*
X0032974Y00297706D01*
X0033002Y00297821D01*
X00361968Y00265873D01*
Y00250939D01*
X00361281Y00249912D01*
X00360852Y0024775D01*
X00361281Y00245588D01*
X00362506Y00243756D01*
X00364338Y00242531D01*
X003665Y00242101D01*
X00368662Y00242531D01*
X00370494Y00243756D01*
X00371719Y00245588D01*
X00372149Y0024775D01*
X00371719Y00249912D01*
X00371032Y00250939D01*
Y0026775D01*
X00371032Y0026775D01*
X00370687Y00269484D01*
X00369705Y00270955D01*
X00336429Y00304231D01*
X00336544Y0030451D01*
X00336872Y00307D01*
X00336544Y00309491D01*
X00335583Y00311811D01*
X00334054Y00313804D01*
X00332061Y00315333D01*
X0032974Y00316295D01*
X0032725Y00316623D01*
D02*
G37*
G36*
X0091177Y00237396D02*
Y0023327D01*
X00915896D01*
X00915719Y00234162D01*
X00914494Y00235994D01*
X00912662Y00237219D01*
X0091177Y00237396D01*
D02*
G37*
G36*
X0090923D02*
X00908338Y00237219D01*
X00906506Y00235994D01*
X00905282Y00234162D01*
X00905104Y0023327D01*
X0090923D01*
Y00237396D01*
D02*
G37*
G36*
X00915896Y0023073D02*
X0091177D01*
Y00226604D01*
X00912662Y00226782D01*
X00914494Y00228006D01*
X00915719Y00229838D01*
X00915896Y0023073D01*
D02*
G37*
G36*
X0090923D02*
X00905104D01*
X00905282Y00229838D01*
X00906506Y00228006D01*
X00908338Y00226782D01*
X0090923Y00226604D01*
Y0023073D01*
D02*
G37*
G36*
X0012377Y00221396D02*
Y0021727D01*
X00127896D01*
X00127719Y00218162D01*
X00126494Y00219994D01*
X00124662Y00221219D01*
X0012377Y00221396D01*
D02*
G37*
G36*
X0012123D02*
X00120338Y00221219D01*
X00118506Y00219994D01*
X00117282Y00218162D01*
X00117104Y0021727D01*
X0012123D01*
Y00221396D01*
D02*
G37*
G36*
X00127896Y0021473D02*
X0012377D01*
Y00210604D01*
X00124662Y00210781D01*
X00126494Y00212006D01*
X00127719Y00213838D01*
X00127896Y0021473D01*
D02*
G37*
G36*
X0012123D02*
X00117104D01*
X00117282Y00213838D01*
X00118506Y00212006D01*
X00120338Y00210781D01*
X0012123Y00210604D01*
Y0021473D01*
D02*
G37*
G36*
X00188222Y00261059D02*
X00187051Y00260826D01*
X00186059Y00260163D01*
X00185396Y00259171D01*
X00185163Y00258D01*
X00185396Y00256829D01*
X00186059Y00255837D01*
X00187051Y00255174D01*
X00188222Y00254941D01*
X00189392Y00255174D01*
X00190385Y00255837D01*
X00190532Y00256058D01*
X00194445D01*
X00204898Y00245605D01*
Y0017231D01*
X00204678Y00172163D01*
X00204015Y00171171D01*
X00203782Y0017D01*
X00204015Y0016883D01*
X00204678Y00167837D01*
X0020567Y00167174D01*
X0020684Y00166941D01*
X00208011Y00167174D01*
X00209003Y00167837D01*
X00209667Y0016883D01*
X00209899Y0017D01*
X00209667Y00171171D01*
X00209003Y00172163D01*
X00208783Y0017231D01*
Y00246409D01*
X00208635Y00247153D01*
X00208214Y00247783D01*
X00202286Y00253711D01*
X00203258Y00256058D01*
X00286196D01*
X00321627Y00220627D01*
X00321627Y00220627D01*
X00322257Y00220206D01*
X00323Y00220058D01*
X00323Y00220058D01*
X00405769D01*
X00406249Y00219578D01*
X00406249Y00219578D01*
X00406879Y00219157D01*
X00407622Y00219009D01*
X0040824D01*
X00415446Y00211802D01*
X00415024Y00211171D01*
X00414791Y0021D01*
X00415024Y00208829D01*
X00415687Y00207837D01*
X00416679Y00207174D01*
X0041785Y00206941D01*
X0041902Y00207174D01*
X00420013Y00207837D01*
X00420676Y00208829D01*
X00420909Y0021D01*
X00420676Y00211171D01*
X00420013Y00212163D01*
X00419754Y00212335D01*
X00419644Y00212889D01*
X00419223Y00213519D01*
X00410418Y00222324D01*
X00409787Y00222745D01*
X00409044Y00222893D01*
X00408427D01*
X00407947Y00223374D01*
X00407317Y00223794D01*
X00406573Y00223942D01*
X00323805D01*
X00288373Y00259373D01*
X00287743Y00259795D01*
X00287Y00259942D01*
X00190532D01*
X00190385Y00260163D01*
X00189392Y00260826D01*
X00188222Y00261059D01*
D02*
G37*
G36*
X0031675Y00198122D02*
X00314259Y00197794D01*
X00311938Y00196833D01*
X00309946Y00195304D01*
X00308417Y00193311D01*
X00307455Y0019099D01*
X00307127Y001885D01*
X00307455Y0018601D01*
X00308417Y00183689D01*
X00309946Y00181696D01*
X00311938Y00180167D01*
X00314259Y00179206D01*
X0031675Y00178878D01*
X0031924Y00179206D01*
X00321561Y00180167D01*
X00323554Y00181696D01*
X00325083Y00183689D01*
X00326044Y0018601D01*
X00326372Y001885D01*
X00326044Y0019099D01*
X00325083Y00193311D01*
X00323554Y00195304D01*
X00321561Y00196833D01*
X0031924Y00197794D01*
X0031675Y00198122D01*
D02*
G37*
G36*
X0031802Y00147955D02*
Y0013977D01*
X00326205D01*
X00326044Y0014099D01*
X00325083Y00143311D01*
X00323554Y00145304D01*
X00321561Y00146833D01*
X0031924Y00147795D01*
X0031802Y00147955D01*
D02*
G37*
G36*
X0031548D02*
X00314259Y00147795D01*
X00311938Y00146833D01*
X00309946Y00145304D01*
X00308417Y00143311D01*
X00307455Y0014099D01*
X00307295Y0013977D01*
X0031548D01*
Y00147955D01*
D02*
G37*
G36*
X0045452Y00140396D02*
Y0013627D01*
X00458646D01*
X00458469Y00137162D01*
X00457244Y00138994D01*
X00455412Y00140219D01*
X0045452Y00140396D01*
D02*
G37*
G36*
X0045198D02*
X00451088Y00140219D01*
X00449256Y00138994D01*
X00448031Y00137162D01*
X00447854Y0013627D01*
X0045198D01*
Y00140396D01*
D02*
G37*
G36*
X00458646Y0013373D02*
X0045452D01*
Y00129604D01*
X00455412Y00129782D01*
X00457244Y00131006D01*
X00458469Y00132838D01*
X00458646Y0013373D01*
D02*
G37*
G36*
X0045198D02*
X00447854D01*
X00448031Y00132838D01*
X00449256Y00131006D01*
X00451088Y00129782D01*
X0045198Y00129604D01*
Y0013373D01*
D02*
G37*
G36*
X00326205Y0013723D02*
X0031802D01*
Y00129045D01*
X0031924Y00129206D01*
X00321561Y00130167D01*
X00323554Y00131696D01*
X00325083Y00133689D01*
X00326044Y0013601D01*
X00326205Y0013723D01*
D02*
G37*
G36*
X0031548D02*
X00307295D01*
X00307455Y0013601D01*
X00308417Y00133689D01*
X00309946Y00131696D01*
X00311938Y00130167D01*
X00314259Y00129206D01*
X0031548Y00129045D01*
Y0013723D01*
D02*
G37*
G36*
X00719114Y00124309D02*
Y00120183D01*
X0072324D01*
X00723062Y00121075D01*
X00721838Y00122907D01*
X00720005Y00124132D01*
X00719114Y00124309D01*
D02*
G37*
G36*
X00716574D02*
X00715682Y00124132D01*
X0071385Y00122907D01*
X00712625Y00121075D01*
X00712448Y00120183D01*
X00716574D01*
Y00124309D01*
D02*
G37*
G36*
X00783Y0013206D02*
X00781173Y0013182D01*
X0077947Y00131115D01*
X00778008Y00129993D01*
X00776886Y0012853D01*
X0077618Y00126827D01*
X0077594Y00125D01*
X0077618Y00123173D01*
X00776886Y0012147D01*
X00778008Y00120008D01*
X0077947Y00118885D01*
X00781173Y0011818D01*
X00783Y0011794D01*
X00784828Y0011818D01*
X0078653Y00118885D01*
X00787993Y00120008D01*
X00789115Y0012147D01*
X0078982Y00123173D01*
X00790061Y00125D01*
X0078982Y00126827D01*
X00789115Y0012853D01*
X00787993Y00129993D01*
X0078653Y00131115D01*
X00784828Y0013182D01*
X00783Y0013206D01*
D02*
G37*
G36*
X0072324Y00117643D02*
X00719114D01*
Y00113517D01*
X00720005Y00113695D01*
X00721838Y00114919D01*
X00723062Y00116752D01*
X0072324Y00117643D01*
D02*
G37*
G36*
X00716574D02*
X00712448D01*
X00712625Y00116752D01*
X0071385Y00114919D01*
X00715682Y00113695D01*
X00716574Y00113517D01*
Y00117643D01*
D02*
G37*
G36*
X0019577Y00114396D02*
Y0011027D01*
X00199896D01*
X00199718Y00111162D01*
X00198494Y00112994D01*
X00196662Y00114219D01*
X0019577Y00114396D01*
D02*
G37*
G36*
X0019323D02*
X00192338Y00114219D01*
X00190506Y00112994D01*
X00189281Y00111162D01*
X00189104Y0011027D01*
X0019323D01*
Y00114396D01*
D02*
G37*
G36*
X00199896Y0010773D02*
X0019577D01*
Y00103604D01*
X00196662Y00103781D01*
X00198494Y00105006D01*
X00199718Y00106838D01*
X00199896Y0010773D01*
D02*
G37*
G36*
X0019323D02*
X00189104D01*
X00189281Y00106838D01*
X00190506Y00105006D01*
X00192338Y00103781D01*
X0019323Y00103604D01*
Y0010773D01*
D02*
G37*
G36*
X0071832Y00145641D02*
X00707462D01*
X0070548Y00145247D01*
X007038Y00144124D01*
X00677337Y00117662D01*
X00676215Y00115982D01*
X0067582Y00114D01*
X00676215Y00112018D01*
X00677337Y00110337D01*
X00679018Y00109215D01*
X00681Y0010882D01*
X00681687D01*
X00683669Y00109215D01*
X0068535Y00110337D01*
X00690172Y0011516D01*
X00692519Y00114188D01*
Y00097075D01*
X00692913Y00095093D01*
X00694036Y00093413D01*
X00695716Y0009229D01*
X00697698Y00091896D01*
X0069968Y0009229D01*
X00701361Y00093413D01*
X00702484Y00095093D01*
X00702878Y00097075D01*
Y0012446D01*
X00702484Y00126442D01*
X00701796Y00127471D01*
X00709607Y00135282D01*
X0071832D01*
X00720302Y00135677D01*
X00721982Y00136799D01*
X00723105Y0013848D01*
X00723499Y00140462D01*
X00723105Y00142444D01*
X00721982Y00144124D01*
X00720302Y00145247D01*
X0071832Y00145641D01*
D02*
G37*
G36*
X00783Y00109622D02*
X0078051Y00109294D01*
X00778189Y00108333D01*
X00776196Y00106804D01*
X00774667Y00104811D01*
X00773706Y0010249D01*
X00773378Y001D01*
X00773706Y00097509D01*
X00774667Y00095189D01*
X00776196Y00093196D01*
X00778189Y00091667D01*
X0078051Y00090705D01*
X00783Y00090378D01*
X00785491Y00090705D01*
X00787811Y00091667D01*
X00789804Y00093196D01*
X00791333Y00095189D01*
X00792295Y00097509D01*
X00792623Y001D01*
X00792295Y0010249D01*
X00791333Y00104811D01*
X00789804Y00106804D01*
X00787811Y00108333D01*
X00785491Y00109294D01*
X00783Y00109622D01*
D02*
G37*
G36*
X00215704Y00084136D02*
Y0008001D01*
X00219829D01*
X00219652Y00080902D01*
X00218428Y00082734D01*
X00216595Y00083959D01*
X00215704Y00084136D01*
D02*
G37*
G36*
X00213164D02*
X00212272Y00083959D01*
X00210439Y00082734D01*
X00209215Y00080902D01*
X00209038Y0008001D01*
X00213164D01*
Y00084136D01*
D02*
G37*
G36*
X0079254Y0008454D02*
X0078427D01*
Y0007627D01*
X0079254D01*
Y0008454D01*
D02*
G37*
G36*
X0078173D02*
X0077346D01*
Y0007627D01*
X0078173D01*
Y0008454D01*
D02*
G37*
G36*
X00219829Y0007747D02*
X00215704D01*
Y00073344D01*
X00216595Y00073521D01*
X00218428Y00074746D01*
X00219652Y00076578D01*
X00219829Y0007747D01*
D02*
G37*
G36*
X00213164D02*
X00209038D01*
X00209215Y00076578D01*
X00210439Y00074746D01*
X00212272Y00073521D01*
X00213164Y00073344D01*
Y0007747D01*
D02*
G37*
G36*
X0079254Y0007373D02*
X0078427D01*
Y0006546D01*
X0079254D01*
Y0007373D01*
D02*
G37*
G36*
X0078173D02*
X0077346D01*
Y0006546D01*
X0078173D01*
Y0007373D01*
D02*
G37*
G36*
X0031675Y00173122D02*
X00314259Y00172794D01*
X00311938Y00171833D01*
X00309946Y00170304D01*
X00308417Y00168311D01*
X00307455Y0016599D01*
X00307127Y001635D01*
X00307455Y00161009D01*
X00308417Y00158689D01*
X00309946Y00156696D01*
X00311938Y00155167D01*
X00314259Y00154205D01*
X0031675Y00153877D01*
X0031924Y00154205D01*
X00319519Y00154321D01*
X00365218Y00108622D01*
Y00072789D01*
X00364532Y00071762D01*
X00364101Y000696D01*
X00364532Y00067439D01*
X00365756Y00065606D01*
X00367588Y00064381D01*
X0036975Y00063952D01*
X00371912Y00064381D01*
X00373744Y00065606D01*
X00374969Y00067439D01*
X00375398Y000696D01*
X00374969Y00071762D01*
X00374282Y00072789D01*
Y00110499D01*
X00373937Y00112234D01*
X00372955Y00113704D01*
X00325928Y0016073D01*
X00326044Y00161009D01*
X00326372Y001635D01*
X00326044Y0016599D01*
X00325083Y00168311D01*
X00323554Y00170304D01*
X00321561Y00171833D01*
X0031924Y00172794D01*
X0031675Y00173122D01*
D02*
G37*
G36*
X0047116Y0029006D02*
X00469178Y00289666D01*
X00467497Y00288543D01*
X00466375Y00286862D01*
X0046598Y0028488D01*
Y0016884D01*
X00466375Y00166858D01*
X00467497Y00165177D01*
X00521011Y00111664D01*
Y00064674D01*
X00521405Y00062692D01*
X00522528Y00061011D01*
X00524208Y00059889D01*
X0052619Y00059494D01*
X00528172Y00059889D01*
X00529853Y00061011D01*
X00530975Y00062692D01*
X0053137Y00064674D01*
Y0011381D01*
X00530975Y00115792D01*
X00529853Y00117472D01*
X00476339Y00170985D01*
Y0028488D01*
X00475945Y00286862D01*
X00474823Y00288543D01*
X00473142Y00289666D01*
X0047116Y0029006D01*
D02*
G37*
G36*
X0054627Y00057281D02*
Y00053155D01*
X00550396D01*
X00550219Y00054046D01*
X00548994Y00055879D01*
X00547162Y00057103D01*
X0054627Y00057281D01*
D02*
G37*
G36*
X0054373D02*
X00542838Y00057103D01*
X00541006Y00055879D01*
X00539781Y00054046D01*
X00539604Y00053155D01*
X0054373D01*
Y00057281D01*
D02*
G37*
G36*
X00550396Y00050615D02*
X0054627D01*
Y00046489D01*
X00547162Y00046666D01*
X00548994Y00047891D01*
X00550219Y00049723D01*
X00550396Y00050615D01*
D02*
G37*
G36*
X0054373D02*
X00539604D01*
X00539781Y00049723D01*
X00541006Y00047891D01*
X00542838Y00046666D01*
X0054373Y00046489D01*
Y00050615D01*
D02*
G37*
G36*
X0035964Y00050396D02*
Y0004627D01*
X00363766D01*
X00363588Y00047162D01*
X00362364Y00048994D01*
X00360531Y00050219D01*
X0035964Y00050396D01*
D02*
G37*
G36*
X003571D02*
X00356208Y00050219D01*
X00354376Y00048994D01*
X00353151Y00047162D01*
X00352974Y0004627D01*
X003571D01*
Y00050396D01*
D02*
G37*
G36*
X00363766Y0004373D02*
X0035964D01*
Y00039604D01*
X00360531Y00039782D01*
X00362364Y00041006D01*
X00363588Y00042839D01*
X00363766Y0004373D01*
D02*
G37*
G36*
X003571D02*
X00352974D01*
X00353151Y00042839D01*
X00354376Y00041006D01*
X00356208Y00039782D01*
X003571Y00039604D01*
Y0004373D01*
D02*
G37*
G36*
X0029967Y0003896D02*
Y0003027D01*
X0030836D01*
X00308182Y00031621D01*
X0030717Y00034063D01*
X00305561Y00036161D01*
X00303463Y0003777D01*
X00301021Y00038782D01*
X0029967Y0003896D01*
D02*
G37*
G36*
X0029713D02*
X00295779Y00038782D01*
X00293337Y0003777D01*
X0029124Y00036161D01*
X0028963Y00034063D01*
X00288619Y00031621D01*
X00288441Y0003027D01*
X0029713D01*
Y0003896D01*
D02*
G37*
G36*
X00709568Y00030396D02*
Y0002627D01*
X00713694D01*
X00713517Y00027162D01*
X00712292Y00028994D01*
X0071046Y00030219D01*
X00709568Y00030396D01*
D02*
G37*
G36*
X00707028D02*
X00706137Y00030219D01*
X00704304Y00028994D01*
X0070308Y00027162D01*
X00702902Y0002627D01*
X00707028D01*
Y00030396D01*
D02*
G37*
G36*
X00713694Y0002373D02*
X00709568D01*
Y00019604D01*
X0071046Y00019782D01*
X00712292Y00021006D01*
X00713517Y00022839D01*
X00713694Y0002373D01*
D02*
G37*
G36*
X00707028D02*
X00702902D01*
X0070308Y00022839D01*
X00704304Y00021006D01*
X00706137Y00019782D01*
X00707028Y00019604D01*
Y0002373D01*
D02*
G37*
G36*
X0030836Y0002773D02*
X0029967D01*
Y00019041D01*
X00301021Y00019219D01*
X00303463Y0002023D01*
X00305561Y0002184D01*
X0030717Y00023937D01*
X00308182Y00026379D01*
X0030836Y0002773D01*
D02*
G37*
G36*
X0029713D02*
X00288441D01*
X00288619Y00026379D01*
X0028963Y00023937D01*
X0029124Y0002184D01*
X00293337Y0002023D01*
X00295779Y00019219D01*
X0029713Y00019041D01*
Y0002773D01*
D02*
G37*
G36*
X0025764Y0003904D02*
X0023756D01*
Y0001896D01*
X0025764D01*
Y0003904D01*
D02*
G37*
G36*
X00273Y00039127D02*
X00270379Y00038782D01*
X00267937Y0003777D01*
X0026584Y00036161D01*
X0026423Y00034063D01*
X00263219Y00031621D01*
X00262874Y00029D01*
X00263219Y00026379D01*
X0026423Y00023937D01*
X0026584Y0002184D01*
X00267937Y0002023D01*
X00270379Y00019219D01*
X00273Y00018874D01*
X00275621Y00019219D01*
X00278064Y0002023D01*
X00280161Y0002184D01*
X0028177Y00023937D01*
X00282782Y00026379D01*
X00283127Y00029D01*
X00282782Y00031621D01*
X0028177Y00034063D01*
X00280161Y00036161D01*
X00278064Y0003777D01*
X00275621Y00038782D01*
X00273Y00039127D01*
D02*
G37*
G36*
X009005Y00077677D02*
X00895793Y00077306D01*
X00891201Y00076204D01*
X00886838Y00074397D01*
X00882812Y00071929D01*
X00879221Y00068863D01*
X00876155Y00065272D01*
X00873687Y00061246D01*
X0087188Y00056883D01*
X00870778Y00052291D01*
X00870407Y00047584D01*
X00870778Y00042876D01*
X0087188Y00038285D01*
X00873687Y00033922D01*
X00876155Y00029896D01*
X00879221Y00026305D01*
X00882812Y00023238D01*
X00886838Y00020771D01*
X00891201Y00018964D01*
X00895793Y00017862D01*
X009005Y00017491D01*
X00905208Y00017862D01*
X00909799Y00018964D01*
X00914162Y00020771D01*
X00918188Y00023238D01*
X00921779Y00026305D01*
X00924846Y00029896D01*
X00927313Y00033922D01*
X0092912Y00038285D01*
X00930222Y00042876D01*
X00930593Y00047584D01*
X00930222Y00052291D01*
X0092912Y00056883D01*
X00927313Y00061246D01*
X00924846Y00065272D01*
X00921779Y00068863D01*
X00918188Y00071929D01*
X00914162Y00074397D01*
X00909799Y00076204D01*
X00905208Y00077306D01*
X009005Y00077677D01*
D02*
G37*
G36*
X000515D02*
X00046792Y00077306D01*
X00042201Y00076204D01*
X00037838Y00074397D01*
X00033812Y00071929D01*
X00030221Y00068863D01*
X00027155Y00065272D01*
X00024687Y00061246D01*
X0002288Y00056883D01*
X00021778Y00052291D01*
X00021407Y00047584D01*
X00021778Y00042876D01*
X0002288Y00038285D01*
X00024687Y00033922D01*
X00027155Y00029896D01*
X00030221Y00026305D01*
X00033812Y00023238D01*
X00037838Y00020771D01*
X00042201Y00018964D01*
X00046792Y00017862D01*
X000515Y00017491D01*
X00056208Y00017862D01*
X00060799Y00018964D01*
X00065162Y00020771D01*
X00069188Y00023238D01*
X00072779Y00026305D01*
X00075846Y00029896D01*
X00078313Y00033922D01*
X0008012Y00038285D01*
X00081222Y00042876D01*
X00081593Y00047584D01*
X00081222Y00052291D01*
X0008012Y00056883D01*
X00078313Y00061246D01*
X00075846Y00065272D01*
X00072779Y00068863D01*
X00069188Y00071929D01*
X00065162Y00074397D01*
X00060799Y00076204D01*
X00056208Y00077306D01*
X000515Y00077677D01*
D02*
G37*
%LPD*%
G36*
X00848786Y00233931D02*
Y00229657D01*
X00801764Y00182635D01*
X00713911D01*
X00712553Y00185175D01*
X00712917Y00185719D01*
X00713094Y0018661D01*
X00702302D01*
X0070248Y00185719D01*
X00702843Y00185175D01*
X00701486Y00182635D01*
X00549317D01*
X00549244Y00182744D01*
X00547412Y00183969D01*
X0054525Y00184398D01*
X00542946Y0018653D01*
X0054287Y00187094D01*
X00557254Y00201478D01*
X0058167D01*
X00582413Y00201626D01*
X00583044Y00202047D01*
X0061324Y00232243D01*
X006135Y00232191D01*
X00614671Y00232424D01*
X00615663Y00233087D01*
X00616326Y00234079D01*
X00616559Y0023525D01*
X00616326Y0023642D01*
X00615663Y00237413D01*
X00614671Y00238076D01*
X006135Y00238309D01*
X00612329Y00238076D01*
X00611337Y00237413D01*
X00610674Y0023642D01*
X00610441Y0023525D01*
X00610493Y0023499D01*
X00580866Y00205362D01*
X00560918D01*
X00559946Y00207709D01*
X00601852Y00249615D01*
X00818262D01*
X00819749Y00249911D01*
X00821009Y00250753D01*
X00822497Y00252241D01*
X00823339Y00253501D01*
X00823635Y00254988D01*
Y0025549D01*
X00826175Y00256542D01*
X00848786Y00233931D01*
D02*
G37*
%LPC*%
G36*
X00767498Y00239622D02*
X00629928D01*
X00627946Y00239227D01*
X00626265Y00238104D01*
X00625142Y00236424D01*
X00624748Y00234442D01*
X00625142Y0023246D01*
X00626265Y00230779D01*
X00627946Y00229657D01*
X00629928Y00229263D01*
X00673784D01*
X00674554Y00226723D01*
X00673756Y00226189D01*
X00672532Y00224357D01*
X00672354Y00223465D01*
X00683146D01*
X00682969Y00224357D01*
X00681744Y00226189D01*
X00680946Y00226723D01*
X00681716Y00229263D01*
X00765353D01*
X00775438Y00219177D01*
X00777118Y00218055D01*
X007791Y0021766D01*
X00780162Y00217871D01*
X00781223Y0021766D01*
X00810454D01*
X00812437Y00218055D01*
X00814117Y00219177D01*
X008224Y0022746D01*
X00836638D01*
X00838621Y00227854D01*
X00840301Y00228977D01*
X00840787Y00229463D01*
X0084191Y00231143D01*
X00842304Y00233126D01*
X0084191Y00235108D01*
X00840787Y00236788D01*
X00839107Y00237911D01*
X00837124Y00238305D01*
X00835142Y00237911D01*
X00835005Y00237819D01*
X00820254D01*
X00820254Y00237819D01*
X00818272Y00237425D01*
X00816592Y00236302D01*
X00808309Y00228019D01*
X00783327D01*
X0078177Y0022906D01*
X00779816Y00229449D01*
X00771161Y00238104D01*
X0076948Y00239227D01*
X00767498Y00239622D01*
D02*
G37*
G36*
X00683146Y00220925D02*
X0067902D01*
Y00216799D01*
X00679912Y00216976D01*
X00681744Y00218201D01*
X00682969Y00220033D01*
X00683146Y00220925D01*
D02*
G37*
G36*
X0067648D02*
X00672354D01*
X00672532Y00220033D01*
X00673756Y00218201D01*
X00675588Y00216976D01*
X0067648Y00216799D01*
Y00220925D01*
D02*
G37*
G36*
X00708968Y00193276D02*
Y0018915D01*
X00713094D01*
X00712917Y00190042D01*
X00711693Y00191874D01*
X0070986Y00193099D01*
X00708968Y00193276D01*
D02*
G37*
G36*
X00706428D02*
X00705537Y00193099D01*
X00703704Y00191874D01*
X0070248Y00190042D01*
X00702302Y0018915D01*
X00706428D01*
Y00193276D01*
D02*
G37*
%LPD*%
D14*
X009105Y00232D02*
Y00278001D01*
X00324807Y00667443D02*
X00337Y0065525D01*
X00324807Y00667443D02*
Y00696903D01*
X003595Y00700862D02*
Y0071075D01*
X00357029Y00698391D02*
X003595Y00700862D01*
X0067775Y0021915D02*
Y00222195D01*
Y0021915D02*
X00707698Y00189202D01*
X00633368Y0035979D02*
X0064725D01*
X00588563Y00404595D02*
Y00427938D01*
Y00404595D02*
X00633368Y0035979D01*
X0075725Y005925D02*
Y0063275D01*
X007714Y006469D02*
Y006961D01*
X0075725Y0063275D02*
X007714Y006469D01*
X0075725Y005925D02*
X0078125Y005685D01*
X00832782D01*
X00835282Y00571D02*
X00836D01*
X00832782Y005685D02*
X00835282Y00571D01*
X0074575Y00464729D02*
X00773091D01*
X00756956Y00321824D02*
X0081975Y0025903D01*
Y00254988D02*
Y0025903D01*
X00740767Y003225D02*
X00741443Y00321824D01*
X00752514Y0031375D02*
X00773891Y00292373D01*
X00741443Y00321824D02*
X00756956D01*
X0075225Y0031375D02*
X00752514D01*
X0071031Y00331163D02*
X0071575D01*
X00686515Y00299D02*
Y00307368D01*
X0071031Y00331163D01*
X00702457Y00301291D02*
X00721789Y00320623D01*
Y0032395D01*
X007224Y00324562D01*
X0071Y005765D02*
X0074975D01*
X0071D02*
Y0064D01*
X0075Y00567375D02*
Y0057625D01*
X0074975Y005765D02*
X0075Y0057625D01*
X0091125Y0032275D02*
X0091225Y0032375D01*
X0073062Y00280845D02*
Y0038037D01*
X0073075Y003805D01*
X0073062Y00280845D02*
X00738465Y00273D01*
X00504Y0026775D02*
Y0028475D01*
Y00254861D02*
Y0026775D01*
X00773091Y00464729D02*
X00796844Y00488482D01*
X0072562Y00498503D02*
X00726803Y00499686D01*
X0072562Y00466806D02*
Y00498503D01*
X00726803Y00499686D02*
Y00530447D01*
X00489186Y00299564D02*
X00504Y0028475D01*
X00506639Y00252222D02*
X0053215D01*
X00504Y00254861D02*
X00506639Y00252222D01*
X00454488Y00299564D02*
X00489186D01*
X0045325Y0011675D02*
Y00135D01*
X00453Y0013525D02*
X0045325Y00135D01*
X00453Y0013525D02*
Y00298076D01*
X0045325Y0011675D02*
X00518115Y00051885D01*
X00453Y00298076D02*
X00454488Y00299564D01*
X001945Y00098673D02*
X00214433Y0007874D01*
X001945Y00098673D02*
Y00109D01*
X00691488Y0064D02*
X0071D01*
X0069Y00641488D02*
X00691488Y0064D01*
X0069Y00641488D02*
Y007189D01*
X0076125Y00338535D02*
X0080769Y00292095D01*
X0076125Y00338535D02*
Y00352973D01*
X0080769Y00292095D02*
X0081D01*
X00773891Y00292373D02*
X00774823D01*
X00752Y0033025D02*
X00757961D01*
X00852671Y0023554D01*
X00683199Y00331163D02*
X00694758D01*
X0067399Y00340372D02*
X00683199Y00331163D01*
X0067399Y00340372D02*
Y00362397D01*
X00738465Y00273D02*
X00739508D01*
X00774546Y00292095D02*
X00774823Y00292373D01*
X00518115Y00051885D02*
X00545D01*
X00326295Y00698391D02*
X00357029D01*
X0005865Y004374D02*
X000935Y0047225D01*
X0005425Y0043725D02*
X000544Y004374D01*
X0005865D01*
X00741599Y00410651D02*
X00792016D01*
X008Y00418635D01*
X00804254Y00414381D01*
Y00412235D02*
Y00414381D01*
Y00412235D02*
X00807139Y0040935D01*
X00910875D01*
X0067399Y00362397D02*
X00678194Y003666D01*
X00696896D02*
X0071275Y00382454D01*
X00678194Y003666D02*
X00696896D01*
X0071275Y00382454D02*
Y00394374D01*
X00567395Y00331515D02*
X00638515D01*
X00564783D02*
X00567395D01*
X00556628Y00336553D02*
X00559746D01*
X00564783Y00331515D01*
X00638515D02*
X0066Y00353D01*
X0055618Y00337D02*
X00556628Y00336553D01*
X00647061Y00400274D02*
X0066Y00387335D01*
Y00353D02*
Y00387335D01*
X00910875Y0040935D02*
Y00420375D01*
Y00374875D02*
Y0040935D01*
X002984Y00044349D02*
Y00044349D01*
Y00029D02*
Y00044349D01*
X0091125Y0032183D02*
X00912Y0032258D01*
X0091125Y0027875D02*
Y0032183D01*
X009105Y00278001D02*
X0091125Y0027875D01*
X0034075Y00687682D02*
X00349432Y00679D01*
X00324807Y00696903D02*
X00326295Y00698391D01*
X00349432Y00679D02*
X0043975D01*
X00251Y00464D02*
X00262Y00475D01*
X0034825D02*
X003615Y0046175D01*
X00262Y00475D02*
X0034825D01*
X0035837Y00045D02*
Y0005925D01*
X00335Y0008262D02*
X0035837Y0005925D01*
X00214433Y0007874D02*
X00238169Y00102476D01*
X00240274D01*
X002984Y00044349D01*
X00469928Y0070025D02*
X0051655D01*
X0044991Y00680232D02*
X00469928Y0070025D01*
X0069Y007189D02*
X007111Y0074D01*
X007422D02*
X007587Y007235D01*
X007111Y0074D02*
X007422D01*
X007587Y007215D02*
Y007235D01*
X0065407Y0054125D02*
X00670875D01*
X0051Y00337D02*
X0055618D01*
X00034523Y00303977D02*
X001225Y00216D01*
X00034523Y00303977D02*
Y00446D01*
X003856Y0073315D02*
Y007956D01*
Y0073315D02*
X0043975Y00679D01*
X0026Y004065D02*
Y00455D01*
X00251Y00464D02*
X0026Y00455D01*
X00246Y00459D02*
X00251Y00464D01*
X00202442Y00459D02*
X00246D01*
X00185443Y00476D02*
X00202442Y00459D01*
X00152571Y00476D02*
X00185443D01*
X00852671Y00228048D02*
Y0023554D01*
X00525257Y00193417D02*
X0054016D01*
X00600243Y002535D01*
X0071275Y00394374D02*
X00807626Y0048925D01*
X0090075D01*
X00746Y00545D02*
Y00563375D01*
X0075Y00567375D01*
X00699Y00538D02*
X00715036Y00521964D01*
Y0046225D02*
Y00521964D01*
X007055Y0055175D02*
X00726803Y00530447D01*
X00681375Y0055175D02*
X007055D01*
X00670875Y0054125D02*
X00681375Y0055175D01*
X00796844Y00495135D02*
X00798788Y00497079D01*
X00796844Y00488482D02*
Y00495135D01*
X0091225Y0032375D02*
Y00373D01*
X009125Y0037325D01*
X0090925Y00422D02*
X00910875Y00420375D01*
Y00374875D02*
X009125Y0037325D01*
X0053125Y0048525D02*
X00588563Y00427938D01*
X00600243Y002535D02*
X00818262D01*
X0081975Y00254988D01*
X00803373Y0017875D02*
X00852671Y00228048D01*
X0054525Y0017875D02*
X00803373D01*
X00707698Y0018788D02*
Y00189202D01*
X0032725Y00357D02*
X004025D01*
X00412Y003665D01*
X0043975Y00679D02*
X00440982Y00680232D01*
X0044991D01*
X000935Y005985D02*
X0010825Y0061325D01*
X000935Y0047225D02*
Y005985D01*
X00034523Y00446D02*
X000515D01*
X0008275Y0047725D01*
X0031675Y001385D02*
X00335Y0012025D01*
Y0008262D02*
Y0012025D01*
D48*
X0070785Y00785D02*
D03*
X0082215D02*
D03*
D87*
X00783Y00125D02*
D03*
Y001D02*
D03*
X004615Y0046175D02*
D03*
X004365D02*
D03*
X004115D02*
D03*
X003865D02*
D03*
X003615D02*
D03*
X0032725Y00357D02*
D03*
Y00332D02*
D03*
Y00307D02*
D03*
X0031675Y001385D02*
D03*
Y001635D02*
D03*
Y001885D02*
D03*
D88*
X00783Y00075D02*
D03*
X0032725Y00382D02*
D03*
X0031675Y001135D02*
D03*
D96*
X003365Y0046175D02*
D03*
D99*
X00438468Y006505D02*
X0044991Y00661942D01*
X00395Y006505D02*
X00438468D01*
X00541903Y00204903D02*
X00597225Y00260225D01*
X00536698Y00204903D02*
X00541903D01*
X00552586Y00225586D02*
X00571477Y00244477D01*
X00510003Y00208945D02*
X00526644Y00225586D01*
X00552586D01*
X0066275Y00097881D02*
Y0013872D01*
X00649195Y00152275D02*
X0066275Y0013872D01*
X0064825Y00083381D02*
X0066275Y00097881D01*
X0056175Y006665D02*
Y00702954D01*
X00550036Y00714668D02*
X0056175Y00702954D01*
X00859066Y00219816D02*
Y00257184D01*
X0077925Y00337D02*
X00859066Y00257184D01*
X00741925Y00260225D02*
X007727Y00291D01*
X00772858D02*
X00773729Y00291871D01*
X00774321D01*
X007727Y00291D02*
X00772858D01*
X00597225Y00260225D02*
X00741925D01*
X00521264Y00141443D02*
Y00162986D01*
Y00141443D02*
X00535455Y00127252D01*
X00566703Y00270235D02*
X00572614Y00264324D01*
X00560045Y00270235D02*
X00566703D01*
X00572614Y00264324D02*
X0057502D01*
X00555722Y00250924D02*
X00557423Y00249223D01*
X00399Y00422299D02*
Y00562345D01*
X00549691Y00250924D02*
X00555722D01*
X00558028Y00263885D02*
X00571477Y00250436D01*
Y00244477D02*
Y00250436D01*
X00557414Y00263885D02*
X00558028D01*
X00399Y00422299D02*
X00557414Y00263885D01*
X00527728Y00159522D02*
Y00174698D01*
Y00159522D02*
X00534975Y00152275D01*
X00527728Y00174698D02*
X0055645Y0020342D01*
X00541701Y00162986D02*
X00802236D01*
X00540515Y001618D02*
X00541701Y00162986D01*
X00510003Y00174247D02*
X00521264Y00162986D01*
X00510003Y00174247D02*
Y00208945D01*
X00399Y00562345D02*
X004055Y00568844D01*
X00443807Y0026329D02*
Y0026416D01*
X00406966Y00301D02*
X00443807Y0026416D01*
X00371827Y00343445D02*
X00406966Y00308305D01*
Y00301D02*
Y00308305D01*
X00409044Y00220951D02*
X0041785Y00212145D01*
Y0021D02*
Y00212145D01*
X00407622Y00220951D02*
X00409044D01*
X00323Y00222D02*
X00406573D01*
X00407622Y00220951D01*
X0036975Y000696D02*
Y00110499D01*
X00188222Y00258D02*
X0019525D01*
X0032462Y00343445D02*
X00371827D01*
X00308665Y003594D02*
X0032462Y00343445D01*
X00192778Y003594D02*
X00308665D01*
X00287Y00258D02*
X00323Y00222D01*
X004615Y00368779D02*
Y0046175D01*
Y00368779D02*
X00560045Y00270235D01*
X004055Y00568844D02*
Y0057125D01*
X0043975Y0069625D02*
X00458168Y00714668D01*
X00550036D01*
X00534975Y00152275D02*
X00649195D01*
X00802236Y00162986D02*
X00859066Y00219816D01*
X0044991Y00661942D02*
Y0066225D01*
X00455049Y00672799D02*
X0045675Y006745D01*
X0044991Y0066225D02*
X00455049Y00667389D01*
Y00672799D01*
X0019525Y00258D02*
X0020684Y00246409D01*
X0019525Y00258D02*
X00287D01*
X00364832Y00332D02*
X00398534Y00298298D01*
X0032725Y00332D02*
X00364832D01*
X00398534Y00272542D02*
Y00298298D01*
X0047702Y00473202D02*
X00507Y00443222D01*
Y0041D02*
Y00443222D01*
X0058167Y0020342D02*
X006135Y0023525D01*
X0055645Y0020342D02*
X0058167D01*
X003865Y00414115D02*
X00549691Y00250924D01*
X003865Y00414115D02*
Y0046175D01*
X0031675Y001635D02*
X0036975Y00110499D01*
X00174886Y00582D02*
X00174995Y00581892D01*
Y00535958D02*
Y00581892D01*
X00174886Y00536067D02*
X00174995Y00535958D01*
X00175103Y0053585D01*
X00163038Y00536067D02*
X00174886D01*
X00122355Y0057675D02*
X00163038Y00536067D01*
X00122355Y0057675D02*
Y00612616D01*
X00112195Y00622775D02*
X00122355Y00612616D01*
X00079775Y00622775D02*
X00112195D01*
X0007Y00613D02*
X00079775Y00622775D01*
X0007Y0055725D02*
Y00613D01*
X003665Y0024775D02*
X003665Y0024775D01*
Y0026775D01*
X0032725Y00307D02*
X003665Y0026775D01*
X0020684Y0017D02*
Y00246409D01*
X00422952Y00473202D02*
X0047702D01*
X004115Y0046175D02*
X00422952Y00473202D01*
D100*
X00781223Y0022284D02*
X00810454D01*
X00779788Y00224275D02*
X00781223Y0022284D01*
X00681Y00114D02*
X00707462Y00140462D01*
X0071832D01*
X00629821Y00129D02*
X0064825D01*
X00617708Y00117393D02*
X00618214D01*
X00629821Y00129D01*
X00611756Y00111441D02*
X00617708Y00117393D01*
X00231Y0063125D02*
X0051525D01*
X005565Y0059D01*
X0047116Y0016884D02*
X0052619Y0011381D01*
Y00064674D02*
Y0011381D01*
X0047116Y0016884D02*
Y0028488D01*
X00168Y001815D02*
Y00357222D01*
X00236Y001135D02*
X0031675D01*
X00168Y001815D02*
X00236Y001135D01*
X0050875Y00842D02*
X00542278Y00875528D01*
X00619529Y00842D02*
Y0086867D01*
X00612671Y00875528D02*
X00619529Y0086867D01*
X00542278Y00875528D02*
X00612671D01*
X00836638Y0023264D02*
X00837124Y00233126D01*
X00820254Y0023264D02*
X00836638D01*
X00634756Y00419483D02*
X00647609D01*
X00662144Y00404947D02*
X00662832D01*
X00647609Y00419483D02*
X00662144Y00404947D01*
X00621009Y00405736D02*
X00634756Y00419483D01*
X0060894Y00405736D02*
X00621009D01*
X00608717Y00405513D02*
X0060894Y00405736D01*
X00611756Y00090968D02*
Y00111441D01*
X00681Y00114D02*
X00681687D01*
X00692147Y0012446D02*
X00697698D01*
X00681687Y00114D02*
X00692147Y0012446D01*
X00629928Y00234442D02*
X00767498D01*
X00810454Y0022284D02*
X00820254Y0023264D01*
X00767498Y00234442D02*
X007791Y0022284D01*
X00168Y00357222D02*
X00192778Y00382D01*
X00589288Y00068499D02*
X00611756Y00090968D01*
Y00018202D02*
Y00042457D01*
X00589288Y00064925D02*
X00611756Y00042457D01*
X0035837Y0001225D02*
X00605804D01*
X00611756Y00018202D01*
X00589288Y00064925D02*
Y00068499D01*
X0031675Y0005387D02*
X0035837Y0001225D01*
X0031675Y0005387D02*
Y001135D01*
X00192778Y00382D02*
X0032725D01*
X00697698Y00097075D02*
Y0012446D01*
D101*
X00698276Y0056975D02*
X00735206Y0053282D01*
X00778095D01*
X0064775Y0056975D02*
X00698276D01*
X006888Y00387783D02*
X00698051Y00378532D01*
X006785Y00398068D02*
X00688785Y00387783D01*
X00698051Y00378532D02*
X00698051D01*
X00688785Y00387783D02*
X006888D01*
X006785Y00398068D02*
Y00458253D01*
X00629816Y00506936D02*
Y00789816D01*
X00674Y00834D01*
X00629816Y00506936D02*
X006785Y00458253D01*
X00674Y00834D02*
X0069875D01*
X00778095Y0053282D02*
X00786494Y00524421D01*
Y00509067D02*
Y00524421D01*
X0069575Y00477875D02*
X00700072Y00473553D01*
X0064264Y0053236D02*
X0069575Y0047925D01*
X0064264Y0053236D02*
Y0056464D01*
X0069575Y00477875D02*
Y0047925D01*
X00700072Y00403812D02*
Y00473553D01*
X00783267Y00487477D02*
Y0050584D01*
X0064264Y0056464D02*
X0064775Y0056975D01*
X00783267Y0050584D02*
X00786494Y00509067D01*
D104*
X008095Y007215D02*
D03*
X007841D02*
D03*
X007587D02*
D03*
X007333D02*
D03*
X007206Y006961D02*
D03*
X00746D02*
D03*
X007968D02*
D03*
X007714D02*
D03*
D105*
X0083125Y00834D02*
D03*
X0080585D02*
D03*
X0072415D02*
D03*
X0069875D02*
D03*
D106*
X0068755Y007545D02*
D03*
X0084245D02*
D03*
D107*
X00222615Y008D02*
D03*
D108*
X00146415D02*
D03*
D109*
X002917Y0084275D02*
D03*
X003425D02*
D03*
X00568729Y00842D02*
D03*
X00619529D02*
D03*
X0050875D02*
D03*
X0045795D02*
D03*
D110*
X003856Y007956D02*
D03*
X00411Y00821D02*
D03*
X003856D02*
D03*
X002984Y00029D02*
D03*
X00273D02*
D03*
D111*
X00411Y007956D02*
D03*
X002476Y00029D02*
D03*
D112*
X0029875Y0058375D02*
D03*
D113*
X0032415D02*
D03*
X0037495D02*
D03*
X0042575D02*
D03*
D114*
X009005Y008475D02*
D03*
Y00047584D02*
D03*
X000515D02*
D03*
Y008475D02*
D03*
D115*
X009105Y00278001D02*
D03*
X00337Y0065525D02*
D03*
X00395Y006505D02*
D03*
X003595Y0071075D02*
D03*
X0067775Y00222195D02*
D03*
X00779788Y00224275D02*
D03*
X0064725Y0035979D02*
D03*
X0074575Y00464729D02*
D03*
X0072562Y00466806D02*
D03*
X00536698Y00204903D02*
D03*
X0064825Y00129D02*
D03*
X0075225Y0031375D02*
D03*
X00740767Y003225D02*
D03*
X0071575Y00331163D02*
D03*
X007224Y00324562D02*
D03*
X0074975Y005765D02*
D03*
X0073075Y003805D02*
D03*
X0056175Y006665D02*
D03*
X0045325Y00135D02*
D03*
X001945Y00109D02*
D03*
X0075725Y005925D02*
D03*
X0071Y0064D02*
D03*
X005565Y0059D02*
D03*
X0076125Y00352973D02*
D03*
X0077925Y00337D02*
D03*
X00694758Y00331163D02*
D03*
X00545Y00051885D02*
D03*
X00251Y00464D02*
D03*
X008Y00418635D02*
D03*
X00698051Y00378532D02*
D03*
X00752Y0033025D02*
D03*
X0081Y00292095D02*
D03*
X00774546D02*
D03*
X0052619Y00064674D02*
D03*
X00535455Y00127252D02*
D03*
X00567395Y00331515D02*
D03*
X0057502Y00264324D02*
D03*
X00557423Y00249223D02*
D03*
X00540515Y001618D02*
D03*
X00662832Y00404947D02*
D03*
X00647061Y00400274D02*
D03*
X00608717Y00405513D02*
D03*
X00912Y0032258D02*
D03*
X0034075Y00687682D02*
D03*
X00443807Y0026329D02*
D03*
X0047116Y0028488D02*
D03*
X0041785Y0021D02*
D03*
X0036975Y000696D02*
D03*
X0035837Y00045D02*
D03*
X00214433Y0007874D02*
D03*
X00188222Y00258D02*
D03*
X00192778Y003594D02*
D03*
X0051655Y0070025D02*
D03*
X0065407Y0054125D02*
D03*
X0051Y00337D02*
D03*
X001225Y00216D02*
D03*
X00681Y00114D02*
D03*
X0026Y004065D02*
D03*
X00152571Y00476D02*
D03*
X00739508Y00273D02*
D03*
X00702457Y00301291D02*
D03*
X00686515Y00299D02*
D03*
X00525257Y00193417D02*
D03*
X00507Y0041D02*
D03*
X00741599Y00410651D02*
D03*
X00836Y00571D02*
D03*
X00746Y00545D02*
D03*
X00699Y00538D02*
D03*
X0069575Y0047925D02*
D03*
X00798788Y00497079D02*
D03*
X00783267Y00487477D02*
D03*
X00700072Y00403812D02*
D03*
X00715036Y0046225D02*
D03*
X009125Y0037325D02*
D03*
X0090925Y00422D02*
D03*
X00629928Y00234442D02*
D03*
X006135Y0023525D02*
D03*
X00837124Y00233126D02*
D03*
X0054525Y0017875D02*
D03*
X00707698Y0018788D02*
D03*
X0053215Y00252222D02*
D03*
X00412Y003665D02*
D03*
X0043975Y0069625D02*
D03*
X0045675Y006745D02*
D03*
X0043975Y00679D02*
D03*
X00231Y0063125D02*
D03*
X00174886Y00582D02*
D03*
X0010825Y0061325D02*
D03*
X00175103Y0053585D02*
D03*
X0007Y0055725D02*
D03*
X00504Y0026775D02*
D03*
X003665Y0024775D02*
D03*
X0020684Y0017D02*
D03*
X0008275Y0047725D02*
D03*
X0005425Y0043725D02*
D03*
X0053125Y0048525D02*
D03*
X00034523Y00446D02*
D03*
X0064825Y00083381D02*
D03*
X00708298Y00025D02*
D03*
X00717844Y00118913D02*
D03*
X009105Y00232D02*
D03*
X0090075Y0048925D02*
D03*
X004055Y0057125D02*
D03*
X00697698Y00097075D02*
D03*
X0071832Y00140462D02*
D03*
X00398534Y00272542D02*
D03*
M02*
