G04*
G04 #@! TF.GenerationSoftware,Altium Limited,Altium Designer,23.0.1 (38)*
G04*
G04 Layer_Color=8388736*
%FSTAX44Y44*%
%MOMM*%
G71*
G04*
G04 #@! TF.SameCoordinates,F694FBC8-736E-493C-811D-9B4FADD6A984*
G04*
G04*
G04 #@! TF.FilePolarity,Negative*
G04*
G01*
G75*
%ADD37R,2.2000X1.7000*%
%ADD45R,4.0386X1.0414*%
%ADD46R,8.3058X10.7442*%
%ADD54R,1.7632X0.4832*%
%ADD55R,0.4832X1.7632*%
%ADD56R,1.3000X1.2000*%
%ADD57R,1.6032X1.4032*%
%ADD58R,1.7032X1.5032*%
%ADD59R,1.2000X1.3000*%
%ADD60R,2.2032X1.6032*%
%ADD61R,1.9032X1.9032*%
%ADD62R,5.7532X6.5032*%
%ADD63R,1.1032X2.4532*%
%ADD64R,1.3032X1.7032*%
%ADD65R,1.5032X1.7032*%
%ADD66R,1.5532X2.0032*%
%ADD67R,1.4032X1.6032*%
%ADD68R,1.9032X1.9032*%
%ADD69R,1.8032X2.9032*%
%ADD70R,2.6032X3.3032*%
%ADD71R,1.8032X0.9032*%
%ADD72R,2.7032X1.9032*%
G04:AMPARAMS|DCode=73|XSize=1.5432mm|YSize=3.4932mm|CornerRadius=0.2691mm|HoleSize=0mm|Usage=FLASHONLY|Rotation=0.000|XOffset=0mm|YOffset=0mm|HoleType=Round|Shape=RoundedRectangle|*
%AMROUNDEDRECTD73*
21,1,1.5432,2.9550,0,0,0.0*
21,1,1.0050,3.4932,0,0,0.0*
1,1,0.5382,0.5025,-1.4775*
1,1,0.5382,-0.5025,-1.4775*
1,1,0.5382,-0.5025,1.4775*
1,1,0.5382,0.5025,1.4775*
%
%ADD73ROUNDEDRECTD73*%
%ADD74R,2.2532X1.6532*%
%ADD75R,6.2032X10.2032*%
%ADD76R,4.2032X3.0032*%
%ADD77C,1.2032*%
%ADD78R,3.0032X4.2032*%
%ADD79R,1.6032X1.4032*%
%ADD80R,1.6532X1.0632*%
%ADD81R,1.0632X1.6532*%
%ADD82R,3.7032X3.7032*%
%ADD83O,1.9000X2.3000*%
%ADD84C,2.3000*%
%ADD85O,2.3000X3.3000*%
%ADD86C,1.3000*%
%ADD87C,1.4000*%
%ADD88R,1.4000X1.4000*%
%ADD89R,4.0132X6.2992*%
%ADD90O,4.0132X6.2992*%
%ADD91C,2.9972*%
%ADD92C,1.7032*%
%ADD93R,1.7032X1.7032*%
%ADD94R,1.7272X2.2352*%
%ADD95O,1.7272X2.2352*%
%ADD96R,1.4000X1.4000*%
%ADD97C,6.2032*%
%ADD98C,0.8032*%
D37*
X00647Y0061205D02*
D03*
Y0063745D02*
D03*
X00565D02*
D03*
Y0061205D02*
D03*
D45*
X00160375Y00110964D02*
D03*
Y00127982D02*
D03*
Y00145D02*
D03*
Y00162018D02*
D03*
Y00179036D02*
D03*
D46*
X00055854Y00145D02*
D03*
D54*
X0076505Y004255D02*
D03*
Y004205D02*
D03*
Y004155D02*
D03*
Y004105D02*
D03*
Y004055D02*
D03*
Y004005D02*
D03*
Y003955D02*
D03*
Y003905D02*
D03*
Y003855D02*
D03*
Y003805D02*
D03*
Y003755D02*
D03*
Y003705D02*
D03*
X0068145D02*
D03*
Y003755D02*
D03*
Y003805D02*
D03*
Y003855D02*
D03*
Y003905D02*
D03*
Y003955D02*
D03*
Y004005D02*
D03*
Y004055D02*
D03*
Y004105D02*
D03*
Y004155D02*
D03*
Y004205D02*
D03*
Y004255D02*
D03*
D55*
X0075075Y003562D02*
D03*
X0074575D02*
D03*
X0074075D02*
D03*
X0073575D02*
D03*
X0073075D02*
D03*
X0072575D02*
D03*
X0072075D02*
D03*
X0071575D02*
D03*
X0071075D02*
D03*
X0070575D02*
D03*
X0070075D02*
D03*
X0069575D02*
D03*
Y004398D02*
D03*
X0070075D02*
D03*
X0070575D02*
D03*
X0071075D02*
D03*
X0071575D02*
D03*
X0072075D02*
D03*
X0072575D02*
D03*
X0073075D02*
D03*
X0073575D02*
D03*
X0074075D02*
D03*
X0074575D02*
D03*
X0075075D02*
D03*
D56*
X00034047Y0055865D02*
D03*
X00051047D02*
D03*
X00630008Y0006188D02*
D03*
X00613008D02*
D03*
X00674509Y00025D02*
D03*
X00691508D02*
D03*
X00630017Y0010669D02*
D03*
X00613016D02*
D03*
X00613008Y00146881D02*
D03*
X00630008D02*
D03*
X00875508Y00232001D02*
D03*
X00892508D02*
D03*
X00892501Y00255D02*
D03*
X008755D02*
D03*
X00892992Y00278001D02*
D03*
X00875992D02*
D03*
X008755Y00301D02*
D03*
X00892501D02*
D03*
Y00325001D02*
D03*
X008755D02*
D03*
X00875508Y00349096D02*
D03*
X00892508D02*
D03*
X00892501Y00373958D02*
D03*
X008755D02*
D03*
X00875508Y00470085D02*
D03*
X00892508D02*
D03*
X00875517Y00446043D02*
D03*
X00892516D02*
D03*
X00875508Y00422D02*
D03*
X00892508D02*
D03*
X00875508Y00398D02*
D03*
X00892508D02*
D03*
X00304834Y00725D02*
D03*
X00321834D02*
D03*
X003815D02*
D03*
X003645D02*
D03*
X00183603Y0045569D02*
D03*
X00166603D02*
D03*
X00164071Y0049335D02*
D03*
X00181071D02*
D03*
X00158571Y0059585D02*
D03*
X00141571D02*
D03*
X00108005D02*
D03*
X00091005D02*
D03*
X00034047Y0058585D02*
D03*
X00051047D02*
D03*
X00573491Y00448D02*
D03*
X00556492D02*
D03*
X00573491Y00422D02*
D03*
X00556492D02*
D03*
X00573491Y00396D02*
D03*
X00556492D02*
D03*
X00449758Y0028488D02*
D03*
X00432759D02*
D03*
X00487508D02*
D03*
X00504509D02*
D03*
X00573491Y003699D02*
D03*
X00556492D02*
D03*
X00573491Y003179D02*
D03*
X00556492D02*
D03*
Y00343857D02*
D03*
X00573491D02*
D03*
X00050922Y005243D02*
D03*
X00033922D02*
D03*
X00748008Y00289D02*
D03*
X00731009D02*
D03*
D57*
X00421284Y006935D02*
D03*
Y006745D02*
D03*
X00421892Y00730456D02*
D03*
Y00749456D02*
D03*
X00523142Y00618956D02*
D03*
Y00637956D02*
D03*
X00497608Y00638299D02*
D03*
Y006193D02*
D03*
X00471558D02*
D03*
Y00638299D02*
D03*
D58*
X00705798Y00082897D02*
D03*
Y00063897D02*
D03*
X00665698Y0006438D02*
D03*
Y00083381D02*
D03*
D59*
X00697698Y00147889D02*
D03*
Y00130889D02*
D03*
X00670208Y00147897D02*
D03*
Y00130897D02*
D03*
X00223443Y00480849D02*
D03*
Y0049785D02*
D03*
X00825Y0024104D02*
D03*
Y0025804D02*
D03*
X008Y00241048D02*
D03*
Y00258048D02*
D03*
X00777086Y0024104D02*
D03*
Y0025804D02*
D03*
X00702457Y00241356D02*
D03*
Y00258356D02*
D03*
X00678415D02*
D03*
Y00241356D02*
D03*
X00654372Y00258348D02*
D03*
Y00241348D02*
D03*
X00900213Y00523492D02*
D03*
Y00506492D02*
D03*
X0087654Y00523492D02*
D03*
Y00506492D02*
D03*
X00852868D02*
D03*
Y00523492D02*
D03*
X00829195Y00506492D02*
D03*
Y00523492D02*
D03*
X00805523D02*
D03*
Y00506492D02*
D03*
X00781851D02*
D03*
Y00523492D02*
D03*
X00758178D02*
D03*
Y00506492D02*
D03*
X00734506D02*
D03*
Y00523492D02*
D03*
X00710834D02*
D03*
Y00506492D02*
D03*
X00687161D02*
D03*
Y00523492D02*
D03*
X00663489D02*
D03*
Y00506492D02*
D03*
X00639816D02*
D03*
Y00523492D02*
D03*
X00616144Y00506492D02*
D03*
Y00523492D02*
D03*
X00592472D02*
D03*
Y00506492D02*
D03*
X0056775Y0050675D02*
D03*
Y0052375D02*
D03*
X00545127Y00506492D02*
D03*
Y00523492D02*
D03*
D60*
X00625508Y0018788D02*
D03*
X00689508D02*
D03*
X00492Y00352492D02*
D03*
X00428D02*
D03*
D61*
X00873Y00698251D02*
D03*
Y00731251D02*
D03*
D62*
X0049375Y00746233D02*
D03*
X00612007Y00739D02*
D03*
D63*
X0051655Y00680232D02*
D03*
X0047095D02*
D03*
X00589207Y00672999D02*
D03*
X00634808D02*
D03*
D64*
X00384008Y007575D02*
D03*
X00362008D02*
D03*
X00267Y00274936D02*
D03*
X00245D02*
D03*
X002665Y0023819D02*
D03*
X002445D02*
D03*
D65*
X00303834Y007575D02*
D03*
X00322835D02*
D03*
X00360968Y00687682D02*
D03*
X00379968D02*
D03*
X00303834D02*
D03*
X00322835D02*
D03*
X002095Y0023819D02*
D03*
X001905D02*
D03*
Y0027519D02*
D03*
X002095D02*
D03*
X00238246Y00333D02*
D03*
X00219246D02*
D03*
X002195Y0037D02*
D03*
X002385D02*
D03*
Y00408D02*
D03*
X002195D02*
D03*
X001085Y0049335D02*
D03*
X001275D02*
D03*
Y0045569D02*
D03*
X001085D02*
D03*
X0063048Y00258348D02*
D03*
X0061148D02*
D03*
X00574492Y00290007D02*
D03*
X00555491D02*
D03*
D66*
X004425Y00633392D02*
D03*
X00409D02*
D03*
X00032947Y00755D02*
D03*
X00066447D02*
D03*
D67*
X00382544Y00633392D02*
D03*
X00363544D02*
D03*
X00219417Y00443326D02*
D03*
X00238416D02*
D03*
D68*
X003365Y00634D02*
D03*
X003035D02*
D03*
X00064553Y0049835D02*
D03*
X00031553D02*
D03*
X000665Y00465851D02*
D03*
X000335D02*
D03*
D69*
X00226443Y0053585D02*
D03*
X00198443D02*
D03*
X00198571Y0058585D02*
D03*
X00226571D02*
D03*
X00257252Y0065786D02*
D03*
X00229252D02*
D03*
X00227Y0072D02*
D03*
X00255D02*
D03*
D70*
X00120071Y0054335D02*
D03*
D71*
X00093071Y005624D02*
D03*
Y005497D02*
D03*
Y00537D02*
D03*
Y005243D02*
D03*
X00147072Y005624D02*
D03*
Y005243D02*
D03*
Y00537D02*
D03*
Y005497D02*
D03*
D72*
X00174358Y0066036D02*
D03*
X0013371D02*
D03*
X00037422D02*
D03*
X0007807D02*
D03*
D73*
X00173Y0072D02*
D03*
X0013D02*
D03*
D74*
X0006425Y007135D02*
D03*
X0003575D02*
D03*
D75*
X00151Y00366D02*
D03*
X00045Y00367D02*
D03*
D76*
X000595Y00248D02*
D03*
X001225D02*
D03*
D77*
X00173Y00039D02*
D03*
X00128D02*
D03*
D78*
X00241Y00107D02*
D03*
Y0017D02*
D03*
D79*
X00728Y00258848D02*
D03*
Y00241848D02*
D03*
X00749999D02*
D03*
Y00258848D02*
D03*
D80*
X005633Y00222D02*
D03*
Y002093D02*
D03*
Y001966D02*
D03*
Y001839D02*
D03*
Y001712D02*
D03*
Y001585D02*
D03*
Y001458D02*
D03*
Y001331D02*
D03*
Y001204D02*
D03*
Y001077D02*
D03*
Y00095D02*
D03*
Y000696D02*
D03*
Y000569D02*
D03*
X003867Y00222D02*
D03*
Y002093D02*
D03*
Y001966D02*
D03*
Y001839D02*
D03*
Y001712D02*
D03*
Y001585D02*
D03*
Y001458D02*
D03*
Y001331D02*
D03*
Y001204D02*
D03*
Y001077D02*
D03*
Y00095D02*
D03*
Y000823D02*
D03*
Y000696D02*
D03*
Y000569D02*
D03*
X005633Y000823D02*
D03*
D81*
X0046865Y002353D02*
D03*
X0045595D02*
D03*
X0044325D02*
D03*
X0043055D02*
D03*
X0041785D02*
D03*
X0048135D02*
D03*
X0049405D02*
D03*
X0050675D02*
D03*
X0051945D02*
D03*
X0053215D02*
D03*
D82*
X004896Y001333D02*
D03*
D83*
X008095Y007215D02*
D03*
X007841D02*
D03*
X007587D02*
D03*
X007333D02*
D03*
X007206Y006961D02*
D03*
X00746D02*
D03*
X007968D02*
D03*
X007714D02*
D03*
D84*
X0083125Y00834D02*
D03*
X0080585D02*
D03*
X0072415D02*
D03*
X0069875D02*
D03*
D85*
X0068755Y007545D02*
D03*
X0084245D02*
D03*
D86*
X0070785Y00785D02*
D03*
X0082215D02*
D03*
D87*
X00783Y00125D02*
D03*
Y001D02*
D03*
X004615Y0046175D02*
D03*
X004365D02*
D03*
X004115D02*
D03*
X003865D02*
D03*
X003615D02*
D03*
X0032725Y00357D02*
D03*
Y00332D02*
D03*
Y00307D02*
D03*
X0031675Y001385D02*
D03*
Y001635D02*
D03*
Y001885D02*
D03*
D88*
X00783Y00075D02*
D03*
X0032725Y00382D02*
D03*
X0031675Y001135D02*
D03*
D89*
X00222615Y008D02*
D03*
D90*
X00146415D02*
D03*
D91*
X002917Y0084275D02*
D03*
X003425D02*
D03*
X00568729Y00842D02*
D03*
X00619529D02*
D03*
X0050875D02*
D03*
X0045795D02*
D03*
D92*
X003856Y007956D02*
D03*
X00411Y00821D02*
D03*
X003856D02*
D03*
X002984Y00029D02*
D03*
X00273D02*
D03*
D93*
X00411Y007956D02*
D03*
X002476Y00029D02*
D03*
D94*
X0029875Y0058375D02*
D03*
D95*
X0032415D02*
D03*
X0037495D02*
D03*
X0042575D02*
D03*
D96*
X003365Y0046175D02*
D03*
D97*
X009005Y008475D02*
D03*
Y00047584D02*
D03*
X000515D02*
D03*
Y008475D02*
D03*
D98*
X009105Y00278001D02*
D03*
X00337Y0065525D02*
D03*
X00395Y006505D02*
D03*
X003595Y0071075D02*
D03*
X0067775Y00222195D02*
D03*
X00779788Y00224275D02*
D03*
X0064725Y0035979D02*
D03*
X0074575Y00464729D02*
D03*
X0072562Y00466806D02*
D03*
X00536698Y00204903D02*
D03*
X0064825Y00129D02*
D03*
X0075225Y0031375D02*
D03*
X00740767Y003225D02*
D03*
X0071575Y00331163D02*
D03*
X007224Y00324562D02*
D03*
X0074975Y005765D02*
D03*
X0073075Y003805D02*
D03*
X0056175Y006665D02*
D03*
X0045325Y00135D02*
D03*
X001945Y00109D02*
D03*
X0075725Y005925D02*
D03*
X0071Y0064D02*
D03*
X005565Y0059D02*
D03*
X0076125Y00352973D02*
D03*
X0077925Y00337D02*
D03*
X00694758Y00331163D02*
D03*
X00545Y00051885D02*
D03*
X00251Y00464D02*
D03*
X008Y00418635D02*
D03*
X00698051Y00378532D02*
D03*
X00752Y0033025D02*
D03*
X0081Y00292095D02*
D03*
X00774546D02*
D03*
X0052619Y00064674D02*
D03*
X00535455Y00127252D02*
D03*
X00567395Y00331515D02*
D03*
X0057502Y00264324D02*
D03*
X00557423Y00249223D02*
D03*
X00540515Y001618D02*
D03*
X00662832Y00404947D02*
D03*
X00647061Y00400274D02*
D03*
X00608717Y00405513D02*
D03*
X00912Y0032258D02*
D03*
X0034075Y00687682D02*
D03*
X00443807Y0026329D02*
D03*
X0047116Y0028488D02*
D03*
X0041785Y0021D02*
D03*
X0036975Y000696D02*
D03*
X0035837Y00045D02*
D03*
X00214433Y0007874D02*
D03*
X00188222Y00258D02*
D03*
X00192778Y003594D02*
D03*
X0051655Y0070025D02*
D03*
X0065407Y0054125D02*
D03*
X0051Y00337D02*
D03*
X001225Y00216D02*
D03*
X00681Y00114D02*
D03*
X0026Y004065D02*
D03*
X00152571Y00476D02*
D03*
X00739508Y00273D02*
D03*
X00702457Y00301291D02*
D03*
X00686515Y00299D02*
D03*
X00525257Y00193417D02*
D03*
X00507Y0041D02*
D03*
X00741599Y00410651D02*
D03*
X00836Y00571D02*
D03*
X00746Y00545D02*
D03*
X00699Y00538D02*
D03*
X0069575Y0047925D02*
D03*
X00798788Y00497079D02*
D03*
X00783267Y00487477D02*
D03*
X00700072Y00403812D02*
D03*
X00715036Y0046225D02*
D03*
X009125Y0037325D02*
D03*
X0090925Y00422D02*
D03*
X00629928Y00234442D02*
D03*
X006135Y0023525D02*
D03*
X00837124Y00233126D02*
D03*
X0054525Y0017875D02*
D03*
X00707698Y0018788D02*
D03*
X0053215Y00252222D02*
D03*
X00412Y003665D02*
D03*
X0043975Y0069625D02*
D03*
X0045675Y006745D02*
D03*
X0043975Y00679D02*
D03*
X00231Y0063125D02*
D03*
X00174886Y00582D02*
D03*
X0010825Y0061325D02*
D03*
X00175103Y0053585D02*
D03*
X0007Y0055725D02*
D03*
X00504Y0026775D02*
D03*
X003665Y0024775D02*
D03*
X0020684Y0017D02*
D03*
X0008275Y0047725D02*
D03*
X0005425Y0043725D02*
D03*
X0053125Y0048525D02*
D03*
X00034523Y00446D02*
D03*
X0064825Y00083381D02*
D03*
X00708298Y00025D02*
D03*
X00717844Y00118913D02*
D03*
X009105Y00232D02*
D03*
X0090075Y0048925D02*
D03*
X004055Y0057125D02*
D03*
X00697698Y00097075D02*
D03*
X0071832Y00140462D02*
D03*
X00398534Y00272542D02*
D03*
M02*
