%TF.GenerationSoftware,Altium Limited,Altium Designer,23.0.1 (38)*%
G04 Layer_Physical_Order=1*
G04 Layer_Color=255*
%FSLAX45Y45*%
%MOMM*%
%TF.SameCoordinates,E0F799D9-27B4-45C1-BD14-B3F5E9977550*%
%TF.FilePolarity,Positive*%
%TF.FileFunction,Copper,L1,Top,Signal*%
%TF.Part,Single*%
G01*
G75*
%TA.AperFunction,Conductor*%
%ADD10C,0.38100*%
%TA.AperFunction,SMDPad,CuDef*%
%ADD11R,1.56000X0.28000*%
%ADD12R,0.28000X1.56000*%
%ADD13R,1.10000X1.00000*%
%ADD14R,1.40000X1.20000*%
%ADD15R,1.50000X1.30000*%
%ADD16R,1.00000X1.10000*%
%ADD17R,2.00000X1.40000*%
%ADD18R,1.70000X1.70000*%
%ADD19R,5.55000X6.30000*%
%ADD20R,0.90000X2.25000*%
%ADD21R,1.10000X1.50000*%
%ADD22R,1.30000X1.50000*%
%ADD23R,1.35000X1.80000*%
%ADD24R,1.20000X1.40000*%
%ADD25R,1.70000X1.70000*%
%ADD26R,2.20000X1.70000*%
%ADD27R,1.60000X2.70000*%
%ADD28R,2.40000X3.10000*%
%ADD29R,1.60000X0.70000*%
%ADD30R,2.50000X1.70000*%
G04:AMPARAMS|DCode=31|XSize=1.34mm|YSize=3.29mm|CornerRadius=0.1675mm|HoleSize=0mm|Usage=FLASHONLY|Rotation=0.000|XOffset=0mm|YOffset=0mm|HoleType=Round|Shape=RoundedRectangle|*
%AMROUNDEDRECTD31*
21,1,1.34000,2.95500,0,0,0.0*
21,1,1.00500,3.29000,0,0,0.0*
1,1,0.33500,0.50250,-1.47750*
1,1,0.33500,-0.50250,-1.47750*
1,1,0.33500,-0.50250,1.47750*
1,1,0.33500,0.50250,1.47750*
%
%ADD31ROUNDEDRECTD31*%
%ADD32R,2.05000X1.45000*%
%ADD33R,6.00000X10.00000*%
%ADD34R,4.03860X1.04140*%
%ADD35R,8.30580X10.74420*%
%ADD36R,4.00000X2.80000*%
%ADD37C,1.00000*%
%ADD38R,2.80000X4.00000*%
%ADD39R,1.40000X1.20000*%
%ADD40R,1.45000X0.86000*%
%ADD41R,0.86000X1.45000*%
%ADD42R,3.50000X3.50000*%
%TA.AperFunction,Conductor*%
%ADD43C,0.25400*%
%ADD44C,1.01600*%
%ADD45C,0.76200*%
%ADD46C,0.50800*%
%ADD47C,1.52400*%
%TA.AperFunction,ComponentPad*%
%ADD48O,1.60000X2.00000*%
%ADD49C,2.00000*%
%ADD50O,2.00000X3.00000*%
%ADD51C,1.00000*%
%ADD52C,1.40000*%
%ADD53R,1.40000X1.40000*%
%ADD54R,3.81000X6.09600*%
%ADD55O,3.81000X6.09600*%
%ADD56C,2.79400*%
%ADD57C,1.50000*%
%ADD58R,1.50000X1.50000*%
%ADD59R,1.52400X2.03200*%
%ADD60O,1.52400X2.03200*%
%ADD61R,1.40000X1.40000*%
%TA.AperFunction,ViaPad*%
%ADD62C,6.00000*%
%ADD63C,0.60000*%
G36*
X9527944Y-21177D02*
X7947D01*
Y8928818D01*
X9527944D01*
Y-21177D01*
D02*
G37*
%LPC*%
G36*
X6195289Y8560904D02*
X6158820Y8556103D01*
X6124836Y8542026D01*
X6095653Y8519634D01*
X6073261Y8490451D01*
X6059184Y8456467D01*
X6054383Y8419998D01*
X6059184Y8383529D01*
X6073261Y8349546D01*
X6095653Y8320363D01*
X6124836Y8297971D01*
X6158820Y8283894D01*
X6195289Y8279093D01*
X6231758Y8283894D01*
X6265741Y8297971D01*
X6294924Y8320363D01*
X6317316Y8349546D01*
X6331393Y8383529D01*
X6336194Y8419998D01*
X6331393Y8456467D01*
X6317316Y8490451D01*
X6294924Y8519634D01*
X6265741Y8542026D01*
X6231758Y8556103D01*
X6195289Y8560904D01*
D02*
G37*
G36*
X5087498D02*
X5051029Y8556103D01*
X5017045Y8542026D01*
X4987863Y8519634D01*
X4965470Y8490451D01*
X4951394Y8456467D01*
X4946593Y8419998D01*
X4951394Y8383529D01*
X4965470Y8349546D01*
X4987863Y8320363D01*
X5017045Y8297971D01*
X5051029Y8283894D01*
X5087498Y8279093D01*
X5123967Y8283894D01*
X5142624Y8291622D01*
X5171390Y8262857D01*
X5173385Y8278822D01*
X5192743Y8291757D01*
X5215740Y8314753D01*
X5228674Y8334111D01*
X5244639Y8336107D01*
X5215874Y8364872D01*
X5223602Y8383529D01*
X5228404Y8419998D01*
X5223602Y8456467D01*
X5209526Y8490451D01*
X5187133Y8519634D01*
X5157951Y8542026D01*
X5123967Y8556103D01*
X5087498Y8560904D01*
D02*
G37*
G36*
X3425002Y8568407D02*
X3388533Y8563606D01*
X3354549Y8549529D01*
X3325367Y8527137D01*
X3302974Y8497954D01*
X3288898Y8463971D01*
X3284097Y8427502D01*
X3288898Y8391032D01*
X3302974Y8357049D01*
X3325367Y8327866D01*
X3354549Y8305474D01*
X3373207Y8297746D01*
Y8260025D01*
X3383408Y8267590D01*
X3392637Y8264790D01*
X3412302Y8262854D01*
Y8427502D01*
X3437702D01*
Y8262854D01*
X3457367Y8264790D01*
X3466596Y8267590D01*
X3476797Y8260025D01*
Y8297746D01*
X3495455Y8305474D01*
X3524637Y8327866D01*
X3547030Y8357049D01*
X3561106Y8391032D01*
X3565908Y8427502D01*
X3561106Y8463971D01*
X3547030Y8497954D01*
X3524637Y8527137D01*
X3495455Y8549529D01*
X3461471Y8563606D01*
X3425002Y8568407D01*
D02*
G37*
G36*
X8262500Y8638847D02*
X7032141D01*
X7017275Y8635890D01*
X7004673Y8627469D01*
X6960036Y8582832D01*
X6951615Y8570229D01*
X6948658Y8555363D01*
Y8432148D01*
X6937073Y8427349D01*
X6916183Y8411320D01*
X6900154Y8390431D01*
X6890078Y8366105D01*
X6886641Y8340000D01*
X6890078Y8313894D01*
X6900154Y8289568D01*
X6916183Y8268679D01*
X6937073Y8252650D01*
X6961399Y8242574D01*
X6987504Y8239137D01*
X7013610Y8242574D01*
X7037936Y8252650D01*
X7058825Y8268679D01*
X7074854Y8289568D01*
X7084930Y8313894D01*
X7088367Y8340000D01*
X7084930Y8366105D01*
X7074854Y8390431D01*
X7058825Y8411320D01*
X7037936Y8427349D01*
X7026351Y8432148D01*
Y8539272D01*
X7048232Y8561154D01*
X8246409D01*
X8273654Y8533909D01*
Y8432148D01*
X8262069Y8427349D01*
X8241179Y8411320D01*
X8225150Y8390431D01*
X8215074Y8366105D01*
X8211637Y8340000D01*
X8215074Y8313894D01*
X8225150Y8289568D01*
X8241179Y8268679D01*
X8262069Y8252650D01*
X8286395Y8242574D01*
X8312500Y8239137D01*
X8338606Y8242574D01*
X8362932Y8252650D01*
X8383821Y8268679D01*
X8399850Y8289568D01*
X8409926Y8313894D01*
X8413363Y8340000D01*
X8409926Y8366105D01*
X8399850Y8390431D01*
X8383821Y8411320D01*
X8362932Y8427349D01*
X8351347Y8432148D01*
Y8550000D01*
X8348390Y8564866D01*
X8339969Y8577468D01*
X8289969Y8627469D01*
X8277366Y8635890D01*
X8262500Y8638847D01*
D02*
G37*
G36*
X3868700Y8309595D02*
Y8222700D01*
X3955594D01*
X3953816Y8236210D01*
X3943699Y8260633D01*
X3927606Y8281607D01*
X3906633Y8297699D01*
X3882210Y8307816D01*
X3868700Y8309595D01*
D02*
G37*
G36*
X3843300D02*
X3829790Y8307816D01*
X3805367Y8297699D01*
X3784394Y8281607D01*
X3768301Y8260633D01*
X3758185Y8236210D01*
X3756406Y8222700D01*
X3843300D01*
Y8309595D01*
D02*
G37*
G36*
X9005001Y8775927D02*
X8957926Y8772222D01*
X8912009Y8761199D01*
X8868383Y8743128D01*
X8828120Y8718455D01*
X8792213Y8687788D01*
X8761546Y8651880D01*
X8736873Y8611618D01*
X8718802Y8567991D01*
X8707778Y8522075D01*
X8704074Y8475000D01*
X8707778Y8427924D01*
X8718802Y8382008D01*
X8736873Y8338381D01*
X8761546Y8298119D01*
X8792213Y8262212D01*
X8828120Y8231544D01*
X8868383Y8206871D01*
X8912009Y8188800D01*
X8957926Y8177777D01*
X9005001Y8174072D01*
X9052076Y8177777D01*
X9097993Y8188800D01*
X9141619Y8206871D01*
X9181882Y8231544D01*
X9217789Y8262212D01*
X9248456Y8298119D01*
X9273130Y8338381D01*
X9291200Y8382008D01*
X9302224Y8427924D01*
X9305929Y8475000D01*
X9302224Y8522075D01*
X9291200Y8567991D01*
X9273130Y8611618D01*
X9248456Y8651880D01*
X9217789Y8687788D01*
X9181882Y8718455D01*
X9141619Y8743128D01*
X9097993Y8761199D01*
X9052076Y8772222D01*
X9005001Y8775927D01*
D02*
G37*
G36*
X515000D02*
X467925Y8772222D01*
X422009Y8761199D01*
X378382Y8743128D01*
X338119Y8718455D01*
X302212Y8687788D01*
X271545Y8651880D01*
X246872Y8611618D01*
X228801Y8567991D01*
X217778Y8522075D01*
X214073Y8475000D01*
X217778Y8427924D01*
X228801Y8382008D01*
X246872Y8338381D01*
X271545Y8298119D01*
X302212Y8262212D01*
X338119Y8231544D01*
X378382Y8206871D01*
X422009Y8188800D01*
X467925Y8177777D01*
X515000Y8174072D01*
X562076Y8177777D01*
X607992Y8188800D01*
X651618Y8206871D01*
X691881Y8231544D01*
X727788Y8262212D01*
X758456Y8298119D01*
X783129Y8338381D01*
X801199Y8382008D01*
X812223Y8427924D01*
X815928Y8475000D01*
X812223Y8522075D01*
X801199Y8567991D01*
X783129Y8611618D01*
X758456Y8651880D01*
X727788Y8687788D01*
X691881Y8718455D01*
X651618Y8743128D01*
X607992Y8761199D01*
X562076Y8772222D01*
X515000Y8775927D01*
D02*
G37*
G36*
X3955594Y8197300D02*
X3868700D01*
Y8110406D01*
X3882210Y8112185D01*
X3906633Y8122301D01*
X3927606Y8138394D01*
X3943699Y8159367D01*
X3953816Y8183791D01*
X3955594Y8197300D01*
D02*
G37*
G36*
X3843300D02*
X3756406D01*
X3758185Y8183791D01*
X3768301Y8159367D01*
X3784394Y8138394D01*
X3805367Y8122301D01*
X3829790Y8112185D01*
X3843300Y8110406D01*
Y8197300D01*
D02*
G37*
G36*
X1476853Y8329993D02*
Y8012699D01*
X1681097D01*
Y8114299D01*
X1676929Y8156623D01*
X1664583Y8197320D01*
X1644535Y8234827D01*
X1617556Y8267702D01*
X1584681Y8294682D01*
X1547174Y8314730D01*
X1506476Y8327075D01*
X1476853Y8329993D01*
D02*
G37*
G36*
X1451453D02*
X1421829Y8327075D01*
X1381131Y8314730D01*
X1343624Y8294682D01*
X1310749Y8267702D01*
X1283770Y8234827D01*
X1263722Y8197320D01*
X1251376Y8156623D01*
X1247208Y8114299D01*
Y8012699D01*
X1451453D01*
Y8329993D01*
D02*
G37*
G36*
X3843301Y8055595D02*
X3829790Y8053816D01*
X3805367Y8043699D01*
X3784394Y8027607D01*
X3768301Y8006633D01*
X3758185Y7982210D01*
X3756406Y7968700D01*
X3843301D01*
Y8055595D01*
D02*
G37*
G36*
Y7943300D02*
X3756406D01*
X3758185Y7929791D01*
X3768301Y7905367D01*
X3784394Y7884394D01*
X3805367Y7868301D01*
X3829790Y7858185D01*
X3843301Y7856406D01*
Y7943300D01*
D02*
G37*
G36*
X3757001Y7768330D02*
Y7762596D01*
X3762735D01*
X3757001Y7768330D01*
D02*
G37*
G36*
X8221502Y8015796D02*
X8189157Y8012611D01*
X8158054Y8003176D01*
X8129390Y7987854D01*
X8104265Y7967235D01*
X8083646Y7942111D01*
X8068325Y7913446D01*
X8058890Y7882344D01*
X8055704Y7849998D01*
X8058890Y7817652D01*
X8068325Y7786550D01*
X8083646Y7757885D01*
X8104265Y7732761D01*
X8129390Y7712142D01*
X8158054Y7696821D01*
X8189157Y7687385D01*
X8221502Y7684200D01*
X8253848Y7687385D01*
X8284950Y7696821D01*
X8313615Y7712142D01*
X8338739Y7732761D01*
X8359358Y7757885D01*
X8374680Y7786550D01*
X8384115Y7817652D01*
X8387300Y7849998D01*
X8384115Y7882344D01*
X8374680Y7913446D01*
X8359358Y7942111D01*
X8338739Y7967235D01*
X8313615Y7987854D01*
X8284950Y8003176D01*
X8253848Y8012611D01*
X8221502Y8015796D01*
D02*
G37*
G36*
X7078502D02*
X7046157Y8012611D01*
X7015054Y8003176D01*
X6986390Y7987854D01*
X6961265Y7967235D01*
X6940646Y7942111D01*
X6925325Y7913446D01*
X6915890Y7882344D01*
X6912704Y7849998D01*
X6915890Y7817652D01*
X6925325Y7786550D01*
X6940646Y7757885D01*
X6961265Y7732761D01*
X6986390Y7712142D01*
X7015054Y7696821D01*
X7046157Y7687385D01*
X7078502Y7684200D01*
X7110848Y7687385D01*
X7141950Y7696821D01*
X7170615Y7712142D01*
X7195739Y7732761D01*
X7216358Y7757885D01*
X7231680Y7786550D01*
X7241115Y7817652D01*
X7244300Y7849998D01*
X7241115Y7882344D01*
X7231680Y7913446D01*
X7216358Y7942111D01*
X7195739Y7967235D01*
X7170615Y7987854D01*
X7141950Y8003176D01*
X7110848Y8012611D01*
X7078502Y8015796D01*
D02*
G37*
G36*
X1681097Y7987299D02*
X1476853D01*
Y7670005D01*
X1506476Y7672923D01*
X1547174Y7685268D01*
X1584681Y7705316D01*
X1617556Y7732296D01*
X1644535Y7765171D01*
X1664583Y7802678D01*
X1676929Y7843375D01*
X1681097Y7885699D01*
Y7987299D01*
D02*
G37*
G36*
X1451453D02*
X1247208D01*
Y7885699D01*
X1251376Y7843375D01*
X1263722Y7802678D01*
X1283770Y7765171D01*
X1310749Y7732296D01*
X1343624Y7705316D01*
X1381131Y7685268D01*
X1421829Y7672923D01*
X1451453Y7670005D01*
Y7987299D01*
D02*
G37*
G36*
X2416653Y8304799D02*
X2035653D01*
Y7695199D01*
X2047215D01*
Y7669799D01*
X2150805D01*
Y7695199D01*
X2416653D01*
Y8304799D01*
D02*
G37*
G36*
X3678031Y7700801D02*
X3667510Y7675401D01*
X3539679D01*
Y7613847D01*
X3318745D01*
Y7675400D01*
X3137945D01*
Y7474600D01*
X3318745D01*
Y7536154D01*
X3539679D01*
Y7474602D01*
X3700479D01*
Y7642432D01*
X3725879Y7652953D01*
X3715241Y7648547D01*
X3704681Y7655603D01*
Y7681681D01*
X3681541D01*
X3674485Y7692241D01*
X3678031Y7700801D01*
D02*
G37*
G36*
X8424504Y7695863D02*
X8398399Y7692426D01*
X8374073Y7682350D01*
X8353183Y7666321D01*
X8337154Y7645431D01*
X8327078Y7621105D01*
X8323641Y7595000D01*
Y7558746D01*
X6976363D01*
Y7595000D01*
X6972926Y7621105D01*
X6962850Y7645431D01*
X6946821Y7666321D01*
X6925932Y7682350D01*
X6901606Y7692426D01*
X6875500Y7695863D01*
X6849395Y7692426D01*
X6825069Y7682350D01*
X6804179Y7666321D01*
X6788151Y7645431D01*
X6778074Y7621105D01*
X6774637Y7595000D01*
Y7495000D01*
X6778074Y7468895D01*
X6788151Y7444569D01*
X6804179Y7423679D01*
X6825069Y7407650D01*
X6849395Y7397574D01*
X6861754Y7395947D01*
Y6937152D01*
X6861754Y6937151D01*
X6865780Y6927431D01*
X6880659Y6912553D01*
X6880659Y6912552D01*
X6890379Y6908526D01*
X7132859D01*
X7136120Y6900653D01*
X7148944Y6883941D01*
X7165655Y6871118D01*
X7185116Y6863057D01*
X7206000Y6860308D01*
X7226884Y6863057D01*
X7246345Y6871118D01*
X7263057Y6883941D01*
X7275880Y6900653D01*
X7283941Y6920114D01*
X7286690Y6940998D01*
Y6980998D01*
X7283941Y7001882D01*
X7275880Y7021343D01*
X7263057Y7038055D01*
X7246345Y7050878D01*
X7226884Y7058939D01*
X7206000Y7061688D01*
X7185116Y7058939D01*
X7165655Y7050878D01*
X7148944Y7038055D01*
X7136120Y7021343D01*
X7128059Y7001882D01*
X7125310Y6980998D01*
Y6940998D01*
X7120943Y6936019D01*
X6896073D01*
X6889247Y6942846D01*
Y7395947D01*
X6901606Y7397574D01*
X6925932Y7407650D01*
X6946821Y7423679D01*
X6962850Y7444569D01*
X6972926Y7468895D01*
X6976363Y7495000D01*
Y7531253D01*
X8323641D01*
Y7495000D01*
X8327078Y7468895D01*
X8337154Y7444569D01*
X8353183Y7423679D01*
X8374073Y7407650D01*
X8398399Y7397574D01*
X8424504Y7394137D01*
X8450609Y7397574D01*
X8474936Y7407650D01*
X8495825Y7423679D01*
X8511854Y7444569D01*
X8521930Y7468895D01*
X8525367Y7495000D01*
Y7531253D01*
X8594306D01*
X8702652Y7422907D01*
X8692131Y7397507D01*
X8645000D01*
Y7227508D01*
X8815000D01*
Y7397507D01*
X8747984D01*
X8738018Y7420729D01*
X8733992Y7430449D01*
X8609720Y7554720D01*
X8600000Y7558747D01*
X8600000Y7558746D01*
X8525367D01*
Y7595000D01*
X8521930Y7621105D01*
X8511854Y7645431D01*
X8495825Y7666321D01*
X8474936Y7682350D01*
X8450609Y7692426D01*
X8424504Y7695863D01*
D02*
G37*
G36*
X4579498Y8560904D02*
X4543029Y8556103D01*
X4509045Y8542026D01*
X4479863Y8519634D01*
X4457470Y8490451D01*
X4443394Y8456467D01*
X4438593Y8419998D01*
X4443394Y8383529D01*
X4457470Y8349546D01*
X4479863Y8320363D01*
X4509045Y8297971D01*
X4543029Y8283894D01*
X4553600Y8282502D01*
Y7857830D01*
X4555572Y7847920D01*
X4561186Y7839518D01*
X4660001Y7740703D01*
Y7147328D01*
X5215001D01*
Y7777327D01*
X4696626D01*
X4605396Y7868558D01*
Y8282502D01*
X4615967Y8283894D01*
X4649951Y8297971D01*
X4679133Y8320363D01*
X4701526Y8349546D01*
X4715602Y8383529D01*
X4720404Y8419998D01*
X4715602Y8456467D01*
X4701526Y8490451D01*
X4679133Y8519634D01*
X4649951Y8542026D01*
X4615967Y8556103D01*
X4579498Y8560904D01*
D02*
G37*
G36*
X2917002Y8568407D02*
X2880533Y8563606D01*
X2846549Y8549529D01*
X2817367Y8527137D01*
X2794974Y8497954D01*
X2780898Y8463971D01*
X2776097Y8427502D01*
X2780898Y8391032D01*
X2794974Y8357049D01*
X2817367Y8327866D01*
X2846549Y8305474D01*
X2880533Y8291397D01*
X2903256Y8288406D01*
Y7706341D01*
X2903255Y7706341D01*
X2907282Y7696621D01*
X2973343Y7630559D01*
Y7500000D01*
X3039598D01*
Y7423577D01*
X3039597Y7423576D01*
X3043624Y7413856D01*
X3058503Y7398978D01*
X3058503Y7398977D01*
X3068223Y7394951D01*
X3475608D01*
X3590002Y7280558D01*
Y7199998D01*
X3631255D01*
Y7163196D01*
X3604298Y7136238D01*
X3595000Y7138088D01*
X3583295Y7135759D01*
X3573371Y7129129D01*
X3566741Y7119205D01*
X3564412Y7107500D01*
X3566741Y7095795D01*
X3573371Y7085871D01*
X3581253Y7080604D01*
Y6951821D01*
X3544680D01*
Y6801822D01*
X3674680D01*
Y6951821D01*
X3608746D01*
Y7080604D01*
X3616629Y7085871D01*
X3623259Y7095795D01*
X3625588Y7107500D01*
X3623738Y7116798D01*
X3654722Y7147781D01*
X3658748Y7157502D01*
X3658748Y7157502D01*
Y7199998D01*
X3700001D01*
Y7299998D01*
X3609442D01*
X3491023Y7418418D01*
X3481302Y7422444D01*
X3481302Y7422444D01*
X3073917D01*
X3067091Y7429271D01*
Y7500000D01*
X3103343D01*
Y7650000D01*
X2992784D01*
X2930749Y7712035D01*
Y8288406D01*
X2953471Y8291397D01*
X2987455Y8305474D01*
X3016637Y8327866D01*
X3039030Y8357049D01*
X3053106Y8391032D01*
X3057908Y8427502D01*
X3053106Y8463971D01*
X3039030Y8497954D01*
X3016637Y8527137D01*
X2987455Y8549529D01*
X2953471Y8563606D01*
X2917002Y8568407D01*
D02*
G37*
G36*
X7333000Y7315688D02*
X7312116Y7312939D01*
X7292655Y7304878D01*
X7275944Y7292055D01*
X7263120Y7275343D01*
X7255059Y7255882D01*
X7252310Y7234998D01*
Y7194998D01*
X7255059Y7174114D01*
X7263120Y7154653D01*
X7275944Y7137941D01*
X7292655Y7125118D01*
X7312116Y7117057D01*
X7333000Y7114308D01*
X7353884Y7117057D01*
X7373345Y7125118D01*
X7390057Y7137941D01*
X7402880Y7154653D01*
X7410941Y7174114D01*
X7413690Y7194998D01*
Y7234998D01*
X7410941Y7255882D01*
X7402880Y7275343D01*
X7390057Y7292055D01*
X7373345Y7304878D01*
X7353884Y7312939D01*
X7333000Y7315688D01*
D02*
G37*
G36*
X7587000Y7325936D02*
X7563464Y7322838D01*
X7541531Y7313753D01*
X7522697Y7299301D01*
X7508246Y7280467D01*
X7499161Y7258535D01*
X7496062Y7234998D01*
Y7194998D01*
X7499161Y7171461D01*
X7508246Y7149529D01*
X7522697Y7130695D01*
X7541531Y7116243D01*
X7563464Y7107159D01*
X7587000Y7104060D01*
X7610536Y7107159D01*
X7632469Y7116243D01*
X7651303Y7130695D01*
X7665755Y7149529D01*
X7674839Y7171461D01*
X7677938Y7194998D01*
Y7234998D01*
X7674839Y7258535D01*
X7665755Y7280467D01*
X7651303Y7299301D01*
X7632469Y7313753D01*
X7610536Y7322838D01*
X7587000Y7325936D01*
D02*
G37*
G36*
X5687289Y8560904D02*
X5650820Y8556103D01*
X5616836Y8542026D01*
X5587653Y8519634D01*
X5565261Y8490451D01*
X5551184Y8456467D01*
X5546383Y8419998D01*
X5551184Y8383529D01*
X5565261Y8349546D01*
X5587653Y8320363D01*
X5616836Y8297971D01*
X5650820Y8283894D01*
X5667865Y8281650D01*
Y7860289D01*
X5669344Y7852856D01*
X5673554Y7846555D01*
X5673555Y7846554D01*
X5842574Y7677533D01*
Y7074998D01*
X6397574D01*
Y7704998D01*
X5870046D01*
X5706712Y7868334D01*
Y8281650D01*
X5723758Y8283894D01*
X5757741Y8297971D01*
X5786924Y8320363D01*
X5809316Y8349546D01*
X5823393Y8383529D01*
X5828194Y8419998D01*
X5823393Y8456467D01*
X5809316Y8490451D01*
X5786924Y8519634D01*
X5757741Y8542026D01*
X5723758Y8556103D01*
X5687289Y8560904D01*
D02*
G37*
G36*
X5178201Y7056459D02*
Y7015200D01*
X5219460D01*
X5217687Y7024116D01*
X5205443Y7042442D01*
X5187117Y7054686D01*
X5178201Y7056459D01*
D02*
G37*
G36*
X5152801D02*
X5143886Y7054686D01*
X5125560Y7042442D01*
X5113316Y7024116D01*
X5111542Y7015200D01*
X5152801D01*
Y7056459D01*
D02*
G37*
G36*
X5219460Y6989800D02*
X5178201D01*
Y6948541D01*
X5187117Y6950315D01*
X5205443Y6962559D01*
X5217687Y6980884D01*
X5219460Y6989800D01*
D02*
G37*
G36*
X5152801D02*
X5111542D01*
X5113316Y6980884D01*
X5125560Y6962559D01*
X5143886Y6950315D01*
X5152801Y6948541D01*
Y6989800D01*
D02*
G37*
G36*
X3420200Y6930780D02*
Y6889521D01*
X3461459D01*
X3459686Y6898437D01*
X3447441Y6916763D01*
X3429116Y6929007D01*
X3420200Y6930780D01*
D02*
G37*
G36*
X3394800D02*
X3385884Y6929007D01*
X3367559Y6916763D01*
X3355315Y6898437D01*
X3353541Y6889521D01*
X3394800D01*
Y6930780D01*
D02*
G37*
G36*
X3461459Y6864121D02*
X3420200D01*
Y6822862D01*
X3429116Y6824636D01*
X3447441Y6836880D01*
X3459686Y6855205D01*
X3461459Y6864121D01*
D02*
G37*
G36*
X3394800D02*
X3353541D01*
X3355315Y6855205D01*
X3367559Y6836880D01*
X3385884Y6824636D01*
X3394800Y6822862D01*
Y6864121D01*
D02*
G37*
G36*
X3764701Y6667145D02*
X3756113Y6665437D01*
X3744879Y6663203D01*
X3764701Y6667145D01*
D02*
G37*
G36*
X757374Y7665403D02*
X571574D01*
Y7434603D01*
X625628D01*
Y7232902D01*
X514598D01*
Y7037102D01*
X770398D01*
Y7096156D01*
X1094998D01*
X1109864Y7099113D01*
X1122467Y7107534D01*
X1176087Y7161154D01*
X1206777D01*
Y7065036D01*
X1157274Y7015533D01*
X1148853Y7002930D01*
X1145896Y6988064D01*
Y6721717D01*
X1148853Y6706851D01*
X1157274Y6694249D01*
X1186702Y6664821D01*
Y6493199D01*
X1487502D01*
Y6713999D01*
X1247398D01*
X1223589Y6737808D01*
Y6971973D01*
X1260891Y7009275D01*
X1350252D01*
X1366699Y7012546D01*
X1380641Y7021862D01*
X1389957Y7035805D01*
X1393228Y7052251D01*
Y7347751D01*
X1389957Y7364197D01*
X1380641Y7378139D01*
X1366699Y7387455D01*
X1350252Y7390727D01*
X1249753D01*
X1233306Y7387455D01*
X1219364Y7378139D01*
X1210048Y7364197D01*
X1206777Y7347751D01*
Y7238847D01*
X1159997D01*
X1145131Y7235890D01*
X1132528Y7227469D01*
X1078907Y7173849D01*
X770398D01*
Y7232902D01*
X703321D01*
Y7434603D01*
X757374D01*
Y7665403D01*
D02*
G37*
G36*
X2273095Y6370536D02*
Y6329983D01*
X2274573Y6322549D01*
X2278783Y6316248D01*
X2279930Y6315102D01*
X2279412Y6312500D01*
X2281741Y6300795D01*
X2288371Y6290871D01*
X2298295Y6284241D01*
X2310000Y6281913D01*
X2321705Y6284241D01*
X2331629Y6290871D01*
X2338259Y6300795D01*
X2340588Y6312500D01*
X2338259Y6324206D01*
X2331629Y6334129D01*
X2321705Y6340759D01*
X2311941Y6342702D01*
Y6367900D01*
X2298980D01*
X2285795Y6362439D01*
X2273095Y6370536D01*
D02*
G37*
G36*
X5509358Y7845000D02*
X5355642D01*
Y6406149D01*
X5514597D01*
Y6264098D01*
X5514596Y6264098D01*
X5514596D01*
X5511856Y6251948D01*
X5514597Y6264098D01*
X5534758Y6264098D01*
X5785397D01*
Y6374507D01*
X5794828D01*
X5812172Y6377957D01*
X5826875Y6387781D01*
X5924120Y6485027D01*
X5933944Y6499730D01*
X5937394Y6517074D01*
Y6592094D01*
X5962473D01*
Y6867894D01*
X5821674D01*
Y6592094D01*
X5846753D01*
Y6535846D01*
X5792756Y6481849D01*
X5785396Y6484898D01*
Y6484898D01*
X5662821D01*
Y6633110D01*
X5669686Y6643384D01*
X5673985Y6665000D01*
X5669686Y6686616D01*
X5657441Y6704941D01*
X5639116Y6717185D01*
X5617500Y6721485D01*
X5595884Y6717185D01*
X5577559Y6704941D01*
X5565314Y6686616D01*
X5561015Y6665000D01*
X5565314Y6643384D01*
X5572179Y6633110D01*
Y6484898D01*
X5514597Y6484898D01*
X5509358Y6508128D01*
Y7845000D01*
D02*
G37*
G36*
X7241504Y8451110D02*
X7212747Y8447324D01*
X7185949Y8436224D01*
X7162937Y8418567D01*
X7145280Y8395555D01*
X7134180Y8368757D01*
X7130394Y8340000D01*
X7134180Y8311242D01*
X7141101Y8294533D01*
X7072531Y8225964D01*
X7072531Y8225963D01*
X6620032Y7773464D01*
X6611611Y7760861D01*
X6608654Y7745995D01*
Y6254950D01*
X6605400Y6230898D01*
X6583254Y6230898D01*
X6334600D01*
Y6010098D01*
X6424679D01*
Y5975321D01*
X6172682D01*
X6155338Y5971871D01*
X6140635Y5962047D01*
X6140635Y5962046D01*
X5923909Y5745321D01*
X5375146D01*
X5038269Y6082198D01*
X5048790Y6107598D01*
X5071478D01*
Y6157178D01*
X5094945Y6166898D01*
X5104326Y6157517D01*
X5119029Y6147693D01*
X5136020Y6144313D01*
Y6104164D01*
X5326819D01*
Y6274963D01*
X5326820D01*
Y6294161D01*
X5326819D01*
Y6464960D01*
X5276740D01*
Y6489496D01*
X5276741Y6489497D01*
X5273290Y6506840D01*
X5263466Y6521543D01*
X5149713Y6635296D01*
X5135010Y6645121D01*
X5117667Y6648570D01*
X5023867D01*
X4885321Y6787116D01*
Y6910000D01*
X4881871Y6927344D01*
X4872047Y6942047D01*
X4835473Y6978621D01*
X4820770Y6988445D01*
X4803427Y6991895D01*
X4610642D01*
X4483620Y7118916D01*
Y7453798D01*
X4480170Y7471142D01*
X4470346Y7485845D01*
X4174822Y7781369D01*
Y7870840D01*
X4195160D01*
Y8041160D01*
X4075944D01*
X4066224Y8064627D01*
X4128083Y8126486D01*
X4132231Y8127033D01*
X4152947Y8135613D01*
X4170737Y8149264D01*
X4184387Y8167053D01*
X4192968Y8187769D01*
X4195895Y8210000D01*
X4192968Y8232231D01*
X4184387Y8252948D01*
X4170737Y8270737D01*
X4152947Y8284387D01*
X4132231Y8292968D01*
X4110000Y8295895D01*
X4087769Y8292968D01*
X4067053Y8284387D01*
X4049263Y8270737D01*
X4035613Y8252948D01*
X4027032Y8232231D01*
X4024105Y8210000D01*
X4027032Y8187769D01*
X4035613Y8167053D01*
X4037719Y8164309D01*
X3950953Y8077543D01*
X3941129Y8062840D01*
X3938783Y8051046D01*
X3924266Y8042260D01*
X3912279Y8039367D01*
X3906633Y8043699D01*
X3882210Y8053816D01*
X3868701Y8055595D01*
Y7956000D01*
Y7856406D01*
X3882210Y7858185D01*
X3906633Y7868301D01*
X3912279Y7872633D01*
X3937679Y7860107D01*
Y7437000D01*
X3941129Y7419656D01*
X3950953Y7404953D01*
X3985144Y7370763D01*
X3999847Y7360939D01*
X4017191Y7357488D01*
X4017192Y7357489D01*
X4123520D01*
Y7219163D01*
X4101055Y7212077D01*
X4094978Y7210868D01*
X4080275Y7201044D01*
X4057956Y7178726D01*
X4048132Y7164023D01*
X4044682Y7146679D01*
Y6449319D01*
X4018724D01*
X4008624Y6449320D01*
X3996126Y6474314D01*
X4002186Y6483384D01*
X4006485Y6505000D01*
X4002186Y6526616D01*
X3989941Y6544941D01*
X3971616Y6557186D01*
X3950000Y6561485D01*
X3928384Y6557186D01*
X3918110Y6550321D01*
X3796519D01*
X3779176Y6546871D01*
X3764473Y6537047D01*
X3656748Y6429322D01*
X3550041D01*
Y6273124D01*
X3526575Y6263404D01*
X3450002Y6339976D01*
Y6425002D01*
X3383747D01*
Y6525604D01*
X3391629Y6530871D01*
X3398259Y6540795D01*
X3400588Y6552500D01*
X3398259Y6564205D01*
X3391629Y6574129D01*
X3381705Y6580759D01*
X3370000Y6583088D01*
X3358295Y6580759D01*
X3348371Y6574129D01*
X3341741Y6564205D01*
X3339412Y6552500D01*
X3341741Y6540795D01*
X3348371Y6530871D01*
X3356254Y6525604D01*
Y6425002D01*
X3280002D01*
Y6280363D01*
X3280002Y6278217D01*
X3255598Y6254007D01*
X3260776Y6259144D01*
X3272500Y6254261D01*
Y6247500D01*
X3292937D01*
X3333025Y6239526D01*
X3370788Y6223884D01*
X3404773Y6201176D01*
X3433676Y6172273D01*
X3456384Y6138288D01*
X3472026Y6100526D01*
X3480000Y6060437D01*
Y6040000D01*
Y5650000D01*
X3480361Y5642648D01*
X3483229Y5628229D01*
X3488856Y5614645D01*
X3497024Y5602420D01*
X3507420Y5592024D01*
X3519645Y5583856D01*
X3533228Y5578229D01*
X3547648Y5575361D01*
X3555000Y5575000D01*
X4055000D01*
X4064311Y5575457D01*
X4082576Y5579090D01*
X4099782Y5586217D01*
X4115266Y5596563D01*
X4128434Y5609731D01*
X4138781Y5625215D01*
X4145908Y5642421D01*
X4149542Y5660685D01*
X4149999Y5669997D01*
X4150000D01*
Y5772952D01*
X4162700Y5775478D01*
X4168755Y5760861D01*
X4185040Y5739637D01*
X4206264Y5723352D01*
X4230979Y5713114D01*
X4244802Y5711294D01*
Y5837499D01*
Y5963704D01*
X4230979Y5961884D01*
X4206264Y5951647D01*
X4185040Y5935361D01*
X4168755Y5914138D01*
X4162700Y5899520D01*
X4150000Y5902046D01*
Y5962499D01*
X4351885Y6006814D01*
X4358333Y6005053D01*
X4370225Y5998946D01*
X4380600Y5990515D01*
X4389011Y5980125D01*
X4395097Y5968222D01*
X4398596Y5955320D01*
X4399356Y5941973D01*
X4398128Y5933903D01*
X4394998Y5922499D01*
X4394997Y5922499D01*
X4394998Y5922498D01*
X4395000Y5792500D01*
X4300357Y5588655D01*
X4273101Y5561398D01*
X4195512Y5494294D01*
X4182831Y5504701D01*
X4202560Y5488509D01*
X4197465Y5480884D01*
X4194015Y5463540D01*
Y4709135D01*
X4168615Y4696609D01*
X4163110Y4700833D01*
X4139903Y4710446D01*
X4114998Y4713725D01*
X4090094Y4710446D01*
X4066886Y4700833D01*
X4046958Y4685542D01*
X4031667Y4665613D01*
X4022054Y4642406D01*
X4018775Y4617502D01*
X4022054Y4592597D01*
X4031667Y4569390D01*
X4046958Y4549462D01*
X4066886Y4534170D01*
X4090094Y4524557D01*
X4114998Y4521278D01*
X4139903Y4524557D01*
X4163110Y4534170D01*
X4168615Y4538395D01*
X4194015Y4525869D01*
Y4156432D01*
X3930430Y3892847D01*
X3920605Y3878144D01*
X3917155Y3860800D01*
Y3140433D01*
X2917953Y2141230D01*
X2908129Y2126527D01*
X2904679Y2109184D01*
Y832721D01*
X2481656D01*
X2464313Y829271D01*
X2449610Y819447D01*
X2267953Y637790D01*
X2258129Y623087D01*
X2254679Y605744D01*
Y165000D01*
X2258129Y147656D01*
X2267953Y132953D01*
X2325453Y75453D01*
X2340156Y65629D01*
X2357500Y62179D01*
X2357501Y62179D01*
X3838836D01*
X3856180Y65629D01*
X3870883Y75453D01*
X4155239Y359809D01*
X4855130D01*
X4872474Y363259D01*
X4887177Y373083D01*
X5182687Y668593D01*
X5188408Y667844D01*
X5210107Y646738D01*
X5214050Y626917D01*
X5225278Y610114D01*
X5242081Y598886D01*
X5245760Y598154D01*
X5247236Y597167D01*
X5267058Y593225D01*
X5286879Y597167D01*
X5303682Y608395D01*
X5339492Y644205D01*
X5751499D01*
Y742783D01*
X5763106Y747938D01*
X5763263Y747796D01*
X5749321Y760396D01*
X5747351Y776171D01*
X5748859Y777680D01*
X5986810D01*
X6004154Y781130D01*
X6018857Y790954D01*
X6076980Y849077D01*
X6079131Y849505D01*
X6093834Y859329D01*
X6162210Y927705D01*
X6172034Y942408D01*
X6175484Y959751D01*
X6175484Y959753D01*
Y991502D01*
X6210563D01*
Y1142301D01*
X6174417D01*
Y1393406D01*
X6210482D01*
Y1544206D01*
X6175402D01*
Y1783403D01*
X6380485D01*
Y1948579D01*
X7035976D01*
X7043681Y1923179D01*
X7037042Y1918744D01*
X7024798Y1900418D01*
X7023025Y1891502D01*
X7130943D01*
X7129169Y1900418D01*
X7116925Y1918744D01*
X7110287Y1923179D01*
X7117991Y1948579D01*
X7849828D01*
X7954679Y1843728D01*
Y1188769D01*
X7857697Y1091786D01*
X7854907Y1092942D01*
X7830002Y1096221D01*
X7805098Y1092942D01*
X7781890Y1083330D01*
X7761962Y1068038D01*
X7746671Y1048110D01*
X7737058Y1024902D01*
X7733779Y999998D01*
X7737058Y975094D01*
X7746671Y951886D01*
X7761962Y931958D01*
X7781890Y916666D01*
X7805098Y907054D01*
X7830002Y903775D01*
X7854907Y907054D01*
X7878114Y916666D01*
X7898042Y931958D01*
X7913334Y951886D01*
X7922947Y975094D01*
X7926225Y999998D01*
X7922947Y1024902D01*
X7921791Y1027693D01*
X8032047Y1137949D01*
X8041871Y1152652D01*
X8045321Y1169996D01*
Y1862499D01*
X8045321Y1862500D01*
X8041871Y1879844D01*
X8032047Y1894547D01*
X8032046Y1894547D01*
X7931158Y1995435D01*
X7940879Y2018902D01*
X8166723D01*
X8184066Y2022352D01*
X8198769Y2032176D01*
X8292972Y2126379D01*
X8694496D01*
X8711840Y2129829D01*
X8726543Y2139653D01*
X8787131Y2200242D01*
X8787132Y2200242D01*
X8796956Y2214946D01*
X8800406Y2232289D01*
X8820400Y2244606D01*
X8835485D01*
Y2391153D01*
X9066052D01*
X9073758Y2365753D01*
X9065059Y2359941D01*
X9052815Y2341616D01*
X9051041Y2332700D01*
X9158959D01*
X9157186Y2341616D01*
X9144942Y2359941D01*
X9136243Y2365753D01*
X9143948Y2391153D01*
X9281650D01*
X9296516Y2394111D01*
X9309118Y2402531D01*
X9474969Y2568382D01*
X9483389Y2580984D01*
X9486347Y2595850D01*
Y3857501D01*
X9483389Y3872366D01*
X9474969Y3884969D01*
X9238967Y4120971D01*
X9226364Y4129392D01*
X9211498Y4132349D01*
X8642675D01*
X8420553Y4354470D01*
X8407950Y4362891D01*
X8393085Y4365848D01*
X7594571D01*
X7579705Y4362891D01*
X7572298Y4357942D01*
X7546898Y4366472D01*
Y4462073D01*
X7547142Y4463300D01*
Y4553403D01*
X7613830Y4620091D01*
X7623654Y4634794D01*
X7627104Y4652137D01*
X7627104Y4652139D01*
Y4984518D01*
X7657183D01*
Y5129120D01*
X7657183Y5145317D01*
X7657183Y5171638D01*
X7675144Y5189599D01*
X7743106D01*
Y5154520D01*
X7893906D01*
Y5315320D01*
X7863827D01*
Y5654974D01*
X8074547Y5865694D01*
X8084371Y5880397D01*
X8087821Y5897741D01*
X8087821Y5897742D01*
Y6400814D01*
X8087889D01*
X8084148Y6429232D01*
X8073668Y6454534D01*
X8073180Y6455713D01*
X8093871Y6469158D01*
X8094149Y6468796D01*
X8096331Y6465953D01*
X8118751Y6448750D01*
X8144859Y6437935D01*
X8172877Y6434247D01*
Y6434302D01*
X8256153D01*
X8274897Y6424694D01*
X8277584Y6409420D01*
Y5908953D01*
X8042705Y5674074D01*
X8032881Y5659371D01*
X8029431Y5642027D01*
Y5315320D01*
X7979829D01*
Y5170718D01*
X7979829Y5154520D01*
X7979829Y5129120D01*
Y5039455D01*
X7960414Y5020040D01*
X7959238Y5018279D01*
X7947941Y5010731D01*
X7935697Y4992406D01*
X7931397Y4970790D01*
X7935697Y4949174D01*
X7947941Y4930849D01*
X7966267Y4918605D01*
X7987883Y4914305D01*
X8009499Y4918605D01*
X8027824Y4930849D01*
X8040068Y4949174D01*
X8044368Y4970790D01*
X8055634Y4984518D01*
X8130629D01*
Y5129120D01*
X8130629Y5145317D01*
X8130629Y5171638D01*
X8148589Y5189599D01*
X8216552D01*
Y5154520D01*
X8367352D01*
Y5315320D01*
X8216552D01*
Y5280240D01*
X8130629D01*
Y5315320D01*
X8120072D01*
Y5623255D01*
X8354952Y5858134D01*
X8364776Y5872837D01*
X8368226Y5890181D01*
Y6423317D01*
X8368250D01*
X8364685Y6450391D01*
X8354235Y6475621D01*
X8337610Y6497286D01*
X8337593Y6497269D01*
X8336797Y6497802D01*
X8317993Y6512230D01*
X8295220Y6521663D01*
X8271719Y6524757D01*
X8270782Y6524944D01*
X8172877D01*
Y6525007D01*
X8166183Y6526338D01*
X8160508Y6530130D01*
X8156715Y6535806D01*
X8155384Y6542500D01*
X8155321D01*
Y6569532D01*
X8155262Y6569826D01*
X8157250Y6579818D01*
X8163076Y6588538D01*
X8171796Y6594365D01*
X8181788Y6596352D01*
X8182082Y6596294D01*
X8255787D01*
X8259934Y6597118D01*
X8273690Y6598930D01*
X8290374Y6605840D01*
X8301380Y6614285D01*
X8304897Y6616635D01*
X8305549Y6617612D01*
X8324320Y6640484D01*
X8338813Y6667599D01*
X8347738Y6697021D01*
X8350639Y6726467D01*
X8350867Y6727618D01*
Y6760354D01*
X8350803Y6760677D01*
X8350863Y6761001D01*
X8344736Y7189838D01*
X8342953Y7198179D01*
X8341291Y7206533D01*
X8341108Y7206807D01*
X8341039Y7207130D01*
X8336199Y7214154D01*
X8331467Y7221237D01*
X8305660Y7247044D01*
X8305660Y7247044D01*
X8290956Y7256869D01*
X8273613Y7260318D01*
X8182100D01*
X8173755Y7280467D01*
X8159303Y7299301D01*
X8140469Y7313753D01*
X8118536Y7322838D01*
X8095000Y7325936D01*
X8071464Y7322838D01*
X8049531Y7313753D01*
X8030697Y7299301D01*
X8016246Y7280467D01*
X8007161Y7258535D01*
X8004062Y7234998D01*
Y7194998D01*
X8007161Y7171461D01*
X8016246Y7149529D01*
X8030697Y7130695D01*
X8049531Y7116243D01*
X8071464Y7107159D01*
X8095000Y7104060D01*
X8118536Y7107159D01*
X8140469Y7116243D01*
X8159303Y7130695D01*
X8173755Y7149529D01*
X8182100Y7169677D01*
X8254374D01*
X8260226Y6760027D01*
Y6727618D01*
X8260328Y6727106D01*
X8258130Y6710412D01*
X8251489Y6694378D01*
X8245778Y6686935D01*
X8182082D01*
Y6687070D01*
X8151661Y6683065D01*
X8123313Y6671323D01*
X8113221Y6663578D01*
X8087821Y6676105D01*
Y6960998D01*
X8084371Y6978341D01*
X8074547Y6993045D01*
X8059843Y7002869D01*
X8055957Y7003642D01*
X8055839Y7004535D01*
X8046755Y7026467D01*
X8032303Y7045301D01*
X8013469Y7059753D01*
X7991536Y7068838D01*
X7968000Y7071936D01*
X7944464Y7068838D01*
X7922531Y7059753D01*
X7911721Y7051458D01*
X7886728Y7061966D01*
X7886321Y7062365D01*
Y7116182D01*
X7886469Y7116243D01*
X7905303Y7130695D01*
X7919755Y7149529D01*
X7928839Y7171461D01*
X7931938Y7194998D01*
Y7234998D01*
X7928839Y7258535D01*
X7919755Y7280467D01*
X7905303Y7299301D01*
X7886469Y7313753D01*
X7864536Y7322838D01*
X7841000Y7325936D01*
X7817464Y7322838D01*
X7795531Y7313753D01*
X7776697Y7299301D01*
X7762246Y7280467D01*
X7753161Y7258535D01*
X7750062Y7234998D01*
Y7194998D01*
X7753161Y7171461D01*
X7762246Y7149529D01*
X7776697Y7130695D01*
X7795531Y7116243D01*
X7795679Y7116182D01*
Y7062365D01*
X7795272Y7061966D01*
X7770279Y7051458D01*
X7759469Y7059753D01*
X7737536Y7068838D01*
X7714000Y7071936D01*
X7690464Y7068838D01*
X7668531Y7059753D01*
X7649697Y7045301D01*
X7635246Y7026467D01*
X7626161Y7004535D01*
X7623062Y6980998D01*
Y6940998D01*
X7626161Y6917461D01*
X7635246Y6895529D01*
X7649697Y6876695D01*
X7668531Y6862243D01*
X7690464Y6853159D01*
X7714000Y6850060D01*
X7737536Y6853159D01*
X7759469Y6862243D01*
X7770279Y6870538D01*
X7795272Y6860030D01*
X7795679Y6859631D01*
Y6690649D01*
X7777565Y6672535D01*
X7639801Y6672536D01*
X7637443Y6672067D01*
X7618250Y6669540D01*
X7608144Y6666266D01*
X7608143Y6666266D01*
X7608002Y6666238D01*
X7604293Y6663759D01*
X7594294Y6659617D01*
X7570522Y6641376D01*
X7552281Y6617604D01*
X7540814Y6589921D01*
X7537559Y6565202D01*
X7536903Y6560214D01*
X7536904Y6560197D01*
X7537738Y6541578D01*
X7539544Y6526985D01*
X7540712Y6522650D01*
X7541699Y6515878D01*
X7542367Y6510804D01*
X7550685Y6490723D01*
X7552344Y6488561D01*
X7553333Y6486155D01*
X7559964Y6476167D01*
X7563588Y6472521D01*
X7571280Y6462497D01*
X7578333Y6457085D01*
X7578836Y6456333D01*
X7582531Y6453864D01*
X7582583Y6453824D01*
X7585743Y6450671D01*
X7587880Y6449788D01*
X7589491Y6448553D01*
X7592100Y6447472D01*
X7593540Y6446510D01*
X7595237Y6446172D01*
X7609572Y6440235D01*
X7625594Y6438125D01*
X7628898Y6437467D01*
X7628898Y6437461D01*
X7629962Y6437256D01*
X7630298Y6437323D01*
X7665459Y6433860D01*
X7677179Y6430305D01*
Y6302725D01*
X7220453Y5845999D01*
X7210629Y5831296D01*
X7207179Y5813953D01*
Y5640960D01*
X7104280Y5538060D01*
X7094456Y5523357D01*
X7091006Y5506014D01*
Y5315320D01*
X7057237D01*
X7046413Y5315320D01*
X7029839Y5337076D01*
X7029942Y5340058D01*
X7033236Y5344990D01*
X7042186Y5358384D01*
X7046485Y5380000D01*
X7042186Y5401616D01*
X7029941Y5419941D01*
X7011616Y5432185D01*
X6990000Y5436485D01*
X6968384Y5432185D01*
X6950059Y5419941D01*
X6937814Y5401616D01*
X6937375Y5399406D01*
X6900675D01*
X6885809Y5396449D01*
X6873206Y5388028D01*
X6844146Y5358968D01*
X6835725Y5346365D01*
X6832768Y5331500D01*
Y5315320D01*
X6796214D01*
Y5170718D01*
X6796214Y5154520D01*
X6796214Y5129120D01*
Y4984518D01*
X6947014D01*
Y5026071D01*
X7032937D01*
Y4984518D01*
X7183737D01*
Y5026071D01*
X7269660D01*
Y4984518D01*
X7420460D01*
Y5129120D01*
X7420460Y5145317D01*
X7420460Y5170718D01*
Y5315320D01*
X7416178D01*
X7405657Y5340720D01*
X7458709Y5393772D01*
X7460000Y5393515D01*
X7481616Y5397814D01*
X7499941Y5410059D01*
X7512186Y5428384D01*
X7516485Y5450000D01*
X7512186Y5471616D01*
X7499941Y5489941D01*
X7481616Y5502186D01*
X7460000Y5506485D01*
X7438384Y5502186D01*
X7420059Y5489941D01*
X7407814Y5471616D01*
X7403515Y5450000D01*
X7403772Y5448709D01*
X7317592Y5362529D01*
X7309171Y5349926D01*
X7306214Y5335060D01*
Y5315320D01*
X7269660D01*
Y5170718D01*
X7269660Y5154520D01*
X7269660Y5129164D01*
X7269553Y5103764D01*
X7201698D01*
X7183737Y5121725D01*
X7183737Y5145317D01*
X7183737Y5170718D01*
Y5315320D01*
X7181648D01*
Y5487241D01*
X7284547Y5590140D01*
X7294371Y5604843D01*
X7297821Y5622187D01*
X7297821Y5622188D01*
Y5795180D01*
X7754547Y6251906D01*
X7764371Y6266609D01*
X7767821Y6283953D01*
X7767821Y6283954D01*
Y6410968D01*
X7767821Y6436189D01*
X7767788Y6436355D01*
X7767788D01*
X7767299Y6438813D01*
X7764825Y6457600D01*
X7756507Y6477681D01*
X7743275Y6494926D01*
X7729538Y6505467D01*
X7726032Y6508158D01*
X7715108Y6512683D01*
X7712378Y6514508D01*
X7707580Y6515801D01*
X7707580Y6515800D01*
X7707383Y6515641D01*
X7671314Y6524301D01*
X7658625Y6525299D01*
X7635227Y6527208D01*
X7629100Y6551643D01*
X7628391Y6556197D01*
X7636713Y6578629D01*
X7640491Y6581153D01*
X7642279Y6581894D01*
X7755872Y6581894D01*
X7773449Y6581893D01*
X7796309Y6563085D01*
X7796552Y6562782D01*
X7795544Y6555132D01*
X7795679D01*
Y6528100D01*
X7795624D01*
X7799313Y6500082D01*
X7810127Y6473973D01*
X7827331Y6451553D01*
X7849751Y6434350D01*
X7875859Y6423535D01*
X7903877Y6419847D01*
Y6419902D01*
X7978091D01*
Y6419869D01*
X7985383Y6418418D01*
X7991565Y6414288D01*
X7995696Y6408106D01*
X7997146Y6400814D01*
X7997179D01*
Y5916513D01*
X7786459Y5705793D01*
X7776635Y5691090D01*
X7773185Y5673747D01*
Y5315320D01*
X7743106D01*
Y5280240D01*
X7657183D01*
Y5315320D01*
X7506383D01*
Y5170718D01*
X7506383Y5154520D01*
X7506383Y5129120D01*
Y4984518D01*
X7536462D01*
Y4693732D01*
X7526993Y4686402D01*
X7497437Y4687231D01*
X7479112Y4699475D01*
X7457496Y4703775D01*
X7435880Y4699475D01*
X7417555Y4687231D01*
X7406443Y4670600D01*
X7405310Y4668906D01*
X7404625Y4667796D01*
X7402106Y4664118D01*
X7376919Y4671262D01*
Y4759656D01*
X7384965Y4765032D01*
X7393386Y4777634D01*
X7396343Y4792500D01*
X7393386Y4807366D01*
X7384965Y4819969D01*
X7372362Y4828390D01*
X7357496Y4831347D01*
X6957497D01*
X6942631Y4828390D01*
X6930028Y4819969D01*
X6921607Y4807366D01*
X6918650Y4792500D01*
X6921607Y4777634D01*
X6930028Y4765032D01*
X6941231Y4757546D01*
Y4671850D01*
X6942709Y4664417D01*
X6946907Y4658134D01*
Y4522764D01*
X6946907Y4522764D01*
X6950934Y4513044D01*
X6962577Y4501400D01*
X6952056Y4476000D01*
X6943497D01*
Y4360359D01*
X6918097Y4349838D01*
X6290545Y4977390D01*
X6277942Y4985811D01*
X6263076Y4988768D01*
X6236840D01*
Y5030988D01*
X6322764D01*
Y4984518D01*
X6473563D01*
Y5026071D01*
X6559492D01*
Y4984518D01*
X6710291D01*
Y5129120D01*
X6710292Y5145317D01*
X6710291Y5170718D01*
Y5315320D01*
X6695072D01*
Y5389563D01*
X7492047Y6186538D01*
X7501871Y6201241D01*
X7505321Y6218585D01*
Y6403066D01*
X7505376D01*
X7501689Y6431074D01*
X7490878Y6457174D01*
X7473681Y6479585D01*
X7473642Y6479547D01*
X7472614Y6480233D01*
X7449980Y6498808D01*
X7423083Y6513185D01*
X7393899Y6522038D01*
X7364759Y6524908D01*
X7363547Y6525149D01*
X7345370D01*
X7344796Y6526013D01*
X7340892Y6551115D01*
X7349213Y6573547D01*
X7352991Y6576072D01*
X7354780Y6576813D01*
X7414669Y6576812D01*
X7417026Y6577281D01*
X7436220Y6579808D01*
X7456301Y6588126D01*
X7466684Y6596092D01*
X7469209Y6597340D01*
X7474699Y6601558D01*
X7476951Y6603991D01*
X7479132Y6605448D01*
X7479138Y6605455D01*
X7483999Y6610316D01*
X7484001Y6610317D01*
X7487111Y6614971D01*
X7487110Y6614972D01*
X7488094Y6616443D01*
X7494007Y6624151D01*
X7502325Y6644232D01*
X7504852Y6663425D01*
X7505321Y6665782D01*
Y6862182D01*
X7505469Y6862243D01*
X7524303Y6876695D01*
X7538755Y6895529D01*
X7547839Y6917461D01*
X7550938Y6940998D01*
Y6980998D01*
X7547839Y7004535D01*
X7538755Y7026467D01*
X7524303Y7045301D01*
X7505469Y7059753D01*
X7483536Y7068838D01*
X7460000Y7071936D01*
X7436464Y7068838D01*
X7414531Y7059753D01*
X7395697Y7045301D01*
X7381246Y7026467D01*
X7372161Y7004535D01*
X7369062Y6980998D01*
Y6940998D01*
X7372161Y6917461D01*
X7381246Y6895529D01*
X7395697Y6876695D01*
X7414531Y6862243D01*
X7414679Y6862182D01*
Y6691823D01*
X7390230Y6667454D01*
X7352301Y6667454D01*
X7349944Y6666985D01*
X7330751Y6664459D01*
X7320644Y6661185D01*
X7320644Y6661184D01*
X7320503Y6661156D01*
X7316793Y6658677D01*
X7306794Y6654536D01*
X7283022Y6636295D01*
X7264781Y6612523D01*
X7253314Y6584840D01*
X7250060Y6560120D01*
X7249403Y6555132D01*
X7249404Y6555116D01*
X7250239Y6536497D01*
X7252045Y6521903D01*
X7253212Y6517568D01*
X7254200Y6510796D01*
X7254868Y6505723D01*
X7263186Y6485641D01*
X7264845Y6483479D01*
X7265833Y6481073D01*
X7272464Y6471085D01*
X7276166Y6467362D01*
X7283137Y6458277D01*
X7300381Y6445045D01*
X7316247Y6438473D01*
X7317018Y6437957D01*
X7318056Y6437724D01*
X7320462Y6436727D01*
X7325395Y6436077D01*
X7325437Y6436283D01*
X7334362Y6434508D01*
X7363547D01*
X7365728Y6434941D01*
X7388775Y6430357D01*
X7389965Y6429561D01*
X7399894Y6422369D01*
X7414615Y6403066D01*
X7414679Y6403002D01*
Y6237357D01*
X6617705Y5440383D01*
X6617313Y5439797D01*
X6611659Y5438482D01*
X6587927Y5441537D01*
X6580641Y5452441D01*
X6562316Y5464686D01*
X6540700Y5468986D01*
X6519084Y5464686D01*
X6500759Y5452441D01*
X6500027Y5451347D01*
X6438168D01*
X6423303Y5448390D01*
X6410700Y5439969D01*
X6370695Y5399964D01*
X6362274Y5387361D01*
X6359317Y5372495D01*
Y5315320D01*
X6322764D01*
Y5170718D01*
X6322763Y5154520D01*
X6322764Y5126642D01*
X6304803Y5108681D01*
X6254801D01*
X6236840Y5126642D01*
X6236841Y5145317D01*
X6236840Y5170718D01*
Y5315320D01*
X6200287D01*
Y5380471D01*
X6930970Y6111153D01*
X7085121D01*
X7099987Y6114110D01*
X7112590Y6122531D01*
X7127469Y6137410D01*
X7135889Y6150013D01*
X7138847Y6164879D01*
Y6359327D01*
X7139941Y6360059D01*
X7152186Y6378384D01*
X7156485Y6400000D01*
X7152186Y6421616D01*
X7139941Y6439941D01*
X7121616Y6452185D01*
X7100000Y6456485D01*
X7078384Y6452185D01*
X7060059Y6439941D01*
X7047814Y6421616D01*
X7043515Y6400000D01*
X7047814Y6378384D01*
X7060059Y6360059D01*
X7061154Y6359327D01*
Y6188846D01*
X6914879D01*
X6900013Y6185889D01*
X6887410Y6177468D01*
X6711747Y6001805D01*
X6686347Y6012326D01*
Y7729905D01*
X7127469Y8171027D01*
X7127469Y8171027D01*
X7196038Y8239596D01*
X7212747Y8232675D01*
X7241504Y8228889D01*
X7270262Y8232675D01*
X7297059Y8243775D01*
X7320071Y8261433D01*
X7337729Y8284444D01*
X7348829Y8311242D01*
X7352615Y8340000D01*
X7348829Y8368757D01*
X7337729Y8395555D01*
X7320071Y8418567D01*
X7297059Y8436224D01*
X7270262Y8447324D01*
X7241504Y8451110D01*
D02*
G37*
G36*
X931099Y6713999D02*
X630299D01*
Y6493199D01*
X735379D01*
Y6425194D01*
X738829Y6407850D01*
X748653Y6393147D01*
X1030165Y6111635D01*
X1030314Y6110884D01*
X1034728Y6104279D01*
Y6051860D01*
X1016767Y6033900D01*
X999649D01*
X974248Y6033900D01*
X829652D01*
Y5883100D01*
X871205D01*
Y5684402D01*
X825312D01*
Y5563602D01*
X1036112D01*
Y5684402D01*
X948898D01*
Y5865139D01*
X966859Y5883100D01*
X990451Y5883099D01*
X1015852Y5883100D01*
X1096355D01*
X1196501Y5782954D01*
X1196502Y5782953D01*
X1211205Y5773129D01*
X1228548Y5769679D01*
X1228549Y5769679D01*
X1340708D01*
X1400586Y5709802D01*
X1390065Y5684402D01*
X1365316D01*
Y5563602D01*
X1576116D01*
Y5684402D01*
X1531322D01*
X1516037Y5703765D01*
X1512587Y5721109D01*
X1502763Y5735812D01*
X1502762Y5735812D01*
X1391528Y5847047D01*
X1376825Y5856871D01*
X1359481Y5860321D01*
X1247321D01*
X1160449Y5947193D01*
Y6033900D01*
X1126595D01*
Y6098776D01*
X1134686Y6110884D01*
X1138985Y6132500D01*
X1134686Y6154116D01*
X1122441Y6172442D01*
X1104116Y6184686D01*
X1082500Y6188986D01*
X1081249Y6188737D01*
X826020Y6443966D01*
Y6493199D01*
X931099D01*
Y6713999D01*
D02*
G37*
G36*
X5577696Y5954704D02*
Y5900000D01*
X5552296D01*
Y5954704D01*
X5533615Y5946966D01*
X5525901Y5939252D01*
X5513201Y5944513D01*
Y5900000D01*
X5517144Y5880179D01*
X5528372Y5863375D01*
X5545175Y5852147D01*
X5564996Y5848205D01*
X5584818Y5852147D01*
X5601621Y5863375D01*
X5612849Y5880179D01*
X5616792Y5900000D01*
Y5944513D01*
X5604092Y5939252D01*
X5596378Y5946966D01*
X5577696Y5954704D01*
D02*
G37*
G36*
X7572500Y5981485D02*
X7550884Y5977186D01*
X7532559Y5964941D01*
X7520315Y5946616D01*
X7516015Y5925000D01*
X7520315Y5903384D01*
X7532559Y5885059D01*
X7550884Y5872815D01*
X7572500Y5868515D01*
X7594116Y5872815D01*
X7612441Y5885059D01*
X7624686Y5903384D01*
X7628986Y5925000D01*
X7624686Y5946616D01*
X7612441Y5964941D01*
X7594116Y5977186D01*
X7572500Y5981485D01*
D02*
G37*
G36*
X4270202Y5963704D02*
Y5850199D01*
X4359979D01*
Y5862899D01*
X4356487Y5889422D01*
X4346250Y5914138D01*
X4329964Y5935361D01*
X4308741Y5951647D01*
X4284025Y5961884D01*
X4270202Y5963704D01*
D02*
G37*
G36*
X3228802D02*
X3214979Y5961884D01*
X3190264Y5951647D01*
X3169040Y5935361D01*
X3152755Y5914138D01*
X3142517Y5889422D01*
X3139025Y5862899D01*
Y5850199D01*
X3228802D01*
Y5963704D01*
D02*
G37*
G36*
X1797684Y5872233D02*
X1768446Y5842996D01*
X1760568Y5848260D01*
X1748863Y5850588D01*
X1737158Y5848260D01*
X1731920Y5844760D01*
X1713598Y5863082D01*
X1701897Y5851382D01*
X1697921Y5841783D01*
X1682940Y5838803D01*
X1675744Y5845999D01*
X1715476Y5806267D01*
X1715477Y5806266D01*
X1721778Y5802056D01*
X1725231Y5801369D01*
X1727234Y5798371D01*
X1737158Y5791741D01*
X1748863Y5789413D01*
X1760568Y5791741D01*
X1770492Y5798371D01*
X1771966Y5800577D01*
X1772919D01*
X1780352Y5802056D01*
X1786654Y5806266D01*
X1819464Y5839077D01*
X1815996Y5835609D01*
X1801095Y5838668D01*
X1795829Y5851382D01*
X1786331Y5860880D01*
X1797684Y5872233D01*
D02*
G37*
G36*
X3254202Y5963704D02*
Y5837499D01*
Y5711294D01*
X3268025Y5713114D01*
X3292741Y5723352D01*
X3313964Y5739637D01*
X3316707Y5743211D01*
X3338248Y5735899D01*
X3324564Y5740544D01*
X3318319Y5932334D01*
X3342107Y5940409D01*
X3316707Y5931787D01*
X3313964Y5935361D01*
X3292741Y5951647D01*
X3268025Y5961884D01*
X3254202Y5963704D01*
D02*
G37*
G36*
X4359979Y5824799D02*
X4270202D01*
Y5711294D01*
X4284025Y5713114D01*
X4308741Y5723352D01*
X4329964Y5739637D01*
X4346250Y5760861D01*
X4356487Y5785576D01*
X4359979Y5812099D01*
Y5824799D01*
D02*
G37*
G36*
X3228802D02*
X3139025D01*
Y5812099D01*
X3142517Y5785576D01*
X3152755Y5760861D01*
X3169040Y5739637D01*
X3190264Y5723352D01*
X3214979Y5713114D01*
X3228802Y5711294D01*
Y5824799D01*
D02*
G37*
G36*
X3009955Y5986442D02*
X3011793Y5977199D01*
X3001370Y5964499D01*
X3000202D01*
Y5837499D01*
Y5710499D01*
X3039297D01*
Y5735899D01*
X3063702D01*
Y5939099D01*
X3013897D01*
Y5966620D01*
X3009955Y5986442D01*
D02*
G37*
G36*
X2974802Y5964499D02*
X2890974D01*
X2910307Y5945166D01*
Y5862899D01*
X2911302Y5857896D01*
Y5735899D01*
X2935707D01*
Y5710499D01*
X2974802D01*
Y5837499D01*
Y5964499D01*
D02*
G37*
G36*
X7497500Y5821485D02*
X7475884Y5817185D01*
X7457559Y5804941D01*
X7445315Y5786616D01*
X7441015Y5765000D01*
X7445315Y5743384D01*
X7457559Y5725059D01*
X7475884Y5712814D01*
X7497500Y5708515D01*
X7519116Y5712814D01*
X7537441Y5725059D01*
X7549686Y5743384D01*
X7553985Y5765000D01*
X7549686Y5786616D01*
X7537441Y5804941D01*
X7519116Y5817185D01*
X7497500Y5821485D01*
D02*
G37*
G36*
X565470Y5636497D02*
X455470D01*
Y5536497D01*
X565470D01*
Y5553077D01*
X676898D01*
X678371Y5550871D01*
X688295Y5544241D01*
X700000Y5541912D01*
X702602Y5542430D01*
X761764Y5483268D01*
X761764Y5483268D01*
X768066Y5479057D01*
X775498Y5477579D01*
X775500Y5477579D01*
X850712D01*
Y5462002D01*
X1010712D01*
Y5532002D01*
X850712D01*
Y5516425D01*
X783544D01*
X730070Y5569898D01*
X730588Y5572500D01*
X728259Y5584205D01*
X721629Y5594129D01*
X711705Y5600759D01*
X700000Y5603088D01*
X688295Y5600759D01*
X678371Y5594129D01*
X676898Y5591923D01*
X565470D01*
Y5636497D01*
D02*
G37*
G36*
X1751030Y5389089D02*
X1739325Y5386760D01*
X1729401Y5380130D01*
X1722771Y5370206D01*
X1720443Y5358501D01*
X1722771Y5346796D01*
X1729401Y5336872D01*
X1739325Y5330242D01*
X1751030Y5327913D01*
X1762736Y5330242D01*
X1772659Y5336872D01*
X1774133Y5339078D01*
X1812045D01*
X1807553Y5345801D01*
X1751030D01*
Y5371201D01*
X1807553D01*
X1812045Y5377924D01*
X1774133D01*
X1772659Y5380130D01*
X1762736Y5386760D01*
X1751030Y5389089D01*
D02*
G37*
G36*
X420868Y5933900D02*
X260068D01*
Y5783100D01*
X288675D01*
Y5661897D01*
X260073D01*
Y5511097D01*
X288678D01*
Y5399760D01*
X292620Y5379939D01*
X303848Y5363135D01*
X333606Y5333378D01*
X333606Y5333377D01*
X350410Y5322149D01*
X370231Y5318207D01*
X428819D01*
Y5167604D01*
X589618D01*
Y5191207D01*
X825312D01*
Y5182602D01*
X1036112D01*
Y5303401D01*
X1036112D01*
Y5309603D01*
X1036112D01*
Y5430402D01*
X825312D01*
Y5421797D01*
X392268D01*
Y5511097D01*
X420873D01*
Y5661897D01*
X392265D01*
Y5783100D01*
X420868D01*
Y5933900D01*
D02*
G37*
G36*
X8360000Y5766485D02*
X8338384Y5762186D01*
X8320059Y5749941D01*
X8307814Y5731616D01*
X8303515Y5710000D01*
X8307814Y5688384D01*
X8320059Y5670059D01*
X8338384Y5657814D01*
X8360000Y5653515D01*
X8361291Y5653772D01*
X8489828Y5525234D01*
Y5315320D01*
X8453275D01*
Y5154520D01*
X8604075D01*
Y5196073D01*
X8689998D01*
Y5154520D01*
X8840798D01*
Y5315320D01*
X8689998D01*
Y5273766D01*
X8604075D01*
Y5315320D01*
X8567521D01*
Y5541325D01*
X8564564Y5556191D01*
X8556143Y5568794D01*
X8416229Y5708709D01*
X8416485Y5710000D01*
X8412186Y5731616D01*
X8399941Y5749941D01*
X8381616Y5762186D01*
X8360000Y5766485D01*
D02*
G37*
G36*
X8578675Y5119917D02*
X8478675D01*
Y5116555D01*
X8341952D01*
Y5119917D01*
X8241952D01*
Y5073943D01*
X8240157Y5064917D01*
Y4888094D01*
X8153856Y4801793D01*
X7985767D01*
X7908436Y4879125D01*
X7904316Y4881878D01*
X7901563Y4885998D01*
X7884759Y4897226D01*
X7881223Y4897929D01*
X7880519Y4901466D01*
X7870301Y4916758D01*
Y5064917D01*
X7868506Y5073943D01*
Y5119917D01*
X7768506D01*
Y5073943D01*
X7766711Y5064917D01*
Y4895805D01*
X7770653Y4875984D01*
X7781881Y4859180D01*
X7796042Y4845020D01*
X7812845Y4833792D01*
X7814958Y4833372D01*
X7817085Y4822679D01*
X7828313Y4805875D01*
X7845117Y4794648D01*
X7846736Y4794325D01*
X7927688Y4713373D01*
X7944492Y4702146D01*
X7964313Y4698203D01*
X8175310D01*
X8195131Y4702146D01*
X8211935Y4713373D01*
X8328577Y4830015D01*
X8339805Y4846819D01*
X8343747Y4866640D01*
Y5012965D01*
X8476880D01*
Y4785360D01*
X8480822Y4765539D01*
X8492050Y4748735D01*
X8576556Y4664229D01*
X8593359Y4653002D01*
X8613181Y4649059D01*
X8701121D01*
Y4510428D01*
X8700167D01*
Y4410428D01*
X8701121D01*
Y4270002D01*
X8700085D01*
Y4170002D01*
X8743891D01*
X8752916Y4168207D01*
X8755085D01*
X8764111Y4170002D01*
X8810085D01*
Y4270002D01*
X8804711D01*
Y4410428D01*
X8810167D01*
Y4510428D01*
X8804711D01*
Y4650854D01*
X8810085D01*
Y4750854D01*
X8764111D01*
X8755085Y4752649D01*
X8634635D01*
X8580470Y4806814D01*
Y5064917D01*
X8578675Y5073943D01*
Y5119917D01*
D02*
G37*
G36*
X8058500Y8451110D02*
X8029743Y8447324D01*
X8002945Y8436224D01*
X7979933Y8418567D01*
X7962276Y8395555D01*
X7951176Y8368757D01*
X7947390Y8340000D01*
X7951176Y8311242D01*
X7962276Y8284444D01*
X7979933Y8261433D01*
X8002945Y8243775D01*
X8029743Y8232675D01*
X8058500Y8228889D01*
X8087258Y8232675D01*
X8103967Y8239596D01*
X8221031Y8122531D01*
X8233634Y8114111D01*
X8248500Y8111153D01*
X8533909D01*
X8963279Y7681784D01*
Y5315320D01*
X8926726D01*
Y5170718D01*
X8926726Y5154520D01*
X8926726Y5129120D01*
Y4984518D01*
X8968654D01*
Y4933173D01*
X8967559Y4932441D01*
X8955315Y4914116D01*
X8951015Y4892500D01*
X8955315Y4870884D01*
X8967559Y4852559D01*
X8985884Y4840315D01*
X9007500Y4836015D01*
X9029116Y4840315D01*
X9047442Y4852559D01*
X9059686Y4870884D01*
X9063986Y4892500D01*
X9059686Y4914116D01*
X9047442Y4932441D01*
X9046347Y4933173D01*
Y4984518D01*
X9077526D01*
Y5129120D01*
X9077526Y5145317D01*
X9077526Y5170718D01*
Y5315320D01*
X9040972D01*
Y7697874D01*
X9038015Y7712740D01*
X9029594Y7725343D01*
X8577468Y8177469D01*
X8564866Y8185889D01*
X8550000Y8188846D01*
X8264591D01*
X8158904Y8294533D01*
X8165825Y8311242D01*
X8169611Y8340000D01*
X8165825Y8368757D01*
X8154725Y8395555D01*
X8137067Y8418567D01*
X8114055Y8436224D01*
X8087258Y8447324D01*
X8058500Y8451110D01*
D02*
G37*
G36*
X840200Y4826459D02*
Y4785200D01*
X881459D01*
X879686Y4794116D01*
X867441Y4812441D01*
X849116Y4824686D01*
X840200Y4826459D01*
D02*
G37*
G36*
X814800D02*
X805884Y4824686D01*
X787559Y4812441D01*
X775314Y4794116D01*
X773541Y4785200D01*
X814800D01*
Y4826459D01*
D02*
G37*
G36*
X1538412Y4813959D02*
Y4772700D01*
X1579671D01*
X1577898Y4781616D01*
X1565653Y4799941D01*
X1547328Y4812186D01*
X1538412Y4813959D01*
D02*
G37*
G36*
X1513012D02*
X1504096Y4812186D01*
X1485771Y4799941D01*
X1473526Y4781616D01*
X1471753Y4772700D01*
X1513012D01*
Y4813959D01*
D02*
G37*
G36*
X1576116Y5430402D02*
X1365316D01*
Y5328802D01*
X1365316Y5309603D01*
X1365316D01*
Y5303401D01*
X1365316D01*
Y5182602D01*
X1367380D01*
X1377100Y5159135D01*
X1277974Y5060010D01*
X1266746Y5043206D01*
X1264895Y5033898D01*
X1184599D01*
Y4833098D01*
X1223204D01*
Y4657302D01*
X1184599D01*
Y4456502D01*
X1365399D01*
Y4657302D01*
X1326794D01*
Y4833098D01*
X1365399D01*
Y4968093D01*
X1366394Y4973098D01*
Y5001931D01*
X1489398Y5124935D01*
X1489399Y5124935D01*
X1500626Y5141739D01*
X1504569Y5161560D01*
X1518733Y5182602D01*
X1576115D01*
X1588918Y5162505D01*
Y5008898D01*
X1560313D01*
Y4858098D01*
X1721112D01*
Y4858097D01*
X1730311D01*
Y4858098D01*
X1758915D01*
Y4632302D01*
X1755634D01*
Y4486854D01*
X1755634Y4481502D01*
X1742715Y4461454D01*
X1749174Y4471478D01*
X1755634Y4481502D01*
X1916434D01*
X1922894Y4471478D01*
X1916434Y4481502D01*
X1916434Y4486854D01*
Y4632302D01*
X1862505D01*
Y4858098D01*
X1891110D01*
Y4988182D01*
X1990652D01*
X2159033Y4819801D01*
Y4728094D01*
X2309833D01*
Y4888894D01*
X2218126D01*
X2041471Y5065549D01*
X2026768Y5075374D01*
X2009424Y5078823D01*
X1692508D01*
Y5245005D01*
X1688566Y5264826D01*
X1677338Y5281630D01*
X1576116Y5382852D01*
Y5430402D01*
D02*
G37*
G36*
X881459Y4759800D02*
X840200D01*
Y4718541D01*
X849116Y4720315D01*
X867441Y4732559D01*
X879686Y4750884D01*
X881459Y4759800D01*
D02*
G37*
G36*
X814800D02*
X773541D01*
X775314Y4750884D01*
X787559Y4732559D01*
X805884Y4720315D01*
X814800Y4718541D01*
Y4759800D01*
D02*
G37*
G36*
X1579671Y4747300D02*
X1538412D01*
Y4706041D01*
X1547328Y4707815D01*
X1565653Y4720059D01*
X1577898Y4738384D01*
X1579671Y4747300D01*
D02*
G37*
G36*
X1513012D02*
X1471753D01*
X1473526Y4738384D01*
X1485771Y4720059D01*
X1504096Y4707815D01*
X1513012Y4706041D01*
Y4747300D01*
D02*
G37*
G36*
X2522700Y4693959D02*
Y4652700D01*
X2563959D01*
X2562186Y4661616D01*
X2549941Y4679941D01*
X2531616Y4692186D01*
X2522700Y4693959D01*
D02*
G37*
G36*
X2497300D02*
X2488384Y4692186D01*
X2470059Y4679941D01*
X2457814Y4661616D01*
X2456041Y4652700D01*
X2497300D01*
Y4693959D01*
D02*
G37*
G36*
X3627699Y4712053D02*
Y4630202D01*
X3709550D01*
X3707944Y4642406D01*
X3698331Y4665613D01*
X3683039Y4685542D01*
X3663111Y4700833D01*
X3639904Y4710446D01*
X3627699Y4712053D01*
D02*
G37*
G36*
X3602299D02*
X3590095Y4710446D01*
X3566887Y4700833D01*
X3546959Y4685542D01*
X3531668Y4665613D01*
X3522055Y4642406D01*
X3520448Y4630202D01*
X3602299D01*
Y4712053D01*
D02*
G37*
G36*
X2563959Y4627300D02*
X2522700D01*
Y4586041D01*
X2531616Y4587815D01*
X2549941Y4600059D01*
X2562186Y4618384D01*
X2563959Y4627300D01*
D02*
G37*
G36*
X2497300D02*
X2456041D01*
X2457814Y4618384D01*
X2470059Y4600059D01*
X2488384Y4587815D01*
X2497300Y4586041D01*
Y4627300D01*
D02*
G37*
G36*
X3709550Y4604802D02*
X3627699D01*
Y4522950D01*
X3639904Y4524557D01*
X3663111Y4534170D01*
X3683039Y4549462D01*
X3698331Y4569390D01*
X3707944Y4592597D01*
X3709550Y4604802D01*
D02*
G37*
G36*
X3602299D02*
X3520448D01*
X3522055Y4592597D01*
X3531668Y4569390D01*
X3546959Y4549462D01*
X3566887Y4534170D01*
X3590095Y4524557D01*
X3602299Y4522950D01*
Y4604802D01*
D02*
G37*
G36*
X3865001Y4713725D02*
X3840097Y4710446D01*
X3816889Y4700833D01*
X3796961Y4685542D01*
X3781670Y4665613D01*
X3772057Y4642406D01*
X3768778Y4617502D01*
X3772057Y4592597D01*
X3781670Y4569390D01*
X3796961Y4549462D01*
X3816889Y4534170D01*
X3840097Y4524557D01*
X3865001Y4521278D01*
X3889906Y4524557D01*
X3913113Y4534170D01*
X3933041Y4549462D01*
X3948333Y4569390D01*
X3957946Y4592597D01*
X3961224Y4617502D01*
X3957946Y4642406D01*
X3948333Y4665613D01*
X3933041Y4685542D01*
X3913113Y4700833D01*
X3889906Y4710446D01*
X3865001Y4713725D01*
D02*
G37*
G36*
X357932Y4513959D02*
Y4472700D01*
X399191D01*
X397417Y4481616D01*
X385173Y4499941D01*
X366848Y4512186D01*
X357932Y4513959D01*
D02*
G37*
G36*
X332532D02*
X323616Y4512186D01*
X305290Y4499941D01*
X293046Y4481616D01*
X291273Y4472700D01*
X332532D01*
Y4513959D01*
D02*
G37*
G36*
X1651676Y4461454D02*
X1631854Y4457511D01*
X1615051Y4446283D01*
X1605828Y4437060D01*
X1636765Y4457731D01*
X1640277Y4459186D01*
X1651676Y4461454D01*
D02*
G37*
G36*
X1582215Y4413448D02*
X1578426Y4409658D01*
X1586004D01*
X1582215Y4413448D01*
D02*
G37*
G36*
X399191Y4447300D02*
X357932D01*
Y4406041D01*
X366848Y4407815D01*
X385173Y4420059D01*
X397417Y4438384D01*
X399191Y4447300D01*
D02*
G37*
G36*
X332532D02*
X291273D01*
X293046Y4438384D01*
X305290Y4420059D01*
X323616Y4407815D01*
X332532Y4406041D01*
Y4447300D01*
D02*
G37*
G36*
X542500Y4428985D02*
X520884Y4424686D01*
X502559Y4412441D01*
X490314Y4394116D01*
X486015Y4372500D01*
X486272Y4371209D01*
X422533Y4307470D01*
X414112Y4294867D01*
X411155Y4280002D01*
Y4195400D01*
X124602D01*
Y3144600D01*
X775402D01*
Y4195400D01*
X488848D01*
Y4263911D01*
X541209Y4316272D01*
X542500Y4316015D01*
X564116Y4320314D01*
X582441Y4332559D01*
X594686Y4350884D01*
X598985Y4372500D01*
X594686Y4394116D01*
X582441Y4412441D01*
X564116Y4424686D01*
X542500Y4428985D01*
D02*
G37*
G36*
X9105200Y4273961D02*
Y4232702D01*
X9146459D01*
X9144686Y4241618D01*
X9132441Y4259943D01*
X9114116Y4272187D01*
X9105200Y4273961D01*
D02*
G37*
G36*
X9079800D02*
X9070884Y4272187D01*
X9052559Y4259943D01*
X9040315Y4241618D01*
X9038541Y4232702D01*
X9079800D01*
Y4273961D01*
D02*
G37*
G36*
X9146459Y4207302D02*
X9105200D01*
Y4166043D01*
X9114116Y4167816D01*
X9132441Y4180060D01*
X9144686Y4198386D01*
X9146459Y4207302D01*
D02*
G37*
G36*
X9079800D02*
X9038541D01*
X9040315Y4198386D01*
X9052559Y4180060D01*
X9070884Y4167816D01*
X9079800Y4166043D01*
Y4207302D01*
D02*
G37*
G36*
X2612700Y4118960D02*
Y4077701D01*
X2653959D01*
X2652186Y4086617D01*
X2639941Y4104942D01*
X2621616Y4117186D01*
X2612700Y4118960D01*
D02*
G37*
G36*
X2587300D02*
X2578384Y4117186D01*
X2560059Y4104942D01*
X2547815Y4086617D01*
X2546041Y4077701D01*
X2587300D01*
Y4118960D01*
D02*
G37*
G36*
X2653959Y4052301D02*
X2612700D01*
Y4011042D01*
X2621616Y4012815D01*
X2639941Y4025060D01*
X2652186Y4043385D01*
X2653959Y4052301D01*
D02*
G37*
G36*
X2587300D02*
X2546041D01*
X2547815Y4043385D01*
X2560059Y4025060D01*
X2578384Y4012815D01*
X2587300Y4011042D01*
Y4052301D01*
D02*
G37*
G36*
X3435002Y4687501D02*
X3295002D01*
Y4547502D01*
X3313207D01*
Y3933959D01*
X3269251Y3890002D01*
X3202501D01*
Y3750003D01*
X3342500D01*
Y3816753D01*
X3401627Y3875879D01*
X3412855Y3892683D01*
X3416797Y3912504D01*
Y4547502D01*
X3435002D01*
Y4687501D01*
D02*
G37*
G36*
X3285200Y3664552D02*
Y3582700D01*
X3367052D01*
X3365445Y3594905D01*
X3355832Y3618112D01*
X3340540Y3638040D01*
X3320612Y3653332D01*
X3297405Y3662945D01*
X3285200Y3664552D01*
D02*
G37*
G36*
X3259800D02*
X3247596Y3662945D01*
X3224389Y3653332D01*
X3204460Y3638040D01*
X3189169Y3618112D01*
X3179556Y3594905D01*
X3177949Y3582700D01*
X3259800D01*
Y3664552D01*
D02*
G37*
G36*
X2259997Y4155000D02*
X2129997D01*
Y4005000D01*
X2174304D01*
Y3774998D01*
X2129997D01*
Y3652466D01*
X2003766Y3526235D01*
X1999556Y3519934D01*
X1998077Y3512501D01*
X1973099Y3513521D01*
Y3562108D01*
X1979964Y3572382D01*
X1984264Y3593998D01*
X1979964Y3615614D01*
X1967720Y3633940D01*
X1949395Y3646184D01*
X1927779Y3650484D01*
X1906163Y3646184D01*
X1887837Y3633940D01*
X1875593Y3615614D01*
X1871293Y3593998D01*
X1875593Y3572382D01*
X1882458Y3562108D01*
Y3046295D01*
X1684267Y2848105D01*
X1674443Y2833401D01*
X1670993Y2816058D01*
Y2490002D01*
X1674443Y2472659D01*
X1684267Y2457955D01*
X1792369Y2349854D01*
X1792369Y2349854D01*
X1807073Y2340029D01*
X1814600Y2338532D01*
Y2281500D01*
X1979202D01*
X1995400Y2281500D01*
X2020800Y2281500D01*
X2185402D01*
Y2336580D01*
X2364599D01*
Y2281500D01*
X2458845D01*
X2468566Y2258034D01*
X2050317Y1839785D01*
X1805676D01*
Y1842432D01*
X1401816D01*
Y1738292D01*
X1805676D01*
Y1800939D01*
X2058362D01*
X2065795Y1802418D01*
X2072096Y1806628D01*
X2550486Y2285018D01*
X2550487Y2285019D01*
X2554697Y2291320D01*
X2556176Y2298753D01*
Y2837512D01*
X2556176Y2837513D01*
X2554697Y2844946D01*
X2550487Y2851248D01*
X2550486Y2851248D01*
X2238000Y3163734D01*
X2231699Y3167945D01*
X2224266Y3169423D01*
X2132604D01*
X2102430Y3199598D01*
Y3415367D01*
X2117091Y3430028D01*
X2267823D01*
X2283771Y3414080D01*
X2283962Y3413120D01*
X2288173Y3406819D01*
X2317459Y3377532D01*
Y3255001D01*
X2447459D01*
Y3405001D01*
X2398746D01*
Y3624998D01*
X2449999D01*
Y3774998D01*
X2319999D01*
Y3624998D01*
X2371253D01*
Y3405001D01*
X2344928D01*
X2320043Y3429886D01*
X2319852Y3430846D01*
X2315641Y3437147D01*
X2289603Y3463185D01*
X2283302Y3467396D01*
X2275869Y3468874D01*
X2109045D01*
X2101612Y3467396D01*
X2095311Y3463185D01*
X2069272Y3437147D01*
X2065062Y3430846D01*
X2063584Y3423413D01*
Y3191552D01*
X2065062Y3184119D01*
X2069272Y3177818D01*
X2110824Y3136267D01*
X2110825Y3136266D01*
X2117126Y3132055D01*
X2124559Y3130577D01*
X2124560Y3130577D01*
X2216221D01*
X2473569Y2873228D01*
X2463849Y2849762D01*
X2369603D01*
Y2797223D01*
X2185402D01*
Y2852302D01*
X2004602D01*
Y2651502D01*
X2185402D01*
Y2706581D01*
X2369603D01*
Y2648962D01*
X2517330D01*
Y2482300D01*
X2364599D01*
Y2427221D01*
X2185402D01*
Y2482300D01*
X2020800D01*
X2004602Y2482300D01*
X1979202Y2482300D01*
X1814600D01*
Y2482300D01*
X1795868Y2474541D01*
X1761635Y2508775D01*
Y2797285D01*
X1860177Y2895827D01*
X1885577Y2885306D01*
Y2826902D01*
X1840000D01*
Y2676902D01*
X1862793D01*
Y2603103D01*
X1860587Y2601629D01*
X1853957Y2591706D01*
X1851629Y2580000D01*
X1853957Y2568295D01*
X1860587Y2558371D01*
X1870511Y2551741D01*
X1882216Y2549412D01*
X1893922Y2551741D01*
X1903845Y2558371D01*
X1910475Y2568295D01*
X1912804Y2580000D01*
X1910475Y2591706D01*
X1903845Y2601629D01*
X1901639Y2603103D01*
Y2676902D01*
X1970000D01*
Y2826902D01*
X1924423D01*
Y2896955D01*
X2031234Y3003766D01*
X2035445Y3010067D01*
X2036923Y3017500D01*
Y3504456D01*
X2157466Y3624998D01*
X2259997D01*
Y3774998D01*
X2213150D01*
Y4005000D01*
X2259997D01*
Y4155000D01*
D02*
G37*
G36*
X3367052Y3557300D02*
X3285200D01*
Y3475449D01*
X3297405Y3477056D01*
X3320612Y3486669D01*
X3340540Y3501960D01*
X3355832Y3521889D01*
X3365445Y3545096D01*
X3367052Y3557300D01*
D02*
G37*
G36*
X3259800D02*
X3177949D01*
X3179556Y3545096D01*
X3189169Y3521889D01*
X3204460Y3501960D01*
X3224389Y3486669D01*
X3247596Y3477056D01*
X3259800Y3475449D01*
Y3557300D01*
D02*
G37*
G36*
X3272500Y3416222D02*
X3247596Y3412943D01*
X3224389Y3403330D01*
X3204460Y3388038D01*
X3189169Y3368110D01*
X3179556Y3344903D01*
X3176277Y3319998D01*
X3179556Y3295094D01*
X3189169Y3271887D01*
X3204460Y3251958D01*
X3224389Y3236667D01*
X3247596Y3227054D01*
X3272500Y3223775D01*
X3297405Y3227054D01*
X3320612Y3236667D01*
X3340540Y3251958D01*
X3355832Y3271887D01*
X3365445Y3295094D01*
X3368724Y3319998D01*
X3365445Y3344903D01*
X3355832Y3368110D01*
X3340540Y3388038D01*
X3320612Y3403330D01*
X3297405Y3412943D01*
X3272500Y3416222D01*
D02*
G37*
G36*
X1809999Y3167085D02*
X1805267Y3160003D01*
X1809999D01*
Y3167085D01*
D02*
G37*
G36*
X3272500Y3166225D02*
X3247596Y3162946D01*
X3224389Y3153333D01*
X3204460Y3138041D01*
X3189169Y3118113D01*
X3179556Y3094906D01*
X3176277Y3070001D01*
X3179556Y3045097D01*
X3189169Y3021890D01*
X3204460Y3001961D01*
X3224389Y2986670D01*
X3247596Y2977057D01*
X3272500Y2973778D01*
X3297405Y2977057D01*
X3320612Y2986670D01*
X3340540Y3001961D01*
X3355832Y3021890D01*
X3365445Y3045097D01*
X3368724Y3070001D01*
X3365445Y3094906D01*
X3355832Y3118113D01*
X3340540Y3138041D01*
X3320612Y3153333D01*
X3297405Y3162946D01*
X3272500Y3166225D01*
D02*
G37*
G36*
X9158959Y2307300D02*
X9117700D01*
Y2266041D01*
X9126616Y2267815D01*
X9144942Y2280059D01*
X9157186Y2298384D01*
X9158959Y2307300D01*
D02*
G37*
G36*
X9092300D02*
X9051041D01*
X9052815Y2298384D01*
X9065059Y2280059D01*
X9083384Y2267815D01*
X9092300Y2266041D01*
Y2307300D01*
D02*
G37*
G36*
X1237701Y2213959D02*
Y2172700D01*
X1278960D01*
X1277187Y2181616D01*
X1264943Y2199941D01*
X1246617Y2212186D01*
X1237701Y2213959D01*
D02*
G37*
G36*
X1212301D02*
X1203385Y2212186D01*
X1185060Y2199941D01*
X1172816Y2181616D01*
X1171042Y2172700D01*
X1212301D01*
Y2213959D01*
D02*
G37*
G36*
X1278960Y2147300D02*
X1237701D01*
Y2106041D01*
X1246617Y2107814D01*
X1264943Y2120059D01*
X1277187Y2138384D01*
X1278960Y2147300D01*
D02*
G37*
G36*
X1212301D02*
X1171042D01*
X1172816Y2138384D01*
X1185060Y2120059D01*
X1203385Y2107814D01*
X1212301Y2106041D01*
Y2147300D01*
D02*
G37*
G36*
X998231Y1989616D02*
Y1989615D01*
X998230Y1989615D01*
X998231Y1989615D01*
Y1989615D01*
X998231Y1989615D01*
D01*
X998231D01*
X998231Y1989616D01*
D02*
G37*
G36*
X7130943Y1866102D02*
X7089684D01*
Y1824843D01*
X7098599Y1826617D01*
X7116925Y1838861D01*
X7129169Y1857187D01*
X7130943Y1866102D01*
D02*
G37*
G36*
X7064284D02*
X7023025D01*
X7024798Y1857187D01*
X7037042Y1838861D01*
X7055368Y1826617D01*
X7064284Y1824843D01*
Y1866102D01*
D02*
G37*
G36*
X2549998Y1900002D02*
X2269998D01*
Y1669605D01*
X2204115D01*
X2159985Y1713736D01*
X2153684Y1717946D01*
X2146250Y1719425D01*
X2091508D01*
X2090034Y1721631D01*
X2080111Y1728261D01*
X2068405Y1730589D01*
X2056700Y1728261D01*
X2046776Y1721631D01*
X2045303Y1719425D01*
X1990560D01*
X1983127Y1717946D01*
X1976826Y1713736D01*
X1932695Y1669605D01*
X1805676D01*
Y1672252D01*
X1401816D01*
Y1568112D01*
X1805676D01*
Y1630759D01*
X1940740D01*
X1948173Y1632238D01*
X1954475Y1636448D01*
X1998605Y1680579D01*
X2045303D01*
X2046776Y1678373D01*
X2048982Y1676899D01*
Y1542722D01*
X2050461Y1535289D01*
X2054671Y1528988D01*
X2093162Y1490497D01*
Y1259623D01*
X2071514Y1237975D01*
X2067304Y1231674D01*
X2065825Y1224241D01*
Y985320D01*
X2017137Y936627D01*
X1752316D01*
X1744883Y935149D01*
X1738581Y930938D01*
X1716265Y908622D01*
X1712054Y902321D01*
X1710576Y894888D01*
Y437118D01*
X1710490Y437101D01*
X1693951Y426050D01*
X1682900Y409511D01*
X1679020Y390002D01*
X1682900Y370493D01*
X1693951Y353954D01*
X1710490Y342903D01*
X1729999Y339022D01*
X1749508Y342903D01*
X1766047Y353954D01*
X1777098Y370493D01*
X1780979Y390002D01*
X1777098Y409511D01*
X1766047Y426050D01*
X1749508Y437101D01*
X1749422Y437118D01*
Y886842D01*
X1760361Y897781D01*
X2025183D01*
X2032616Y899260D01*
X2035775Y901371D01*
X2038917Y903470D01*
X2038917Y903471D01*
X2098983Y963541D01*
X2103193Y969843D01*
X2104672Y977275D01*
Y1216195D01*
X2126319Y1237843D01*
X2130529Y1244144D01*
X2132008Y1251577D01*
Y1498542D01*
X2130529Y1505975D01*
X2126319Y1512277D01*
X2087828Y1550767D01*
Y1676899D01*
X2090034Y1678373D01*
X2091508Y1680579D01*
X2138205D01*
X2182336Y1636448D01*
X2188637Y1632238D01*
X2196070Y1630759D01*
X2269998D01*
Y1500002D01*
X2549998D01*
Y1900002D01*
D02*
G37*
G36*
X1805676Y1331892D02*
X1800000D01*
Y1227752D01*
X1805676D01*
Y1331892D01*
D02*
G37*
G36*
X7191138Y1243092D02*
Y1201833D01*
X7232397D01*
X7230624Y1210749D01*
X7218379Y1229075D01*
X7200054Y1241319D01*
X7191138Y1243092D01*
D02*
G37*
G36*
X7165738D02*
X7156822Y1241319D01*
X7138497Y1229075D01*
X7126252Y1210749D01*
X7124479Y1201833D01*
X7165738D01*
Y1243092D01*
D02*
G37*
G36*
X7026984Y1533889D02*
X6926984D01*
Y1487915D01*
X6925189Y1478890D01*
X6926984Y1469864D01*
Y1423890D01*
X7026984D01*
Y1427094D01*
X7087472D01*
X7301191Y1213375D01*
X7317995Y1202147D01*
X7337816Y1198205D01*
X7782516D01*
X7794700Y1188855D01*
X7811729Y1181802D01*
X7830002Y1179396D01*
X7848276Y1181802D01*
X7865304Y1188855D01*
X7879927Y1200076D01*
X7891147Y1214698D01*
X7898200Y1231727D01*
X7900606Y1250000D01*
X7898200Y1268274D01*
X7891147Y1285302D01*
X7879927Y1299925D01*
X7865304Y1311145D01*
X7848276Y1318198D01*
X7830002Y1320604D01*
X7811729Y1318198D01*
X7794700Y1311145D01*
X7782516Y1301795D01*
X7359271D01*
X7145551Y1515514D01*
X7128748Y1526742D01*
X7108927Y1530685D01*
X7026984D01*
Y1533889D01*
D02*
G37*
G36*
X7232397Y1176433D02*
X7191138D01*
Y1135174D01*
X7200054Y1136948D01*
X7218379Y1149192D01*
X7230624Y1167517D01*
X7232397Y1176433D01*
D02*
G37*
G36*
X7165738D02*
X7124479D01*
X7126252Y1167517D01*
X7138497Y1149192D01*
X7156822Y1136948D01*
X7165738Y1135174D01*
Y1176433D01*
D02*
G37*
G36*
X1957700Y1143959D02*
Y1102700D01*
X1998959D01*
X1997185Y1111616D01*
X1984941Y1129941D01*
X1966616Y1142186D01*
X1957700Y1143959D01*
D02*
G37*
G36*
X1932300D02*
X1923384Y1142186D01*
X1905059Y1129941D01*
X1892814Y1111616D01*
X1891041Y1102700D01*
X1932300D01*
Y1143959D01*
D02*
G37*
G36*
X6752078Y1533969D02*
X6652078D01*
Y1526564D01*
X6542016D01*
X6522195Y1522622D01*
X6505391Y1511394D01*
X6505391Y1511393D01*
X6445875Y1451878D01*
X6434648Y1435074D01*
X6430705Y1415253D01*
Y1204376D01*
X6434648Y1184555D01*
X6445875Y1167751D01*
X6505391Y1108236D01*
X6505391Y1108235D01*
X6522195Y1097007D01*
X6542016Y1093065D01*
X6788806D01*
X6790179Y1092147D01*
X6810000Y1088205D01*
X6829821Y1092147D01*
X6846625Y1103375D01*
X6857853Y1120179D01*
X6861795Y1140000D01*
X6857853Y1159821D01*
X6846625Y1176625D01*
X6841765Y1181485D01*
X6824961Y1192712D01*
X6805140Y1196655D01*
X6563470D01*
X6534295Y1225830D01*
Y1393799D01*
X6563470Y1422974D01*
X6701278D01*
X6706282Y1423969D01*
X6752078D01*
Y1466543D01*
X6753873Y1475569D01*
Y1478969D01*
X6752078Y1487995D01*
Y1533969D01*
D02*
G37*
G36*
X1998959Y1077300D02*
X1957700D01*
Y1036041D01*
X1966616Y1037815D01*
X1984941Y1050059D01*
X1997185Y1068384D01*
X1998959Y1077300D01*
D02*
G37*
G36*
X1932300D02*
X1891041D01*
X1892814Y1068384D01*
X1905059Y1050059D01*
X1923384Y1037815D01*
X1932300Y1036041D01*
Y1077300D01*
D02*
G37*
G36*
X982500Y1988066D02*
X973826Y1987212D01*
X972830Y1987212D01*
X143246D01*
Y912792D01*
X973826D01*
Y1331833D01*
X999226Y1334335D01*
X991910Y1333614D01*
X982500Y1342143D01*
Y1988066D01*
D02*
G37*
G36*
X6731984Y898806D02*
X6581985D01*
Y853229D01*
X6505603D01*
X6504129Y855435D01*
X6494205Y862065D01*
X6482500Y864393D01*
X6470795Y862065D01*
X6460871Y855435D01*
X6454241Y845511D01*
X6451912Y833806D01*
X6454241Y822100D01*
X6460871Y812177D01*
X6470795Y805547D01*
X6482500Y803218D01*
X6494205Y805547D01*
X6504129Y812177D01*
X6505603Y814383D01*
X6581985D01*
Y768806D01*
X6731984D01*
Y814383D01*
X6821807D01*
X6981114Y655076D01*
X6982985Y653825D01*
Y573972D01*
X7132984D01*
Y703971D01*
X6987155D01*
X6843586Y847540D01*
X6837285Y851750D01*
X6829852Y853229D01*
X6731984D01*
Y898806D01*
D02*
G37*
G36*
X2157035Y841359D02*
Y800100D01*
X2198294D01*
X2196520Y809016D01*
X2184276Y827341D01*
X2165951Y839586D01*
X2157035Y841359D01*
D02*
G37*
G36*
X2131635D02*
X2122719Y839586D01*
X2104394Y827341D01*
X2092149Y809016D01*
X2090376Y800100D01*
X2131635D01*
Y841359D01*
D02*
G37*
G36*
X6976984Y1022548D02*
X6957163Y1018605D01*
X6940359Y1007377D01*
X6929131Y990574D01*
X6925189Y970752D01*
Y833806D01*
X6929131Y813985D01*
X6940359Y797181D01*
X6957163Y785953D01*
X6976984Y782011D01*
X6982985Y777086D01*
Y763974D01*
X7132984D01*
Y893974D01*
X7028779D01*
Y970752D01*
X7024836Y990574D01*
X7013609Y1007377D01*
X6996805Y1018605D01*
X6976984Y1022548D01*
D02*
G37*
G36*
X7925402Y845401D02*
X7842702D01*
Y762701D01*
X7925402D01*
Y845401D01*
D02*
G37*
G36*
X7817302D02*
X7734602D01*
Y762701D01*
X7817302D01*
Y845401D01*
D02*
G37*
G36*
X2198294Y774700D02*
X2157035D01*
Y733441D01*
X2165951Y735214D01*
X2184276Y747459D01*
X2196520Y765784D01*
X2198294Y774700D01*
D02*
G37*
G36*
X2131635D02*
X2090376D01*
X2092149Y765784D01*
X2104394Y747459D01*
X2122719Y735214D01*
X2131635Y733441D01*
Y774700D01*
D02*
G37*
G36*
X6043519Y758753D02*
X6033798Y754726D01*
X6033797Y754724D01*
X5988820Y709747D01*
X6033797Y754724D01*
X6043520Y758752D01*
X6043520D01*
X6043519Y758753D01*
D02*
G37*
G36*
X6187351Y754725D02*
X6215085Y726991D01*
Y704704D01*
X6203352Y699843D01*
X6171937Y731259D01*
X6244037Y659158D01*
X6215164Y688031D01*
Y710319D01*
X6226897Y715179D01*
X6257537Y684540D01*
X6187351Y754725D01*
D02*
G37*
G36*
X7925402Y737301D02*
X7842702D01*
Y654601D01*
X7925402D01*
Y737301D01*
D02*
G37*
G36*
X7817302D02*
X7734602D01*
Y654601D01*
X7817302D01*
Y737301D01*
D02*
G37*
G36*
X5462700Y572806D02*
Y531547D01*
X5503959D01*
X5502186Y540462D01*
X5489941Y558788D01*
X5471616Y571032D01*
X5462700Y572806D01*
D02*
G37*
G36*
X5437300D02*
X5428384Y571032D01*
X5410059Y558788D01*
X5397814Y540462D01*
X5396041Y531547D01*
X5437300D01*
Y572806D01*
D02*
G37*
G36*
X5503959Y506147D02*
X5462700D01*
Y464888D01*
X5471616Y466661D01*
X5489941Y478905D01*
X5502186Y497231D01*
X5503959Y506147D01*
D02*
G37*
G36*
X5437300D02*
X5396041D01*
X5397814Y497231D01*
X5410059Y478905D01*
X5428384Y466661D01*
X5437300Y464888D01*
Y506147D01*
D02*
G37*
G36*
X1755541Y1224241D02*
X1651950D01*
Y1161712D01*
X1401816D01*
Y1160167D01*
X1339519D01*
X1319697Y1156225D01*
X1302894Y1144997D01*
X1302893Y1144996D01*
X1243378Y1085481D01*
X1232150Y1068677D01*
X1228207Y1048856D01*
Y390002D01*
X1232150Y370181D01*
X1243378Y353377D01*
X1260181Y342149D01*
X1280003Y338207D01*
X1299824Y342149D01*
X1316627Y353377D01*
X1327855Y370181D01*
X1331798Y390002D01*
Y1027402D01*
X1360973Y1056577D01*
X1602476D01*
X1607479Y1057572D01*
X1805676D01*
Y1161712D01*
X1755541D01*
Y1224241D01*
D02*
G37*
G36*
X7095683Y303961D02*
Y262702D01*
X7136942D01*
X7135169Y271618D01*
X7122924Y289943D01*
X7104599Y302188D01*
X7095683Y303961D01*
D02*
G37*
G36*
X7070283D02*
X7061367Y302188D01*
X7043042Y289943D01*
X7030797Y271618D01*
X7029024Y262702D01*
X7070283D01*
Y303961D01*
D02*
G37*
G36*
X7136942Y237302D02*
X7095683D01*
Y196043D01*
X7104599Y197816D01*
X7122924Y210061D01*
X7135169Y228386D01*
X7136942Y237302D01*
D02*
G37*
G36*
X7070283D02*
X7029024D01*
X7030797Y228386D01*
X7043042Y210061D01*
X7061367Y197816D01*
X7070283Y196043D01*
Y237302D01*
D02*
G37*
G36*
X9005001Y776766D02*
X8957926Y773061D01*
X8912009Y762038D01*
X8868383Y743967D01*
X8828120Y719294D01*
X8792213Y688627D01*
X8761546Y652719D01*
X8736873Y612457D01*
X8718802Y568830D01*
X8707778Y522914D01*
X8704074Y475839D01*
X8707778Y428763D01*
X8718802Y382847D01*
X8736873Y339220D01*
X8761546Y298958D01*
X8792213Y263051D01*
X8828120Y232383D01*
X8868383Y207710D01*
X8912009Y189639D01*
X8957926Y178616D01*
X9005001Y174911D01*
X9052076Y178616D01*
X9097993Y189639D01*
X9141619Y207710D01*
X9181882Y232383D01*
X9217789Y263051D01*
X9248456Y298958D01*
X9273130Y339220D01*
X9291200Y382847D01*
X9302224Y428763D01*
X9305929Y475839D01*
X9302224Y522914D01*
X9291200Y568830D01*
X9273130Y612457D01*
X9248456Y652719D01*
X9217789Y688627D01*
X9181882Y719294D01*
X9141619Y743967D01*
X9097993Y762038D01*
X9052076Y773061D01*
X9005001Y776766D01*
D02*
G37*
G36*
X515000D02*
X467925Y773061D01*
X422009Y762038D01*
X378382Y743967D01*
X338119Y719294D01*
X302212Y688627D01*
X271545Y652719D01*
X246872Y612457D01*
X228801Y568830D01*
X217778Y522914D01*
X214073Y475839D01*
X217778Y428763D01*
X228801Y382847D01*
X246872Y339220D01*
X271545Y298958D01*
X302212Y263051D01*
X338119Y232383D01*
X378382Y207710D01*
X422009Y189639D01*
X467925Y178616D01*
X515000Y174911D01*
X562076Y178616D01*
X607992Y189639D01*
X651618Y207710D01*
X691881Y232383D01*
X727788Y263051D01*
X758456Y298958D01*
X783129Y339220D01*
X801199Y382847D01*
X812223Y428763D01*
X815928Y475839D01*
X812223Y522914D01*
X801199Y568830D01*
X783129Y612457D01*
X758456Y652719D01*
X727788Y688627D01*
X691881Y719294D01*
X651618Y743967D01*
X607992Y762038D01*
X562076Y773061D01*
X515000Y776766D01*
D02*
G37*
%LPD*%
G36*
X4559822Y6914527D02*
X4574525Y6904703D01*
X4591869Y6901253D01*
X4639100D01*
Y6790321D01*
X4599390D01*
X4589116Y6797186D01*
X4567500Y6801486D01*
X4545884Y6797186D01*
X4527559Y6784941D01*
X4515315Y6766616D01*
X4511015Y6745000D01*
X4515315Y6723384D01*
X4527559Y6705059D01*
X4545884Y6692815D01*
X4567500Y6688515D01*
X4589116Y6692815D01*
X4599390Y6699680D01*
X4639100D01*
Y6664424D01*
X4779900D01*
Y6732563D01*
X4805300Y6740268D01*
X4807954Y6736297D01*
X4973047Y6571204D01*
X4973048Y6571203D01*
X4987751Y6561379D01*
X5005094Y6557929D01*
X5098894D01*
X5166463Y6490360D01*
X5155941Y6464960D01*
X5136020D01*
Y6416931D01*
X5110620Y6406410D01*
X5101988Y6415041D01*
X5087285Y6424865D01*
X5071478Y6428010D01*
Y6468394D01*
X4880679D01*
Y6428315D01*
X4862813D01*
X4845469Y6424865D01*
X4830766Y6415041D01*
X4808448Y6392723D01*
X4798624Y6378020D01*
X4795174Y6360676D01*
Y6278397D01*
X4620181D01*
Y6238318D01*
X4417503D01*
X4417502Y6238318D01*
X4415100Y6237841D01*
X4264047D01*
X4264045Y6237841D01*
X4264044Y6237841D01*
X4182903D01*
Y6449319D01*
X4135323D01*
Y6849597D01*
X4308239D01*
Y6923654D01*
X4356827D01*
X4357559Y6922559D01*
X4375884Y6910315D01*
X4397500Y6906015D01*
X4419116Y6910315D01*
X4437441Y6922559D01*
X4449686Y6940885D01*
X4453986Y6962501D01*
X4449686Y6984117D01*
X4440371Y6998057D01*
X4460101Y7014249D01*
X4559822Y6914527D01*
D02*
G37*
G36*
X4930758Y6080295D02*
X4934208Y6062951D01*
X4944032Y6048248D01*
X5324326Y5667953D01*
X5339029Y5658129D01*
X5356373Y5654679D01*
X5942682D01*
X5960025Y5658129D01*
X5974728Y5667953D01*
X6191454Y5884679D01*
X6447682D01*
X6465025Y5888129D01*
X6480451Y5867888D01*
X6003911Y5391348D01*
X5692379D01*
X5677513Y5388391D01*
X5664910Y5379970D01*
X5650031Y5365091D01*
X5641610Y5352488D01*
X5638653Y5337622D01*
Y5317900D01*
X5602100D01*
Y5173298D01*
X5602099Y5142737D01*
X5578633Y5133016D01*
X5560543Y5151107D01*
X5559741Y5152307D01*
X5537091Y5174957D01*
X5524488Y5183378D01*
X5509622Y5186335D01*
X5335550D01*
X5320684Y5183378D01*
X5308081Y5174957D01*
X5285033Y5151908D01*
X5276612Y5139306D01*
X5273655Y5124440D01*
Y4893175D01*
X5272560Y4892444D01*
X5260316Y4874118D01*
X5256016Y4852502D01*
X5260316Y4830886D01*
X5272560Y4812561D01*
X5290886Y4800317D01*
X5312501Y4796017D01*
X5334117Y4800317D01*
X5352443Y4812561D01*
X5364687Y4830886D01*
X5368987Y4852502D01*
X5364687Y4874118D01*
X5352443Y4892444D01*
X5351348Y4893175D01*
Y4982403D01*
X5375872Y4984517D01*
Y4984518D01*
X5412425D01*
Y4964801D01*
X5415382Y4949935D01*
X5423803Y4937332D01*
X5438683Y4922453D01*
X5451285Y4914032D01*
X5466151Y4911075D01*
X6246985D01*
X6865591Y4292469D01*
X6855871Y4269003D01*
X6736500D01*
Y4241003D01*
X6892500D01*
X6892500Y4241003D01*
X6917900Y4253766D01*
X6921002Y4253149D01*
X7025824D01*
X7040690Y4256106D01*
X7053292Y4264527D01*
X7083366Y4294600D01*
X7096897D01*
Y4391429D01*
X7097547Y4394698D01*
X7096897Y4397967D01*
Y4481161D01*
X7122297Y4491683D01*
X7142450Y4471529D01*
Y4399300D01*
X7142450Y4399300D01*
X7143497Y4396773D01*
Y4320000D01*
X7171496D01*
Y4319999D01*
X7192699D01*
X7218096Y4318061D01*
Y4294600D01*
X7346899D01*
Y4320000D01*
X7371496D01*
Y4476000D01*
X7371243D01*
Y4624920D01*
X7378002Y4632766D01*
X7405310Y4625673D01*
X7417555Y4607348D01*
X7418649Y4606617D01*
Y4501400D01*
X7418096D01*
Y4294600D01*
X7473716D01*
X7482436Y4277804D01*
X7484448Y4269200D01*
X7481276Y4264453D01*
X7481276Y4264452D01*
X7481275Y4264451D01*
X7479887Y4257471D01*
X7478319Y4249588D01*
Y4158665D01*
X7465932Y4151907D01*
X7452919Y4148464D01*
X7437606Y4158696D01*
X7428690Y4160469D01*
Y4106510D01*
Y4052551D01*
X7437606Y4054325D01*
X7452919Y4064557D01*
X7465932Y4061114D01*
X7478319Y4054356D01*
Y3714379D01*
X7481276Y3699513D01*
X7487095Y3690804D01*
X7483039Y3676978D01*
X7475282Y3665404D01*
X7297643D01*
Y3726272D01*
X7307499Y3748516D01*
X7329115Y3752816D01*
X7347440Y3765060D01*
X7359684Y3783385D01*
X7363984Y3805001D01*
X7359684Y3826617D01*
X7347440Y3844943D01*
X7329115Y3857187D01*
X7307499Y3861487D01*
X7285883Y3857187D01*
X7267557Y3844943D01*
X7255313Y3826617D01*
X7251013Y3805001D01*
X7251270Y3803710D01*
X7231328Y3783767D01*
X7222907Y3771165D01*
X7219950Y3756299D01*
Y3665404D01*
X7168099D01*
Y3458605D01*
X7179130D01*
X7181330Y3455312D01*
X7191025Y3445617D01*
Y3384083D01*
X7170196Y3369666D01*
Y3311634D01*
X7157496D01*
Y3298934D01*
X7103537D01*
X7105311Y3290018D01*
X7117555Y3271693D01*
X7135881Y3259448D01*
X7144048Y3257824D01*
X7167519Y3245619D01*
X7171818Y3224004D01*
X7184063Y3205678D01*
X7202388Y3193434D01*
X7224004Y3189134D01*
X7244943Y3193299D01*
X7245650Y3193421D01*
X7271609Y3182514D01*
X7280030Y3169912D01*
X7314927Y3135015D01*
X7305207Y3111548D01*
X7183242D01*
X7084969Y3209821D01*
X7072366Y3218242D01*
X7071246Y3218465D01*
Y3344014D01*
X7118019Y3390787D01*
X7118021Y3390788D01*
X7122047Y3400509D01*
X7122046Y3400510D01*
Y3561203D01*
X7122047Y3561204D01*
X7121499Y3562526D01*
Y3640004D01*
X7121500Y3640004D01*
X7121499Y3640007D01*
X7119946Y3645884D01*
X7115923Y3655595D01*
X7115920Y3655604D01*
X7110624Y3660900D01*
X7004421Y3767102D01*
X7008771Y3773612D01*
X7011099Y3785317D01*
X7008771Y3797023D01*
X7002140Y3806946D01*
X6992217Y3813577D01*
X6980511Y3815905D01*
X6968806Y3813577D01*
X6958882Y3806946D01*
X6952252Y3797023D01*
X6949924Y3785317D01*
X6952252Y3773612D01*
X6958882Y3763688D01*
X6968806Y3757058D01*
X6977267Y3755375D01*
X7032881Y3699761D01*
X7027107Y3670373D01*
X7018097Y3665405D01*
X6996897D01*
Y3665404D01*
X6918097D01*
Y3600851D01*
X6533851D01*
X6527045Y3607657D01*
X6524686Y3619518D01*
X6512441Y3637844D01*
X6494116Y3650088D01*
X6472500Y3654388D01*
X6450884Y3650088D01*
X6432559Y3637844D01*
X6420315Y3619518D01*
X6416015Y3597902D01*
X6420315Y3576286D01*
X6432559Y3557961D01*
X6450884Y3545717D01*
X6472500Y3541417D01*
X6481601Y3543227D01*
X6490292Y3534536D01*
X6502895Y3526115D01*
X6517761Y3523158D01*
X6918097D01*
Y3458605D01*
X6994886D01*
X7005214Y3451947D01*
X7007874Y3426862D01*
X6948875Y3367862D01*
X6947584Y3368119D01*
X6925968Y3363820D01*
X6907642Y3351575D01*
X6895398Y3333250D01*
X6891098Y3311634D01*
X6895398Y3290018D01*
X6907642Y3271693D01*
X6925968Y3259448D01*
X6947584Y3255149D01*
X6969199Y3259448D01*
X6987525Y3271693D01*
X6999769Y3290018D01*
X7003560Y3309074D01*
X7019869Y3320605D01*
X7043754Y3309601D01*
Y3218465D01*
X7042634Y3218242D01*
X7030031Y3209821D01*
X7021611Y3197218D01*
X7018653Y3182353D01*
X7021611Y3167487D01*
X7030031Y3154884D01*
X7139682Y3045233D01*
X7152285Y3036812D01*
X7167151Y3033855D01*
X7359053D01*
X7366758Y3008455D01*
X7359788Y3003798D01*
X7359788Y3003797D01*
X7321392Y2965401D01*
X7229685D01*
Y2935240D01*
X7166332D01*
X7079164Y3022408D01*
X7076754Y3034526D01*
X7064509Y3052852D01*
X7046184Y3065096D01*
X7024568Y3069396D01*
X7002952Y3065096D01*
X6984627Y3052852D01*
X6972383Y3034526D01*
X6968083Y3012910D01*
X6972383Y2991295D01*
X6984627Y2972969D01*
X7002952Y2960725D01*
X7015071Y2958314D01*
X7115512Y2857873D01*
X7130215Y2848049D01*
X7147559Y2844599D01*
X7147560Y2844599D01*
X7229685D01*
Y2814601D01*
X7341884D01*
X7349762Y2805002D01*
Y2761890D01*
X7342897Y2751616D01*
X7338598Y2730000D01*
X7342897Y2708384D01*
X7349843Y2697990D01*
Y2683310D01*
X7353293Y2665966D01*
X7363117Y2651263D01*
X7404595Y2609785D01*
Y2503079D01*
X7595395D01*
Y2535081D01*
X7695456D01*
Y2500001D01*
X7807285D01*
Y2368970D01*
X7403596D01*
X7375395Y2397170D01*
Y2503876D01*
X7184596D01*
Y2452405D01*
X7099968D01*
Y2493959D01*
X6949168D01*
Y2333159D01*
X7099968D01*
Y2374712D01*
X7184596D01*
Y2333076D01*
X7311302D01*
X7352776Y2291602D01*
X7367479Y2281778D01*
X7384823Y2278328D01*
X7384824Y2278328D01*
X7732329D01*
X7748106Y2252928D01*
X7746081Y2242750D01*
X7750024Y2222929D01*
X7753169Y2218221D01*
X7739593Y2192821D01*
X6852889D01*
X6840182Y2209250D01*
X6714818D01*
X6702112Y2192821D01*
X6005795D01*
X5988452Y2189371D01*
X5973749Y2179547D01*
X5805524Y2011321D01*
X5730899D01*
Y2047680D01*
X5748096D01*
X5765440Y2051130D01*
X5780143Y2060954D01*
X5863962Y2144773D01*
X5863963Y2144774D01*
X5873787Y2159477D01*
X5877237Y2176821D01*
Y2554327D01*
X5877237Y2554328D01*
X5873787Y2571672D01*
X5863963Y2586375D01*
X5863962Y2586375D01*
X5806581Y2643756D01*
X5802385Y2664852D01*
X5790141Y2683177D01*
X5771815Y2695421D01*
X5750199Y2699721D01*
X5728583Y2695421D01*
X5710258Y2683177D01*
X5698014Y2664852D01*
X5693714Y2643236D01*
X5698014Y2621620D01*
X5710258Y2603295D01*
X5728583Y2591050D01*
X5731726Y2590425D01*
X5786595Y2535556D01*
Y2195593D01*
X5756299Y2165296D01*
X5730899Y2175818D01*
Y2288401D01*
X5624869D01*
Y2468303D01*
X5626417Y2470619D01*
X5630717Y2492235D01*
X5626417Y2513851D01*
X5614173Y2532177D01*
X5595847Y2544421D01*
X5574231Y2548721D01*
X5552616Y2544421D01*
X5534290Y2532177D01*
X5522046Y2513851D01*
X5517746Y2492235D01*
X5522046Y2470619D01*
X5534228Y2452387D01*
Y2243951D01*
X5535099Y2239573D01*
Y2151601D01*
Y2024601D01*
Y1897601D01*
Y1770601D01*
Y1643601D01*
Y1610878D01*
X5532319D01*
X5514976Y1607429D01*
X5500272Y1597604D01*
X5477954Y1575286D01*
X5468130Y1560583D01*
X5464680Y1543239D01*
Y1526723D01*
X5329725Y1391769D01*
X5319901Y1377066D01*
X5316451Y1359722D01*
Y1313692D01*
X5314609Y1312460D01*
X5302365Y1294135D01*
X5298065Y1272519D01*
X5302365Y1250903D01*
X5314609Y1232578D01*
X5332934Y1220334D01*
X5354550Y1216034D01*
X5376166Y1220334D01*
X5394491Y1232578D01*
X5406736Y1250903D01*
X5411035Y1272519D01*
X5407093Y1292340D01*
Y1340949D01*
X5433232Y1367088D01*
X5458632Y1356567D01*
Y1072725D01*
X4836357Y450451D01*
X4136467D01*
X4136466Y450451D01*
X4119123Y447001D01*
X4104420Y437177D01*
X3820063Y152821D01*
X2376273D01*
X2345321Y183773D01*
Y586971D01*
X2500429Y742079D01*
X2927681D01*
X2945025Y745529D01*
X2959728Y755353D01*
X2982047Y777672D01*
X2991871Y792375D01*
X2995321Y809718D01*
Y2090411D01*
X3994523Y3089613D01*
X4004347Y3104316D01*
X4007797Y3121660D01*
X4007797Y3121661D01*
Y3842027D01*
X4271382Y4105613D01*
X4271383Y4105613D01*
X4281207Y4120316D01*
X4284657Y4137660D01*
X4284657Y4137661D01*
Y4507704D01*
X4310057Y4521820D01*
X4319679Y4515837D01*
Y4339656D01*
X4323129Y4322312D01*
X4332953Y4307609D01*
X5167768Y3472795D01*
Y3414015D01*
X5142368Y3406310D01*
X5139941Y3409941D01*
X5121616Y3422186D01*
X5112700Y3423959D01*
Y3370000D01*
Y3316041D01*
X5121616Y3317815D01*
X5139941Y3330059D01*
X5142368Y3333690D01*
X5167768Y3325985D01*
Y2687695D01*
X5047613Y2567541D01*
X4485681D01*
X4477976Y2592941D01*
X4478007Y2592962D01*
X4490251Y2611287D01*
X4494551Y2632903D01*
X4490251Y2654519D01*
X4479819Y2670132D01*
X4482929Y2682336D01*
X4489771Y2695532D01*
X4762133D01*
X4779477Y2698982D01*
X4794180Y2708806D01*
X4858776Y2773403D01*
X4955483D01*
Y2924203D01*
X4794683D01*
Y2851665D01*
X4787629Y2847256D01*
X4785893Y2847367D01*
X4761050Y2860596D01*
X4759453Y2868624D01*
X4748225Y2885428D01*
X4731421Y2896656D01*
X4711600Y2900598D01*
X4497583D01*
X4488557Y2898803D01*
X4442583D01*
Y2851246D01*
X4417183Y2838605D01*
X4407986Y2845557D01*
Y2924203D01*
X4377987D01*
Y2982980D01*
X4374537Y3000324D01*
X4364713Y3015027D01*
X4325322Y3054417D01*
Y3429521D01*
X4405402D01*
Y3620320D01*
X4187324D01*
X4173255Y3641755D01*
X4172651Y3645720D01*
X4173959Y3652300D01*
X4132700D01*
Y3607993D01*
X4152751Y3594512D01*
X4154602Y3591471D01*
Y3429521D01*
X4234681D01*
Y3035644D01*
X4238131Y3018301D01*
X4247955Y3003598D01*
X4287345Y2964207D01*
Y2924203D01*
X4247186D01*
Y2894124D01*
X3889316D01*
X3871972Y2890674D01*
X3857269Y2880850D01*
X3834951Y2858531D01*
X3825127Y2843828D01*
X3821677Y2826485D01*
Y2288401D01*
X3769098D01*
Y2151601D01*
X3775559D01*
X3794497Y2136001D01*
X3794498Y2126200D01*
Y2059801D01*
X3794497Y2050001D01*
X3775559Y2034401D01*
X3769098D01*
Y2011321D01*
X3722772D01*
X3710321Y2023773D01*
Y2445610D01*
X3717186Y2455884D01*
X3721485Y2477500D01*
X3717186Y2499116D01*
X3704941Y2517441D01*
X3686616Y2529686D01*
X3665000Y2533985D01*
X3643384Y2529686D01*
X3625059Y2517441D01*
X3612814Y2499116D01*
X3608515Y2477500D01*
X3612814Y2455884D01*
X3619679Y2445610D01*
Y2005001D01*
X3623129Y1987657D01*
X3632953Y1972954D01*
X3671953Y1933955D01*
X3671953Y1933954D01*
X3686657Y1924130D01*
X3704000Y1920680D01*
X3704001Y1920680D01*
X3769098D01*
Y1770601D01*
Y1643601D01*
Y1516601D01*
Y1389601D01*
X3775559D01*
X3794497Y1374001D01*
X3794498Y1364200D01*
Y1297801D01*
X3794497Y1288001D01*
X3789680Y1284032D01*
X3769098Y1272401D01*
D01*
X3743698Y1266898D01*
X3645321Y1365275D01*
Y1452496D01*
X3645321Y1452497D01*
X3641871Y1469840D01*
X3632047Y1484544D01*
X3632046Y1484544D01*
X3259285Y1857305D01*
X3260441Y1860096D01*
X3263720Y1885000D01*
X3260441Y1909904D01*
X3250828Y1933112D01*
X3235537Y1953040D01*
X3215609Y1968332D01*
X3192401Y1977944D01*
X3167497Y1981223D01*
X3142592Y1977944D01*
X3119385Y1968332D01*
X3099457Y1953040D01*
X3084165Y1933112D01*
X3074552Y1909904D01*
X3071274Y1885000D01*
X3074552Y1860096D01*
X3084165Y1836888D01*
X3099457Y1816960D01*
X3119385Y1801668D01*
X3142592Y1792056D01*
X3167497Y1788777D01*
X3192401Y1792056D01*
X3195192Y1793212D01*
X3554679Y1433725D01*
Y1346503D01*
X3558129Y1329159D01*
X3567953Y1314456D01*
X3710455Y1171954D01*
X3725158Y1162130D01*
X3742502Y1158680D01*
X3769098D01*
Y1133916D01*
X3759667Y1111994D01*
X3742324Y1108544D01*
X3727621Y1098720D01*
X3476725Y847818D01*
X3164525D01*
X3147182Y844369D01*
X3132479Y834545D01*
X2855751Y557822D01*
X2522317D01*
X2522315Y557821D01*
X2522311Y557822D01*
X2512926Y555954D01*
X2504973Y554372D01*
X2504971Y554370D01*
X2504968Y554370D01*
X2498293Y549908D01*
X2490270Y544548D01*
X2490268Y544545D01*
X2490266Y544544D01*
X2467954Y522227D01*
X2467953Y522226D01*
X2467953Y522225D01*
X2467950Y522222D01*
X2463611Y515727D01*
X2458129Y507523D01*
X2458129Y507520D01*
X2458127Y507518D01*
X2456534Y499501D01*
X2454679Y490179D01*
Y390402D01*
X2375602D01*
Y189602D01*
X2576402D01*
Y390402D01*
X2545321D01*
Y467180D01*
X2673056D01*
X2674328Y466255D01*
X2687180Y445555D01*
X2687684Y441780D01*
X2686536Y436001D01*
X2684681Y426679D01*
Y379901D01*
X2679369Y377701D01*
X2658396Y361608D01*
X2642303Y340635D01*
X2632187Y316212D01*
X2628736Y290002D01*
X2632187Y263792D01*
X2642303Y239369D01*
X2658396Y218396D01*
X2679369Y202303D01*
X2703792Y192186D01*
X2730002Y188736D01*
X2756212Y192186D01*
X2780635Y202303D01*
X2801608Y218396D01*
X2817701Y239369D01*
X2827818Y263792D01*
X2831268Y290002D01*
X2827818Y316212D01*
X2817701Y340635D01*
X2801608Y361608D01*
X2780635Y377701D01*
X2775323Y379901D01*
Y403680D01*
X2900827D01*
X2918171Y407130D01*
X2932874Y416954D01*
X3205599Y689679D01*
X3527501D01*
X3544845Y693129D01*
X3559548Y702953D01*
X3632274Y775680D01*
X3657674Y765158D01*
Y736019D01*
X3657559Y735942D01*
X3645315Y717617D01*
X3641015Y696001D01*
X3645315Y674385D01*
X3657559Y656059D01*
X3675884Y643815D01*
X3697500Y639515D01*
X3719116Y643815D01*
X3737441Y656059D01*
X3743698Y665423D01*
X3769098Y657718D01*
Y627601D01*
X3964898D01*
Y650680D01*
X4738501D01*
X4755844Y654130D01*
X4770547Y663954D01*
X5152046Y1045453D01*
X5152047Y1045453D01*
X5161871Y1060156D01*
X5165321Y1077500D01*
X5165321Y1077501D01*
Y1314079D01*
X5414646Y1563404D01*
X5426764Y1565814D01*
X5445089Y1578059D01*
X5457334Y1596384D01*
X5461633Y1618000D01*
X5457334Y1639616D01*
X5445089Y1657941D01*
X5426764Y1670186D01*
X5421390Y1671255D01*
X5413029Y1698815D01*
X5446435Y1732221D01*
X5452500Y1731015D01*
X5474116Y1735315D01*
X5492441Y1747559D01*
X5504686Y1765884D01*
X5508985Y1787500D01*
X5504686Y1809116D01*
X5492441Y1827441D01*
X5474116Y1839686D01*
X5452500Y1843985D01*
X5430884Y1839686D01*
X5412559Y1827441D01*
X5400315Y1809116D01*
X5397052Y1792712D01*
X5190087Y1585747D01*
X4922413D01*
X4918221Y1590826D01*
X4912469Y1617531D01*
X5170816Y1875879D01*
X5233128D01*
X5247376Y1878713D01*
X5252568Y1877680D01*
X5274184Y1881980D01*
X5292510Y1894224D01*
X5304754Y1912550D01*
X5309054Y1934166D01*
X5304754Y1955781D01*
X5292510Y1974107D01*
X5285966Y1978479D01*
X5293670Y2003879D01*
X5334828D01*
X5345364Y1996840D01*
X5366980Y1992540D01*
X5388596Y1996840D01*
X5406921Y2009084D01*
X5419165Y2027410D01*
X5423465Y2049026D01*
X5419165Y2070642D01*
X5406921Y2088967D01*
X5388596Y2101211D01*
X5366980Y2105511D01*
X5345364Y2101211D01*
X5335351Y2094521D01*
X4931700D01*
X4914357Y2091071D01*
X4899654Y2081247D01*
X4575728Y1757321D01*
X3964898D01*
Y1799012D01*
X3976784Y1806954D01*
X4017383Y1847553D01*
X4027207Y1862256D01*
X4030657Y1879600D01*
X4030657Y1879601D01*
Y2693530D01*
X4037522Y2703804D01*
X4041821Y2725420D01*
X4037522Y2747036D01*
X4025277Y2765361D01*
X4006952Y2777606D01*
X4004555Y2778082D01*
X4007057Y2803482D01*
X4247186D01*
Y2773403D01*
X4341028D01*
X4402110Y2712321D01*
X4399351Y2698216D01*
X4392660Y2686921D01*
X4203898D01*
X4186555Y2683471D01*
X4171851Y2673647D01*
X4171851Y2673646D01*
X4146451Y2648247D01*
X4136627Y2633544D01*
X4133177Y2616200D01*
Y2450900D01*
X4110098D01*
Y2255100D01*
X4373898D01*
Y2261562D01*
X4389498Y2280500D01*
X4399298Y2280500D01*
X4475498D01*
Y2425500D01*
X4399298D01*
X4389498Y2425500D01*
X4385530Y2430318D01*
X4373899Y2450900D01*
X4388077Y2469708D01*
X4395269Y2476899D01*
X5066386D01*
X5083729Y2480349D01*
X5098432Y2490173D01*
X5125711Y2517452D01*
X5149177Y2507732D01*
Y2450900D01*
X5126098D01*
Y2444438D01*
X5110498Y2425500D01*
X5100698Y2425500D01*
X5024498D01*
Y2280500D01*
X5100698D01*
X5110498Y2280500D01*
X5126098Y2261562D01*
Y2255100D01*
X5262898D01*
Y2450900D01*
X5239819D01*
Y2518763D01*
X5240477Y2519158D01*
X5268207Y2506164D01*
X5269313Y2500604D01*
X5281557Y2482279D01*
X5299882Y2470034D01*
X5308798Y2468261D01*
Y2522220D01*
Y2580244D01*
X5298250Y2599979D01*
X5332046Y2633775D01*
X5332047Y2633775D01*
X5341871Y2648479D01*
X5345321Y2665822D01*
X5345321Y2665823D01*
Y3076793D01*
X5370721Y3087181D01*
X5441729Y3016173D01*
X5458532Y3004945D01*
X5478353Y3001003D01*
X5668591D01*
X5672814Y2997529D01*
X5679916Y2975070D01*
X5679916D01*
Y2845218D01*
X5655597Y2822989D01*
X5649200Y2823253D01*
X5619914Y2852539D01*
Y2975070D01*
X5489914D01*
Y2825071D01*
X5535491D01*
Y2651281D01*
X5452547Y2568338D01*
X5448337Y2562036D01*
X5446858Y2554603D01*
Y2242199D01*
X5396582Y2191923D01*
X4250998D01*
X4243565Y2190445D01*
X4237264Y2186234D01*
X4181100Y2130070D01*
X4178498Y2130588D01*
X4166793Y2128259D01*
X4156869Y2121629D01*
X4150239Y2111705D01*
X4147910Y2100000D01*
X4150239Y2088295D01*
X4156869Y2078371D01*
X4166793Y2071741D01*
X4178498Y2069412D01*
X4190203Y2071741D01*
X4200127Y2078371D01*
X4206757Y2088295D01*
X4209086Y2100000D01*
X4208568Y2102602D01*
X4259044Y2153077D01*
X5404628D01*
X5412061Y2154556D01*
X5418362Y2158766D01*
X5480015Y2220419D01*
X5480016Y2220419D01*
X5484226Y2226721D01*
X5485705Y2234154D01*
Y2546558D01*
X5568647Y2629501D01*
X5568648Y2629501D01*
X5572859Y2635803D01*
X5574337Y2643236D01*
X5574337Y2643237D01*
Y2807466D01*
X5599737Y2817779D01*
X5617330Y2800185D01*
X5617521Y2799226D01*
X5621732Y2792924D01*
X5647770Y2766886D01*
X5654071Y2762676D01*
X5661504Y2761197D01*
X5782615D01*
X5945577Y2598235D01*
Y2377319D01*
X5947056Y2369886D01*
X5951266Y2363584D01*
X5976085Y2338766D01*
X5982386Y2334555D01*
X5989819Y2333077D01*
X6111898D01*
X6113371Y2330871D01*
X6123295Y2324241D01*
X6135000Y2321912D01*
X6146706Y2324241D01*
X6156629Y2330871D01*
X6163259Y2340795D01*
X6165588Y2352500D01*
X6163259Y2364205D01*
X6156629Y2374129D01*
X6154423Y2375603D01*
Y2508480D01*
X6179796D01*
Y2658480D01*
X6049796D01*
Y2508480D01*
X6115577D01*
Y2375603D01*
X6113371Y2374129D01*
X6111898Y2371923D01*
X5997864D01*
X5984423Y2385364D01*
Y2606279D01*
X5984424Y2606281D01*
X5982945Y2613713D01*
X5978735Y2620015D01*
X5804395Y2794355D01*
X5798094Y2798565D01*
X5790661Y2800043D01*
X5791561Y2825071D01*
X5809916D01*
Y2975070D01*
X5797351D01*
Y3129761D01*
X5797352Y3129763D01*
X5793409Y3149584D01*
X5789913Y3154815D01*
Y3228998D01*
X5743939D01*
X5734914Y3230793D01*
X5725888Y3228998D01*
X5679914D01*
Y3137370D01*
X5647137Y3104593D01*
X5499808D01*
X5451795Y3152605D01*
Y3986390D01*
X5499808Y4034402D01*
X5631581D01*
X5643696Y4026307D01*
X5649764Y4025100D01*
X5679914Y3994950D01*
Y3909997D01*
X5725888D01*
X5734914Y3908202D01*
X5739024Y3909020D01*
X5739114Y3909002D01*
X5744118Y3909997D01*
X5789913D01*
Y3938347D01*
X5815029Y3963462D01*
X6040424D01*
X6060245Y3967405D01*
X6077048Y3978633D01*
X6105371Y4006956D01*
X6106991Y4007278D01*
X6123794Y4018506D01*
X6135022Y4035309D01*
X6138965Y4055130D01*
X6135022Y4074951D01*
X6123794Y4091755D01*
X6106991Y4102983D01*
X6087170Y4106925D01*
X6080296D01*
X6060475Y4102983D01*
X6043672Y4091755D01*
X6018969Y4067053D01*
X5793574D01*
X5784651Y4074375D01*
Y4169997D01*
X5789913D01*
Y4269997D01*
X5786709D01*
Y4429996D01*
X5789913D01*
Y4529996D01*
X5743939D01*
X5734914Y4531791D01*
X5725888Y4529996D01*
X5679914D01*
Y4429996D01*
X5683118D01*
Y4269997D01*
X5679914D01*
Y4169997D01*
X5679913Y4169997D01*
X5679913Y4169997D01*
X5670914Y4148324D01*
X5655661Y4137161D01*
X5651480Y4137992D01*
X5478353D01*
X5458532Y4134050D01*
X5441729Y4122822D01*
X5363375Y4044469D01*
X5352148Y4027665D01*
X5348205Y4007844D01*
Y3921810D01*
X5322805Y3911289D01*
X5124596Y4109497D01*
X5122186Y4121616D01*
X5109942Y4139941D01*
X5091616Y4152186D01*
X5070000Y4156485D01*
X5048384Y4152186D01*
X5030059Y4139941D01*
X5017815Y4121616D01*
X5013515Y4100000D01*
X5017815Y4078384D01*
X5030059Y4060059D01*
X5048384Y4047815D01*
X5060503Y4045404D01*
X5254679Y3851228D01*
Y3549991D01*
X5229279Y3539470D01*
X4410321Y4358429D01*
Y4533014D01*
X4413112Y4534170D01*
X4433040Y4549462D01*
X4448332Y4569390D01*
X4457945Y4592597D01*
X4461223Y4617502D01*
X4457945Y4642406D01*
X4448332Y4665613D01*
X4433040Y4685542D01*
X4413112Y4700833D01*
X4389905Y4710446D01*
X4365000Y4713725D01*
X4340096Y4710446D01*
X4316888Y4700833D01*
X4310057Y4695591D01*
X4284657Y4708117D01*
Y5444767D01*
X4872541Y6032652D01*
X4882365Y6047355D01*
X4885815Y6064698D01*
Y6107598D01*
X4930758D01*
Y6080295D01*
D02*
G37*
G36*
X5849318Y5154520D02*
X6000118D01*
Y5196073D01*
X6068080D01*
X6086041Y5178113D01*
X6086040Y5154520D01*
X6086041Y5129120D01*
Y4988768D01*
X5752899D01*
Y5131700D01*
X5752900Y5147898D01*
X5752899Y5173298D01*
Y5313655D01*
X5849318D01*
Y5154520D01*
D02*
G37*
G36*
X8599115Y4066034D02*
X8611718Y4057613D01*
X8626584Y4054656D01*
X8674685D01*
Y3904602D01*
X8716239D01*
Y3814976D01*
X8674604D01*
Y3776345D01*
X8571090D01*
X8214971Y4132469D01*
X8202368Y4140890D01*
X8187502Y4143847D01*
X8068776D01*
X8061882Y4152528D01*
X8053083Y4169247D01*
X8053959Y4173653D01*
X7946041D01*
X7946917Y4169247D01*
X7938118Y4152528D01*
X7931224Y4143847D01*
X7753895D01*
Y4144401D01*
X7738636D01*
X7728495Y4169003D01*
Y4191001D01*
X7728495Y4194403D01*
Y4219000D01*
X7577435Y4219001D01*
X7562967Y4240454D01*
X7574565Y4252053D01*
X7574572Y4252063D01*
X7589444Y4266936D01*
X7589449Y4266942D01*
X7610661Y4288155D01*
X8376994D01*
X8599115Y4066034D01*
D02*
G37*
G36*
X8527531Y3710030D02*
X8540133Y3701609D01*
X8554999Y3698652D01*
X8674604D01*
Y3664176D01*
X8835404D01*
Y3814976D01*
X8793932D01*
Y3904602D01*
X8835485D01*
Y4054656D01*
X8868281D01*
X8870082Y4030002D01*
X8870083D01*
Y3930002D01*
X8916057D01*
X8925082Y3928207D01*
X9098544D01*
X9240944Y3785807D01*
Y3571926D01*
X9211768Y3542751D01*
X8925082D01*
X8916057Y3540956D01*
X8870083D01*
Y3440956D01*
X8916057D01*
X8925082Y3439161D01*
X9233223D01*
X9240944Y3432824D01*
Y3061797D01*
X9150000D01*
Y2958206D01*
X9240944D01*
Y2630973D01*
X9211768Y2601798D01*
X9150000D01*
Y2468846D01*
X8845720D01*
X8835404Y2474603D01*
Y2625402D01*
X8674604D01*
Y2474603D01*
X8707595D01*
Y2441803D01*
X8695161Y2429359D01*
X8669005Y2429905D01*
Y2255000D01*
X8198797D01*
Y2500001D01*
X8325401D01*
Y2660801D01*
X8282500D01*
Y3110006D01*
X8673856D01*
Y3047304D01*
X8674604Y3043545D01*
Y2934602D01*
X8716158D01*
Y2855405D01*
X8679522D01*
Y2704605D01*
X8815700D01*
X8822168Y2695683D01*
X8822550Y2691904D01*
X8822296Y2679205D01*
X8822562Y2692514D01*
X8826521Y2704605D01*
X8840321D01*
Y2855405D01*
X8793851D01*
Y2934602D01*
X8835404D01*
Y3085401D01*
X8751549D01*
Y3135824D01*
X8748888Y3149206D01*
X8748869Y3151144D01*
X8763161Y3174606D01*
X8835404D01*
Y3325406D01*
X8793932D01*
Y3415556D01*
X8835485D01*
Y3566356D01*
X8674685D01*
Y3421183D01*
X8652746Y3407202D01*
X8017260Y4042688D01*
X8026980Y4066154D01*
X8171411D01*
X8527531Y3710030D01*
D02*
G37*
G36*
X5205709Y1482654D02*
X5087953Y1364898D01*
X5078129Y1350195D01*
X5074679Y1332852D01*
Y1096272D01*
X4719728Y741321D01*
X3964898D01*
Y881601D01*
Y1008601D01*
Y1135601D01*
Y1272401D01*
X3958436D01*
X3939498Y1288001D01*
X3939498Y1297801D01*
Y1364200D01*
X3939498Y1374001D01*
X3958436Y1389601D01*
X3964898D01*
Y1419154D01*
X4490560D01*
X4498265Y1393754D01*
X4492559Y1389941D01*
X4480314Y1371616D01*
X4478541Y1362700D01*
X4586459D01*
X4584686Y1371616D01*
X4572441Y1389941D01*
X4559701Y1398454D01*
X4558343Y1403152D01*
X4557934Y1418933D01*
X4559700Y1426677D01*
X4565469Y1430532D01*
X4642991Y1508054D01*
X5195188D01*
X5205709Y1482654D01*
D02*
G37*
%LPC*%
G36*
X4410200Y6843959D02*
Y6802700D01*
X4451459D01*
X4449686Y6811616D01*
X4437441Y6829941D01*
X4419116Y6842186D01*
X4410200Y6843959D01*
D02*
G37*
G36*
X4384800D02*
X4375884Y6842186D01*
X4357559Y6829941D01*
X4345315Y6811616D01*
X4343541Y6802700D01*
X4384800D01*
Y6843959D01*
D02*
G37*
G36*
X4451459Y6777300D02*
X4410200D01*
Y6736041D01*
X4419116Y6737815D01*
X4437441Y6750059D01*
X4449686Y6768384D01*
X4451459Y6777300D01*
D02*
G37*
G36*
X4384800D02*
X4343541D01*
X4345315Y6768384D01*
X4357559Y6750059D01*
X4375884Y6737815D01*
X4384800Y6736041D01*
Y6777300D01*
D02*
G37*
G36*
X4615002Y4713725D02*
X4590098Y4710446D01*
X4566891Y4700833D01*
X4546962Y4685542D01*
X4531671Y4665613D01*
X4522058Y4642406D01*
X4518779Y4617502D01*
X4522058Y4592597D01*
X4531671Y4569390D01*
X4546962Y4549462D01*
X4566891Y4534170D01*
X4590098Y4524557D01*
X4615002Y4521278D01*
X4639907Y4524557D01*
X4663114Y4534170D01*
X4683042Y4549462D01*
X4698334Y4569390D01*
X4707947Y4592597D01*
X4711225Y4617502D01*
X4707947Y4642406D01*
X4698334Y4665613D01*
X4683042Y4685542D01*
X4663114Y4700833D01*
X4639907Y4710446D01*
X4615002Y4713725D01*
D02*
G37*
G36*
X7403290Y4160469D02*
X7394374Y4158696D01*
X7376049Y4146452D01*
X7363804Y4128126D01*
X7362031Y4119210D01*
X7403290D01*
Y4160469D01*
D02*
G37*
G36*
X6892500Y4169003D02*
X6736500D01*
Y4141003D01*
X6892500D01*
Y4141257D01*
X6986973D01*
Y4091065D01*
X6974473Y4068750D01*
X6974472Y4068750D01*
X6892500D01*
Y4069003D01*
X6736500D01*
Y4067450D01*
X6652384D01*
X6649946Y4071100D01*
X6640022Y4077730D01*
X6628317Y4080059D01*
X6616611Y4077730D01*
X6606688Y4071100D01*
X6600057Y4061177D01*
X6597729Y4049471D01*
X6600057Y4037766D01*
X6606688Y4027842D01*
X6616611Y4021212D01*
X6628317Y4018884D01*
X6640022Y4021212D01*
X6649946Y4027842D01*
X6656576Y4037766D01*
X6657012Y4039957D01*
X6725771D01*
X6736500Y4019001D01*
X6736500Y4014557D01*
Y3991001D01*
X6892500D01*
Y4015603D01*
X6892500Y4019001D01*
X6900090Y4041257D01*
X6945581D01*
X6970131Y4038120D01*
X6972460Y4026415D01*
X6979090Y4016491D01*
X6981296Y4015017D01*
Y3912870D01*
X6962727Y3894302D01*
X6958517Y3888000D01*
X6957043Y3880589D01*
X6946504Y3870050D01*
X6903241D01*
X6892500Y3891001D01*
X6892500Y3895450D01*
Y3919001D01*
X6736500D01*
Y3918748D01*
X6698400D01*
X6689078Y3914887D01*
X6343701D01*
X6343700Y3914888D01*
X6333979Y3910861D01*
X6333978Y3910859D01*
X6292667Y3869548D01*
X6103367D01*
X6103367Y3869548D01*
X6093646Y3865522D01*
X6051068Y3822944D01*
X5850119D01*
X5850118Y3822945D01*
X5840397Y3818918D01*
X5840397Y3818917D01*
X5770477Y3748997D01*
X5679914D01*
Y3648997D01*
X5789913D01*
Y3729552D01*
X5855812Y3795451D01*
X6056762D01*
X6056763Y3795451D01*
X6066483Y3799477D01*
X6109061Y3842055D01*
X6226748D01*
X6229250Y3816655D01*
X6217718Y3814361D01*
X6205115Y3805940D01*
X5876593Y3477417D01*
X5815313D01*
Y3513971D01*
X5654514D01*
Y3367771D01*
X5652337Y3367338D01*
X5634011Y3355093D01*
X5621767Y3336768D01*
X5619994Y3327852D01*
X5727912D01*
X5726138Y3336768D01*
X5725468Y3337771D01*
X5739045Y3363171D01*
X5815313D01*
Y3399724D01*
X5892683D01*
X5907549Y3402681D01*
X5920152Y3411102D01*
X6248675Y3739625D01*
X6678497D01*
X6693363Y3742582D01*
X6705966Y3751003D01*
X6711100Y3756137D01*
X6736500Y3745616D01*
X6736500Y3741004D01*
Y3719001D01*
X6736500Y3715604D01*
Y3691002D01*
X6892500D01*
Y3715604D01*
X6892500Y3719001D01*
Y3741004D01*
X6902640Y3765601D01*
X6917900D01*
Y3842557D01*
X6952197D01*
X6952198Y3842557D01*
X6961918Y3846583D01*
X6976483Y3861148D01*
X6983895Y3862623D01*
X6990196Y3866833D01*
X7014453Y3891091D01*
X7018664Y3897392D01*
X7020142Y3904825D01*
Y4015017D01*
X7022348Y4016491D01*
X7028978Y4026415D01*
X7031307Y4038120D01*
X7028978Y4049825D01*
X7022348Y4059749D01*
X7014466Y4065015D01*
Y4155003D01*
X7010439Y4164723D01*
X7000719Y4168750D01*
X6892500D01*
Y4169003D01*
D02*
G37*
G36*
X7403290Y4093810D02*
X7362031D01*
X7363804Y4084895D01*
X7376049Y4066569D01*
X7394374Y4054325D01*
X7403290Y4052551D01*
Y4093810D01*
D02*
G37*
G36*
X6483309Y4056699D02*
Y4015440D01*
X6524568D01*
X6522795Y4024356D01*
X6510550Y4042681D01*
X6492225Y4054926D01*
X6483309Y4056699D01*
D02*
G37*
G36*
X6457909D02*
X6448993Y4054926D01*
X6430668Y4042681D01*
X6418424Y4024356D01*
X6416650Y4015440D01*
X6457909D01*
Y4056699D01*
D02*
G37*
G36*
X6524568Y3990040D02*
X6483309D01*
Y3948781D01*
X6492225Y3950554D01*
X6510550Y3962799D01*
X6522795Y3981124D01*
X6524568Y3990040D01*
D02*
G37*
G36*
X6457909D02*
X6416650D01*
X6418424Y3981124D01*
X6430668Y3962799D01*
X6448993Y3950554D01*
X6457909Y3948781D01*
Y3990040D01*
D02*
G37*
G36*
X4132700Y3718959D02*
Y3677700D01*
X4173959D01*
X4172186Y3686616D01*
X4159941Y3704941D01*
X4141616Y3717186D01*
X4132700Y3718959D01*
D02*
G37*
G36*
X4107300D02*
X4098384Y3717186D01*
X4080059Y3704941D01*
X4067815Y3686616D01*
X4066041Y3677700D01*
X4107300D01*
Y3718959D01*
D02*
G37*
G36*
Y3652300D02*
X4066041D01*
X4067815Y3643384D01*
X4080059Y3625059D01*
X4098384Y3612814D01*
X4107300Y3611041D01*
Y3652300D01*
D02*
G37*
G36*
X5087300Y3423959D02*
X5078384Y3422186D01*
X5060059Y3409941D01*
X5047814Y3391616D01*
X5046041Y3382700D01*
X5087300D01*
Y3423959D01*
D02*
G37*
G36*
X7144796Y3365593D02*
X7135881Y3363820D01*
X7117555Y3351575D01*
X7105311Y3333250D01*
X7103537Y3324334D01*
X7144796D01*
Y3365593D01*
D02*
G37*
G36*
X5087300Y3357300D02*
X5046041D01*
X5047814Y3348384D01*
X5060059Y3330059D01*
X5078384Y3317815D01*
X5087300Y3316041D01*
Y3357300D01*
D02*
G37*
G36*
X5727912Y3302452D02*
X5686653D01*
Y3261193D01*
X5695568Y3262967D01*
X5713894Y3275211D01*
X5726138Y3293536D01*
X5727912Y3302452D01*
D02*
G37*
G36*
X5661253D02*
X5619994D01*
X5621767Y3293536D01*
X5634011Y3275211D01*
X5652337Y3262967D01*
X5661253Y3261193D01*
Y3302452D01*
D02*
G37*
G36*
X6877848Y3043959D02*
Y3002700D01*
X6919107D01*
X6917333Y3011616D01*
X6905089Y3029941D01*
X6886763Y3042186D01*
X6877848Y3043959D01*
D02*
G37*
G36*
X6852448D02*
X6843532Y3042186D01*
X6825206Y3029941D01*
X6812962Y3011616D01*
X6811189Y3002700D01*
X6852448D01*
Y3043959D01*
D02*
G37*
G36*
X6919107Y2977300D02*
X6877848D01*
Y2936041D01*
X6886763Y2937815D01*
X6905089Y2950059D01*
X6917333Y2968384D01*
X6919107Y2977300D01*
D02*
G37*
G36*
X6852448D02*
X6811189D01*
X6812962Y2968384D01*
X6825206Y2950059D01*
X6843532Y2937815D01*
X6852448Y2936041D01*
Y2977300D01*
D02*
G37*
G36*
X5052700Y2731459D02*
Y2690200D01*
X5093959D01*
X5092186Y2699116D01*
X5079941Y2717441D01*
X5061616Y2729686D01*
X5052700Y2731459D01*
D02*
G37*
G36*
X5027300D02*
X5018384Y2729686D01*
X5000059Y2717441D01*
X4987815Y2699116D01*
X4986041Y2690200D01*
X5027300D01*
Y2731459D01*
D02*
G37*
G36*
X5093959Y2664800D02*
X5052700D01*
Y2623541D01*
X5061616Y2625315D01*
X5079941Y2637559D01*
X5092186Y2655884D01*
X5093959Y2664800D01*
D02*
G37*
G36*
X5027300D02*
X4986041D01*
X4987815Y2655884D01*
X5000059Y2637559D01*
X5018384Y2625315D01*
X5027300Y2623541D01*
Y2664800D01*
D02*
G37*
G36*
X5334198Y2576179D02*
Y2534920D01*
X5375457D01*
X5373684Y2543836D01*
X5361439Y2562161D01*
X5343114Y2574406D01*
X5334198Y2576179D01*
D02*
G37*
G36*
X6369798Y2658480D02*
X6239798D01*
Y2508480D01*
X6247481D01*
Y2344420D01*
X6251424Y2324599D01*
X6262651Y2307795D01*
X6279455Y2296567D01*
X6299276Y2292625D01*
X6319097Y2296567D01*
X6335901Y2307795D01*
X6347129Y2324599D01*
X6351071Y2344420D01*
Y2508480D01*
X6369798D01*
Y2531385D01*
X6493721D01*
Y2528480D01*
X6593721D01*
Y2531766D01*
X6734147D01*
Y2528561D01*
X6834147D01*
Y2574535D01*
X6835942Y2583561D01*
X6834147Y2592587D01*
Y2638561D01*
X6734147D01*
Y2635356D01*
X6593721D01*
Y2638480D01*
X6493721D01*
Y2634975D01*
X6369798D01*
Y2658480D01*
D02*
G37*
G36*
X5375457Y2509520D02*
X5334198D01*
Y2468261D01*
X5343114Y2470034D01*
X5361439Y2482279D01*
X5373684Y2500604D01*
X5375457Y2509520D01*
D02*
G37*
G36*
X4983498Y2425500D02*
X4897498D01*
Y2280500D01*
X4983498D01*
Y2425500D01*
D02*
G37*
G36*
X4856498D02*
X4770498D01*
Y2280500D01*
X4856498D01*
Y2425500D01*
D02*
G37*
G36*
X4729498D02*
X4643498D01*
Y2280500D01*
X4729498D01*
Y2425500D01*
D02*
G37*
G36*
X4602498D02*
X4516498D01*
Y2280500D01*
X4602498D01*
Y2425500D01*
D02*
G37*
G36*
X6790200Y2275909D02*
Y2234650D01*
X6831459D01*
X6829686Y2243566D01*
X6817442Y2261891D01*
X6799116Y2274135D01*
X6790200Y2275909D01*
D02*
G37*
G36*
X6764800D02*
X6755884Y2274135D01*
X6737559Y2261891D01*
X6725315Y2243566D01*
X6723541Y2234650D01*
X6764800D01*
Y2275909D01*
D02*
G37*
G36*
X3167497Y1731221D02*
X3142592Y1727942D01*
X3119385Y1718330D01*
X3099457Y1703038D01*
X3084165Y1683110D01*
X3074552Y1659902D01*
X3071274Y1634998D01*
X3074552Y1610094D01*
X3084165Y1586886D01*
X3099457Y1566958D01*
X3119385Y1551666D01*
X3142592Y1542054D01*
X3167497Y1538775D01*
X3192401Y1542054D01*
X3215609Y1551666D01*
X3235537Y1566958D01*
X3250828Y1586886D01*
X3260441Y1610094D01*
X3263720Y1634998D01*
X3260441Y1659902D01*
X3250828Y1683110D01*
X3235537Y1703038D01*
X3215609Y1718330D01*
X3192401Y1727942D01*
X3167497Y1731221D01*
D02*
G37*
G36*
X3180197Y1479552D02*
Y1397701D01*
X3262048D01*
X3260441Y1409905D01*
X3250828Y1433113D01*
X3235537Y1453041D01*
X3215609Y1468333D01*
X3192401Y1477945D01*
X3180197Y1479552D01*
D02*
G37*
G36*
X3154797D02*
X3142592Y1477945D01*
X3119385Y1468333D01*
X3099457Y1453041D01*
X3084165Y1433113D01*
X3074552Y1409905D01*
X3072946Y1397701D01*
X3154797D01*
Y1479552D01*
D02*
G37*
G36*
X3262048Y1372301D02*
X3180197D01*
Y1290450D01*
X3192401Y1292057D01*
X3215609Y1301669D01*
X3235537Y1316961D01*
X3250828Y1336889D01*
X3260441Y1360097D01*
X3262048Y1372301D01*
D02*
G37*
G36*
X3154797D02*
X3072946D01*
X3074552Y1360097D01*
X3084165Y1336889D01*
X3099457Y1316961D01*
X3119385Y1301669D01*
X3142592Y1292057D01*
X3154797Y1290450D01*
Y1372301D01*
D02*
G37*
G36*
X3237497Y1204999D02*
X3097497D01*
Y1064999D01*
X3237497D01*
Y1204999D01*
D02*
G37*
G36*
X3596397Y503961D02*
Y462702D01*
X3637656D01*
X3635883Y471618D01*
X3623639Y489943D01*
X3605313Y502187D01*
X3596397Y503961D01*
D02*
G37*
G36*
X3570997D02*
X3562082Y502187D01*
X3543756Y489943D01*
X3531512Y471618D01*
X3529738Y462702D01*
X3570997D01*
Y503961D01*
D02*
G37*
G36*
X3637656Y437302D02*
X3596397D01*
Y396043D01*
X3605313Y397816D01*
X3623639Y410060D01*
X3635883Y428386D01*
X3637656Y437302D01*
D02*
G37*
G36*
X3570997D02*
X3529738D01*
X3531512Y428386D01*
X3543756Y410060D01*
X3562082Y397816D01*
X3570997Y396043D01*
Y437302D01*
D02*
G37*
G36*
X2996702Y389596D02*
Y302702D01*
X3083596D01*
X3081818Y316212D01*
X3071701Y340635D01*
X3055608Y361608D01*
X3034635Y377701D01*
X3010212Y387818D01*
X2996702Y389596D01*
D02*
G37*
G36*
X2971302D02*
X2957792Y387818D01*
X2933369Y377701D01*
X2912396Y361608D01*
X2896303Y340635D01*
X2886187Y316212D01*
X2884408Y302702D01*
X2971302D01*
Y389596D01*
D02*
G37*
G36*
X3083596Y277302D02*
X2996702D01*
Y190408D01*
X3010212Y192186D01*
X3034635Y202303D01*
X3055608Y218396D01*
X3071701Y239369D01*
X3081818Y263792D01*
X3083596Y277302D01*
D02*
G37*
G36*
X2971302D02*
X2884408D01*
X2886187Y263792D01*
X2896303Y239369D01*
X2912396Y218396D01*
X2933369Y202303D01*
X2957792Y192186D01*
X2971302Y190408D01*
Y277302D01*
D02*
G37*
G36*
X8012700Y4240312D02*
Y4199053D01*
X8053959D01*
X8052186Y4207969D01*
X8039941Y4226294D01*
X8021616Y4238539D01*
X8012700Y4240312D01*
D02*
G37*
G36*
X7987300D02*
X7978384Y4238539D01*
X7960059Y4226294D01*
X7947814Y4207969D01*
X7946041Y4199053D01*
X7987300D01*
Y4240312D01*
D02*
G37*
G36*
X9137700Y3786459D02*
Y3745200D01*
X9178959D01*
X9177186Y3754116D01*
X9164942Y3772441D01*
X9146616Y3784686D01*
X9137700Y3786459D01*
D02*
G37*
G36*
X9112300D02*
X9103384Y3784686D01*
X9085059Y3772441D01*
X9072815Y3754116D01*
X9071041Y3745200D01*
X9112300D01*
Y3786459D01*
D02*
G37*
G36*
X9178959Y3719800D02*
X9137700D01*
Y3678541D01*
X9146616Y3680314D01*
X9164942Y3692559D01*
X9177186Y3710884D01*
X9178959Y3719800D01*
D02*
G37*
G36*
X9112300D02*
X9071041D01*
X9072815Y3710884D01*
X9085059Y3692559D01*
X9103384Y3680314D01*
X9112300Y3678541D01*
Y3719800D01*
D02*
G37*
G36*
X9132700Y3279759D02*
Y3238500D01*
X9173959D01*
X9172186Y3247416D01*
X9159942Y3265741D01*
X9141616Y3277986D01*
X9132700Y3279759D01*
D02*
G37*
G36*
X9107300D02*
X9098384Y3277986D01*
X9080059Y3265741D01*
X9067815Y3247416D01*
X9066041Y3238500D01*
X9107300D01*
Y3279759D01*
D02*
G37*
G36*
X9173959Y3213100D02*
X9132700D01*
Y3171841D01*
X9141616Y3173614D01*
X9159942Y3185859D01*
X9172186Y3204184D01*
X9173959Y3213100D01*
D02*
G37*
G36*
X9107300D02*
X9066041D01*
X9067815Y3204184D01*
X9080059Y3185859D01*
X9098384Y3173614D01*
X9107300Y3171841D01*
Y3213100D01*
D02*
G37*
G36*
X9117700Y2833964D02*
Y2792705D01*
X9158959D01*
X9157186Y2801621D01*
X9144942Y2819946D01*
X9126616Y2832190D01*
X9117700Y2833964D01*
D02*
G37*
G36*
X9092300D02*
X9083384Y2832190D01*
X9065059Y2819946D01*
X9052815Y2801621D01*
X9051041Y2792705D01*
X9092300D01*
Y2833964D01*
D02*
G37*
G36*
X9158959Y2767305D02*
X9117700D01*
Y2726046D01*
X9126616Y2727819D01*
X9144942Y2740063D01*
X9157186Y2758389D01*
X9158959Y2767305D01*
D02*
G37*
G36*
X9092300D02*
X9051041D01*
X9052815Y2758389D01*
X9065059Y2740063D01*
X9083384Y2727819D01*
X9092300Y2726046D01*
Y2767305D01*
D02*
G37*
G36*
X8383945Y2385960D02*
Y2343956D01*
X8425949D01*
X8418211Y2362638D01*
X8402626Y2378222D01*
X8383945Y2385960D01*
D02*
G37*
G36*
X8358545D02*
X8339863Y2378222D01*
X8324279Y2362638D01*
X8316541Y2343956D01*
X8358545D01*
Y2385960D01*
D02*
G37*
G36*
X8425949Y2318556D02*
X8383945D01*
Y2276552D01*
X8402626Y2284290D01*
X8418211Y2299875D01*
X8425949Y2318556D01*
D02*
G37*
G36*
X8358545D02*
X8316541D01*
X8324279Y2299875D01*
X8339863Y2284290D01*
X8358545Y2276552D01*
Y2318556D01*
D02*
G37*
G36*
X4586459Y1337300D02*
X4545200D01*
Y1296041D01*
X4554116Y1297815D01*
X4572441Y1310059D01*
X4584686Y1328384D01*
X4586459Y1337300D01*
D02*
G37*
G36*
X4519800D02*
X4478541D01*
X4480314Y1328384D01*
X4492559Y1310059D01*
X4510884Y1297815D01*
X4519800Y1296041D01*
Y1337300D01*
D02*
G37*
%LPD*%
D10*
X8021032Y6627214D02*
G03*
X8042500Y6648682I0J21468D01*
G01*
Y6400814D02*
G03*
X7978091Y6465223I-64409J0D01*
G01*
X7913082Y6627214D02*
G03*
X7841000Y6555132I0J-72082D01*
G01*
Y6528100D02*
G03*
X7903877Y6465223I62877J0D01*
G01*
X8182082Y6641614D02*
G03*
X8110000Y6569532I0J-72082D01*
G01*
Y6542500D02*
G03*
X8172877Y6479623I62877J0D01*
G01*
X8322905Y6423317D02*
G03*
X8305547Y6465223I-59264J0D01*
G01*
D02*
G03*
X8270782Y6479623I-34765J-34765D01*
G01*
X8255787Y6641614D02*
G03*
X8272850Y6648682I0J24131D01*
G01*
D02*
G03*
X8305547Y6727618I-78936J78936D01*
G01*
X7829856Y6660208D02*
G03*
X7841000Y6687134I-26956J26926D01*
G01*
X7781157Y6627214D02*
G03*
X7808006Y6638358I-76J38100D01*
G01*
X7639800Y6627215D02*
G03*
X7625346Y6624367I0J-38100D01*
G01*
X7722500Y6436189D02*
G03*
X7695034Y6472636I-38100J-139D01*
G01*
X7597720Y6501235D02*
G03*
X7610883Y6488381I36225J23927D01*
G01*
X7610882Y6488380D02*
G03*
X7629962Y6482577I20239J32280D01*
G01*
X7584765Y6530000D02*
G03*
X7591089Y6511223I38028J2355D01*
G01*
X7695034Y6472636D02*
G03*
X7629961Y6482577I-71143J-247748D01*
G01*
X7441595Y6447500D02*
G03*
X7363547Y6479828I-78048J-78048D01*
G01*
X7460000Y6403066D02*
G03*
X7441595Y6447500I-62839J0D01*
G01*
X7297266Y6524918D02*
G03*
X7303590Y6506142I38028J2355D01*
G01*
X7310221Y6496154D02*
G03*
X7334362Y6479828I31791J20999D01*
G01*
X7337846Y6619285D02*
G03*
X7295844Y6543347I26339J-64153D01*
G01*
X7296298Y6539428D02*
G03*
X7295844Y6543347I-38023J-2420D01*
G01*
X7625346Y6624367D02*
G03*
X7583343Y6548429I26339J-64153D01*
G01*
X7583798Y6544509D02*
G03*
X7583343Y6548429I-38023J-2420D01*
G01*
X7451954Y6642364D02*
G03*
X7460000Y6665782I-30054J23418D01*
G01*
X7414670Y6622133D02*
G03*
X7441595Y6633277I0J38100D01*
G01*
X7352301Y6622133D02*
G03*
X7337846Y6619285I0J-38100D01*
G01*
X3796519Y6505000D02*
X3950000D01*
X3635441Y6343922D02*
X3796519Y6505000D01*
X8224601Y2605801D02*
X8250001Y2580401D01*
X8224601Y2605801D02*
Y2796349D01*
X8099999Y2920951D02*
X8224601Y2796349D01*
X5120000Y1077500D02*
Y1332852D01*
X4738501Y696001D02*
X5120000Y1077500D01*
X3866998Y696001D02*
X4738501D01*
X5120000Y1332852D02*
X5405148Y1618000D01*
X8166723Y2064222D02*
X8274200Y2171700D01*
X5845526Y1839001D02*
X6070747Y2064222D01*
X8166723D01*
X8062500Y2147500D02*
X8153476Y2238476D01*
X6005795Y2147500D02*
X8062500D01*
X5824296Y1966001D02*
X6005795Y2147500D01*
X7357496Y4647289D02*
Y4792500D01*
X5404628Y2172500D02*
X5466281Y2234154D01*
X4178498Y2100000D02*
X4250998Y2172500D01*
X5404628D01*
X5466281Y2234154D02*
Y2554603D01*
X4931700Y2049200D02*
X5366805D01*
X5366980Y2049026D01*
X7868600Y1993900D02*
X8000000Y1862500D01*
X6108776Y1993900D02*
X7868600D01*
X8000000Y1169996D02*
Y1862500D01*
X8752916Y2320006D02*
Y2430000D01*
Y2550003D01*
X8565416Y2663503D02*
X8811506D01*
X8920006Y2550003D02*
X8925006D01*
X8153476Y2238476D02*
Y2547381D01*
X8274200Y2171700D02*
X8694496D01*
X8889056Y2580953D02*
X8920006Y2550003D01*
X8889056Y2580953D02*
Y2585953D01*
X7514646Y4585000D02*
X7581783Y4652137D01*
Y5064917D01*
X780699Y6425194D02*
Y6603599D01*
X1065624Y6143450D02*
X1080049Y6129026D01*
X780699Y6425194D02*
X1062443Y6143450D01*
X1065624D01*
X1080049Y5958500D02*
Y6129026D01*
X1359481Y5815000D02*
X1470716Y5703765D01*
X1228548Y5815000D02*
X1359481D01*
X1470716Y5624002D02*
Y5703765D01*
X1085049Y5958500D02*
X1228548Y5815000D01*
X5617500Y6406994D02*
Y6665000D01*
Y6406994D02*
X5649997Y6374498D01*
X8095000Y7214998D02*
Y7214998D01*
Y7214998D02*
X8273613D01*
X8299420Y7189190D02*
X8305547Y6760354D01*
X8273613Y7214998D02*
X8299420Y7189190D01*
X8305547Y6727618D02*
Y6760354D01*
X8042500Y6648682D02*
Y6960998D01*
X7968000D02*
X8042500D01*
Y5897741D02*
Y6400814D01*
X7913082Y6627214D02*
X8021032D01*
X7903877Y6465223D02*
X7978091D01*
X7841000Y6528100D02*
Y6555132D01*
X8110000Y6542500D02*
Y6569532D01*
X8182082Y6641614D02*
X8255787D01*
X7968000Y6932229D02*
Y6960998D01*
X8172877Y6479623D02*
X8270782D01*
X8322905Y5890181D02*
Y6423317D01*
X8074751Y5642027D02*
X8322905Y5890181D01*
X8074751Y5254442D02*
Y5642027D01*
X7818506Y5234920D02*
Y5673747D01*
X8042500Y5897741D01*
X8055229Y5234920D02*
X8074751Y5254442D01*
X7252500Y5813953D02*
X7722500Y6283953D01*
X7252500Y5622187D02*
Y5813953D01*
X7722500Y6283953D02*
Y6436189D01*
X7136327Y5506014D02*
X7252500Y5622187D01*
X7808006Y6638358D02*
X7829856Y6660208D01*
X7808006Y6638358D02*
X7808006Y6638358D01*
X7639800Y6627215D02*
X7781157Y6627214D01*
X7639800Y6627215D02*
X7639800D01*
X7722500Y6436189D02*
Y6436189D01*
X7610882Y6488380D02*
X7610883Y6488380D01*
X7591089Y6511223D02*
X7597721Y6501235D01*
X7136327Y5262909D02*
Y5506014D01*
X7460000Y6218585D02*
Y6403066D01*
X6649751Y5249779D02*
Y5408336D01*
X7460000Y6218585D01*
X7334362Y6479828D02*
X7363547D01*
X7296298Y6539428D02*
X7297266Y6524918D01*
X7303589Y6506142D02*
X7310221Y6496153D01*
X7583798Y6544509D02*
X7584765Y6530000D01*
X7841000Y6687134D02*
Y7214998D01*
X7451954Y6642364D02*
X7451954Y6642364D01*
X7447085Y6637495D02*
X7451954Y6642364D01*
X7441595Y6633277D02*
X7447085Y6637495D01*
X7414669Y6622133D02*
X7414670D01*
X7352301Y6622133D02*
X7414669Y6622133D01*
X7352301Y6622133D02*
X7352301D01*
X7460000Y6665782D02*
Y6960998D01*
X6447682Y5930000D02*
X6470000Y5952319D01*
X6172682Y5930000D02*
X6447682D01*
X6470000Y5952319D02*
Y6120498D01*
X5794828Y6419828D02*
X5892074Y6517074D01*
X5695327Y6419828D02*
X5794828D01*
X5649997Y6374498D02*
X5695327Y6419828D01*
X5356373Y5700000D02*
X5942682D01*
X6172682Y5930000D01*
X4976078Y6080295D02*
X5356373Y5700000D01*
X4438299Y7100143D02*
Y7453798D01*
X4129502Y7762596D02*
X4438299Y7453798D01*
Y7100143D02*
X4591869Y6946574D01*
X524467Y5572500D02*
X700000D01*
X510470Y5586497D02*
X524467Y5572500D01*
X700000D02*
X775498Y5497002D01*
X930712D01*
X7395083Y2805002D02*
X7444132Y2854051D01*
X7395083Y2730000D02*
Y2805002D01*
X7445081Y2860000D02*
X7480000D01*
X7444132Y2854051D02*
Y2859051D01*
X7445081Y2860000D01*
X7147559Y2889920D02*
X7310003D01*
X7391835Y2971751D02*
X7556147D01*
X7310003Y2889920D02*
X7310085Y2890001D01*
X7310085D02*
X7315085D01*
X7346035Y2925951D02*
X7391835Y2971751D01*
X7346035Y2920951D02*
Y2925951D01*
X7315085Y2890001D02*
X7346035Y2920951D01*
X7024568Y3012910D02*
X7147559Y2889920D01*
X8811506Y2663503D02*
X8889056Y2585953D01*
X7395083Y2730000D02*
X7395164Y2729920D01*
Y2683310D02*
X7489995Y2588478D01*
X7395164Y2683310D02*
Y2729920D01*
X1748863Y5820000D02*
X1772919D01*
X1729211D02*
X1748863D01*
X6976462Y3880567D02*
X7000719Y3904825D01*
Y4038120D01*
X7852606Y2342248D02*
Y2675292D01*
X7745456Y2920951D02*
X7996093Y2670314D01*
X7556147Y2971751D02*
X7852606Y2675292D01*
X7830002Y999998D02*
X8000000Y1169996D01*
X4136466Y405130D02*
X4855130D01*
X5503953Y1053953D02*
Y1380317D01*
X4855130Y405130D02*
X5503953Y1053953D01*
Y1380317D02*
X5542087Y1418451D01*
X5532319Y1565558D02*
X5613556D01*
X5510001Y1543239D02*
X5532319Y1565558D01*
X5510001Y1507951D02*
Y1543239D01*
X5361772Y1359722D02*
X5510001Y1507951D01*
X5613556Y1565558D02*
X5632999Y1585001D01*
X5354550Y1272519D02*
X5361772Y1279741D01*
Y1359722D01*
X5563949Y1418451D02*
X5603499Y1458001D01*
X5542087Y1418451D02*
X5563949D01*
X6055186Y891376D02*
X6061788D01*
X5986810Y823001D02*
X6055186Y891376D01*
X6061788D02*
X6130163Y959751D01*
X5632999Y823001D02*
X5986810D01*
X6130163Y959751D02*
Y1066902D01*
X6829852Y833806D02*
X6994848Y668810D01*
X6656984Y833806D02*
X6829852D01*
X6482500D02*
X6656984D01*
X5635466Y2806659D02*
Y2809518D01*
X5554914Y2890070D02*
X5635466Y2809518D01*
X5661504Y2780620D02*
X5790661D01*
X5965000Y2606281D01*
X5635466Y2806659D02*
X5661504Y2780620D01*
X5750199Y2636045D02*
X5831916Y2554328D01*
X5750199Y2636045D02*
Y2643236D01*
X5831916Y2176821D02*
Y2554328D01*
X5466281Y2554603D02*
X5554914Y2643236D01*
X5579549Y2243951D02*
Y2486918D01*
X5554914Y2643236D02*
Y2890070D01*
X5574231Y2492235D02*
X5579549Y2486918D01*
X5194498Y2560320D02*
X5300000Y2665822D01*
Y3870000D01*
X5070000Y4100000D02*
X5300000Y3870000D01*
X4429369Y2641600D02*
X4438066Y2632903D01*
X4363536Y2814988D02*
X4437671Y2740853D01*
X4203898Y2641600D02*
X4429369D01*
X4437671Y2740853D02*
X4762133D01*
X4325696Y2848803D02*
X4332586D01*
X4762133Y2740853D02*
X4870083Y2848803D01*
X4875083D01*
X4363536Y2814988D02*
Y2817853D01*
X4332586Y2848803D02*
X4363536Y2817853D01*
X4376496Y2522220D02*
X5066386D01*
X4305498Y2451222D02*
X4376496Y2522220D01*
X5066386D02*
X5213088Y2668923D01*
X4594501Y1712001D02*
X4931700Y2049200D01*
X3702995Y784930D02*
X3741065Y823001D01*
X3702995Y701496D02*
Y784930D01*
X3697500Y696001D02*
X3702995Y701496D01*
X3741065Y823001D02*
X3866998D01*
X3600000Y1346503D02*
X3742502Y1204001D01*
X3600000Y1346503D02*
Y1452497D01*
X3742502Y1204001D02*
X3866998D01*
X3167497Y1885000D02*
X3600000Y1452497D01*
X2927681Y787400D02*
X2950000Y809718D01*
Y2109184D02*
X3962476Y3121660D01*
X2481656Y787400D02*
X2927681D01*
X2950000Y809718D02*
Y2109184D01*
X2085249Y977275D02*
Y1224241D01*
X2112585Y1251577D01*
Y1498542D01*
X2068405Y1542722D02*
X2112585Y1498542D01*
X2068405Y1542722D02*
Y1700002D01*
X1990560D02*
X2068405D01*
X1882216Y2580000D02*
Y2729118D01*
X1716314Y2816058D02*
X1927779Y3027523D01*
X1716314Y2490002D02*
X1824416Y2381900D01*
X1716314Y2490002D02*
Y2816058D01*
X1824416Y2381900D02*
X1905000D01*
X1927779Y3027523D02*
Y3593998D01*
X2017500Y3512501D02*
X2194997Y3689998D01*
X2017500Y3017500D02*
Y3512501D01*
X1905000Y2905000D02*
X2017500Y3017500D01*
X2083007Y3191552D02*
Y3423413D01*
X2109045Y3449451D01*
X2083007Y3191552D02*
X2124559Y3150000D01*
X2301907Y3420553D02*
Y3423413D01*
Y3420553D02*
X2382459Y3340001D01*
X2275869Y3449451D02*
X2301907Y3423413D01*
X2124559Y3150000D02*
X2224266D01*
X2109045Y3449451D02*
X2275869D01*
X6634891Y5234920D02*
X6649751Y5249779D01*
X1743583Y6370620D02*
Y6603599D01*
X1585712Y6212749D02*
X1743583Y6370620D01*
X5687289Y7860289D02*
X6120074Y7427498D01*
X5687289Y7860289D02*
Y8419998D01*
X4591869Y6946574D02*
X4803427D01*
X4840000Y6910000D01*
Y6768344D02*
X5005094Y6603250D01*
X4840000Y6768344D02*
Y6910000D01*
X7108337Y5234920D02*
X7136327Y5262909D01*
X4292188Y7396313D02*
X4322878D01*
X4350000Y7191316D02*
Y7369190D01*
X4228920Y7494560D02*
X4269870Y7453609D01*
Y7418631D02*
X4292188Y7396313D01*
X4218920Y7494560D02*
X4228920D01*
X4269870Y7418631D02*
Y7453609D01*
X4322878Y7396313D02*
X4350000Y7369190D01*
X3825316Y6248400D02*
Y6333922D01*
X3983000Y7437000D02*
X4017191Y7402809D01*
X4190520D01*
X4212839Y7380491D01*
Y7310643D02*
Y7380491D01*
Y7310643D02*
X4218920Y7304562D01*
X3983000Y7437000D02*
Y8045496D01*
X4327682Y7168998D02*
X4350000Y7191316D01*
X4112321Y7168998D02*
X4327682D01*
X4090003Y6333919D02*
Y7146679D01*
X4112321Y7168998D01*
X3983000Y8045496D02*
X4129502Y8191998D01*
X1743583Y6603599D02*
X2267519D01*
X1585712Y5958500D02*
Y6212749D01*
X3825438Y6333922D02*
X4090000D01*
X4090003Y6333919D01*
X3635441Y6333922D02*
Y6343922D01*
X5005094Y6603250D02*
X5117667D01*
X4417024Y6192520D02*
X4417502Y6192998D01*
X4264045Y6192520D02*
X4417024D01*
X2224266Y3150000D02*
X2536753Y2837513D01*
Y2298753D02*
Y2837513D01*
X1882216Y2729118D02*
X1905000Y2751902D01*
Y2905000D01*
X7996093Y2584389D02*
X7999999Y2580483D01*
X7996093Y2584389D02*
Y2670314D01*
X3889316Y2848803D02*
X4322586D01*
X3866998Y2220001D02*
Y2826485D01*
X3889316Y2848803D01*
X3704000Y1966001D02*
X3866998D01*
X3665000Y2005001D02*
X3704000Y1966001D01*
X3665000Y2005001D02*
Y2477500D01*
X4332666Y2855281D02*
Y2982980D01*
X4326188Y2848803D02*
X4332666Y2855281D01*
X4322586Y2848803D02*
X4325696D01*
X4280002Y3035644D02*
X4332666Y2982980D01*
X4280002Y3035644D02*
Y3524921D01*
X6960654Y4671850D02*
Y4789343D01*
X6957497Y4792500D02*
X6960654Y4789343D01*
X7489995Y2588478D02*
X7499995D01*
X5213088Y2668923D02*
Y3491568D01*
X4365000Y4339656D02*
X5213088Y3491568D01*
X5603499Y1458001D02*
X5632999D01*
X5965000Y2377319D02*
X5989819Y2352500D01*
X6135000D01*
X6114796Y2583480D02*
X6135000Y2563276D01*
Y2352500D02*
Y2563276D01*
X5965000Y2377319D02*
Y2606281D01*
X6024956Y1910080D02*
X6108776Y1993900D01*
X5194498Y2353000D02*
Y2560320D01*
X3866998Y1712001D02*
X4594501D01*
X8694496Y2171700D02*
X8755085Y2232289D01*
X8153476Y2547381D02*
X8186496Y2580401D01*
X8250001D01*
X5748096Y2093001D02*
X5831916Y2176821D01*
X5632999Y2093001D02*
X5748096D01*
X5632999Y1839001D02*
X5845526D01*
X5632999Y1966001D02*
X5824296D01*
X3838836Y107500D02*
X4136466Y405130D01*
X3495497Y802498D02*
X3759667Y1066673D01*
X2874523Y512501D02*
X3164525Y802498D01*
X3856670Y1066673D02*
X3866998Y1077001D01*
X3164525Y802498D02*
X3495497D01*
X2522317Y512501D02*
X2874523D01*
X3759667Y1066673D02*
X3856670D01*
X2500000Y490179D02*
X2522317Y512501D01*
X3527501Y735000D02*
X3742502Y950001D01*
X3186826Y735000D02*
X3527501D01*
X3742502Y950001D02*
X3866998D01*
X2752319Y449001D02*
X2900827D01*
X3186826Y735000D01*
X5603499Y2220001D02*
X5632999D01*
X5579549Y2243951D02*
X5603499Y2220001D01*
X5892074Y6517074D02*
Y6729994D01*
X5117667Y6603250D02*
X5231420Y6489497D01*
Y6379561D02*
Y6489497D01*
X4707001Y6745000D02*
X4709500Y6747500D01*
X4567500Y6745000D02*
X4707001D01*
X4976078Y6080295D02*
Y6192998D01*
X5102936Y6223000D02*
Y6350000D01*
X5136373Y6189563D02*
X5231420D01*
X5102936Y6223000D02*
X5136373Y6189563D01*
X2292518Y6329983D02*
Y6578600D01*
Y6329983D02*
X2310000Y6312500D01*
X1811419Y5858500D02*
X1985711D01*
X1772919Y5820000D02*
X1811419Y5858500D01*
X1585712Y5958500D02*
X1590712D01*
X1729211Y5820000D01*
X1080049Y5958500D02*
X1081274Y5959725D01*
Y6131275D02*
X1082500Y6132500D01*
X1081274Y5959725D02*
Y6131275D01*
X1751030Y5358501D02*
X1984431D01*
X3944737Y1839001D02*
X3985336Y1879600D01*
Y2725420D01*
X3866998Y1839001D02*
X3944737D01*
X2068405Y1700002D02*
X2146250D01*
X2382459Y3330001D02*
Y3340001D01*
X2058362Y1820362D02*
X2536753Y2298753D01*
X1703746Y1820362D02*
X2058362D01*
X2095002Y2381900D02*
X2444999D01*
X1940740Y1650182D02*
X1990560Y1700002D01*
X1703746Y1650182D02*
X1940740D01*
X2146250Y1700002D02*
X2196070Y1650182D01*
X2360178D01*
X2095002Y2751902D02*
X2447463D01*
X2450003Y2749362D01*
X2194997Y3689998D02*
Y3699998D01*
X2193727Y3701268D02*
Y4050000D01*
Y3701268D02*
X2194997Y3699998D01*
X1752316Y917204D02*
X2025183D01*
X2085249Y977275D01*
X4976078Y6382995D02*
X5069942D01*
X4862813D02*
X4976078D01*
X2357500Y107500D02*
X3838836D01*
X2300000Y165000D02*
Y605744D01*
Y165000D02*
X2357500Y107500D01*
X2300000Y605744D02*
X2481656Y787400D01*
X2234433Y4808494D02*
Y4813494D01*
X2203483Y4844444D02*
X2234433Y4813494D01*
X1666032Y4958817D02*
Y5011184D01*
X2198483Y4844444D02*
X2203483D01*
X2009424Y5033503D02*
X2198483Y4844444D01*
X1688350Y5033503D02*
X2009424D01*
X1666032Y5011184D02*
X1688350Y5033503D01*
X1640713Y4933498D02*
X1666032Y4958817D01*
X2232436Y4806498D02*
X2234433Y4808494D01*
X2267519Y6603599D02*
X2292518Y6578600D01*
X2270003Y7200001D02*
X2292518Y7177486D01*
Y6578600D02*
Y7177486D01*
X4129502Y7762596D02*
Y7937998D01*
X4840495Y6064698D02*
Y6360676D01*
X4239336Y5463540D02*
X4840495Y6064698D01*
Y6360676D02*
X4862813Y6382995D01*
X5069942D02*
X5102936Y6350000D01*
X7834007Y2323649D02*
X7852606Y2342248D01*
X7384823Y2323649D02*
X7834007D01*
X7289996Y2418476D02*
X7384823Y2323649D01*
X7279996Y2418476D02*
X7289996D01*
X7508072Y2580401D02*
X7770856D01*
X7499995Y2588478D02*
X7508072Y2580401D01*
X6129096Y1066902D02*
Y1468806D01*
X8055229Y5234920D02*
X8291952D01*
X7581783D02*
X7818506D01*
X4053916Y5713583D02*
Y5982391D01*
Y5713583D02*
X4054998Y5712501D01*
X4053916Y5982391D02*
X4264045Y6192520D01*
X1729999Y390002D02*
Y894888D01*
X1752316Y917204D01*
X2360178Y1650182D02*
X2409998Y1700002D01*
X3881196Y6192520D02*
X4264045D01*
X8755085Y2232289D02*
Y2320006D01*
X6129096Y1066902D02*
X6130163D01*
X6129096Y1468806D02*
X6130082D01*
Y1878802D01*
X6255085D01*
X8752916Y2320006D02*
X8755085D01*
X6120074Y7389998D02*
Y7427498D01*
X4937501Y7407504D02*
Y7445004D01*
X3962476Y3121660D02*
Y3860800D01*
X4239336Y4137660D01*
Y5463540D01*
X3825316Y6333922D02*
X3825438D01*
X3825316Y6248400D02*
X3881196Y6192520D01*
X4417502Y6192998D02*
X4715581D01*
X5632999Y1712001D02*
X5900496D01*
X6024956Y1836461D01*
Y1910080D01*
X4305498Y2353000D02*
Y2451222D01*
X4365000Y4339656D02*
Y4617502D01*
X2476002Y290002D02*
X2500000Y314000D01*
Y490179D01*
X2730002Y290002D02*
Y426679D01*
X2752319Y449001D01*
X4178498Y2616200D02*
X4203898Y2641600D01*
X4178498Y2353000D02*
Y2616200D01*
D11*
X7650495Y4255003D02*
D03*
Y4205000D02*
D03*
Y4155003D02*
D03*
Y4105001D02*
D03*
Y4055003D02*
D03*
Y4005001D02*
D03*
Y3955004D02*
D03*
Y3905001D02*
D03*
Y3855004D02*
D03*
Y3805001D02*
D03*
Y3755004D02*
D03*
Y3705001D02*
D03*
X6814500D02*
D03*
Y3755004D02*
D03*
Y3805001D02*
D03*
Y3855004D02*
D03*
Y3905001D02*
D03*
Y3955004D02*
D03*
Y4005001D02*
D03*
Y4055003D02*
D03*
Y4105001D02*
D03*
Y4155003D02*
D03*
Y4205000D02*
D03*
Y4255003D02*
D03*
D12*
X7507498Y3562005D02*
D03*
X7457496D02*
D03*
X7407499D02*
D03*
X7357496D02*
D03*
X7307499D02*
D03*
X7257496D02*
D03*
X7207499D02*
D03*
X7157496D02*
D03*
X7107499D02*
D03*
X7057497D02*
D03*
X7007499D02*
D03*
X6957497D02*
D03*
Y4398000D02*
D03*
X7007499D02*
D03*
X7057497D02*
D03*
X7107499D02*
D03*
X7157496D02*
D03*
X7207499D02*
D03*
X7257496D02*
D03*
X7307499D02*
D03*
X7357496D02*
D03*
X7407499D02*
D03*
X7457496D02*
D03*
X7507498D02*
D03*
D13*
X340473Y5586497D02*
D03*
X510470D02*
D03*
X6300084Y618805D02*
D03*
X6130082D02*
D03*
X6745087Y250002D02*
D03*
X6915084D02*
D03*
X6300165Y1066902D02*
D03*
X6130163D02*
D03*
X6130082Y1468806D02*
D03*
X6300084D02*
D03*
X8755085Y2320006D02*
D03*
X8925082D02*
D03*
X8925006Y2550003D02*
D03*
X8755004D02*
D03*
X8929924Y2780005D02*
D03*
X8759922D02*
D03*
X8755004Y3010002D02*
D03*
X8925006D02*
D03*
Y3250006D02*
D03*
X8755004D02*
D03*
X8755085Y3490956D02*
D03*
X8925082D02*
D03*
X8925006Y3739576D02*
D03*
X8755004D02*
D03*
X8755085Y4700854D02*
D03*
X8925082D02*
D03*
X8755167Y4460428D02*
D03*
X8925164D02*
D03*
X8755085Y4220002D02*
D03*
X8925082D02*
D03*
X8755085Y3980002D02*
D03*
X8925082D02*
D03*
X3048340Y7249998D02*
D03*
X3218343D02*
D03*
X3814999D02*
D03*
X3645002D02*
D03*
X1836034Y4556902D02*
D03*
X1666032D02*
D03*
X1640713Y4933498D02*
D03*
X1810710D02*
D03*
X1585712Y5958500D02*
D03*
X1415710D02*
D03*
X1080049D02*
D03*
X910052D02*
D03*
X340468Y5858500D02*
D03*
X510470D02*
D03*
X5734914Y4479996D02*
D03*
X5564916D02*
D03*
X5734914Y4219997D02*
D03*
X5564916D02*
D03*
X5734914Y3959997D02*
D03*
X5564916D02*
D03*
X4497583Y2848803D02*
D03*
X4327586D02*
D03*
X4875083D02*
D03*
X5045085D02*
D03*
X5734914Y3698997D02*
D03*
X5564916D02*
D03*
X5734914Y3178998D02*
D03*
X5564916D02*
D03*
Y3438571D02*
D03*
X5734914D02*
D03*
X509218Y5243004D02*
D03*
X339216D02*
D03*
X7480082Y2890001D02*
D03*
X7310085D02*
D03*
D14*
X4212839Y6934997D02*
D03*
Y6745000D02*
D03*
X4218920Y7304562D02*
D03*
Y7494560D02*
D03*
X5231420Y6189563D02*
D03*
Y6379561D02*
D03*
X4976078Y6382995D02*
D03*
Y6192998D02*
D03*
X4715581D02*
D03*
Y6382995D02*
D03*
D15*
X7057984Y828974D02*
D03*
Y638972D02*
D03*
X6656984Y643804D02*
D03*
Y833806D02*
D03*
D16*
X6976984Y1478890D02*
D03*
Y1308887D02*
D03*
X6702078Y1478969D02*
D03*
Y1308967D02*
D03*
X2234433Y4808494D02*
D03*
Y4978497D02*
D03*
X8250001Y2410399D02*
D03*
Y2580401D02*
D03*
X7999999Y2410480D02*
D03*
Y2580483D02*
D03*
X7770856Y2410399D02*
D03*
Y2580401D02*
D03*
X7024568Y2413559D02*
D03*
Y2583561D02*
D03*
X6784147D02*
D03*
Y2413559D02*
D03*
X6543721Y2583480D02*
D03*
Y2413478D02*
D03*
X9002126Y5234920D02*
D03*
Y5064917D02*
D03*
X8765398Y5234920D02*
D03*
Y5064917D02*
D03*
X8528675D02*
D03*
Y5234920D02*
D03*
X8291952Y5064917D02*
D03*
Y5234920D02*
D03*
X8055229D02*
D03*
Y5064917D02*
D03*
X7818506D02*
D03*
Y5234920D02*
D03*
X7581783D02*
D03*
Y5064917D02*
D03*
X7345060D02*
D03*
Y5234920D02*
D03*
X7108337D02*
D03*
Y5064917D02*
D03*
X6871614D02*
D03*
Y5234920D02*
D03*
X6634891D02*
D03*
Y5064917D02*
D03*
X6398163D02*
D03*
Y5234920D02*
D03*
X6161441Y5064917D02*
D03*
Y5234920D02*
D03*
X5924718D02*
D03*
Y5064917D02*
D03*
X5677499Y5067498D02*
D03*
Y5237500D02*
D03*
X5451272Y5064917D02*
D03*
Y5234920D02*
D03*
D17*
X6255085Y1878802D02*
D03*
X6895084D02*
D03*
X4920000Y3524921D02*
D03*
X4280002D02*
D03*
D18*
X8730000Y6982506D02*
D03*
Y7312508D02*
D03*
D19*
X4937501Y7462327D02*
D03*
X6120074Y7389998D02*
D03*
D20*
X5165501Y6802324D02*
D03*
X4709500D02*
D03*
X5892074Y6729994D02*
D03*
X6348075D02*
D03*
D21*
X3840079Y7575001D02*
D03*
X3620079D02*
D03*
X2670002Y2749362D02*
D03*
X2450003D02*
D03*
X2664998Y2381900D02*
D03*
X2444999D02*
D03*
D22*
X3038343Y7575000D02*
D03*
X3228345D02*
D03*
X3609680Y6876821D02*
D03*
X3799683D02*
D03*
X3038343D02*
D03*
X3228345D02*
D03*
X2095002Y2381900D02*
D03*
X1905000D02*
D03*
Y2751902D02*
D03*
X2095002D02*
D03*
X2382459Y3330001D02*
D03*
X2192457D02*
D03*
X2194997Y3699998D02*
D03*
X2384999D02*
D03*
Y4080000D02*
D03*
X2194997D02*
D03*
X1084997Y4933498D02*
D03*
X1274999D02*
D03*
Y4556902D02*
D03*
X1084997D02*
D03*
X6304798Y2583480D02*
D03*
X6114796D02*
D03*
X5744916Y2900070D02*
D03*
X5554914D02*
D03*
D23*
X4424998Y6333919D02*
D03*
X4090003D02*
D03*
X329474Y7550003D02*
D03*
X664474D02*
D03*
D24*
X3825438Y6333922D02*
D03*
X3635441D02*
D03*
X2194167Y4433257D02*
D03*
X2384164D02*
D03*
D25*
X3365002Y6340003D02*
D03*
X3035000D02*
D03*
X645528Y4983501D02*
D03*
X315526D02*
D03*
X665002Y4658506D02*
D03*
X335000D02*
D03*
D26*
X6470000Y6120498D02*
D03*
Y6374498D02*
D03*
X5649997D02*
D03*
Y6120498D02*
D03*
D27*
X2264430Y5358501D02*
D03*
X1984431D02*
D03*
X1985711Y5858500D02*
D03*
X2265710D02*
D03*
X2572517Y6578600D02*
D03*
X2292518D02*
D03*
X2270003Y7200001D02*
D03*
X2550003D02*
D03*
D28*
X1200714Y5433502D02*
D03*
D29*
X930712Y5624002D02*
D03*
Y5497002D02*
D03*
Y5370002D02*
D03*
Y5243002D02*
D03*
X1470716Y5624002D02*
D03*
Y5243002D02*
D03*
Y5370002D02*
D03*
Y5497002D02*
D03*
D30*
X1743583Y6603599D02*
D03*
X1337102D02*
D03*
X374218D02*
D03*
X780699D02*
D03*
D31*
X1730004Y7200001D02*
D03*
X1300002D02*
D03*
D32*
X642498Y7135002D02*
D03*
X357500D02*
D03*
D33*
X1510000Y3660003D02*
D03*
X450002Y3670000D02*
D03*
D34*
X1603746Y1109642D02*
D03*
Y1279822D02*
D03*
Y1450002D02*
D03*
Y1620182D02*
D03*
Y1790362D02*
D03*
D35*
X558536Y1450002D02*
D03*
D36*
X595000Y2480000D02*
D03*
X1225001D02*
D03*
D37*
X1729999Y390002D02*
D03*
X1280003D02*
D03*
D38*
X2409998Y1070000D02*
D03*
Y1700002D02*
D03*
D39*
X7279996Y2588478D02*
D03*
Y2418476D02*
D03*
X7499995D02*
D03*
Y2588478D02*
D03*
D40*
X5632999Y2220001D02*
D03*
Y2093001D02*
D03*
Y1966001D02*
D03*
Y1839001D02*
D03*
Y1712001D02*
D03*
Y1585001D02*
D03*
Y1458001D02*
D03*
Y1331001D02*
D03*
Y1204001D02*
D03*
Y1077001D02*
D03*
Y950001D02*
D03*
Y696001D02*
D03*
Y569001D02*
D03*
X3866998Y2220001D02*
D03*
Y2093001D02*
D03*
Y1966001D02*
D03*
Y1839001D02*
D03*
Y1712001D02*
D03*
Y1585001D02*
D03*
Y1458001D02*
D03*
Y1331001D02*
D03*
Y1204001D02*
D03*
Y1077001D02*
D03*
Y950001D02*
D03*
Y823001D02*
D03*
Y696001D02*
D03*
Y569001D02*
D03*
X5632999Y823001D02*
D03*
D41*
X4686498Y2353000D02*
D03*
X4559498D02*
D03*
X4432498D02*
D03*
X4305498D02*
D03*
X4178498D02*
D03*
X4813498D02*
D03*
X4940498D02*
D03*
X5067498D02*
D03*
X5194498D02*
D03*
X5321498D02*
D03*
D42*
X4895997Y1333002D02*
D03*
D43*
X3370000Y6400538D02*
Y6552500D01*
X3645002Y7157502D02*
Y7249998D01*
X3595000Y7107500D02*
X3645002Y7157502D01*
X3595000Y6891502D02*
X3609680Y6876821D01*
X3595000Y6891502D02*
Y7107500D01*
X3423698Y290002D02*
X3583697Y450002D01*
X2984002Y290002D02*
X3423698D01*
X6517761Y3562005D02*
X6957497D01*
X6481863Y3597902D02*
X6517761Y3562005D01*
X4885000Y1645000D02*
X5154726Y1914725D01*
X3969379Y1645000D02*
X4885000D01*
X3866998Y1585001D02*
X3896497D01*
X3926798Y1615301D01*
Y1616021D01*
X3941677Y1630900D02*
X3955279D01*
X3969379Y1645000D01*
X3926798Y1616021D02*
X3941677Y1630900D01*
X6777500Y2221950D02*
Y2406912D01*
X6711016Y3803700D02*
X6711017Y3803701D01*
X6714057D01*
X6232584Y3778471D02*
X6678497D01*
X6714057Y3803701D02*
X6813200D01*
X6703726Y3803700D02*
X6711016D01*
X6714057Y3803701D02*
X6714057Y3803701D01*
X6678497Y3778471D02*
X6703726Y3803700D01*
X5892683Y3438571D02*
X6232584Y3778471D01*
X6813200Y3803701D02*
X6814500Y3805001D01*
X6472500Y3597902D02*
X6481863D01*
X7256196Y4594609D02*
X7265806Y4585000D01*
X7256196Y4594609D02*
Y4668057D01*
X7307499Y4398000D02*
Y4585000D01*
X7265806D02*
X7306696D01*
X7457496Y4398000D02*
Y4647289D01*
X7307499Y3197380D02*
X7367379Y3137500D01*
X7522500D01*
X7047500Y4584636D02*
X7121717Y4510419D01*
X7047500Y4584636D02*
Y4792500D01*
X6628317Y4151071D02*
X6673087Y4106301D01*
X6813200D01*
X6499235Y4151071D02*
X6628317D01*
X6484356Y4016487D02*
Y4136192D01*
X6499235Y4151071D01*
X8755004Y2430000D02*
X9281650D01*
X8755004D02*
Y2550003D01*
X9281650Y2430000D02*
X9447500Y2595850D01*
X8752916Y2550003D02*
X8755004D01*
X9447500Y2595850D02*
Y3857501D01*
X9211498Y4093502D02*
X9447500Y3857501D01*
X7357496Y3276433D02*
X7408301Y3225629D01*
X7357496Y3276433D02*
Y3562005D01*
X7057500Y3349709D02*
X7108300Y3400509D01*
X7057500Y3182353D02*
Y3349709D01*
X7107499Y3562005D02*
X7108300Y3561204D01*
Y3400509D02*
Y3561204D01*
X7157496Y3311634D02*
Y3515000D01*
X7229872Y3251488D02*
Y3461708D01*
X7307499Y3197380D02*
Y3562005D01*
X7208799Y3482781D02*
X7229872Y3461708D01*
X7207499Y3562005D02*
X7208799Y3560705D01*
Y3482781D02*
Y3560705D01*
X7224004Y3245620D02*
X7229872Y3251488D01*
X7106199Y3563305D02*
X7108300Y3561204D01*
X7056197Y4335003D02*
Y4392194D01*
Y4332700D02*
Y4335003D01*
Y4322368D02*
Y4332700D01*
X6921002Y4291995D02*
X7025824D01*
X7056197Y4322368D01*
Y4392194D02*
X7058701Y4394698D01*
X6056763Y3809197D02*
X6103367Y3855801D01*
X6298361D02*
X6343700Y3901140D01*
X6103367Y3855801D02*
X6298361D01*
X7000719Y4038120D02*
Y4155003D01*
X6814500D02*
X7000719D01*
X8765398Y5069917D02*
X8850524D01*
X6348075Y6428923D02*
X6436250Y6340748D01*
X7269996Y2588478D02*
Y2671700D01*
X6888084Y1689903D02*
X7076984Y1878802D01*
X6702078Y1313805D02*
X6972066D01*
X340390Y4988342D02*
Y5243004D01*
X285001Y4658504D02*
X315526Y4689029D01*
X2384166Y4409658D02*
Y4514166D01*
X1333992Y1448611D02*
X1930121D01*
X7157496Y3625002D02*
Y4019044D01*
X7258796Y3627305D02*
Y3756299D01*
X7307499Y3805001D01*
X7257496Y3562005D02*
Y3626005D01*
X7258796Y3627305D01*
X6814500Y4205000D02*
X7091320D01*
X6643196D02*
X6814500D01*
X7057500Y3421550D02*
Y3515000D01*
X6980511Y3771571D02*
X7106199Y3645883D01*
Y3563305D02*
Y3645883D01*
X7751604Y4003400D02*
X8504997Y3250006D01*
X8598521D01*
X7650495Y4003400D02*
X7751604D01*
X8598521Y3250006D02*
X8712703Y3135824D01*
Y3047304D02*
Y3135824D01*
Y3047304D02*
X8750005Y3010002D01*
X8755004D01*
X8750005Y3250006D02*
X8755085Y3255086D01*
X8750005Y3250006D02*
X8755004D01*
X8750004D02*
X8750005D01*
X7650495Y4054200D02*
X7950810D01*
X7650495Y4105001D02*
X8187502D01*
X7950810Y4054200D02*
X8712704Y3292306D01*
X7508296Y4463300D02*
Y4578650D01*
X7507498Y4462502D02*
X7508296Y4463300D01*
Y4578650D02*
X7514646Y4585000D01*
X7507498Y4443370D02*
Y4462502D01*
X7594571Y4327002D02*
X8393085D01*
X7561975Y4294406D02*
X7594571Y4327002D01*
X8393085D02*
X8626584Y4093502D01*
X7106199Y4219880D02*
Y4318776D01*
X7407499Y4219880D02*
Y4398000D01*
X7106199Y4219880D02*
X7407499D01*
Y4115002D02*
Y4219880D01*
X7091320Y4205000D02*
X7106199Y4219880D01*
X7256196Y4668057D02*
X7265559D01*
X1420710Y5870113D02*
Y5953500D01*
Y5870113D02*
X1576116Y5714707D01*
Y5557402D02*
Y5714707D01*
X5386373Y5770000D02*
X5775000D01*
X6212500Y6207500D02*
Y6735000D01*
X5775000Y5770000D02*
X6212500Y6207500D01*
X5326820Y5829553D02*
X5386373Y5770000D01*
X5326820Y5829553D02*
Y6904501D01*
X5228820Y7002500D02*
X5326820Y6904501D01*
X4532500Y1350000D02*
X4878999D01*
X4895997Y1333002D01*
X1930121Y1448611D02*
X1945000Y1433732D01*
Y1090000D02*
Y1433732D01*
X7100000Y6164879D02*
Y6400000D01*
X7085121Y6150000D02*
X7100000Y6164879D01*
X5165501Y7002500D02*
X5228820D01*
X6647500Y5980000D02*
Y7745995D01*
X6020001Y5352501D02*
X6647500Y5980000D01*
Y7745995D02*
X7100000Y8198495D01*
X5692379Y5352501D02*
X6020001D01*
X6343069Y6735000D02*
X6348075Y6729994D01*
Y6428923D02*
Y6729994D01*
X6212500Y6735000D02*
X6343069D01*
X996776Y4603224D02*
X1038675D01*
X1084997Y4556902D01*
X827500Y4772500D02*
X996776Y4603224D01*
X1195001Y4436898D02*
X1341800D01*
X1084997Y4546902D02*
X1195001Y4436898D01*
X1341800D02*
X1461805Y4556902D01*
X6865148Y2990000D02*
X7168569Y2686579D01*
X7255117D01*
X7269996Y2671700D01*
X7591877Y3529733D02*
X7612497D01*
X7458796Y3482786D02*
X7571582Y3370000D01*
X7792500D01*
X7559606Y3562005D02*
X7591877Y3529733D01*
X6947584Y3311634D02*
X7057500Y3421550D01*
X7357496Y4398000D02*
Y4647289D01*
X6628317Y4151071D02*
Y4190121D01*
X6643196Y4205000D01*
X1225001Y1557602D02*
X1333992Y1448611D01*
X1225001Y1557602D02*
Y2160000D01*
X8929924Y2780005D02*
X9105000D01*
X6300084Y643804D02*
X6656984D01*
X6296684Y625953D02*
Y1063420D01*
Y618805D02*
Y625953D01*
X6295884D02*
Y643719D01*
Y619605D02*
Y625953D01*
X6296684D01*
X6287936D02*
X6295884D01*
X5450000Y518847D02*
X5500154Y569001D01*
X5632999D01*
X5662498D01*
X4257839Y6790000D02*
X4397500D01*
X4212839Y6745000D02*
X4257839Y6790000D01*
X4212839Y6934997D02*
X4240342Y6962501D01*
X4397500D01*
X450002Y3670000D02*
Y4280002D01*
X542500Y4372500D01*
X827500Y4772500D02*
Y4772500D01*
X7931350Y4255003D02*
X8000000Y4186353D01*
X7650495Y4255003D02*
X7931350D01*
X6813200Y4106301D02*
X6814500Y4105001D01*
X6815800Y3856304D02*
X6952198D01*
X6976462Y3880567D01*
X6814500Y3855004D02*
X6815800Y3856304D01*
X6814500Y4055003D02*
X6974473D01*
X6991356Y4038120D01*
X7000719D01*
X6980511Y3771571D02*
Y3785317D01*
X7407499Y3415002D02*
X7520000Y3302500D01*
X6888084Y1463795D02*
Y1689903D01*
Y1403626D02*
X6939684Y1352027D01*
X6779172Y1572707D02*
X6888084Y1463795D01*
Y1403626D02*
Y1463795D01*
X6408985Y1572707D02*
X6779172D01*
X5775194Y696001D02*
X5994514D01*
X6257784Y656105D02*
Y664852D01*
X6296684Y1063420D02*
X6300165Y1066902D01*
X6043519Y745005D02*
X6177631D01*
X6257784Y664852D01*
Y656105D02*
X6287936Y625953D01*
X5994514Y696001D02*
X6043519Y745005D01*
X5655484Y3296684D02*
X5673953Y3315152D01*
X5564916Y3178998D02*
X5569916D01*
X5655484Y3264566D01*
Y3296684D01*
X6470609Y4002740D02*
X6484356Y4016487D01*
X6632549Y4053703D02*
X6813200D01*
X6628317Y4049471D02*
X6632549Y4053703D01*
X6813200D02*
X6814500Y4055003D01*
X6545838Y3955004D02*
X6814500D01*
X6694539Y3901140D02*
X6698400Y3905001D01*
X6815704D01*
X6343700Y3901140D02*
X6694539D01*
X6491180Y4009662D02*
X6545838Y3955004D01*
X5850118Y3809197D02*
X6056763D01*
X5669916Y3859997D02*
X6035721D01*
X5739917Y3698997D02*
X5850118Y3809197D01*
X6035721Y3859997D02*
X6191400Y4015677D01*
X5569916Y3959997D02*
X5669916Y3859997D01*
X5828014Y4285778D02*
X5933790Y4180002D01*
X5641813Y4394875D02*
Y4545778D01*
X5664932Y4568896D01*
X5626934Y4379996D02*
X5641813Y4394875D01*
X5564916Y4379996D02*
X5626934D01*
X6191400Y4015677D02*
Y4165123D01*
X5664932Y4568896D02*
X5804895D01*
X5828014Y4285778D02*
Y4545778D01*
X5804895Y4568896D02*
X5828014Y4545778D01*
X5933790Y4180002D02*
X6176521D01*
X6191400Y4165123D01*
X8765398Y5064917D02*
Y5069917D01*
Y4855539D02*
Y5064917D01*
X5165501Y6802324D02*
Y7002500D01*
Y6747500D02*
Y6802324D01*
X2305175Y3207282D02*
X2664875Y2847583D01*
X2298617Y3213841D02*
X2305175Y3207282D01*
X8949212Y3225800D02*
X9120000D01*
X8925006Y3250006D02*
X8949212Y3225800D01*
X3203463Y7357897D02*
X3218343Y7343018D01*
X3053344Y7423576D02*
X3068223Y7408697D01*
X2941244Y7357897D02*
X3203463D01*
X3218343Y7249998D02*
Y7343018D01*
Y6886824D02*
Y7249998D01*
X3068223Y7408697D02*
X3481302D01*
X2782501Y7200001D02*
X2932498Y7349998D01*
X3053344Y7423576D02*
Y7559999D01*
X2932498Y7349998D02*
X2933344D01*
X2941244Y7357897D01*
X3481302Y7408697D02*
X3640002Y7249998D01*
X3228345Y6876821D02*
X3407500D01*
X3702696Y569001D02*
X3866998D01*
X3583697Y450002D02*
X3702696Y569001D01*
X2144335Y1002620D02*
X2159214Y1017499D01*
X2357496D01*
X2144335Y787400D02*
Y1002620D01*
X2192457Y3320001D02*
X2295557Y3216901D01*
X2301677D01*
X2305175Y3207282D02*
X2909782D01*
X2527260Y3298880D02*
X2550000Y3321621D01*
X2527260Y3216901D02*
Y3298880D01*
X2909782Y3207282D02*
X3272500Y3570000D01*
X2383729Y3949167D02*
Y4050000D01*
X2550000Y3321621D02*
Y3782896D01*
X2383729Y3949167D02*
X2550000Y3782896D01*
X6161441Y5396561D02*
X6914879Y6150000D01*
X7085121D01*
X6161441Y5234920D02*
Y5396561D01*
X8724271Y7318237D02*
Y7420729D01*
Y7318237D02*
X8730000Y7312508D01*
X8600000Y7545000D02*
X8724271Y7420729D01*
X6875500Y7545000D02*
X8600000D01*
X8865403Y5084797D02*
Y5275836D01*
X8850524Y5069917D02*
X8865403Y5084797D01*
X8730000Y5411238D02*
X8865403Y5275836D01*
X7587000Y7214998D02*
Y7234998D01*
X7345060Y5234920D02*
Y5335060D01*
X7460000Y5450000D01*
X6890379Y6922272D02*
X7167274D01*
X6875500Y6937151D02*
Y7545000D01*
Y6937151D02*
X6890379Y6922272D01*
X7167274D02*
X7206000Y6960998D01*
X6398163Y5372495D02*
X6438168Y5412500D01*
X6540700D01*
X6398163Y5234920D02*
Y5372495D01*
X5924718Y5234920D02*
X6161441D01*
X4926722Y3518199D02*
X5043221D01*
X5100000Y3370000D02*
Y3461421D01*
X4723754Y3370000D02*
X5100000D01*
X4920000Y3524921D02*
X4926722Y3518199D01*
X5043221D02*
X5100000Y3461421D01*
X5050085Y2848803D02*
X5087385Y2886103D01*
Y3357385D02*
X5100000Y3370000D01*
X5045085Y2848803D02*
X5050085D01*
X5087385Y2886103D02*
Y3357385D01*
X4428754Y3665000D02*
X4723754Y3370000D01*
X5040000Y2843718D02*
X5045085Y2848803D01*
X7100000Y8198495D02*
Y8198495D01*
X8730000Y5411238D02*
Y6982506D01*
X315526Y4689029D02*
Y4983501D01*
X1200714Y5433502D02*
X1362216D01*
X999648Y5889636D02*
X1200714Y5688571D01*
Y5433502D02*
Y5688571D01*
X999648Y5889636D02*
Y6009824D01*
X975573Y6033900D02*
X999648Y6009824D01*
X833190Y6033900D02*
X975573D01*
X657790Y5858500D02*
X833190Y6033900D01*
X510470Y5858500D02*
X657790D01*
X910052Y5644662D02*
Y5958500D01*
Y5644662D02*
X930712Y5624002D01*
X8058500Y8340000D02*
X8248500Y8150000D01*
X8550000D01*
X9002126Y7697874D01*
Y5234920D02*
Y7697874D01*
X7100000Y8198495D02*
X7241504Y8340000D01*
X4212839Y6568579D02*
Y6745000D01*
X1225001Y2160000D02*
Y2480000D01*
X1184742Y6721717D02*
X1302861Y6603599D01*
X1184742Y6721717D02*
Y6988064D01*
X1300002Y7103324D01*
X1302861Y6603599D02*
X1337102D01*
X1300002Y7103324D02*
Y7200001D01*
X7178438Y1189133D02*
X7250000Y1117571D01*
Y417019D02*
Y1117571D01*
X7082983Y250002D02*
X7250000Y417019D01*
X7178438Y1189133D02*
Y1203562D01*
X8187502Y4105001D02*
X8554999Y3737498D01*
X8712704Y3287306D02*
X8750004Y3250006D01*
X8712704Y3287306D02*
Y3292306D01*
X3856000Y7956000D02*
Y8210000D01*
X1159997Y7200001D02*
X1300002D01*
X642498Y7135002D02*
X1094998D01*
X1159997Y7200001D01*
X642498Y7135002D02*
X664474Y7156978D01*
X2664875Y2754490D02*
X2670002Y2749362D01*
X2664875Y2754490D02*
Y2847583D01*
X5451272Y5234920D02*
X5539372D01*
X5238481D02*
X5451272D01*
X6777500Y2406912D02*
X6784066Y2413478D01*
X1661032Y4556902D02*
X1666032D01*
X1461805D02*
X1661032D01*
X2383729Y4050000D02*
X2398730Y4065001D01*
X2600000D01*
X2234433Y4973497D02*
X2490560Y4717370D01*
X2384166Y4514166D02*
X2510000Y4640000D01*
X2490560Y4659440D02*
Y4717370D01*
Y4659440D02*
X2510000Y4640000D01*
X2234433Y4973497D02*
Y4978497D01*
X1623732Y4594202D02*
Y4661981D01*
Y4594202D02*
X1661032Y4556902D01*
X1525712Y4760000D02*
X1623732Y4661981D01*
X7248705Y2588478D02*
X7269996D01*
X7279996D01*
X5233128Y1914725D02*
X5252568Y1934166D01*
X5154726Y1914725D02*
X5233128D01*
X5564916Y4219997D02*
Y4379996D01*
X5851497Y5076423D02*
X5913212D01*
X5780022Y5147898D02*
X5851497Y5076423D01*
X5913212D02*
X5924718Y5064917D01*
X7407500Y4115000D02*
X7415990Y4106510D01*
X7253453Y4115000D02*
X7407500D01*
X8360000Y5710000D02*
X8528675Y5541325D01*
Y5234920D02*
Y5541325D01*
X6871614Y5331500D02*
X6900675Y5360560D01*
X6970560D01*
X6990000Y5380000D01*
X7256196Y4399300D02*
Y4516664D01*
X7150360Y4622500D02*
X7256196Y4516664D01*
X7987883Y4992571D02*
X8017929Y5022617D01*
Y5027617D01*
X7987883Y4970790D02*
Y4992571D01*
X7517166Y3714379D02*
Y4249588D01*
X7547095Y4279521D01*
X7526543Y3705001D02*
X7650495D01*
X7517166Y3714379D02*
X7526543Y3705001D01*
X8017929Y5027617D02*
X8055229Y5064917D01*
X7407499Y4115002D02*
X7407500Y4115000D01*
X7157496Y4019044D02*
X7253453Y4115000D01*
X7547095Y4279521D02*
Y4279524D01*
X7561975Y4294404D02*
Y4294406D01*
X7547095Y4279524D02*
X7561975Y4294404D01*
X6871614Y5234920D02*
Y5331500D01*
X7006199Y4399300D02*
Y4477218D01*
Y4399300D02*
X7007499Y4398000D01*
X6960654Y4522764D02*
X7006199Y4477218D01*
X6960654Y4522764D02*
Y4671850D01*
X7108799Y4318776D02*
Y4396700D01*
X7107499Y4398000D02*
X7108799Y4396700D01*
X6263076Y4949922D02*
X6921002Y4291995D01*
X8925006Y3739576D02*
X8932082Y3732500D01*
X9125000D01*
X8925082Y4220002D02*
X9092500D01*
X8626584Y4093502D02*
X9211498D01*
X5589214Y5067498D02*
X5677499D01*
X5532272Y5124440D02*
Y5124838D01*
Y5124440D02*
X5589214Y5067498D01*
X5509622Y5147488D02*
X5532272Y5124838D01*
X5223601Y5220041D02*
X5238481Y5234920D01*
X5223601Y4815679D02*
Y5220041D01*
X5559916Y4479996D02*
X5564916D01*
X5373425Y4666488D02*
X5559916Y4479996D01*
X5372793Y4666488D02*
X5373425D01*
X5223601Y4815679D02*
X5372793Y4666488D01*
X5312501Y5124440D02*
X5335550Y5147488D01*
X5312501Y4852502D02*
Y5124440D01*
X5335550Y5147488D02*
X5509622D01*
X5564916Y4379996D02*
Y4479996D01*
X7024568Y2583561D02*
X7246605D01*
X7407499Y3415002D02*
Y3562005D01*
X5446777Y1787500D02*
X5452500D01*
X4626901Y1546901D02*
X5206177D01*
X5446777Y1787500D01*
X6895084Y1878802D02*
X7076984D01*
X5321498Y2353000D02*
Y2522220D01*
X8755004Y3739576D02*
X8755085Y3739657D01*
Y3980002D01*
X8752926Y3737498D02*
X8755004Y3739576D01*
X8554999Y3737498D02*
X8752926D01*
X4538001Y1458001D02*
X4626901Y1546901D01*
X3866998Y1458001D02*
X4538001D01*
X6130082Y494879D02*
Y618805D01*
X5751499Y480000D02*
X6115203D01*
X6130082Y494879D01*
X5662498Y569001D02*
X5751499Y480000D01*
X4120000Y3665000D02*
X4428754D01*
X4397500Y6590000D02*
Y6790000D01*
X4604506Y6382995D02*
X4715581D01*
X4397500Y6590000D02*
X4604506Y6382995D01*
X3370000Y6400538D02*
X3749502Y6021035D01*
Y5837499D02*
Y6021035D01*
X4212839Y6568579D02*
X4424998Y6356419D01*
Y6333919D02*
Y6356419D01*
X3035000Y6594079D02*
X3219522Y6778600D01*
Y6867998D01*
X3035000Y6340003D02*
Y6594079D01*
X3219522Y6867998D02*
X3228345Y6876821D01*
X3035000Y6192252D02*
Y6340003D01*
X329474Y7550003D02*
Y7674474D01*
Y7163029D02*
Y7550003D01*
X1470716Y5497002D02*
X1515716D01*
X1425716D02*
X1470716D01*
X3218343Y6886824D02*
X3228345Y6876821D01*
Y7575000D02*
X3620078D01*
X3620079Y7575001D01*
X3640002Y7249998D02*
X3645002D01*
X3038343Y7575000D02*
X3053344Y7559999D01*
X2917002Y7706341D02*
X3038343Y7585000D01*
Y7575000D02*
Y7585000D01*
X2917002Y7706341D02*
Y8427502D01*
X2572517Y6007517D02*
Y6578600D01*
X2265710Y5858500D02*
X2423500D01*
X2572517Y6007517D01*
X2265710Y5674659D02*
Y5858500D01*
X3035000Y6192252D02*
X3241502Y5985750D01*
Y5837499D02*
Y5985750D01*
X2550003Y7200001D02*
X2782501D01*
X329474Y7674474D02*
X654999Y7999999D01*
X1464153D01*
X5677499Y5337622D02*
X5692379Y5352501D01*
X5677499Y5237500D02*
Y5337622D01*
X505470Y5858500D02*
X510470D01*
X2249551Y5558500D02*
X2264430Y5543621D01*
X1874708Y5558500D02*
X2249551D01*
X1874708D02*
X1932808Y5616601D01*
X2264430Y5358501D02*
Y5543621D01*
X1932808Y5616601D02*
X2207652D01*
X2264430Y5008494D02*
Y5358501D01*
X1813209Y5497002D02*
X1874708Y5558500D01*
X1515716Y5497002D02*
X1813209D01*
X1515716D02*
X1576116Y5557402D01*
X2207652Y5616601D02*
X2265710Y5674659D01*
X1415710Y5958500D02*
X1420710Y5953500D01*
X5040000Y2677500D02*
Y2843718D01*
X2192457Y3320001D02*
Y3330001D01*
X2670002Y2386904D02*
Y2749362D01*
X2664998Y2381900D02*
X2670002Y2386904D01*
X2382459Y3330001D02*
X2384999Y3332541D01*
Y3699998D01*
X7082983Y250002D02*
X7480002D01*
X7830000Y600000D01*
X335712Y4658502D02*
X345232Y4648982D01*
Y4460000D02*
Y4648982D01*
X2550003Y6601115D02*
Y7200001D01*
Y6601115D02*
X2572517Y6578600D01*
X664474Y7156978D02*
Y7550003D01*
X329474Y7163029D02*
X357500Y7135002D01*
Y6620317D02*
X374218Y6603599D01*
X357500Y6620317D02*
Y7135002D01*
X374218Y5989752D02*
Y6603599D01*
Y5989752D02*
X505470Y5858500D01*
X1362216Y5433502D02*
X1425716Y5497002D01*
X1084997Y4546902D02*
Y4556902D01*
X2234433Y4978497D02*
X2264430Y5008494D01*
X6972066Y1313805D02*
X6976984Y1308887D01*
X6939684Y1346188D02*
X6972066Y1313805D01*
X6939684Y1346188D02*
Y1352027D01*
X6305084Y1468806D02*
X6408985Y1572707D01*
X6300084Y1468806D02*
X6305084D01*
X6915084Y250002D02*
X7082983D01*
X7830000Y600000D02*
Y749999D01*
X7830002Y750001D01*
X7073113Y1308887D02*
X7178438Y1203562D01*
X6976984Y1308887D02*
X7073113D01*
X8925088Y2320000D02*
X9105000D01*
X8925082Y2320006D02*
X8925088Y2320000D01*
X6784147Y2418559D02*
X6821447Y2455859D01*
X6901866D01*
X7024568Y2578561D01*
Y2583561D01*
X6543721Y2413478D02*
X6784066D01*
X6784147Y2413559D01*
X7275078D02*
X7279996Y2418476D01*
X7024568Y2413559D02*
X7275078D01*
X7499995Y2418476D02*
X7762778D01*
X7770856Y2410399D01*
X7458796Y3482786D02*
Y3560705D01*
X7457496Y3562005D02*
X7458796Y3560705D01*
X7507498Y3562005D02*
X7559606D01*
X7289996Y2588478D02*
X7412698Y2465776D01*
X7452695D01*
X7499995Y2418476D01*
X7156197Y4399300D02*
Y4477223D01*
X7123001Y4510419D02*
X7156197Y4477223D01*
X7121717Y4510419D02*
X7123001D01*
X7156197Y4399300D02*
X7157496Y4398000D01*
X7256196Y4399300D02*
X7257496Y4398000D01*
X5564916Y3178998D02*
Y3438571D01*
Y3698997D01*
Y3959997D02*
X5569916D01*
X5734914Y3698997D02*
X5739917D01*
X5564916D02*
Y3959997D01*
X5626180Y5147898D02*
X5780022D01*
X5578175Y5195903D02*
X5626180Y5147898D01*
X5578175Y5195903D02*
Y5196116D01*
X5539372Y5234920D02*
X5578175Y5196116D01*
X5466151Y4949922D02*
X6263076D01*
X5451272Y4964801D02*
X5466151Y4949922D01*
X8925082Y4460347D02*
X8925164Y4460428D01*
X8925082Y4220002D02*
Y4460347D01*
Y4460509D02*
X8925164Y4460428D01*
X8925082Y4460509D02*
Y4700854D01*
X8920082D02*
X8925082D01*
X8765398Y4855539D02*
X8920082Y4700854D01*
X8528675Y5234920D02*
X8765398D01*
X9002126Y5064917D02*
X9007500Y5059543D01*
Y4892500D02*
Y5059543D01*
X7108337Y5064917D02*
X7345060D01*
X6871614D02*
X7108337D01*
X6393246Y5069835D02*
X6398163Y5064917D01*
X6161446Y5069835D02*
X6393246D01*
X6161446Y5064923D02*
Y5069835D01*
X6161441Y5064917D02*
X6161446Y5064923D01*
X6398163Y5064917D02*
X6634891D01*
X8755004Y2784922D02*
X8759922Y2780005D01*
X8755004Y2784922D02*
Y3010002D01*
X8755085Y3255086D02*
Y3490956D01*
X5451272Y4964801D02*
Y5064917D01*
X2357496Y1017499D02*
X2409998Y1070000D01*
X5734914Y3438571D02*
X5892683D01*
D44*
X7797876Y2242750D02*
X7866259D01*
X7932616Y2309107D01*
X7999999Y2407080D02*
Y2410480D01*
X7932616Y2339696D02*
X7999999Y2407080D01*
X7932616Y2309107D02*
Y2339696D01*
X7337816Y1250000D02*
X7830002D01*
X7108927Y1478890D02*
X7337816Y1250000D01*
X6976984Y1478890D02*
X7068287D01*
X7108927D01*
X6482500Y1415253D02*
X6542016Y1474769D01*
X6482500Y1204376D02*
Y1415253D01*
X6542016Y1474769D02*
X6701278D01*
X6702078Y1475569D02*
Y1478969D01*
X6701278Y1474769D02*
X6702078Y1475569D01*
X6482500Y1204376D02*
X6542016Y1144860D01*
X6805140D01*
X9292739Y2609519D02*
Y3010002D01*
Y3582261D01*
X8925006Y3010002D02*
X9292739D01*
X9233223Y2550003D02*
X9292739Y2609519D01*
X8925006Y2550003D02*
X9233223D01*
Y3490956D02*
X9292739Y3550472D01*
X8925082Y3490956D02*
X9233223D01*
X8312312Y2410399D02*
X8337907Y2435994D01*
X8565415Y2663503D01*
X8308355Y2410399D02*
X8335928Y2437972D01*
X6543721Y2583561D02*
X6784147D01*
X6304798Y2583180D02*
X6543721D01*
X8291952Y5064760D02*
X8528675D01*
X8752916Y4460428D02*
Y4700854D01*
Y4220002D02*
Y4460428D01*
X5732856Y4015257D02*
Y4219997D01*
X5745556Y2900070D02*
Y3129763D01*
X5734914Y3119120D02*
X5745556Y3129763D01*
X5668591Y3052798D02*
X5734914Y3119120D01*
X3468360Y5501640D02*
X4106520D01*
X3393902Y5576098D02*
Y6033339D01*
Y5576098D02*
X3468360Y5501640D01*
X3190743Y6236499D02*
X3393902Y6033339D01*
X3190743Y6236499D02*
Y6596711D01*
X3309030Y6714998D01*
X5624997Y6120498D02*
X5649997D01*
X5590797Y5993204D02*
Y6086298D01*
X5564996Y5900000D02*
Y5967404D01*
X5590797Y6086298D02*
X5624997Y6120498D01*
X5564996Y5967404D02*
X5590797Y5993204D01*
X5468835Y6146663D02*
X5623832D01*
X5432500Y6182998D02*
X5468835Y6146663D01*
X5623832D02*
X5649997Y6120498D01*
X5087498Y8419998D02*
X5432500Y8074997D01*
X1050026Y1339338D02*
Y2077984D01*
X618052Y2137500D02*
X990510D01*
X1050026Y2077984D01*
X558536Y2197016D02*
Y2443536D01*
Y2197016D02*
X618052Y2137500D01*
X3425002Y8027080D02*
Y8427502D01*
X3835879Y7579202D02*
Y7616203D01*
X3425002Y8027080D02*
X3835879Y7616203D01*
Y7579202D02*
X3840079Y7575001D01*
Y7275078D02*
Y7575001D01*
X1603746Y1109642D02*
X1702476D01*
X1703746Y1110912D01*
Y1279822D01*
X1339519Y1108372D02*
X1602476D01*
X1280003Y1048856D02*
X1339519Y1108372D01*
X1280003Y390002D02*
Y1048856D01*
X1602476Y1108372D02*
X1603746Y1109642D01*
X3038343Y6876821D02*
X3048340Y6886819D01*
X3024143Y6862621D02*
X3038343Y6876821D01*
X1651676Y4409658D02*
X2194169D01*
X595000Y2480000D02*
X612884Y2497884D01*
X558536Y2443536D02*
X595000Y2480000D01*
X1050026Y1339338D02*
X1109542Y1279822D01*
X1603746D01*
X8562416Y2666502D02*
X8565416Y2663503D01*
X6745087Y250002D02*
Y643804D01*
X5268776Y646738D02*
X5318038Y696001D01*
X5267058Y645020D02*
X5268776Y646738D01*
X5632999Y696001D02*
X5775194D01*
X5318038D02*
X5632999D01*
X3048340Y6886819D02*
Y7249998D01*
X5261903Y646738D02*
X5268776D01*
X6296684Y618805D02*
X6300084D01*
X6976984Y833806D02*
Y970752D01*
X5400000Y3131151D02*
Y4007844D01*
X5478353Y4086197D02*
X5651480D01*
X5400000Y4007844D02*
X5478353Y4086197D01*
Y3052798D02*
X5668591D01*
X5663517Y4074160D02*
X5673954D01*
X5651480Y4086197D02*
X5663517Y4074160D01*
X5400000Y3131151D02*
X5478353Y3052798D01*
X6080296Y4055130D02*
X6087170D01*
X6040424Y4015257D02*
X6080296Y4055130D01*
X5739114Y3960797D02*
X5793574Y4015257D01*
X6040424D01*
X7818506Y4895805D02*
X7832667Y4881645D01*
X2850000Y6078723D02*
X2962102Y5966620D01*
X2850000Y6078723D02*
Y6678478D01*
X3024143Y6852621D01*
X2962102Y5862899D02*
Y5966620D01*
X3024143Y6852621D02*
Y6862621D01*
X2962102Y5862899D02*
X2987502Y5837499D01*
Y4741101D02*
Y5837499D01*
X665002Y4658506D02*
X699202Y4624306D01*
X645528Y4677980D02*
X665002Y4658506D01*
X4497583Y2848803D02*
X4711600D01*
X2203367Y4335488D02*
X2262883Y4275972D01*
X2522374D01*
X2203367Y4335488D02*
Y4414057D01*
X2522374Y4275972D02*
X2987502Y4741101D01*
X1007500Y3107500D02*
Y3507500D01*
X612884Y2497884D02*
Y2712884D01*
X1007500Y3107500D01*
Y3507500D02*
X1117115Y3617115D01*
X1467112D01*
X1510000Y3660003D01*
X645528Y4677980D02*
Y4983501D01*
X1011280D01*
X1037083Y4957698D01*
X1070796D01*
X749910Y4624306D02*
X1035396Y4338820D01*
X699202Y4624306D02*
X749910D01*
X1035396Y4338820D02*
X1580838D01*
X1084997Y4933498D02*
Y4943498D01*
X1070796Y4957698D02*
X1084997Y4943498D01*
X6805140Y1144860D02*
X6810000Y1140000D01*
X2099010Y7872857D02*
X2226153Y7999999D01*
X2099010Y7619516D02*
Y7872857D01*
X1789520Y7560000D02*
X2039494D01*
X2099010Y7619516D01*
X1730004Y7500484D02*
X1789520Y7560000D01*
X1730004Y7200001D02*
Y7500484D01*
X3814999Y7249998D02*
X3840079Y7275078D01*
X3814999Y6902140D02*
Y7249998D01*
X3785484Y6862623D02*
X3799683Y6876821D01*
X3785484Y6755602D02*
Y6862623D01*
X3744879Y6714998D02*
X3785484Y6755602D01*
X3309030Y6714998D02*
X3744879D01*
X3799683Y6876821D02*
Y6886824D01*
X2194169Y4414057D02*
X2203367D01*
X7864938Y4842500D02*
Y4849373D01*
X7818506Y4895805D02*
Y5064917D01*
X7964313Y4749998D02*
X8175310D01*
X7871811Y4842500D02*
X7964313Y4749998D01*
X8175310D02*
X8291952Y4866640D01*
X9292739Y3550472D02*
Y3807262D01*
X9119998Y3980002D02*
X9292739Y3807262D01*
X8925082Y3980002D02*
X9119998D01*
X6299276Y2577958D02*
X6304798Y2583480D01*
X6299276Y2344420D02*
Y2577958D01*
X8371245Y2331256D02*
X8376105Y2336116D01*
Y2392401D01*
X8378802Y2395098D01*
X8308355Y2410399D02*
X8363501D01*
X8378802Y2395098D01*
X1580838Y4338820D02*
X1651676Y4409658D01*
X1510000Y4267982D02*
X1580838Y4338820D01*
X6656984Y643804D02*
X6745087D01*
X4106520Y5501640D02*
X4247784Y5642900D01*
Y5827781D01*
X4257502Y5837499D01*
X3799683Y6886824D02*
X3814999Y6902140D01*
X1510000Y3660003D02*
Y4267982D01*
X6543721Y2583180D02*
Y2583480D01*
X8528675Y5064760D02*
Y5064917D01*
Y4785360D02*
Y5064760D01*
X5732856Y4015257D02*
X5734914Y4013200D01*
X5673954Y4074160D02*
X5732856Y4015257D01*
X3365002Y3912504D02*
Y4617502D01*
X3272500Y3820003D02*
X3365002Y3912504D01*
X8250001Y2410399D02*
X8308355D01*
X5734914Y3119120D02*
Y3178998D01*
X5744916Y2900070D02*
X5745556D01*
X5734914Y3959997D02*
Y4013200D01*
X5732856Y4219997D02*
X5734914D01*
Y4479996D01*
X8752916Y4220002D02*
X8755085D01*
X8752916Y4700854D02*
X8755085D01*
X8613181D02*
X8752916D01*
X8528675Y4785360D02*
X8613181Y4700854D01*
X8752916Y4460428D02*
X8755167D01*
X8291952Y4866640D02*
Y5064760D01*
Y5064917D01*
D45*
X7047500Y4792500D02*
X7357496D01*
X6957497D02*
X7047500D01*
X8517779Y3072701D02*
X8562416Y3028065D01*
Y2666502D02*
Y3028065D01*
X7167151Y3072701D02*
X8517779D01*
X7057500Y3182353D02*
X7167151Y3072701D01*
X8312500Y8340000D02*
Y8550000D01*
X8262500Y8600000D02*
X8312500Y8550000D01*
X6987504Y8340000D02*
Y8555363D01*
X7032141Y8600000D01*
X8262500D01*
D46*
X514220Y5243002D02*
X930712D01*
X4937501Y7462327D02*
Y7499828D01*
Y7445004D02*
Y7462327D01*
X4579498Y7857830D02*
X4937501Y7499828D01*
X4579498Y7857830D02*
Y8419998D01*
X340473Y5399760D02*
X370231Y5370002D01*
X340473Y5399760D02*
Y5586497D01*
X370231Y5370002D02*
X930712D01*
X340470Y5586500D02*
X340473Y5586497D01*
X1452774Y5161560D02*
Y5233402D01*
X1462374Y5243002D01*
X1314599Y4973098D02*
Y5023385D01*
X1462374Y5243002D02*
X1470716D01*
X1274999Y4933498D02*
X1314599Y4973098D01*
Y5023385D02*
X1452774Y5161560D01*
X1835310Y4556902D02*
X1836034D01*
X1810710Y4581502D02*
Y4933498D01*
Y4581502D02*
X1835310Y4556902D01*
X1640713Y4933498D02*
Y5245005D01*
X1470716Y5370002D02*
X1515716D01*
X1640713Y5245005D01*
X340470Y5586500D02*
Y5858497D01*
X340468Y5858500D02*
X340470Y5858497D01*
X1274999Y4556902D02*
Y4933498D01*
D47*
X5432500Y6182998D02*
Y8074997D01*
D48*
X8095000Y7214998D02*
D03*
X7841000D02*
D03*
X7587000D02*
D03*
X7333000D02*
D03*
X7206000Y6960998D02*
D03*
X7460000D02*
D03*
X7968000D02*
D03*
X7714000D02*
D03*
D49*
X8312500Y8340000D02*
D03*
X8058500D02*
D03*
X7241504D02*
D03*
X6987504D02*
D03*
D50*
X6875500Y7545000D02*
D03*
X8424504D02*
D03*
D51*
X7078502Y7849998D02*
D03*
X8221502D02*
D03*
D52*
X7830002Y1250000D02*
D03*
Y999998D02*
D03*
X4615002Y4617502D02*
D03*
X4365000D02*
D03*
X4114998D02*
D03*
X3865001D02*
D03*
X3614999D02*
D03*
X3272500Y3570000D02*
D03*
Y3319998D02*
D03*
Y3070001D02*
D03*
X3167497Y1385001D02*
D03*
Y1634998D02*
D03*
Y1885000D02*
D03*
D53*
X7830002Y750001D02*
D03*
X3272500Y3820003D02*
D03*
X3167497Y1134999D02*
D03*
D54*
X2226153Y7999999D02*
D03*
D55*
X1464153D02*
D03*
D56*
X2917002Y8427502D02*
D03*
X3425002D02*
D03*
X5687289Y8419998D02*
D03*
X6195289D02*
D03*
X5087498D02*
D03*
X4579498D02*
D03*
D57*
X3856000Y7956000D02*
D03*
X4110000Y8210000D02*
D03*
X3856000D02*
D03*
X2984002Y290002D02*
D03*
X2730002D02*
D03*
D58*
X4110000Y7956000D02*
D03*
X2476002Y290002D02*
D03*
D59*
X2987502Y5837499D02*
D03*
D60*
X3241502D02*
D03*
X3749502D02*
D03*
X4257502D02*
D03*
D61*
X3365002Y4617502D02*
D03*
D62*
X9005001Y8475000D02*
D03*
Y475839D02*
D03*
X515000D02*
D03*
Y8475000D02*
D03*
D63*
X9105000Y2780005D02*
D03*
X3370000Y6552500D02*
D03*
X3950000Y6505000D02*
D03*
X3595000Y7107500D02*
D03*
X6777500Y2221950D02*
D03*
X7797876Y2242750D02*
D03*
X6472500Y3597902D02*
D03*
X7457496Y4647289D02*
D03*
X7256196Y4668057D02*
D03*
X5366980Y2049026D02*
D03*
X6482500Y1290000D02*
D03*
X7522500Y3137500D02*
D03*
X7407672Y3225000D02*
D03*
X7157496Y3311634D02*
D03*
X7224004Y3245620D02*
D03*
X7497500Y5765000D02*
D03*
X7307499Y3805001D02*
D03*
X5617500Y6665000D02*
D03*
X4532500Y1350000D02*
D03*
X1945000Y1090000D02*
D03*
X7572500Y5925000D02*
D03*
X7100000Y6400000D02*
D03*
X5564996Y5900000D02*
D03*
X7612497Y3529733D02*
D03*
X7792500Y3370000D02*
D03*
X6947584Y3311634D02*
D03*
X5450000Y518847D02*
D03*
X2510000Y4640000D02*
D03*
X8000000Y4186353D02*
D03*
X6980511Y3785317D02*
D03*
X7520000Y3302500D02*
D03*
X8099999Y2920951D02*
D03*
X7745456D02*
D03*
X5261903Y646738D02*
D03*
X5354550Y1272519D02*
D03*
X5673953Y3315152D02*
D03*
X5750199Y2643236D02*
D03*
X5574231Y2492235D02*
D03*
X5405148Y1618000D02*
D03*
X6628317Y4049471D02*
D03*
X6470609Y4002740D02*
D03*
X6087170Y4055130D02*
D03*
X9120000Y3225800D02*
D03*
X3407500Y6876821D02*
D03*
X4438066Y2632903D02*
D03*
X4711600Y2848803D02*
D03*
X4178498Y2100000D02*
D03*
X3697500Y696001D02*
D03*
X3583697Y450002D02*
D03*
X2144335Y787400D02*
D03*
X1882216Y2580000D02*
D03*
X1927779Y3593998D02*
D03*
X5165501Y7002500D02*
D03*
X6540700Y5412500D02*
D03*
X5100000Y3370000D02*
D03*
X1225001Y2160000D02*
D03*
X6810000Y1140000D02*
D03*
X2600000Y4065001D02*
D03*
X1525712Y4760000D02*
D03*
X7395083Y2730000D02*
D03*
X7024568Y3012910D02*
D03*
X6865148Y2990000D02*
D03*
X5252568Y1934166D02*
D03*
X5070000Y4100000D02*
D03*
X7415990Y4106510D02*
D03*
X8360000Y5710000D02*
D03*
X7460000Y5450000D02*
D03*
X6990000Y5380000D02*
D03*
X6957497Y4792500D02*
D03*
X7987883Y4970790D02*
D03*
X7832667Y4874771D02*
D03*
X7000719Y4038120D02*
D03*
X7150360Y4622500D02*
D03*
X9125000Y3732500D02*
D03*
X9092500Y4220002D02*
D03*
X6299276Y2344420D02*
D03*
X6135000Y2352500D02*
D03*
X8371245Y2331256D02*
D03*
X5452500Y1787500D02*
D03*
X7076984Y1878802D02*
D03*
X5321498Y2522220D02*
D03*
X4120000Y3665000D02*
D03*
X4397500Y6962501D02*
D03*
X4567500Y6745000D02*
D03*
X4397500Y6790000D02*
D03*
X2310000Y6312500D02*
D03*
X1748863Y5820000D02*
D03*
X1082500Y6132500D02*
D03*
X1751030Y5358501D02*
D03*
X700000Y5572500D02*
D03*
X5040000Y2677500D02*
D03*
X3665000Y2477500D02*
D03*
X2068405Y1700002D02*
D03*
X827500Y4772500D02*
D03*
X542500Y4372500D02*
D03*
X5312501Y4852502D02*
D03*
X345232Y4460000D02*
D03*
X6482500Y833806D02*
D03*
X7082983Y250002D02*
D03*
X7178438Y1189133D02*
D03*
X9105000Y2320000D02*
D03*
X9007500Y4892500D02*
D03*
X4054998Y5712501D02*
D03*
X6976984Y970752D02*
D03*
X7183196Y1404620D02*
D03*
X3985336Y2725420D02*
D03*
%TF.MD5,0a2384f88e0f83feea705d2458a96684*%
M02*
