%TF.GenerationSoftware,Altium Limited,Altium Designer,23.0.1 (38)*%
G04 Layer_Color=0*
%FSLAX45Y45*%
%MOMM*%
%TF.SameCoordinates,E0F799D9-27B4-45C1-BD14-B3F5E9977550*%
%TF.FilePolarity,Positive*%
%TF.FileFunction,Plated,1,2,PTH,Drill*%
%TF.Part,Single*%
G01*
G75*
%TA.AperFunction,ComponentDrill*%
%ADD126C,1.00000*%
%ADD127C,1.10000*%
%ADD128O,1.00000X1.80000*%
%ADD129C,0.90000*%
%ADD130C,2.41300*%
%ADD131C,1.27000*%
%ADD132C,1.00000*%
%ADD133C,0.80000*%
%ADD134C,0.90000*%
%TA.AperFunction,OtherDrill,Pad Free-2 (90.05mm,84.75mm)*%
%ADD135C,3.00000*%
%TA.AperFunction,OtherDrill,Pad Free-2 (90.05mm,4.758mm)*%
%ADD136C,3.00000*%
%TA.AperFunction,OtherDrill,Pad Free-2 (5.15mm,4.758mm)*%
%ADD137C,3.00000*%
%TA.AperFunction,OtherDrill,Pad Free-2 (5.15mm,84.75mm)*%
%ADD138C,3.00000*%
%TA.AperFunction,ViaDrill,NotFilled*%
%ADD139C,0.30000*%
D126*
X8095000Y7214998D02*
D03*
X7841000D02*
D03*
X7587000D02*
D03*
X7333000D02*
D03*
X7206000Y6960998D02*
D03*
X7460000D02*
D03*
X7968000D02*
D03*
X7714000D02*
D03*
X3856000Y7956000D02*
D03*
X4110000D02*
D03*
Y8210000D02*
D03*
D127*
X8312500Y8340000D02*
D03*
X8058500D02*
D03*
X7241504D02*
D03*
X6987504D02*
D03*
D128*
X6875500Y7545000D02*
D03*
X8424504D02*
D03*
D129*
X7830002Y1250000D02*
D03*
Y999998D02*
D03*
Y750001D02*
D03*
X3272500Y3820003D02*
D03*
Y3570000D02*
D03*
Y3319998D02*
D03*
Y3070001D02*
D03*
X3167497Y1134999D02*
D03*
Y1385001D02*
D03*
Y1634998D02*
D03*
Y1885000D02*
D03*
D130*
X2226153Y7999999D02*
D03*
X1464153D02*
D03*
D131*
X2917002Y8427502D02*
D03*
X3425002D02*
D03*
X5687289Y8419998D02*
D03*
X6195289D02*
D03*
X5087498D02*
D03*
X4579498D02*
D03*
D132*
X3856000Y8210000D02*
D03*
D133*
X2987502Y5837499D02*
D03*
X3241502D02*
D03*
X3749502D02*
D03*
X4257502D02*
D03*
D134*
X4615002Y4617502D02*
D03*
X4365000D02*
D03*
X4114998D02*
D03*
X3865001D02*
D03*
X3614999D02*
D03*
X3365002D02*
D03*
X2984002Y290002D02*
D03*
X2730002D02*
D03*
X2476002D02*
D03*
D135*
X9005001Y8475000D02*
D03*
D136*
Y475839D02*
D03*
D137*
X515000D02*
D03*
D138*
Y8475000D02*
D03*
D139*
X9105000Y2780005D02*
D03*
X3370000Y6552500D02*
D03*
X3950000Y6505000D02*
D03*
X3595000Y7107500D02*
D03*
X6777500Y2221950D02*
D03*
X7797876Y2242750D02*
D03*
X6472500Y3597902D02*
D03*
X7457496Y4647289D02*
D03*
X7256196Y4668057D02*
D03*
X5366980Y2049026D02*
D03*
X6482500Y1290000D02*
D03*
X7522500Y3137500D02*
D03*
X7407672Y3225000D02*
D03*
X7157496Y3311634D02*
D03*
X7224004Y3245620D02*
D03*
X7497500Y5765000D02*
D03*
X7307499Y3805001D02*
D03*
X5617500Y6665000D02*
D03*
X4532500Y1350000D02*
D03*
X1945000Y1090000D02*
D03*
X7572500Y5925000D02*
D03*
X7100000Y6400000D02*
D03*
X5564996Y5900000D02*
D03*
X7612497Y3529733D02*
D03*
X7792500Y3370000D02*
D03*
X6947584Y3311634D02*
D03*
X5450000Y518847D02*
D03*
X2510000Y4640000D02*
D03*
X8000000Y4186353D02*
D03*
X6980511Y3785317D02*
D03*
X7520000Y3302500D02*
D03*
X8099999Y2920951D02*
D03*
X7745456D02*
D03*
X5261903Y646738D02*
D03*
X5354550Y1272519D02*
D03*
X5673953Y3315152D02*
D03*
X5750199Y2643236D02*
D03*
X5574231Y2492235D02*
D03*
X5405148Y1618000D02*
D03*
X6628317Y4049471D02*
D03*
X6470609Y4002740D02*
D03*
X6087170Y4055130D02*
D03*
X9120000Y3225800D02*
D03*
X3407500Y6876821D02*
D03*
X4438066Y2632903D02*
D03*
X4711600Y2848803D02*
D03*
X4178498Y2100000D02*
D03*
X3697500Y696001D02*
D03*
X3583697Y450002D02*
D03*
X2144335Y787400D02*
D03*
X1882216Y2580000D02*
D03*
X1927779Y3593998D02*
D03*
X5165501Y7002500D02*
D03*
X6540700Y5412500D02*
D03*
X5100000Y3370000D02*
D03*
X1225001Y2160000D02*
D03*
X6810000Y1140000D02*
D03*
X2600000Y4065001D02*
D03*
X1525712Y4760000D02*
D03*
X7395083Y2730000D02*
D03*
X7024568Y3012910D02*
D03*
X6865148Y2990000D02*
D03*
X5252568Y1934166D02*
D03*
X5070000Y4100000D02*
D03*
X7415990Y4106510D02*
D03*
X8360000Y5710000D02*
D03*
X7460000Y5450000D02*
D03*
X6990000Y5380000D02*
D03*
X6957497Y4792500D02*
D03*
X7987883Y4970790D02*
D03*
X7832667Y4874771D02*
D03*
X7000719Y4038120D02*
D03*
X7150360Y4622500D02*
D03*
X9125000Y3732500D02*
D03*
X9092500Y4220002D02*
D03*
X6299276Y2344420D02*
D03*
X6135000Y2352500D02*
D03*
X8371245Y2331256D02*
D03*
X5452500Y1787500D02*
D03*
X7076984Y1878802D02*
D03*
X5321498Y2522220D02*
D03*
X4120000Y3665000D02*
D03*
X4397500Y6962501D02*
D03*
X4567500Y6745000D02*
D03*
X4397500Y6790000D02*
D03*
X2310000Y6312500D02*
D03*
X1748863Y5820000D02*
D03*
X1082500Y6132500D02*
D03*
X1751030Y5358501D02*
D03*
X700000Y5572500D02*
D03*
X5040000Y2677500D02*
D03*
X3665000Y2477500D02*
D03*
X2068405Y1700002D02*
D03*
X827500Y4772500D02*
D03*
X542500Y4372500D02*
D03*
X5312501Y4852502D02*
D03*
X345232Y4460000D02*
D03*
X6482500Y833806D02*
D03*
X7082983Y250002D02*
D03*
X7178438Y1189133D02*
D03*
X9105000Y2320000D02*
D03*
X9007500Y4892500D02*
D03*
X4054998Y5712501D02*
D03*
X6976984Y970752D02*
D03*
X7183196Y1404620D02*
D03*
X3985336Y2725420D02*
D03*
%TF.MD5,3da484638d9eae47d0b880899c448479*%
M02*
