%TF.GenerationSoftware,Altium Limited,Altium Designer,23.0.1 (38)*%
G04 Layer_Color=8388736*
%FSLAX45Y45*%
%MOMM*%
%TF.SameCoordinates,E0F799D9-27B4-45C1-BD14-B3F5E9977550*%
%TF.FilePolarity,Negative*%
%TF.FileFunction,Soldermask,Top*%
%TF.Part,Single*%
G01*
G75*
%TA.AperFunction,SMDPad,CuDef*%
%ADD26R,2.20000X1.70000*%
%ADD34R,4.03860X1.04140*%
%ADD35R,8.30580X10.74420*%
%TA.AperFunction,ComponentPad*%
%ADD52C,1.40000*%
%ADD53R,1.40000X1.40000*%
%ADD61R,1.40000X1.40000*%
%TA.AperFunction,SMDPad,CuDef*%
%ADD77R,1.76320X0.48320*%
%ADD78R,0.48320X1.76320*%
%ADD79R,1.30000X1.20000*%
%ADD80R,1.60320X1.40320*%
%ADD81R,1.70320X1.50320*%
%ADD82R,1.20000X1.30000*%
%ADD83R,2.20320X1.60320*%
%ADD84R,1.90320X1.90320*%
%ADD85R,5.75320X6.50320*%
%ADD86R,1.10320X2.45320*%
%ADD87R,1.30320X1.70320*%
%ADD88R,1.50320X1.70320*%
%ADD89R,1.55320X2.00320*%
%ADD90R,1.40320X1.60320*%
%ADD91R,1.90320X1.90320*%
%ADD92R,1.80320X2.90320*%
%ADD93R,2.60320X3.30320*%
%ADD94R,1.80320X0.90320*%
%ADD95R,2.70320X1.90320*%
G04:AMPARAMS|DCode=96|XSize=1.5432mm|YSize=3.4932mm|CornerRadius=0.2691mm|HoleSize=0mm|Usage=FLASHONLY|Rotation=0.000|XOffset=0mm|YOffset=0mm|HoleType=Round|Shape=RoundedRectangle|*
%AMROUNDEDRECTD96*
21,1,1.54320,2.95500,0,0,0.0*
21,1,1.00500,3.49320,0,0,0.0*
1,1,0.53820,0.50250,-1.47750*
1,1,0.53820,-0.50250,-1.47750*
1,1,0.53820,-0.50250,1.47750*
1,1,0.53820,0.50250,1.47750*
%
%ADD96ROUNDEDRECTD96*%
%ADD97R,2.25320X1.65320*%
%ADD98R,6.20320X10.20320*%
%ADD99R,4.20320X3.00320*%
%ADD100C,1.20320*%
%ADD101R,3.00320X4.20320*%
%ADD102R,1.60320X1.40320*%
%ADD103R,1.65320X1.06320*%
%ADD104R,1.06320X1.65320*%
%ADD105R,3.70320X3.70320*%
%TA.AperFunction,ComponentPad*%
%ADD106O,1.90000X2.30000*%
%ADD107C,2.30000*%
%ADD108O,2.30000X3.30000*%
%ADD109C,1.30000*%
%ADD110R,4.01320X6.29920*%
%ADD111O,4.01320X6.29920*%
%ADD112C,2.99720*%
%ADD113C,1.70320*%
%ADD114R,1.70320X1.70320*%
%ADD115R,1.72720X2.23520*%
%ADD116O,1.72720X2.23520*%
%TA.AperFunction,ViaPad*%
%ADD117C,6.20320*%
%ADD118C,0.80320*%
D26*
X6470000Y6120498D02*
D03*
Y6374498D02*
D03*
X5649997D02*
D03*
Y6120498D02*
D03*
D34*
X1603746Y1109642D02*
D03*
Y1279822D02*
D03*
Y1450002D02*
D03*
Y1620182D02*
D03*
Y1790362D02*
D03*
D35*
X558536Y1450002D02*
D03*
D52*
X7830002Y1250000D02*
D03*
Y999998D02*
D03*
X4615002Y4617502D02*
D03*
X4365000D02*
D03*
X4114998D02*
D03*
X3865001D02*
D03*
X3614999D02*
D03*
X3272500Y3570000D02*
D03*
Y3319998D02*
D03*
Y3070001D02*
D03*
X3167497Y1385001D02*
D03*
Y1634998D02*
D03*
Y1885000D02*
D03*
D53*
X7830002Y750001D02*
D03*
X3272500Y3820003D02*
D03*
X3167497Y1134999D02*
D03*
D61*
X3365002Y4617502D02*
D03*
D77*
X7650495Y4255003D02*
D03*
Y4205000D02*
D03*
Y4155003D02*
D03*
Y4105001D02*
D03*
Y4055003D02*
D03*
Y4005001D02*
D03*
Y3955004D02*
D03*
Y3905001D02*
D03*
Y3855004D02*
D03*
Y3805001D02*
D03*
Y3755004D02*
D03*
Y3705001D02*
D03*
X6814500D02*
D03*
Y3755004D02*
D03*
Y3805001D02*
D03*
Y3855004D02*
D03*
Y3905001D02*
D03*
Y3955004D02*
D03*
Y4005001D02*
D03*
Y4055003D02*
D03*
Y4105001D02*
D03*
Y4155003D02*
D03*
Y4205000D02*
D03*
Y4255003D02*
D03*
D78*
X7507498Y3562005D02*
D03*
X7457496D02*
D03*
X7407499D02*
D03*
X7357496D02*
D03*
X7307499D02*
D03*
X7257496D02*
D03*
X7207499D02*
D03*
X7157496D02*
D03*
X7107499D02*
D03*
X7057497D02*
D03*
X7007499D02*
D03*
X6957497D02*
D03*
Y4398000D02*
D03*
X7007499D02*
D03*
X7057497D02*
D03*
X7107499D02*
D03*
X7157496D02*
D03*
X7207499D02*
D03*
X7257496D02*
D03*
X7307499D02*
D03*
X7357496D02*
D03*
X7407499D02*
D03*
X7457496D02*
D03*
X7507498D02*
D03*
D79*
X340473Y5586497D02*
D03*
X510470D02*
D03*
X6300084Y618805D02*
D03*
X6130082D02*
D03*
X6745087Y250002D02*
D03*
X6915084D02*
D03*
X6300165Y1066902D02*
D03*
X6130163D02*
D03*
X6130082Y1468806D02*
D03*
X6300084D02*
D03*
X8755085Y2320006D02*
D03*
X8925082D02*
D03*
X8925006Y2550003D02*
D03*
X8755004D02*
D03*
X8929924Y2780005D02*
D03*
X8759922D02*
D03*
X8755004Y3010002D02*
D03*
X8925006D02*
D03*
Y3250006D02*
D03*
X8755004D02*
D03*
X8755085Y3490956D02*
D03*
X8925082D02*
D03*
X8925006Y3739576D02*
D03*
X8755004D02*
D03*
X8755085Y4700854D02*
D03*
X8925082D02*
D03*
X8755167Y4460428D02*
D03*
X8925164D02*
D03*
X8755085Y4220002D02*
D03*
X8925082D02*
D03*
X8755085Y3980002D02*
D03*
X8925082D02*
D03*
X3048340Y7249998D02*
D03*
X3218343D02*
D03*
X3814999D02*
D03*
X3645002D02*
D03*
X1836034Y4556902D02*
D03*
X1666032D02*
D03*
X1640713Y4933498D02*
D03*
X1810710D02*
D03*
X1585712Y5958500D02*
D03*
X1415710D02*
D03*
X1080049D02*
D03*
X910052D02*
D03*
X340468Y5858500D02*
D03*
X510470D02*
D03*
X5734914Y4479996D02*
D03*
X5564916D02*
D03*
X5734914Y4219997D02*
D03*
X5564916D02*
D03*
X5734914Y3959997D02*
D03*
X5564916D02*
D03*
X4497583Y2848803D02*
D03*
X4327586D02*
D03*
X4875083D02*
D03*
X5045085D02*
D03*
X5734914Y3698997D02*
D03*
X5564916D02*
D03*
X5734914Y3178998D02*
D03*
X5564916D02*
D03*
Y3438571D02*
D03*
X5734914D02*
D03*
X509218Y5243004D02*
D03*
X339216D02*
D03*
X7480082Y2890001D02*
D03*
X7310085D02*
D03*
D80*
X4212839Y6934997D02*
D03*
Y6745000D02*
D03*
X4218920Y7304562D02*
D03*
Y7494560D02*
D03*
X5231420Y6189563D02*
D03*
Y6379561D02*
D03*
X4976078Y6382995D02*
D03*
Y6192998D02*
D03*
X4715581D02*
D03*
Y6382995D02*
D03*
D81*
X7057984Y828974D02*
D03*
Y638972D02*
D03*
X6656984Y643804D02*
D03*
Y833806D02*
D03*
D82*
X6976984Y1478890D02*
D03*
Y1308887D02*
D03*
X6702078Y1478969D02*
D03*
Y1308967D02*
D03*
X2234433Y4808494D02*
D03*
Y4978497D02*
D03*
X8250001Y2410399D02*
D03*
Y2580401D02*
D03*
X7999999Y2410480D02*
D03*
Y2580483D02*
D03*
X7770856Y2410399D02*
D03*
Y2580401D02*
D03*
X7024568Y2413559D02*
D03*
Y2583561D02*
D03*
X6784147D02*
D03*
Y2413559D02*
D03*
X6543721Y2583480D02*
D03*
Y2413478D02*
D03*
X9002126Y5234920D02*
D03*
Y5064917D02*
D03*
X8765398Y5234920D02*
D03*
Y5064917D02*
D03*
X8528675D02*
D03*
Y5234920D02*
D03*
X8291952Y5064917D02*
D03*
Y5234920D02*
D03*
X8055229D02*
D03*
Y5064917D02*
D03*
X7818506D02*
D03*
Y5234920D02*
D03*
X7581783D02*
D03*
Y5064917D02*
D03*
X7345060D02*
D03*
Y5234920D02*
D03*
X7108337D02*
D03*
Y5064917D02*
D03*
X6871614D02*
D03*
Y5234920D02*
D03*
X6634891D02*
D03*
Y5064917D02*
D03*
X6398163D02*
D03*
Y5234920D02*
D03*
X6161441Y5064917D02*
D03*
Y5234920D02*
D03*
X5924718D02*
D03*
Y5064917D02*
D03*
X5677499Y5067498D02*
D03*
Y5237500D02*
D03*
X5451272Y5064917D02*
D03*
Y5234920D02*
D03*
D83*
X6255085Y1878802D02*
D03*
X6895084D02*
D03*
X4920000Y3524921D02*
D03*
X4280002D02*
D03*
D84*
X8730000Y6982506D02*
D03*
Y7312508D02*
D03*
D85*
X4937501Y7462327D02*
D03*
X6120074Y7389998D02*
D03*
D86*
X5165501Y6802324D02*
D03*
X4709500D02*
D03*
X5892074Y6729994D02*
D03*
X6348075D02*
D03*
D87*
X3840079Y7575001D02*
D03*
X3620079D02*
D03*
X2670002Y2749362D02*
D03*
X2450003D02*
D03*
X2664998Y2381900D02*
D03*
X2444999D02*
D03*
D88*
X3038343Y7575000D02*
D03*
X3228345D02*
D03*
X3609680Y6876821D02*
D03*
X3799683D02*
D03*
X3038343D02*
D03*
X3228345D02*
D03*
X2095002Y2381900D02*
D03*
X1905000D02*
D03*
Y2751902D02*
D03*
X2095002D02*
D03*
X2382459Y3330001D02*
D03*
X2192457D02*
D03*
X2194997Y3699998D02*
D03*
X2384999D02*
D03*
Y4080000D02*
D03*
X2194997D02*
D03*
X1084997Y4933498D02*
D03*
X1274999D02*
D03*
Y4556902D02*
D03*
X1084997D02*
D03*
X6304798Y2583480D02*
D03*
X6114796D02*
D03*
X5744916Y2900070D02*
D03*
X5554914D02*
D03*
D89*
X4424998Y6333919D02*
D03*
X4090003D02*
D03*
X329474Y7550003D02*
D03*
X664474D02*
D03*
D90*
X3825438Y6333922D02*
D03*
X3635441D02*
D03*
X2194167Y4433257D02*
D03*
X2384164D02*
D03*
D91*
X3365002Y6340003D02*
D03*
X3035000D02*
D03*
X645528Y4983501D02*
D03*
X315526D02*
D03*
X665002Y4658506D02*
D03*
X335000D02*
D03*
D92*
X2264430Y5358501D02*
D03*
X1984431D02*
D03*
X1985711Y5858500D02*
D03*
X2265710D02*
D03*
X2572517Y6578600D02*
D03*
X2292518D02*
D03*
X2270003Y7200001D02*
D03*
X2550003D02*
D03*
D93*
X1200714Y5433502D02*
D03*
D94*
X930712Y5624002D02*
D03*
Y5497002D02*
D03*
Y5370002D02*
D03*
Y5243002D02*
D03*
X1470716Y5624002D02*
D03*
Y5243002D02*
D03*
Y5370002D02*
D03*
Y5497002D02*
D03*
D95*
X1743583Y6603599D02*
D03*
X1337102D02*
D03*
X374218D02*
D03*
X780699D02*
D03*
D96*
X1730004Y7200001D02*
D03*
X1300002D02*
D03*
D97*
X642498Y7135002D02*
D03*
X357500D02*
D03*
D98*
X1510000Y3660003D02*
D03*
X450002Y3670000D02*
D03*
D99*
X595000Y2480000D02*
D03*
X1225001D02*
D03*
D100*
X1729999Y390002D02*
D03*
X1280003D02*
D03*
D101*
X2409998Y1070000D02*
D03*
Y1700002D02*
D03*
D102*
X7279996Y2588478D02*
D03*
Y2418476D02*
D03*
X7499995D02*
D03*
Y2588478D02*
D03*
D103*
X5632999Y2220001D02*
D03*
Y2093001D02*
D03*
Y1966001D02*
D03*
Y1839001D02*
D03*
Y1712001D02*
D03*
Y1585001D02*
D03*
Y1458001D02*
D03*
Y1331001D02*
D03*
Y1204001D02*
D03*
Y1077001D02*
D03*
Y950001D02*
D03*
Y696001D02*
D03*
Y569001D02*
D03*
X3866998Y2220001D02*
D03*
Y2093001D02*
D03*
Y1966001D02*
D03*
Y1839001D02*
D03*
Y1712001D02*
D03*
Y1585001D02*
D03*
Y1458001D02*
D03*
Y1331001D02*
D03*
Y1204001D02*
D03*
Y1077001D02*
D03*
Y950001D02*
D03*
Y823001D02*
D03*
Y696001D02*
D03*
Y569001D02*
D03*
X5632999Y823001D02*
D03*
D104*
X4686498Y2353000D02*
D03*
X4559498D02*
D03*
X4432498D02*
D03*
X4305498D02*
D03*
X4178498D02*
D03*
X4813498D02*
D03*
X4940498D02*
D03*
X5067498D02*
D03*
X5194498D02*
D03*
X5321498D02*
D03*
D105*
X4895997Y1333002D02*
D03*
D106*
X8095000Y7214998D02*
D03*
X7841000D02*
D03*
X7587000D02*
D03*
X7333000D02*
D03*
X7206000Y6960998D02*
D03*
X7460000D02*
D03*
X7968000D02*
D03*
X7714000D02*
D03*
D107*
X8312500Y8340000D02*
D03*
X8058500D02*
D03*
X7241504D02*
D03*
X6987504D02*
D03*
D108*
X6875500Y7545000D02*
D03*
X8424504D02*
D03*
D109*
X7078502Y7849998D02*
D03*
X8221502D02*
D03*
D110*
X2226153Y7999999D02*
D03*
D111*
X1464153D02*
D03*
D112*
X2917002Y8427502D02*
D03*
X3425002D02*
D03*
X5687289Y8419998D02*
D03*
X6195289D02*
D03*
X5087498D02*
D03*
X4579498D02*
D03*
D113*
X3856000Y7956000D02*
D03*
X4110000Y8210000D02*
D03*
X3856000D02*
D03*
X2984002Y290002D02*
D03*
X2730002D02*
D03*
D114*
X4110000Y7956000D02*
D03*
X2476002Y290002D02*
D03*
D115*
X2987502Y5837499D02*
D03*
D116*
X3241502D02*
D03*
X3749502D02*
D03*
X4257502D02*
D03*
D117*
X9005001Y8475000D02*
D03*
Y475839D02*
D03*
X515000D02*
D03*
Y8475000D02*
D03*
D118*
X9105000Y2780005D02*
D03*
X3370000Y6552500D02*
D03*
X3950000Y6505000D02*
D03*
X3595000Y7107500D02*
D03*
X6777500Y2221950D02*
D03*
X7797876Y2242750D02*
D03*
X6472500Y3597902D02*
D03*
X7457496Y4647289D02*
D03*
X7256196Y4668057D02*
D03*
X5366980Y2049026D02*
D03*
X6482500Y1290000D02*
D03*
X7522500Y3137500D02*
D03*
X7407672Y3225000D02*
D03*
X7157496Y3311634D02*
D03*
X7224004Y3245620D02*
D03*
X7497500Y5765000D02*
D03*
X7307499Y3805001D02*
D03*
X5617500Y6665000D02*
D03*
X4532500Y1350000D02*
D03*
X1945000Y1090000D02*
D03*
X7572500Y5925000D02*
D03*
X7100000Y6400000D02*
D03*
X5564996Y5900000D02*
D03*
X7612497Y3529733D02*
D03*
X7792500Y3370000D02*
D03*
X6947584Y3311634D02*
D03*
X5450000Y518847D02*
D03*
X2510000Y4640000D02*
D03*
X8000000Y4186353D02*
D03*
X6980511Y3785317D02*
D03*
X7520000Y3302500D02*
D03*
X8099999Y2920951D02*
D03*
X7745456D02*
D03*
X5261903Y646738D02*
D03*
X5354550Y1272519D02*
D03*
X5673953Y3315152D02*
D03*
X5750199Y2643236D02*
D03*
X5574231Y2492235D02*
D03*
X5405148Y1618000D02*
D03*
X6628317Y4049471D02*
D03*
X6470609Y4002740D02*
D03*
X6087170Y4055130D02*
D03*
X9120000Y3225800D02*
D03*
X3407500Y6876821D02*
D03*
X4438066Y2632903D02*
D03*
X4711600Y2848803D02*
D03*
X4178498Y2100000D02*
D03*
X3697500Y696001D02*
D03*
X3583697Y450002D02*
D03*
X2144335Y787400D02*
D03*
X1882216Y2580000D02*
D03*
X1927779Y3593998D02*
D03*
X5165501Y7002500D02*
D03*
X6540700Y5412500D02*
D03*
X5100000Y3370000D02*
D03*
X1225001Y2160000D02*
D03*
X6810000Y1140000D02*
D03*
X2600000Y4065001D02*
D03*
X1525712Y4760000D02*
D03*
X7395083Y2730000D02*
D03*
X7024568Y3012910D02*
D03*
X6865148Y2990000D02*
D03*
X5252568Y1934166D02*
D03*
X5070000Y4100000D02*
D03*
X7415990Y4106510D02*
D03*
X8360000Y5710000D02*
D03*
X7460000Y5450000D02*
D03*
X6990000Y5380000D02*
D03*
X6957497Y4792500D02*
D03*
X7987883Y4970790D02*
D03*
X7832667Y4874771D02*
D03*
X7000719Y4038120D02*
D03*
X7150360Y4622500D02*
D03*
X9125000Y3732500D02*
D03*
X9092500Y4220002D02*
D03*
X6299276Y2344420D02*
D03*
X6135000Y2352500D02*
D03*
X8371245Y2331256D02*
D03*
X5452500Y1787500D02*
D03*
X7076984Y1878802D02*
D03*
X5321498Y2522220D02*
D03*
X4120000Y3665000D02*
D03*
X4397500Y6962501D02*
D03*
X4567500Y6745000D02*
D03*
X4397500Y6790000D02*
D03*
X2310000Y6312500D02*
D03*
X1748863Y5820000D02*
D03*
X1082500Y6132500D02*
D03*
X1751030Y5358501D02*
D03*
X700000Y5572500D02*
D03*
X5040000Y2677500D02*
D03*
X3665000Y2477500D02*
D03*
X2068405Y1700002D02*
D03*
X827500Y4772500D02*
D03*
X542500Y4372500D02*
D03*
X5312501Y4852502D02*
D03*
X345232Y4460000D02*
D03*
X6482500Y833806D02*
D03*
X7082983Y250002D02*
D03*
X7178438Y1189133D02*
D03*
X9105000Y2320000D02*
D03*
X9007500Y4892500D02*
D03*
X4054998Y5712501D02*
D03*
X6976984Y970752D02*
D03*
X7183196Y1404620D02*
D03*
X3985336Y2725420D02*
D03*
%TF.MD5,561b1ebfa9e92ed1b0586b8fd1e73291*%
M02*
