G04*
G04 #@! TF.GenerationSoftware,Altium Limited,Altium Designer,23.0.1 (38)*
G04*
G04 Layer_Color=8421504*
%FSTAX44Y44*%
%MOMM*%
G71*
G04*
G04 #@! TF.SameCoordinates,F694FBC8-736E-493C-811D-9B4FADD6A984*
G04*
G04*
G04 #@! TF.FilePolarity,Positive*
G04*
G01*
G75*
%ADD22R,1.5600X0.2800*%
%ADD23R,0.2800X1.5600*%
%ADD24R,1.1000X1.0000*%
%ADD25R,1.4000X1.2000*%
%ADD26R,1.5000X1.3000*%
%ADD27R,1.0000X1.1000*%
%ADD28R,2.0000X1.4000*%
%ADD29R,1.7000X1.7000*%
%ADD30R,5.5500X6.3000*%
%ADD31R,0.9000X2.2500*%
%ADD32R,1.1000X1.5000*%
%ADD33R,1.3000X1.5000*%
%ADD34R,1.3500X1.8000*%
%ADD35R,1.2000X1.4000*%
%ADD36R,1.7000X1.7000*%
%ADD37R,2.2000X1.7000*%
%ADD38R,1.6000X2.7000*%
%ADD39R,2.4000X3.1000*%
%ADD40R,1.6000X0.7000*%
%ADD41R,2.5000X1.7000*%
G04:AMPARAMS|DCode=42|XSize=1.34mm|YSize=3.29mm|CornerRadius=0.1675mm|HoleSize=0mm|Usage=FLASHONLY|Rotation=0.000|XOffset=0mm|YOffset=0mm|HoleType=Round|Shape=RoundedRectangle|*
%AMROUNDEDRECTD42*
21,1,1.3400,2.9550,0,0,0.0*
21,1,1.0050,3.2900,0,0,0.0*
1,1,0.3350,0.5025,-1.4775*
1,1,0.3350,-0.5025,-1.4775*
1,1,0.3350,-0.5025,1.4775*
1,1,0.3350,0.5025,1.4775*
%
%ADD42ROUNDEDRECTD42*%
%ADD43R,2.0500X1.4500*%
%ADD44R,6.0000X10.0000*%
%ADD45R,4.0386X1.0414*%
%ADD46R,8.3058X10.7442*%
%ADD47R,4.0000X2.8000*%
%ADD48C,1.0000*%
%ADD49R,2.8000X4.0000*%
%ADD50R,1.4000X1.2000*%
%ADD51R,1.4500X0.8600*%
%ADD52R,0.8600X1.4500*%
%ADD53R,3.5000X3.5000*%
D22*
X0076505Y004255D02*
D03*
Y004205D02*
D03*
Y004155D02*
D03*
Y004105D02*
D03*
Y004055D02*
D03*
Y004005D02*
D03*
Y003955D02*
D03*
Y003905D02*
D03*
Y003855D02*
D03*
Y003805D02*
D03*
Y003755D02*
D03*
Y003705D02*
D03*
X0068145D02*
D03*
Y003755D02*
D03*
Y003805D02*
D03*
Y003855D02*
D03*
Y003905D02*
D03*
Y003955D02*
D03*
Y004005D02*
D03*
Y004055D02*
D03*
Y004105D02*
D03*
Y004155D02*
D03*
Y004205D02*
D03*
Y004255D02*
D03*
D23*
X0075075Y003562D02*
D03*
X0074575D02*
D03*
X0074075D02*
D03*
X0073575D02*
D03*
X0073075D02*
D03*
X0072575D02*
D03*
X0072075D02*
D03*
X0071575D02*
D03*
X0071075D02*
D03*
X0070575D02*
D03*
X0070075D02*
D03*
X0069575D02*
D03*
Y004398D02*
D03*
X0070075D02*
D03*
X0070575D02*
D03*
X0071075D02*
D03*
X0071575D02*
D03*
X0072075D02*
D03*
X0072575D02*
D03*
X0073075D02*
D03*
X0073575D02*
D03*
X0074075D02*
D03*
X0074575D02*
D03*
X0075075D02*
D03*
D24*
X00034047Y0055865D02*
D03*
X00051047D02*
D03*
X00630008Y0006188D02*
D03*
X00613008D02*
D03*
X00674509Y00025D02*
D03*
X00691508D02*
D03*
X00630017Y0010669D02*
D03*
X00613016D02*
D03*
X00613008Y00146881D02*
D03*
X00630008D02*
D03*
X00875508Y00232001D02*
D03*
X00892508D02*
D03*
X00892501Y00255D02*
D03*
X008755D02*
D03*
X00892992Y00278001D02*
D03*
X00875992D02*
D03*
X008755Y00301D02*
D03*
X00892501D02*
D03*
Y00325001D02*
D03*
X008755D02*
D03*
X00875508Y00349096D02*
D03*
X00892508D02*
D03*
X00892501Y00373958D02*
D03*
X008755D02*
D03*
X00875508Y00470085D02*
D03*
X00892508D02*
D03*
X00875517Y00446043D02*
D03*
X00892516D02*
D03*
X00875508Y00422D02*
D03*
X00892508D02*
D03*
X00875508Y00398D02*
D03*
X00892508D02*
D03*
X00304834Y00725D02*
D03*
X00321834D02*
D03*
X003815D02*
D03*
X003645D02*
D03*
X00183603Y0045569D02*
D03*
X00166603D02*
D03*
X00164071Y0049335D02*
D03*
X00181071D02*
D03*
X00158571Y0059585D02*
D03*
X00141571D02*
D03*
X00108005D02*
D03*
X00091005D02*
D03*
X00034047Y0058585D02*
D03*
X00051047D02*
D03*
X00573491Y00448D02*
D03*
X00556492D02*
D03*
X00573491Y00422D02*
D03*
X00556492D02*
D03*
X00573491Y00396D02*
D03*
X00556492D02*
D03*
X00449758Y0028488D02*
D03*
X00432759D02*
D03*
X00487508D02*
D03*
X00504509D02*
D03*
X00573491Y003699D02*
D03*
X00556492D02*
D03*
X00573491Y003179D02*
D03*
X00556492D02*
D03*
Y00343857D02*
D03*
X00573491D02*
D03*
X00050922Y005243D02*
D03*
X00033922D02*
D03*
X00748008Y00289D02*
D03*
X00731009D02*
D03*
D25*
X00421284Y006935D02*
D03*
Y006745D02*
D03*
X00421892Y00730456D02*
D03*
Y00749456D02*
D03*
X00523142Y00618956D02*
D03*
Y00637956D02*
D03*
X00497608Y00638299D02*
D03*
Y006193D02*
D03*
X00471558D02*
D03*
Y00638299D02*
D03*
D26*
X00705798Y00082897D02*
D03*
Y00063897D02*
D03*
X00665698Y0006438D02*
D03*
Y00083381D02*
D03*
D27*
X00697698Y00147889D02*
D03*
Y00130889D02*
D03*
X00670208Y00147897D02*
D03*
Y00130897D02*
D03*
X00223443Y00480849D02*
D03*
Y0049785D02*
D03*
X00825Y0024104D02*
D03*
Y0025804D02*
D03*
X008Y00241048D02*
D03*
Y00258048D02*
D03*
X00777086Y0024104D02*
D03*
Y0025804D02*
D03*
X00702457Y00241356D02*
D03*
Y00258356D02*
D03*
X00678415D02*
D03*
Y00241356D02*
D03*
X00654372Y00258348D02*
D03*
Y00241348D02*
D03*
X00900213Y00523492D02*
D03*
Y00506492D02*
D03*
X0087654Y00523492D02*
D03*
Y00506492D02*
D03*
X00852868D02*
D03*
Y00523492D02*
D03*
X00829195Y00506492D02*
D03*
Y00523492D02*
D03*
X00805523D02*
D03*
Y00506492D02*
D03*
X00781851D02*
D03*
Y00523492D02*
D03*
X00758178D02*
D03*
Y00506492D02*
D03*
X00734506D02*
D03*
Y00523492D02*
D03*
X00710834D02*
D03*
Y00506492D02*
D03*
X00687161D02*
D03*
Y00523492D02*
D03*
X00663489D02*
D03*
Y00506492D02*
D03*
X00639816D02*
D03*
Y00523492D02*
D03*
X00616144Y00506492D02*
D03*
Y00523492D02*
D03*
X00592472D02*
D03*
Y00506492D02*
D03*
X0056775Y0050675D02*
D03*
Y0052375D02*
D03*
X00545127Y00506492D02*
D03*
Y00523492D02*
D03*
D28*
X00625508Y0018788D02*
D03*
X00689508D02*
D03*
X00492Y00352492D02*
D03*
X00428D02*
D03*
D29*
X00873Y00698251D02*
D03*
Y00731251D02*
D03*
D30*
X0049375Y00746233D02*
D03*
X00612007Y00739D02*
D03*
D31*
X0051655Y00680232D02*
D03*
X0047095D02*
D03*
X00589207Y00672999D02*
D03*
X00634808D02*
D03*
D32*
X00384008Y007575D02*
D03*
X00362008D02*
D03*
X00267Y00274936D02*
D03*
X00245D02*
D03*
X002665Y0023819D02*
D03*
X002445D02*
D03*
D33*
X00303834Y007575D02*
D03*
X00322835D02*
D03*
X00360968Y00687682D02*
D03*
X00379968D02*
D03*
X00303834D02*
D03*
X00322835D02*
D03*
X002095Y0023819D02*
D03*
X001905D02*
D03*
Y0027519D02*
D03*
X002095D02*
D03*
X00238246Y00333D02*
D03*
X00219246D02*
D03*
X002195Y0037D02*
D03*
X002385D02*
D03*
Y00408D02*
D03*
X002195D02*
D03*
X001085Y0049335D02*
D03*
X001275D02*
D03*
Y0045569D02*
D03*
X001085D02*
D03*
X0063048Y00258348D02*
D03*
X0061148D02*
D03*
X00574492Y00290007D02*
D03*
X00555491D02*
D03*
D34*
X004425Y00633392D02*
D03*
X00409D02*
D03*
X00032947Y00755D02*
D03*
X00066447D02*
D03*
D35*
X00382544Y00633392D02*
D03*
X00363544D02*
D03*
X00219417Y00443326D02*
D03*
X00238416D02*
D03*
D36*
X003365Y00634D02*
D03*
X003035D02*
D03*
X00064553Y0049835D02*
D03*
X00031553D02*
D03*
X000665Y00465851D02*
D03*
X000335D02*
D03*
D37*
X00647Y0061205D02*
D03*
Y0063745D02*
D03*
X00565D02*
D03*
Y0061205D02*
D03*
D38*
X00226443Y0053585D02*
D03*
X00198443D02*
D03*
X00198571Y0058585D02*
D03*
X00226571D02*
D03*
X00257252Y0065786D02*
D03*
X00229252D02*
D03*
X00227Y0072D02*
D03*
X00255D02*
D03*
D39*
X00120071Y0054335D02*
D03*
D40*
X00093071Y005624D02*
D03*
Y005497D02*
D03*
Y00537D02*
D03*
Y005243D02*
D03*
X00147072Y005624D02*
D03*
Y005243D02*
D03*
Y00537D02*
D03*
Y005497D02*
D03*
D41*
X00174358Y0066036D02*
D03*
X0013371D02*
D03*
X00037422D02*
D03*
X0007807D02*
D03*
D42*
X00173Y0072D02*
D03*
X0013D02*
D03*
D43*
X0006425Y007135D02*
D03*
X0003575D02*
D03*
D44*
X00151Y00366D02*
D03*
X00045Y00367D02*
D03*
D45*
X00160375Y00110964D02*
D03*
Y00127982D02*
D03*
Y00145D02*
D03*
Y00162018D02*
D03*
Y00179036D02*
D03*
D46*
X00055854Y00145D02*
D03*
D47*
X000595Y00248D02*
D03*
X001225D02*
D03*
D48*
X00173Y00039D02*
D03*
X00128D02*
D03*
D49*
X00241Y00107D02*
D03*
Y0017D02*
D03*
D50*
X00728Y00258848D02*
D03*
Y00241848D02*
D03*
X00749999D02*
D03*
Y00258848D02*
D03*
D51*
X005633Y00222D02*
D03*
Y002093D02*
D03*
Y001966D02*
D03*
Y001839D02*
D03*
Y001712D02*
D03*
Y001585D02*
D03*
Y001458D02*
D03*
Y001331D02*
D03*
Y001204D02*
D03*
Y001077D02*
D03*
Y00095D02*
D03*
Y000696D02*
D03*
Y000569D02*
D03*
X003867Y00222D02*
D03*
Y002093D02*
D03*
Y001966D02*
D03*
Y001839D02*
D03*
Y001712D02*
D03*
Y001585D02*
D03*
Y001458D02*
D03*
Y001331D02*
D03*
Y001204D02*
D03*
Y001077D02*
D03*
Y00095D02*
D03*
Y000823D02*
D03*
Y000696D02*
D03*
Y000569D02*
D03*
X005633Y000823D02*
D03*
D52*
X0046865Y002353D02*
D03*
X0045595D02*
D03*
X0044325D02*
D03*
X0043055D02*
D03*
X0041785D02*
D03*
X0048135D02*
D03*
X0049405D02*
D03*
X0050675D02*
D03*
X0051945D02*
D03*
X0053215D02*
D03*
D53*
X004896Y001333D02*
D03*
M02*
