G04*
G04 #@! TF.GenerationSoftware,Altium Limited,Altium Designer,23.0.1 (38)*
G04*
G04 Layer_Color=255*
%FSTAX44Y44*%
%MOMM*%
G71*
G04*
G04 #@! TF.SameCoordinates,F694FBC8-736E-493C-811D-9B4FADD6A984*
G04*
G04*
G04 #@! TF.FilePolarity,Positive*
G04*
G01*
G75*
%ADD48C,1.0000*%
%ADD87C,1.4000*%
%ADD88R,1.4000X1.4000*%
%ADD96R,1.4000X1.4000*%
%ADD104O,1.6000X2.0000*%
%ADD105C,2.0000*%
%ADD106O,2.0000X3.0000*%
%ADD107R,3.8100X6.0960*%
%ADD108O,3.8100X6.0960*%
%ADD109C,2.7940*%
%ADD110C,1.5000*%
%ADD111R,1.5000X1.5000*%
%ADD112R,1.5240X2.0320*%
%ADD113O,1.5240X2.0320*%
%ADD114C,6.0000*%
D48*
X0070785Y00785D02*
D03*
X0082215D02*
D03*
D87*
X00783Y00125D02*
D03*
Y001D02*
D03*
X004615Y0046175D02*
D03*
X004365D02*
D03*
X004115D02*
D03*
X003865D02*
D03*
X003615D02*
D03*
X0032725Y00357D02*
D03*
Y00332D02*
D03*
Y00307D02*
D03*
X0031675Y001385D02*
D03*
Y001635D02*
D03*
Y001885D02*
D03*
D88*
X00783Y00075D02*
D03*
X0032725Y00382D02*
D03*
X0031675Y001135D02*
D03*
D96*
X003365Y0046175D02*
D03*
D104*
X008095Y007215D02*
D03*
X007841D02*
D03*
X007587D02*
D03*
X007333D02*
D03*
X007206Y006961D02*
D03*
X00746D02*
D03*
X007968D02*
D03*
X007714D02*
D03*
D105*
X0083125Y00834D02*
D03*
X0080585D02*
D03*
X0072415D02*
D03*
X0069875D02*
D03*
D106*
X0068755Y007545D02*
D03*
X0084245D02*
D03*
D107*
X00222615Y008D02*
D03*
D108*
X00146415D02*
D03*
D109*
X002917Y0084275D02*
D03*
X003425D02*
D03*
X00568729Y00842D02*
D03*
X00619529D02*
D03*
X0050875D02*
D03*
X0045795D02*
D03*
D110*
X003856Y007956D02*
D03*
X00411Y00821D02*
D03*
X003856D02*
D03*
X002984Y00029D02*
D03*
X00273D02*
D03*
D111*
X00411Y007956D02*
D03*
X002476Y00029D02*
D03*
D112*
X0029875Y0058375D02*
D03*
D113*
X0032415D02*
D03*
X0037495D02*
D03*
X0042575D02*
D03*
D114*
X009005Y008475D02*
D03*
Y00047584D02*
D03*
X000515D02*
D03*
Y008475D02*
D03*
M02*
