G04*
G04 #@! TF.GenerationSoftware,Altium Limited,Altium Designer,23.0.1 (38)*
G04*
G04 Layer_Color=16711935*
%FSTAX44Y44*%
%MOMM*%
G71*
G04*
G04 #@! TF.SameCoordinates,F694FBC8-736E-493C-811D-9B4FADD6A984*
G04*
G04*
G04 #@! TF.FilePolarity,Negative*
G04*
G01*
G75*
%ADD83O,1.9000X2.3000*%
%ADD84C,2.3000*%
%ADD85O,2.3000X3.3000*%
%ADD86C,1.3000*%
%ADD87C,1.4000*%
%ADD88R,1.4000X1.4000*%
%ADD89R,4.0132X6.2992*%
%ADD90O,4.0132X6.2992*%
%ADD91C,2.9972*%
%ADD92C,1.7032*%
%ADD93R,1.7032X1.7032*%
%ADD94R,1.7272X2.2352*%
%ADD95O,1.7272X2.2352*%
%ADD96R,1.4000X1.4000*%
%ADD97C,6.2032*%
%ADD98C,0.8032*%
D83*
X008095Y007215D02*
D03*
X007841D02*
D03*
X007587D02*
D03*
X007333D02*
D03*
X007206Y006961D02*
D03*
X00746D02*
D03*
X007968D02*
D03*
X007714D02*
D03*
D84*
X0083125Y00834D02*
D03*
X0080585D02*
D03*
X0072415D02*
D03*
X0069875D02*
D03*
D85*
X0068755Y007545D02*
D03*
X0084245D02*
D03*
D86*
X0070785Y00785D02*
D03*
X0082215D02*
D03*
D87*
X00783Y00125D02*
D03*
Y001D02*
D03*
X004615Y0046175D02*
D03*
X004365D02*
D03*
X004115D02*
D03*
X003865D02*
D03*
X003615D02*
D03*
X0032725Y00357D02*
D03*
Y00332D02*
D03*
Y00307D02*
D03*
X0031675Y001385D02*
D03*
Y001635D02*
D03*
Y001885D02*
D03*
D88*
X00783Y00075D02*
D03*
X0032725Y00382D02*
D03*
X0031675Y001135D02*
D03*
D89*
X00222615Y008D02*
D03*
D90*
X00146415D02*
D03*
D91*
X002917Y0084275D02*
D03*
X003425D02*
D03*
X00568729Y00842D02*
D03*
X00619529D02*
D03*
X0050875D02*
D03*
X0045795D02*
D03*
D92*
X003856Y007956D02*
D03*
X00411Y00821D02*
D03*
X003856D02*
D03*
X002984Y00029D02*
D03*
X00273D02*
D03*
D93*
X00411Y007956D02*
D03*
X002476Y00029D02*
D03*
D94*
X0029875Y0058375D02*
D03*
D95*
X0032415D02*
D03*
X0037495D02*
D03*
X0042575D02*
D03*
D96*
X003365Y0046175D02*
D03*
D97*
X009005Y008475D02*
D03*
Y00047584D02*
D03*
X000515D02*
D03*
Y008475D02*
D03*
D98*
X009105Y00278001D02*
D03*
X00337Y0065525D02*
D03*
X00395Y006505D02*
D03*
X003595Y0071075D02*
D03*
X0067775Y00222195D02*
D03*
X00779788Y00224275D02*
D03*
X0064725Y0035979D02*
D03*
X0074575Y00464729D02*
D03*
X0072562Y00466806D02*
D03*
X00536698Y00204903D02*
D03*
X0064825Y00129D02*
D03*
X0075225Y0031375D02*
D03*
X00740767Y003225D02*
D03*
X0071575Y00331163D02*
D03*
X007224Y00324562D02*
D03*
X0074975Y005765D02*
D03*
X0073075Y003805D02*
D03*
X0056175Y006665D02*
D03*
X0045325Y00135D02*
D03*
X001945Y00109D02*
D03*
X0075725Y005925D02*
D03*
X0071Y0064D02*
D03*
X005565Y0059D02*
D03*
X0076125Y00352973D02*
D03*
X0077925Y00337D02*
D03*
X00694758Y00331163D02*
D03*
X00545Y00051885D02*
D03*
X00251Y00464D02*
D03*
X008Y00418635D02*
D03*
X00698051Y00378532D02*
D03*
X00752Y0033025D02*
D03*
X0081Y00292095D02*
D03*
X00774546D02*
D03*
X0052619Y00064674D02*
D03*
X00535455Y00127252D02*
D03*
X00567395Y00331515D02*
D03*
X0057502Y00264324D02*
D03*
X00557423Y00249223D02*
D03*
X00540515Y001618D02*
D03*
X00662832Y00404947D02*
D03*
X00647061Y00400274D02*
D03*
X00608717Y00405513D02*
D03*
X00912Y0032258D02*
D03*
X0034075Y00687682D02*
D03*
X00443807Y0026329D02*
D03*
X0047116Y0028488D02*
D03*
X0041785Y0021D02*
D03*
X0036975Y000696D02*
D03*
X0035837Y00045D02*
D03*
X00214433Y0007874D02*
D03*
X00188222Y00258D02*
D03*
X00192778Y003594D02*
D03*
X0051655Y0070025D02*
D03*
X0065407Y0054125D02*
D03*
X0051Y00337D02*
D03*
X001225Y00216D02*
D03*
X00681Y00114D02*
D03*
X0026Y004065D02*
D03*
X00152571Y00476D02*
D03*
X00739508Y00273D02*
D03*
X00702457Y00301291D02*
D03*
X00686515Y00299D02*
D03*
X00525257Y00193417D02*
D03*
X00507Y0041D02*
D03*
X00741599Y00410651D02*
D03*
X00836Y00571D02*
D03*
X00746Y00545D02*
D03*
X00699Y00538D02*
D03*
X0069575Y0047925D02*
D03*
X00798788Y00497079D02*
D03*
X00783267Y00487477D02*
D03*
X00700072Y00403812D02*
D03*
X00715036Y0046225D02*
D03*
X009125Y0037325D02*
D03*
X0090925Y00422D02*
D03*
X00629928Y00234442D02*
D03*
X006135Y0023525D02*
D03*
X00837124Y00233126D02*
D03*
X0054525Y0017875D02*
D03*
X00707698Y0018788D02*
D03*
X0053215Y00252222D02*
D03*
X00412Y003665D02*
D03*
X0043975Y0069625D02*
D03*
X0045675Y006745D02*
D03*
X0043975Y00679D02*
D03*
X00231Y0063125D02*
D03*
X00174886Y00582D02*
D03*
X0010825Y0061325D02*
D03*
X00175103Y0053585D02*
D03*
X0007Y0055725D02*
D03*
X00504Y0026775D02*
D03*
X003665Y0024775D02*
D03*
X0020684Y0017D02*
D03*
X0008275Y0047725D02*
D03*
X0005425Y0043725D02*
D03*
X0053125Y0048525D02*
D03*
X00034523Y00446D02*
D03*
X0064825Y00083381D02*
D03*
X00708298Y00025D02*
D03*
X00717844Y00118913D02*
D03*
X009105Y00232D02*
D03*
X0090075Y0048925D02*
D03*
X004055Y0057125D02*
D03*
X00697698Y00097075D02*
D03*
X0071832Y00140462D02*
D03*
X00398534Y00272542D02*
D03*
M02*
