G04*
G04 #@! TF.GenerationSoftware,Altium Limited,Altium Designer,23.0.1 (38)*
G04*
G04 Layer_Color=128*
%FSTAX44Y44*%
%MOMM*%
G71*
G04*
G04 #@! TF.SameCoordinates,F694FBC8-736E-493C-811D-9B4FADD6A984*
G04*
G04*
G04 #@! TF.FilePolarity,Positive*
G04*
G01*
G75*
%ADD18C,0.1270*%
D18*
X008045Y007215D02*
X008145D01*
X008095Y007165D02*
Y007265D01*
X007791Y007215D02*
X007891D01*
X007841Y007165D02*
Y007265D01*
X007537Y007215D02*
X007637D01*
X007587Y007165D02*
Y007265D01*
X007283Y007215D02*
X007383D01*
X007333Y007165D02*
Y007265D01*
X007156Y006961D02*
X007256D01*
X007206Y006911D02*
Y007011D01*
X00741Y006961D02*
X00751D01*
X00746Y006911D02*
Y007011D01*
X007918Y006961D02*
X008018D01*
X007968Y006911D02*
Y007011D01*
X007664Y006961D02*
X007764D01*
X007714Y006911D02*
Y007011D01*
X0082575Y00834D02*
X0083675D01*
X0083125Y008285D02*
Y008395D01*
X0080035Y00834D02*
X0081135D01*
X0080585Y008285D02*
Y008395D01*
X0071865Y00834D02*
X0072965D01*
X0072415Y008285D02*
Y008395D01*
X0069325Y00834D02*
X0070425D01*
X0069875Y008285D02*
Y008395D01*
X0068255Y007545D02*
X0069255D01*
X0068755Y007495D02*
Y007595D01*
X0083745Y007545D02*
X0084745D01*
X0084245Y007495D02*
Y007595D01*
X0069135Y00785D02*
X0072435D01*
X0070785Y007685D02*
Y008015D01*
X0080565Y00785D02*
X0083865D01*
X0082215Y007685D02*
Y008015D01*
X007785Y00125D02*
X007875D01*
X00783Y001205D02*
Y001295D01*
X007785Y001D02*
X007875D01*
X00783Y000955D02*
Y001045D01*
X007785Y00075D02*
X007875D01*
X00783Y000705D02*
Y000795D01*
X0021055Y008D02*
X0023468D01*
X00222615Y00787935D02*
Y00812065D01*
X0013435Y008D02*
X0015848D01*
X00146415Y00787935D02*
Y00812065D01*
X0028535Y0084275D02*
X0029805D01*
X002917Y008364D02*
Y008491D01*
X0033615Y0084275D02*
X0034885D01*
X003425Y008364D02*
Y008491D01*
X003806Y007956D02*
X003906D01*
X003856Y007906D02*
Y008006D01*
X00406Y007956D02*
X00416D01*
X00411Y007906D02*
Y008006D01*
X00406Y00821D02*
X00416D01*
X00411Y00816D02*
Y00826D01*
X003806Y00821D02*
X003906D01*
X003856Y00816D02*
Y00826D01*
X00562379Y00842D02*
X00575079D01*
X00568729Y0083565D02*
Y0084835D01*
X00613179Y00842D02*
X00625879D01*
X00619529Y0083565D02*
Y0084835D01*
X005024Y00842D02*
X005151D01*
X0050875Y0083565D02*
Y0084835D01*
X004516Y00842D02*
X004643D01*
X0045795Y0083565D02*
Y0084835D01*
X0029475Y0058375D02*
X0030275D01*
X0029875Y0057975D02*
Y0058775D01*
X0032015Y0058375D02*
X0032815D01*
X0032415Y0057975D02*
Y0058775D01*
X0037095Y0058375D02*
X0037895D01*
X0037495Y0057975D02*
Y0058775D01*
X0042175Y0058375D02*
X0042975D01*
X0042575Y0057975D02*
Y0058775D01*
X00457Y0046175D02*
X00466D01*
X004615Y0045725D02*
Y0046625D01*
X00432Y0046175D02*
X00441D01*
X004365Y0045725D02*
Y0046625D01*
X00407Y0046175D02*
X00416D01*
X004115Y0045725D02*
Y0046625D01*
X00382Y0046175D02*
X00391D01*
X003865Y0045725D02*
Y0046625D01*
X00357Y0046175D02*
X00366D01*
X003615Y0045725D02*
Y0046625D01*
X00332Y0046175D02*
X00341D01*
X003365Y0045725D02*
Y0046625D01*
X0032275Y00382D02*
X0033175D01*
X0032725Y003775D02*
Y003865D01*
X0032275Y00357D02*
X0033175D01*
X0032725Y003525D02*
Y003615D01*
X0032275Y00332D02*
X0033175D01*
X0032725Y003275D02*
Y003365D01*
X0032275Y00307D02*
X0033175D01*
X0032725Y003025D02*
Y003115D01*
X002939Y00029D02*
X003029D01*
X002984Y000245D02*
Y000335D01*
X002685Y00029D02*
X002775D01*
X00273Y000245D02*
Y000335D01*
X002431Y00029D02*
X002521D01*
X002476Y000245D02*
Y000335D01*
X0031225Y001135D02*
X0032125D01*
X0031675Y00109D02*
Y00118D01*
X0031225Y001385D02*
X0032125D01*
X0031675Y00134D02*
Y00143D01*
X0031225Y001635D02*
X0032125D01*
X0031675Y00159D02*
Y00168D01*
X0031225Y001885D02*
X0032125D01*
X0031675Y00184D02*
Y00193D01*
X008855Y008475D02*
X009155D01*
X009005Y008325D02*
Y008625D01*
X008855Y00047584D02*
X009155D01*
X009005Y00032584D02*
Y00062584D01*
X000365Y00047584D02*
X000665D01*
X000515Y00032584D02*
Y00062584D01*
X000365Y008475D02*
X000665D01*
X000515Y008325D02*
Y008625D01*
X00909Y00278001D02*
X00912D01*
X009105Y002765D02*
Y00279501D01*
X003355Y0065525D02*
X003385D01*
X00337Y0065375D02*
Y0065675D01*
X003935Y006505D02*
X003965D01*
X00395Y00649D02*
Y00652D01*
X00358Y0071075D02*
X00361D01*
X003595Y0070925D02*
Y0071225D01*
X0067625Y00222195D02*
X0067925D01*
X0067775Y00220695D02*
Y00223695D01*
X00778288Y00224275D02*
X00781288D01*
X00779788Y00222775D02*
Y00225775D01*
X0064575Y0035979D02*
X0064875D01*
X0064725Y0035829D02*
Y0036129D01*
X0074425Y00464729D02*
X0074725D01*
X0074575Y00463229D02*
Y00466229D01*
X0072412Y00466806D02*
X0072712D01*
X0072562Y00465306D02*
Y00468306D01*
X00535198Y00204903D02*
X00538198D01*
X00536698Y00203403D02*
Y00206403D01*
X0064675Y00129D02*
X0064975D01*
X0064825Y001275D02*
Y001305D01*
X0075075Y0031375D02*
X0075375D01*
X0075225Y0031225D02*
Y0031525D01*
X00739267Y003225D02*
X00742267D01*
X00740767Y00321D02*
Y00324D01*
X0071425Y00331163D02*
X0071725D01*
X0071575Y00329663D02*
Y00332663D01*
X007209Y00324562D02*
X007239D01*
X007224Y00323062D02*
Y00326062D01*
X0074825Y005765D02*
X0075125D01*
X0074975Y00575D02*
Y00578D01*
X0072925Y003805D02*
X0073225D01*
X0073075Y00379D02*
Y00382D01*
X0056025Y006665D02*
X0056325D01*
X0056175Y00665D02*
Y00668D01*
X0045175Y00135D02*
X0045475D01*
X0045325Y001335D02*
Y001365D01*
X00193Y00109D02*
X00196D01*
X001945Y001075D02*
Y001105D01*
X0075575Y005925D02*
X0075875D01*
X0075725Y00591D02*
Y00594D01*
X007085Y0064D02*
X007115D01*
X0071Y006385D02*
Y006415D01*
X00555Y0059D02*
X00558D01*
X005565Y005885D02*
Y005915D01*
X0075975Y00352973D02*
X0076275D01*
X0076125Y00351473D02*
Y00354473D01*
X0077775Y00337D02*
X0078075D01*
X0077925Y003355D02*
Y003385D01*
X00693258Y00331163D02*
X00696258D01*
X00694758Y00329663D02*
Y00332663D01*
X005435Y00051885D02*
X005465D01*
X00545Y00050385D02*
Y00053385D01*
X002495Y00464D02*
X002525D01*
X00251Y004625D02*
Y004655D01*
X007985Y00418635D02*
X008015D01*
X008Y00417135D02*
Y00420135D01*
X00696551Y00378532D02*
X00699551D01*
X00698051Y00377032D02*
Y00380032D01*
X007505Y0033025D02*
X007535D01*
X00752Y0032875D02*
Y0033175D01*
X008085Y00292095D02*
X008115D01*
X0081Y00290595D02*
Y00293595D01*
X00773046Y00292095D02*
X00776046D01*
X00774546Y00290595D02*
Y00293595D01*
X0052469Y00064674D02*
X0052769D01*
X0052619Y00063174D02*
Y00066174D01*
X00533955Y00127252D02*
X00536955D01*
X00535455Y00125752D02*
Y00128752D01*
X00565895Y00331515D02*
X00568895D01*
X00567395Y00330015D02*
Y00333015D01*
X0057352Y00264324D02*
X0057652D01*
X0057502Y00262824D02*
Y00265824D01*
X00555923Y00249223D02*
X00558923D01*
X00557423Y00247724D02*
Y00250723D01*
X00539015Y001618D02*
X00542015D01*
X00540515Y001603D02*
Y001633D01*
X00661332Y00404947D02*
X00664332D01*
X00662832Y00403447D02*
Y00406447D01*
X00645561Y00400274D02*
X00648561D01*
X00647061Y00398774D02*
Y00401774D01*
X00607217Y00405513D02*
X00610217D01*
X00608717Y00404013D02*
Y00407013D01*
X009105Y0032258D02*
X009135D01*
X00912Y0032108D02*
Y0032408D01*
X0033925Y00687682D02*
X0034225D01*
X0034075Y00686182D02*
Y00689182D01*
X00442307Y0026329D02*
X00445307D01*
X00443807Y0026179D02*
Y0026479D01*
X0046966Y0028488D02*
X0047266D01*
X0047116Y0028338D02*
Y0028638D01*
X0041635Y0021D02*
X0041935D01*
X0041785Y002085D02*
Y002115D01*
X0036825Y000696D02*
X0037125D01*
X0036975Y000681D02*
Y000711D01*
X0035687Y00045D02*
X0035987D01*
X0035837Y000435D02*
Y000465D01*
X00212934Y0007874D02*
X00215933D01*
X00214433Y0007724D02*
Y0008024D01*
X00186722Y00258D02*
X00189722D01*
X00188222Y002565D02*
Y002595D01*
X00191278Y003594D02*
X00194278D01*
X00192778Y003579D02*
Y003609D01*
X0051505Y0070025D02*
X0051805D01*
X0051655Y0069875D02*
Y0070175D01*
X0065257Y0054125D02*
X0065557D01*
X0065407Y0053975D02*
Y0054275D01*
X005085Y00337D02*
X005115D01*
X0051Y003355D02*
Y003385D01*
X00121Y00216D02*
X00124D01*
X001225Y002145D02*
Y002175D01*
X006795Y00114D02*
X006825D01*
X00681Y001125D02*
Y001155D01*
X002585Y004065D02*
X002615D01*
X0026Y00405D02*
Y00408D01*
X00151071Y00476D02*
X00154071D01*
X00152571Y004745D02*
Y004775D01*
X00738008Y00273D02*
X00741008D01*
X00739508Y002715D02*
Y002745D01*
X00700957Y00301291D02*
X00703957D01*
X00702457Y00299791D02*
Y00302791D01*
X00685015Y00299D02*
X00688015D01*
X00686515Y002975D02*
Y003005D01*
X00523757Y00193417D02*
X00526757D01*
X00525257Y00191917D02*
Y00194917D01*
X005055Y0041D02*
X005085D01*
X00507Y004085D02*
Y004115D01*
X00740099Y00410651D02*
X00743099D01*
X00741599Y00409151D02*
Y00412151D01*
X008345Y00571D02*
X008375D01*
X00836Y005695D02*
Y005725D01*
X007445Y00545D02*
X007475D01*
X00746Y005435D02*
Y005465D01*
X006975Y00538D02*
X007005D01*
X00699Y005365D02*
Y005395D01*
X0069425Y0047925D02*
X0069725D01*
X0069575Y0047775D02*
Y0048075D01*
X00797288Y00497079D02*
X00800288D01*
X00798788Y00495579D02*
Y00498579D01*
X00781767Y00487477D02*
X00784767D01*
X00783267Y00485977D02*
Y00488977D01*
X00698572Y00403812D02*
X00701572D01*
X00700072Y00402312D02*
Y00405312D01*
X00713536Y0046225D02*
X00716536D01*
X00715036Y0046075D02*
Y0046375D01*
X00911Y0037325D02*
X00914D01*
X009125Y0037175D02*
Y0037475D01*
X0090775Y00422D02*
X0091075D01*
X0090925Y004205D02*
Y004235D01*
X00628428Y00234442D02*
X00631428D01*
X00629928Y00232942D02*
Y00235942D01*
X00612Y0023525D02*
X00615D01*
X006135Y0023375D02*
Y0023675D01*
X00835624Y00233126D02*
X00838624D01*
X00837124Y00231626D02*
Y00234626D01*
X0054375Y0017875D02*
X0054675D01*
X0054525Y0017725D02*
Y0018025D01*
X00706198Y0018788D02*
X00709198D01*
X00707698Y0018638D02*
Y0018938D01*
X0053065Y00252222D02*
X0053365D01*
X0053215Y00250722D02*
Y00253722D01*
X004105Y003665D02*
X004135D01*
X00412Y00365D02*
Y00368D01*
X0043825Y0069625D02*
X0044125D01*
X0043975Y0069475D02*
Y0069775D01*
X0045525Y006745D02*
X0045825D01*
X0045675Y00673D02*
Y00676D01*
X0043825Y00679D02*
X0044125D01*
X0043975Y006775D02*
Y006805D01*
X002295Y0063125D02*
X002325D01*
X00231Y0062975D02*
Y0063275D01*
X00173386Y00582D02*
X00176386D01*
X00174886Y005805D02*
Y005835D01*
X0010675Y0061325D02*
X0010975D01*
X0010825Y0061175D02*
Y0061475D01*
X00173603Y0053585D02*
X00176603D01*
X00175103Y0053435D02*
Y0053735D01*
X000685Y0055725D02*
X000715D01*
X0007Y0055575D02*
Y0055875D01*
X005025Y0026775D02*
X005055D01*
X00504Y0026625D02*
Y0026925D01*
X00365Y0024775D02*
X00368D01*
X003665Y0024625D02*
Y0024925D01*
X0020534Y0017D02*
X0020834D01*
X0020684Y001685D02*
Y001715D01*
X0008125Y0047725D02*
X0008425D01*
X0008275Y0047575D02*
Y0047875D01*
X0005275Y0043725D02*
X0005575D01*
X0005425Y0043575D02*
Y0043875D01*
X0052975Y0048525D02*
X0053275D01*
X0053125Y0048375D02*
Y0048675D01*
X00033023Y00446D02*
X00036023D01*
X00034523Y004445D02*
Y004475D01*
X0064675Y00083381D02*
X0064975D01*
X0064825Y00081881D02*
Y00084881D01*
X00706798Y00025D02*
X00709798D01*
X00708298Y000235D02*
Y000265D01*
X00716344Y00118913D02*
X00719344D01*
X00717844Y00117413D02*
Y00120413D01*
X00909Y00232D02*
X00912D01*
X009105Y002305D02*
Y002335D01*
X0089925Y0048925D02*
X0090225D01*
X0090075Y0048775D02*
Y0049075D01*
X00404Y0057125D02*
X00407D01*
X004055Y0056975D02*
Y0057275D01*
X00696198Y00097075D02*
X00699198D01*
X00697698Y00095575D02*
Y00098575D01*
X0071682Y00140462D02*
X0071982D01*
X0071832Y00138962D02*
Y00141962D01*
X00397034Y00272542D02*
X00400034D01*
X00398534Y00271042D02*
Y00274042D01*
M02*
