%TF.GenerationSoftware,Altium Limited,Altium Designer,23.0.1 (38)*%
G04 Layer_Color=16711935*
%FSLAX45Y45*%
%MOMM*%
%TF.SameCoordinates,E0F799D9-27B4-45C1-BD14-B3F5E9977550*%
%TF.FilePolarity,Positive*%
%TF.FileFunction,Other,Top_3D_Body*%
%TF.Part,Single*%
G01*
G75*
%TA.AperFunction,NonConductor*%
%ADD64C,0.20000*%
%ADD68C,0.25400*%
%ADD69C,0.15000*%
%ADD73C,0.12700*%
%ADD119C,0.10000*%
%ADD120C,0.15240*%
%ADD121R,0.60523X2.79004*%
G36*
X6947584Y3529098D02*
Y3634930D01*
X6966601D01*
Y3529098D01*
X6947584D01*
D02*
G37*
G36*
X6997661Y3529083D02*
Y3634852D01*
X7016586D01*
Y3529083D01*
X6997661D01*
D02*
G37*
G36*
X7047678Y3529350D02*
Y3634835D01*
X7066853D01*
Y3529350D01*
X7047678D01*
D02*
G37*
G36*
X7097817Y3529175D02*
Y3634697D01*
X7116678D01*
Y3529175D01*
X7097817D01*
D02*
G37*
G36*
X7147676Y3529673D02*
Y3634837D01*
X7167176D01*
Y3529673D01*
X7147676D01*
D02*
G37*
G36*
X7197932Y3529368D02*
Y3634581D01*
X7216871D01*
Y3529368D01*
X7197932D01*
D02*
G37*
G36*
X6782072Y3693518D02*
Y3715442D01*
X6886021D01*
Y3693518D01*
X6782072D01*
D02*
G37*
G36*
X6782311Y3744520D02*
Y3765203D01*
X6887023D01*
Y3744520D01*
X6782311D01*
D02*
G37*
G36*
X6782048Y3794149D02*
Y3815466D01*
X6886652D01*
Y3794149D01*
X6782048D01*
D02*
G37*
G36*
X6782154Y3894610D02*
Y3915359D01*
X6887113D01*
Y3894610D01*
X6782154D01*
D02*
G37*
G36*
X6782251Y3844637D02*
Y3865262D01*
X6887140D01*
Y3844637D01*
X6782251D01*
D02*
G37*
G36*
X6781937Y3944507D02*
Y3965576D01*
X6887010D01*
Y3944507D01*
X6781937D01*
D02*
G37*
G36*
X6781439Y4044446D02*
Y4066075D01*
X6886949D01*
Y4044446D01*
X6781439D01*
D02*
G37*
G36*
X6781712Y3994463D02*
Y4015801D01*
X6886966D01*
Y3994463D01*
X6781712D01*
D02*
G37*
G36*
X6781324Y4094539D02*
Y4116189D01*
X6887042D01*
Y4094539D01*
X6781324D01*
D02*
G37*
G36*
X6781575Y4194827D02*
Y4215938D01*
X6887330D01*
Y4194827D01*
X6781575D01*
D02*
G37*
G36*
X6781814Y4144809D02*
Y4165700D01*
X6887312D01*
Y4144809D01*
X6781814D01*
D02*
G37*
G36*
X6782172Y4244969D02*
Y4265342D01*
X6887472D01*
Y4244969D01*
X6782172D01*
D02*
G37*
G36*
X6996895Y4325121D02*
Y4430618D01*
X7017624D01*
Y4325121D01*
X6996895D01*
D02*
G37*
G36*
X6946336Y4325133D02*
Y4431178D01*
X6967636D01*
Y4325133D01*
X6946336D01*
D02*
G37*
G36*
X7046093Y4325406D02*
Y4431420D01*
X7067909D01*
Y4325406D01*
X7046093D01*
D02*
G37*
G36*
X7146776Y4325388D02*
Y4430738D01*
X7167890D01*
Y4325388D01*
X7146776D01*
D02*
G37*
G36*
X7096312Y4325475D02*
Y4431201D01*
X7117978D01*
Y4325475D01*
X7096312D01*
D02*
G37*
G36*
X7196963Y4325376D02*
Y4430550D01*
X7217879D01*
Y4325376D01*
X7196963D01*
D02*
G37*
G36*
X7248020Y3529415D02*
Y3634493D01*
X7266918D01*
Y3529415D01*
X7248020D01*
D02*
G37*
G36*
X7298029Y3529542D02*
Y3634485D01*
X7317045D01*
Y3529542D01*
X7298029D01*
D02*
G37*
G36*
X7348004Y3529665D02*
Y3634509D01*
X7367168D01*
Y3529665D01*
X7348004D01*
D02*
G37*
G36*
X7398190Y3529651D02*
Y3634323D01*
X7417154D01*
Y3529651D01*
X7398190D01*
D02*
G37*
G36*
X7448216Y3529733D02*
Y3634297D01*
X7467236D01*
Y3529733D01*
X7448216D01*
D02*
G37*
G36*
X7498780Y3529661D02*
Y3633733D01*
X7517164D01*
Y3529661D01*
X7498780D01*
D02*
G37*
G36*
X7578134Y3695174D02*
Y3714379D01*
X7682677D01*
Y3695174D01*
X7578134D01*
D02*
G37*
G36*
X7578116Y3745239D02*
Y3764397D01*
X7682742D01*
Y3745239D01*
X7578116D01*
D02*
G37*
G36*
X7578162Y3795345D02*
Y3814352D01*
X7682848D01*
Y3795345D01*
X7578162D01*
D02*
G37*
G36*
X7578191Y3845473D02*
Y3864322D01*
X7682976D01*
Y3845473D01*
X7578191D01*
D02*
G37*
G36*
X7578537Y3895921D02*
Y3913977D01*
X7683424D01*
Y3895921D01*
X7578537D01*
D02*
G37*
G36*
X7578029Y3945606D02*
Y3964484D01*
X7683109D01*
Y3945606D01*
X7578029D01*
D02*
G37*
G36*
X7246911Y4325527D02*
Y4430602D01*
X7268030D01*
Y4325527D01*
X7246911D01*
D02*
G37*
G36*
X7296897Y4325688D02*
Y4430616D01*
X7318191D01*
Y4325688D01*
X7296897D01*
D02*
G37*
G36*
X7346878Y4325907D02*
Y4430635D01*
X7368410D01*
Y4325907D01*
X7346878D01*
D02*
G37*
G36*
X7447189Y4325793D02*
Y4430325D01*
X7468296D01*
Y4325793D01*
X7447189D01*
D02*
G37*
G36*
X7397006Y4325940D02*
Y4430508D01*
X7418443D01*
Y4325940D01*
X7397006D01*
D02*
G37*
G36*
X7497185Y4326104D02*
Y4430329D01*
X7518607D01*
Y4326104D01*
X7497185D01*
D02*
G37*
G36*
X7577873Y3995553D02*
Y4014640D01*
X7683056D01*
Y3995553D01*
X7577873D01*
D02*
G37*
G36*
X7577844Y4045669D02*
Y4064670D01*
X7683172D01*
Y4045669D01*
X7577844D01*
D02*
G37*
G36*
X7577705Y4095538D02*
Y4114808D01*
X7683041D01*
Y4095538D01*
X7577705D01*
D02*
G37*
G36*
X7577626Y4195716D02*
Y4214888D01*
X7683219D01*
Y4195716D01*
X7577626D01*
D02*
G37*
G36*
X7577758Y4145967D02*
Y4164755D01*
X7683470D01*
Y4145967D01*
X7577758D01*
D02*
G37*
G36*
X7577609Y4246201D02*
Y4264905D01*
X7683704D01*
Y4246201D01*
X7577609D01*
D02*
G37*
D64*
X7595001Y504998D02*
X8170001D01*
Y1494998D01*
X7595001D02*
X8170001D01*
X7595001Y504998D02*
Y1494998D01*
X3119999Y4382501D02*
Y4957501D01*
Y4382501D02*
X4860000D01*
Y4957501D01*
X3119999D02*
X4860000D01*
X2932501Y2824998D02*
X3507501D01*
Y4065001D01*
X2932501D02*
X3507501D01*
X2932501Y2824998D02*
Y4065001D01*
X3730076Y7555001D02*
Y7595001D01*
X3710076Y7575001D02*
X3750076D01*
X3620079Y7647503D02*
X3840079D01*
X3620079Y7502500D02*
X3840079D01*
X3620079D02*
Y7647503D01*
X3840079Y7502500D02*
Y7647503D01*
X5709996Y5993498D02*
X6410000D01*
X5709996D02*
Y6501498D01*
X6410000D01*
Y5993498D02*
Y6501498D01*
X2450003Y2676860D02*
Y2821864D01*
X2670002Y2676860D02*
Y2821864D01*
X2450003D02*
X2670002D01*
X2450003Y2676860D02*
X2670002D01*
X2540005Y2749362D02*
X2580005D01*
X2560005Y2729362D02*
Y2769362D01*
X1540342Y6570579D02*
Y6636619D01*
X1507322Y6603599D02*
X1573362D01*
X1281222Y6468979D02*
Y6738219D01*
X1786682D01*
Y6468979D02*
Y6738219D01*
X1281222Y6468979D02*
X1786682D01*
X318338D02*
X823798D01*
Y6738219D01*
X318338D02*
X823798D01*
X318338Y6468979D02*
Y6738219D01*
X544439Y6603599D02*
X610479D01*
X577459Y6570579D02*
Y6636619D01*
X367401Y916602D02*
Y1983402D01*
X1332601D01*
Y916602D02*
Y1983402D01*
X367401Y916602D02*
X1332601D01*
X2932501Y2129998D02*
X3507501D01*
X2932501Y890001D02*
Y2129998D01*
Y890001D02*
X3507501D01*
Y2129998D01*
X2444999Y2309398D02*
Y2454402D01*
X2664998Y2309398D02*
Y2454402D01*
X2444999D02*
X2664998D01*
X2444999Y2309398D02*
X2664998D01*
X2535001Y2381900D02*
X2575001D01*
X2555001Y2361900D02*
Y2401900D01*
D68*
X7492508Y4180005D02*
G03*
X7492508Y4180005I-60000J0D01*
G01*
D69*
X7057984Y695873D02*
Y772073D01*
X7019884Y733973D02*
X7096084D01*
X7120499Y634257D02*
Y834257D01*
X6995505Y634257D02*
X7120499D01*
X6995505D02*
Y834257D01*
X7120499D01*
X6656984Y700705D02*
Y776905D01*
X6618884Y738805D02*
X6695084D01*
X6594470Y638520D02*
Y838520D01*
X6719463D01*
Y638520D02*
Y838520D01*
X6594470Y638520D02*
X6719463D01*
X3233628Y7512486D02*
Y7637479D01*
X3033629D02*
X3233628D01*
X3033629Y7512486D02*
Y7637479D01*
Y7512486D02*
X3233628D01*
X3133344Y7536900D02*
Y7613100D01*
X3095244Y7575000D02*
X3171444D01*
X3666581Y6876821D02*
X3742781D01*
X3704681Y6838721D02*
Y6914921D01*
X3604397Y6939336D02*
X3804397D01*
Y6814342D02*
Y6939336D01*
X3604397Y6814342D02*
X3804397D01*
X3604397D02*
Y6939336D01*
X3233628Y6814307D02*
Y6939300D01*
X3033629D02*
X3233628D01*
X3033629Y6814307D02*
Y6939300D01*
Y6814307D02*
X3233628D01*
X3133344Y6838721D02*
Y6914921D01*
X3095244Y6876821D02*
X3171444D01*
X1899717Y2319421D02*
Y2444415D01*
Y2319421D02*
X2099716D01*
Y2444415D01*
X1899717D02*
X2099716D01*
X2000001Y2343800D02*
Y2420000D01*
X1961901Y2381900D02*
X2038101D01*
X1961901Y2751902D02*
X2038101D01*
X2000001Y2713802D02*
Y2790002D01*
X1899717Y2814417D02*
X2099716D01*
Y2689423D02*
Y2814417D01*
X1899717Y2689423D02*
X2099716D01*
X1899717D02*
Y2814417D01*
X2187174Y3267522D02*
Y3392515D01*
Y3267522D02*
X2387173D01*
Y3392515D01*
X2187174D02*
X2387173D01*
X2287458Y3291901D02*
Y3368101D01*
X2249358Y3330001D02*
X2325558D01*
X2390282Y3637483D02*
Y3762477D01*
X2190283D02*
X2390282D01*
X2190283Y3637483D02*
Y3762477D01*
Y3637483D02*
X2390282D01*
X2289998Y3661898D02*
Y3738098D01*
X2251898Y3699998D02*
X2328098D01*
X2251898Y4080000D02*
X2328098D01*
X2289998Y4041900D02*
Y4118100D01*
X2190283Y4017486D02*
X2390282D01*
X2190283D02*
Y4142479D01*
X2390282D01*
Y4017486D02*
Y4142479D01*
X1280282Y4870983D02*
Y4995977D01*
X1080282D02*
X1280282D01*
X1080282Y4870983D02*
Y4995977D01*
Y4870983D02*
X1280282D01*
X1179998Y4895398D02*
Y4971598D01*
X1141898Y4933498D02*
X1218098D01*
X1079713Y4494423D02*
Y4619417D01*
Y4494423D02*
X1279713D01*
Y4619417D01*
X1079713D02*
X1279713D01*
X1179998Y4518802D02*
Y4595002D01*
X1141898Y4556902D02*
X1218098D01*
X2123150Y5320401D02*
Y5396601D01*
X2085050Y5358501D02*
X2161250D01*
X2280691Y5228499D02*
Y5488503D01*
X1970689D02*
X2280691D01*
X1970689Y5228499D02*
Y5488503D01*
Y5228499D02*
X2280691D01*
X1971970Y5728498D02*
X2281972D01*
X1971970D02*
Y5988502D01*
X2281972D01*
Y5728498D02*
Y5988502D01*
X2086331Y5858500D02*
X2162531D01*
X2124431Y5820400D02*
Y5896600D01*
X2278776Y6448598D02*
X2588778D01*
X2278776D02*
Y6708602D01*
X2588778D01*
Y6448598D02*
Y6708602D01*
X2393137Y6578600D02*
X2469337D01*
X2431237Y6540500D02*
Y6616700D01*
X2408723Y7161901D02*
Y7238101D01*
X2370623Y7200001D02*
X2446823D01*
X2566264Y7069999D02*
Y7330003D01*
X2256262D02*
X2566264D01*
X2256262Y7069999D02*
Y7330003D01*
Y7069999D02*
X2566264D01*
X7229993Y2378476D02*
Y2628478D01*
Y2378476D02*
X7549993D01*
Y2628478D01*
X7229993D02*
X7549993D01*
X7389993Y2453477D02*
Y2553477D01*
X7339995Y2503475D02*
X7439995D01*
X6109513Y2521001D02*
Y2645994D01*
Y2521001D02*
X6309512D01*
Y2645994D01*
X6109513D02*
X6309512D01*
X6209797Y2545380D02*
Y2621580D01*
X6171697Y2583480D02*
X6247897D01*
X5611815Y2900070D02*
X5688015D01*
X5649915Y2861970D02*
Y2938170D01*
X5550200Y2837556D02*
X5750199D01*
X5550200D02*
Y2962549D01*
X5750199D01*
Y2837556D02*
Y2962549D01*
D73*
X7587498Y3625002D02*
Y4335003D01*
X6877497D02*
X7587498D01*
X6877497Y3625002D02*
Y4335003D01*
Y3625002D02*
X7587498D01*
X1752001Y7029003D02*
Y7370999D01*
X1278001D02*
X1752001D01*
X1278001Y7029003D02*
Y7370999D01*
Y7029003D02*
X1752001D01*
D119*
X345553Y5626502D02*
X505552D01*
Y5546502D02*
Y5626502D01*
X345553Y5546502D02*
X505552D01*
X345553D02*
Y5626502D01*
X400153Y5586497D02*
X450953D01*
X425553Y5561097D02*
Y5611897D01*
X6215162Y593405D02*
Y644205D01*
X6189762Y618805D02*
X6240562D01*
X6135167Y578810D02*
Y658810D01*
Y578810D02*
X6295166D01*
Y658810D01*
X6135167D02*
X6295166D01*
X6830004Y224602D02*
Y275402D01*
X6804604Y250002D02*
X6855404D01*
X6909999Y210002D02*
Y290002D01*
X6749999D02*
X6909999D01*
X6749999Y210002D02*
Y290002D01*
Y210002D02*
X6909999D01*
X6215243Y1041502D02*
Y1092302D01*
X6189843Y1066902D02*
X6240643D01*
X6135248Y1026907D02*
Y1106907D01*
Y1026907D02*
X6295248D01*
Y1106907D01*
X6135248D02*
X6295248D01*
X6951584Y1393967D02*
X7002384D01*
X6976984Y1368567D02*
Y1419367D01*
X6936979Y1313972D02*
X7016979D01*
Y1473972D01*
X6936979D02*
X7016979D01*
X6936979Y1313972D02*
Y1473972D01*
X6676678Y1394047D02*
X6727478D01*
X6702078Y1368647D02*
Y1419447D01*
X6662078Y1314052D02*
X6742078D01*
Y1474052D01*
X6662078D02*
X6742078D01*
X6662078Y1314052D02*
Y1474052D01*
X6215004Y1443406D02*
Y1494206D01*
X6189604Y1468806D02*
X6240404D01*
X6294999Y1428801D02*
Y1508801D01*
X6134999D02*
X6294999D01*
X6134999Y1428801D02*
Y1508801D01*
Y1428801D02*
X6294999D01*
X8840003Y2294606D02*
Y2345406D01*
X8814603Y2320006D02*
X8865403D01*
X8920002Y2280001D02*
Y2360000D01*
X8759998D02*
X8920002D01*
X8759998Y2280001D02*
Y2360000D01*
Y2280001D02*
X8920002D01*
X8840084Y2524603D02*
Y2575403D01*
X8814684Y2550003D02*
X8865484D01*
X8760089Y2510008D02*
Y2590008D01*
Y2510008D02*
X8920089D01*
Y2590008D01*
X8760089D02*
X8920089D01*
X8845006Y2754605D02*
Y2805405D01*
X8819606Y2780005D02*
X8870406D01*
X8765007Y2740010D02*
Y2820010D01*
Y2740010D02*
X8925006D01*
Y2820010D01*
X8765007D02*
X8925006D01*
X8839926Y2984602D02*
Y3035402D01*
X8814526Y3010002D02*
X8865326D01*
X8919921Y2970002D02*
Y3050002D01*
X8759922D02*
X8919921D01*
X8759922Y2970002D02*
Y3050002D01*
Y2970002D02*
X8919921D01*
X8840084Y3224606D02*
Y3275406D01*
X8814684Y3250006D02*
X8865484D01*
X8760089Y3210006D02*
Y3290006D01*
Y3210006D02*
X8920089D01*
Y3290006D01*
X8760089D02*
X8920089D01*
X8840003Y3465556D02*
Y3516356D01*
X8814603Y3490956D02*
X8865403D01*
X8920002Y3450956D02*
Y3530956D01*
X8759998D02*
X8920002D01*
X8759998Y3450956D02*
Y3530956D01*
Y3450956D02*
X8920002D01*
X8840084Y3714176D02*
Y3764976D01*
X8814684Y3739576D02*
X8865484D01*
X8760089Y3699581D02*
Y3779581D01*
Y3699581D02*
X8920089D01*
Y3779581D01*
X8760089D02*
X8920089D01*
X8840003Y4675454D02*
Y4726254D01*
X8814603Y4700854D02*
X8865403D01*
X8920002Y4660849D02*
Y4740849D01*
X8759998D02*
X8920002D01*
X8759998Y4660849D02*
Y4740849D01*
Y4660849D02*
X8920002D01*
X8840084Y4435028D02*
Y4485828D01*
X8814684Y4460428D02*
X8865484D01*
X8920079Y4420428D02*
Y4500428D01*
X8760079D02*
X8920079D01*
X8760079Y4420428D02*
Y4500428D01*
Y4420428D02*
X8920079D01*
X8840003Y4194602D02*
Y4245402D01*
X8814603Y4220002D02*
X8865403D01*
X8920002Y4180002D02*
Y4260002D01*
X8759998D02*
X8920002D01*
X8759998Y4180002D02*
Y4260002D01*
Y4180002D02*
X8920002D01*
X8840003Y3954602D02*
Y4005402D01*
X8814603Y3980002D02*
X8865403D01*
X8920002Y3940002D02*
Y4020002D01*
X8759998D02*
X8920002D01*
X8759998Y3940002D02*
Y4020002D01*
Y3940002D02*
X8920002D01*
X3766999Y8919001D02*
X4198997D01*
Y7842005D02*
Y8919001D01*
X3766999Y7842005D02*
Y8919001D01*
Y7842005D02*
X4198997D01*
X5270002Y7017325D02*
Y7639325D01*
X4605000Y7017325D02*
Y7639325D01*
X5270002D01*
X4605000Y7017325D02*
X5270002D01*
X5787573Y6944995D02*
X6452575D01*
X5787573Y7566995D02*
X6452575D01*
X5787573Y6944995D02*
Y7566995D01*
X6452575Y6944995D02*
Y7566995D01*
X3133263Y7224598D02*
Y7275398D01*
X3107863Y7249998D02*
X3158663D01*
X3213257Y7209998D02*
Y7289998D01*
X3053258D02*
X3213257D01*
X3053258Y7209998D02*
Y7289998D01*
Y7209998D02*
X3213257D01*
X3730081Y7224598D02*
Y7275398D01*
X3704681Y7249998D02*
X3755481D01*
X3650087Y7210003D02*
Y7290003D01*
Y7210003D02*
X3810086D01*
Y7290003D01*
X3650087D02*
X3810086D01*
X1751112Y4531502D02*
Y4582302D01*
X1725712Y4556902D02*
X1776512D01*
X1671117Y4516902D02*
Y4596902D01*
Y4516902D02*
X1831116D01*
Y4596902D01*
X1671117D02*
X1831116D01*
X1725630Y4908098D02*
Y4958898D01*
X1700230Y4933498D02*
X1751030D01*
X1805630Y4893498D02*
Y4973498D01*
X1645625D02*
X1805630D01*
X1645625Y4893498D02*
Y4973498D01*
Y4893498D02*
X1805630D01*
X2209033Y4893417D02*
X2259833D01*
X2234433Y4868017D02*
Y4918817D01*
X2194438Y4973411D02*
X2274438D01*
X2194438Y4813412D02*
Y4973411D01*
Y4813412D02*
X2274438D01*
Y4973411D01*
X1500795Y5933100D02*
Y5983900D01*
X1475395Y5958500D02*
X1526195D01*
X1420795Y5918505D02*
Y5998505D01*
Y5918505D02*
X1580794D01*
Y5998505D01*
X1420795D02*
X1580794D01*
X995131Y5933100D02*
Y5983900D01*
X969731Y5958500D02*
X1020531D01*
X915132Y5918505D02*
Y5998505D01*
Y5918505D02*
X1075136D01*
Y5998505D01*
X915132D02*
X1075136D01*
X724997Y6995500D02*
Y7274504D01*
X274996Y6995500D02*
Y7274504D01*
Y6995500D02*
X724997D01*
X274996Y7274504D02*
X724997D01*
X425390Y5833100D02*
Y5883900D01*
X399990Y5858500D02*
X450790D01*
X505385Y5818495D02*
Y5898495D01*
X345385D02*
X505385D01*
X345385Y5818495D02*
Y5898495D01*
Y5818495D02*
X505385D01*
X8224601Y2495321D02*
X8275401D01*
X8250001Y2469921D02*
Y2520721D01*
X8210006Y2575316D02*
X8290006D01*
X8210006Y2415316D02*
Y2575316D01*
Y2415316D02*
X8290006D01*
Y2575316D01*
X7974599Y2495403D02*
X8025399D01*
X7999999Y2470003D02*
Y2520803D01*
X7960004Y2575397D02*
X8040004D01*
X7960004Y2415398D02*
Y2575397D01*
Y2415398D02*
X8040004D01*
Y2575397D01*
X7730851Y2415484D02*
Y2575484D01*
X7810851D01*
Y2415484D02*
Y2575484D01*
X7730851Y2415484D02*
X7810851D01*
X7770856Y2470079D02*
Y2520879D01*
X7745456Y2495479D02*
X7796256D01*
X6999168Y2498481D02*
X7049968D01*
X7024568Y2473081D02*
Y2523881D01*
X6984573Y2578476D02*
X7064573D01*
X6984573Y2418476D02*
Y2578476D01*
Y2418476D02*
X7064573D01*
Y2578476D01*
X6758747Y2498639D02*
X6809547D01*
X6784147Y2473239D02*
Y2524039D01*
X6744142Y2418644D02*
X6824142D01*
Y2578644D01*
X6744142D02*
X6824142D01*
X6744142Y2418644D02*
Y2578644D01*
X6518321Y2498557D02*
X6569121D01*
X6543721Y2473157D02*
Y2523957D01*
X6503716Y2418563D02*
X6583716D01*
Y2578562D01*
X6503716D02*
X6583716D01*
X6503716Y2418563D02*
Y2578562D01*
X5649996Y4454596D02*
Y4505396D01*
X5624596Y4479996D02*
X5675396D01*
X5570002Y4440001D02*
Y4520001D01*
Y4440001D02*
X5730001D01*
Y4520001D01*
X5570002D02*
X5730001D01*
X5649996Y4194597D02*
Y4245397D01*
X5624596Y4219997D02*
X5675396D01*
X5570002Y4180002D02*
Y4260002D01*
Y4180002D02*
X5730001D01*
Y4260002D01*
X5570002D02*
X5730001D01*
X5649996Y3934597D02*
Y3985397D01*
X5624596Y3959997D02*
X5675396D01*
X5570002Y3920002D02*
Y4000002D01*
Y3920002D02*
X5730001D01*
Y4000002D01*
X5570002D02*
X5730001D01*
X9042126Y5069835D02*
Y5229835D01*
X8962126Y5069835D02*
X9042126D01*
X8962126D02*
Y5229835D01*
X9042126D01*
X9002126Y5124440D02*
Y5175240D01*
X8976726Y5149840D02*
X9027526D01*
X8739998Y5150002D02*
X8790798D01*
X8765398Y5124602D02*
Y5175402D01*
X8725398Y5070003D02*
X8805398D01*
Y5230002D01*
X8725398D02*
X8805398D01*
X8725398Y5070003D02*
Y5230002D01*
X8503275Y5149840D02*
X8554075D01*
X8528675Y5124440D02*
Y5175240D01*
X8488680Y5229835D02*
X8568680D01*
X8488680Y5069835D02*
Y5229835D01*
Y5069835D02*
X8568680D01*
Y5229835D01*
X8266552Y5149840D02*
X8317352D01*
X8291952Y5124440D02*
Y5175240D01*
X8251957Y5229835D02*
X8331957D01*
X8251957Y5069835D02*
Y5229835D01*
Y5069835D02*
X8331957D01*
Y5229835D01*
X8029829Y5150002D02*
X8080629D01*
X8055229Y5124602D02*
Y5175402D01*
X8015224Y5070003D02*
X8095224D01*
Y5230002D01*
X8015224D02*
X8095224D01*
X8015224Y5070003D02*
Y5230002D01*
X7793106Y5149840D02*
X7843906D01*
X7818506Y5124440D02*
Y5175240D01*
X7778511Y5229835D02*
X7858511D01*
X7778511Y5069835D02*
Y5229835D01*
Y5069835D02*
X7858511D01*
Y5229835D01*
X7556383Y5150002D02*
X7607183D01*
X7581783Y5124602D02*
Y5175402D01*
X7541778Y5070003D02*
X7621778D01*
Y5230002D01*
X7541778D02*
X7621778D01*
X7541778Y5070003D02*
Y5230002D01*
X7319660Y5149840D02*
X7370460D01*
X7345060Y5124440D02*
Y5175240D01*
X7305065Y5229835D02*
X7385065D01*
X7305065Y5069835D02*
Y5229835D01*
Y5069835D02*
X7385065D01*
Y5229835D01*
X7082937Y5150002D02*
X7133737D01*
X7108337Y5124602D02*
Y5175402D01*
X7068332Y5070003D02*
X7148332D01*
Y5230002D01*
X7068332D02*
X7148332D01*
X7068332Y5070003D02*
Y5230002D01*
X6846214Y5149840D02*
X6897014D01*
X6871614Y5124440D02*
Y5175240D01*
X6831614Y5229835D02*
X6911614D01*
X6831614Y5069835D02*
Y5229835D01*
Y5069835D02*
X6911614D01*
Y5229835D01*
X6609491Y5150002D02*
X6660291D01*
X6634891Y5124602D02*
Y5175402D01*
X6594886Y5070003D02*
X6674886D01*
Y5230002D01*
X6594886D02*
X6674886D01*
X6594886Y5070003D02*
Y5230002D01*
X6372763Y5149840D02*
X6423563D01*
X6398163Y5124440D02*
Y5175240D01*
X6358169Y5229835D02*
X6438168D01*
X6358169Y5069835D02*
Y5229835D01*
Y5069835D02*
X6438168D01*
Y5229835D01*
X6136041Y5149840D02*
X6186841D01*
X6161441Y5124440D02*
Y5175240D01*
X6121446Y5229835D02*
X6201446D01*
X6121446Y5069835D02*
Y5229835D01*
Y5069835D02*
X6201446D01*
Y5229835D01*
X5899318Y5150002D02*
X5950118D01*
X5924718Y5124602D02*
Y5175402D01*
X5884713Y5070003D02*
X5964712D01*
Y5230002D01*
X5884713D02*
X5964712D01*
X5884713Y5070003D02*
Y5230002D01*
X5652099Y5152420D02*
X5702899D01*
X5677499Y5127020D02*
Y5177820D01*
X5637505Y5232415D02*
X5717504D01*
X5637505Y5072416D02*
Y5232415D01*
Y5072416D02*
X5717504D01*
Y5232415D01*
X5425872Y5149840D02*
X5476672D01*
X5451272Y5124440D02*
Y5175240D01*
X5411277Y5229835D02*
X5491277D01*
X5411277Y5069835D02*
Y5229835D01*
Y5069835D02*
X5491277D01*
Y5229835D01*
X4412666Y2823403D02*
Y2874203D01*
X4387266Y2848803D02*
X4438066D01*
X4332666Y2808808D02*
Y2888808D01*
Y2808808D02*
X4492671D01*
Y2888808D01*
X4332666D02*
X4492671D01*
X4960005Y2823403D02*
Y2874203D01*
X4934605Y2848803D02*
X4985405D01*
X5040000Y2808798D02*
Y2888798D01*
X4880000D02*
X5040000D01*
X4880000Y2808798D02*
Y2888798D01*
Y2808798D02*
X5040000D01*
X5569834Y3658992D02*
X5729834D01*
X5569834D02*
Y3738992D01*
X5729834D01*
Y3658992D02*
Y3738992D01*
X5624434Y3698997D02*
X5675234D01*
X5649834Y3673597D02*
Y3724397D01*
X5649996Y3153598D02*
Y3204398D01*
X5624596Y3178998D02*
X5675396D01*
X5570002Y3138998D02*
Y3218998D01*
Y3138998D02*
X5730001D01*
Y3218998D01*
X5570002D02*
X5730001D01*
X5649834Y3413171D02*
Y3463971D01*
X5624434Y3438571D02*
X5675234D01*
X5729834Y3398566D02*
Y3478566D01*
X5569834D02*
X5729834D01*
X5569834Y3398566D02*
Y3478566D01*
Y3398566D02*
X5729834D01*
X424296Y5217604D02*
Y5268404D01*
X398896Y5243004D02*
X449696D01*
X344301Y5203004D02*
Y5283004D01*
Y5203004D02*
X504301D01*
Y5283004D01*
X344301D02*
X504301D01*
X7395165Y2864601D02*
Y2915401D01*
X7369765Y2890001D02*
X7420565D01*
X7315170Y2850006D02*
Y2930006D01*
Y2850006D02*
X7475169D01*
Y2930006D01*
X7315170D02*
X7475169D01*
D120*
X2761442Y5932581D02*
X4721443D01*
Y5232578D02*
Y5932581D01*
X2761442Y5232578D02*
X4721443D01*
X2761442D02*
Y5932581D01*
D121*
X694736Y7135002D02*
D03*
%TF.MD5,a383e5ad40d893f64425264fccab7a1d*%
M02*
