%TF.GenerationSoftware,Altium Limited,Altium Designer,23.0.1 (38)*%
G04 Layer_Color=255*
%FSLAX45Y45*%
%MOMM*%
%TF.SameCoordinates,E0F799D9-27B4-45C1-BD14-B3F5E9977550*%
%TF.FilePolarity,Positive*%
%TF.FileFunction,Pads,Bot*%
%TF.Part,Single*%
G01*
G75*
%TA.AperFunction,ComponentPad*%
%ADD48O,1.60000X2.00000*%
%ADD49C,2.00000*%
%ADD50O,2.00000X3.00000*%
%ADD51C,1.00000*%
%ADD52C,1.40000*%
%ADD53R,1.40000X1.40000*%
%ADD54R,3.81000X6.09600*%
%ADD55O,3.81000X6.09600*%
%ADD56C,2.79400*%
%ADD57C,1.50000*%
%ADD58R,1.50000X1.50000*%
%ADD59R,1.52400X2.03200*%
%ADD60O,1.52400X2.03200*%
%ADD61R,1.40000X1.40000*%
%TA.AperFunction,ViaPad*%
%ADD62C,6.00000*%
D48*
X8095000Y7214998D02*
D03*
X7841000D02*
D03*
X7587000D02*
D03*
X7333000D02*
D03*
X7206000Y6960998D02*
D03*
X7460000D02*
D03*
X7968000D02*
D03*
X7714000D02*
D03*
D49*
X8312500Y8340000D02*
D03*
X8058500D02*
D03*
X7241504D02*
D03*
X6987504D02*
D03*
D50*
X6875500Y7545000D02*
D03*
X8424504D02*
D03*
D51*
X7078502Y7849998D02*
D03*
X8221502D02*
D03*
D52*
X7830002Y1250000D02*
D03*
Y999998D02*
D03*
X4615002Y4617502D02*
D03*
X4365000D02*
D03*
X4114998D02*
D03*
X3865001D02*
D03*
X3614999D02*
D03*
X3272500Y3570000D02*
D03*
Y3319998D02*
D03*
Y3070001D02*
D03*
X3167497Y1385001D02*
D03*
Y1634998D02*
D03*
Y1885000D02*
D03*
D53*
X7830002Y750001D02*
D03*
X3272500Y3820003D02*
D03*
X3167497Y1134999D02*
D03*
D54*
X2226153Y7999999D02*
D03*
D55*
X1464153D02*
D03*
D56*
X2917002Y8427502D02*
D03*
X3425002D02*
D03*
X5687289Y8419998D02*
D03*
X6195289D02*
D03*
X5087498D02*
D03*
X4579498D02*
D03*
D57*
X3856000Y7956000D02*
D03*
X4110000Y8210000D02*
D03*
X3856000D02*
D03*
X2984002Y290002D02*
D03*
X2730002D02*
D03*
D58*
X4110000Y7956000D02*
D03*
X2476002Y290002D02*
D03*
D59*
X2987502Y5837499D02*
D03*
D60*
X3241502D02*
D03*
X3749502D02*
D03*
X4257502D02*
D03*
D61*
X3365002Y4617502D02*
D03*
D62*
X9005001Y8475000D02*
D03*
Y475839D02*
D03*
X515000D02*
D03*
Y8475000D02*
D03*
%TF.MD5,2eca5f22175deeaf0d70c9f26cacc7e7*%
M02*
